G04 #@! TF.GenerationSoftware,KiCad,Pcbnew,(5.1.10)-1*
G04 #@! TF.CreationDate,2022-07-24T00:59:47-05:00*
G04 #@! TF.ProjectId,MuscleRoller,4d757363-6c65-4526-9f6c-6c65722e6b69,rev?*
G04 #@! TF.SameCoordinates,Original*
G04 #@! TF.FileFunction,Legend,Top*
G04 #@! TF.FilePolarity,Positive*
%FSLAX46Y46*%
G04 Gerber Fmt 4.6, Leading zero omitted, Abs format (unit mm)*
G04 Created by KiCad (PCBNEW (5.1.10)-1) date 2022-07-24 00:59:47*
%MOMM*%
%LPD*%
G01*
G04 APERTURE LIST*
%ADD10C,0.150000*%
%ADD11C,0.120000*%
%ADD12R,1.050000X1.050000*%
%ADD13R,1.500000X0.900000*%
%ADD14R,0.900000X1.500000*%
%ADD15R,2.000000X1.500000*%
%ADD16R,2.000000X3.800000*%
%ADD17R,1.600000X1.400000*%
%ADD18O,1.700000X1.950000*%
%ADD19C,2.600000*%
%ADD20R,2.600000X2.600000*%
%ADD21O,1.950000X1.700000*%
%ADD22O,1.700000X1.700000*%
%ADD23R,1.700000X1.700000*%
%ADD24O,1.600000X1.600000*%
%ADD25R,1.600000X1.600000*%
G04 APERTURE END LIST*
D10*
X131809523Y-147904761D02*
X131952380Y-147952380D01*
X132190476Y-147952380D01*
X132285714Y-147904761D01*
X132333333Y-147857142D01*
X132380952Y-147761904D01*
X132380952Y-147666666D01*
X132333333Y-147571428D01*
X132285714Y-147523809D01*
X132190476Y-147476190D01*
X132000000Y-147428571D01*
X131904761Y-147380952D01*
X131857142Y-147333333D01*
X131809523Y-147238095D01*
X131809523Y-147142857D01*
X131857142Y-147047619D01*
X131904761Y-147000000D01*
X132000000Y-146952380D01*
X132238095Y-146952380D01*
X132380952Y-147000000D01*
X132761904Y-147666666D02*
X133238095Y-147666666D01*
X132666666Y-147952380D02*
X133000000Y-146952380D01*
X133333333Y-147952380D01*
X134190476Y-147000000D02*
X134095238Y-146952380D01*
X133952380Y-146952380D01*
X133809523Y-147000000D01*
X133714285Y-147095238D01*
X133666666Y-147190476D01*
X133619047Y-147380952D01*
X133619047Y-147523809D01*
X133666666Y-147714285D01*
X133714285Y-147809523D01*
X133809523Y-147904761D01*
X133952380Y-147952380D01*
X134047619Y-147952380D01*
X134190476Y-147904761D01*
X134238095Y-147857142D01*
X134238095Y-147523809D01*
X134047619Y-147523809D01*
X134666666Y-147428571D02*
X135000000Y-147428571D01*
X135142857Y-147952380D02*
X134666666Y-147952380D01*
X134666666Y-146952380D01*
X135142857Y-146952380D01*
X136904761Y-147952380D02*
X136571428Y-147476190D01*
X136333333Y-147952380D02*
X136333333Y-146952380D01*
X136714285Y-146952380D01*
X136809523Y-147000000D01*
X136857142Y-147047619D01*
X136904761Y-147142857D01*
X136904761Y-147285714D01*
X136857142Y-147380952D01*
X136809523Y-147428571D01*
X136714285Y-147476190D01*
X136333333Y-147476190D01*
X137523809Y-146952380D02*
X137714285Y-146952380D01*
X137809523Y-147000000D01*
X137904761Y-147095238D01*
X137952380Y-147285714D01*
X137952380Y-147619047D01*
X137904761Y-147809523D01*
X137809523Y-147904761D01*
X137714285Y-147952380D01*
X137523809Y-147952380D01*
X137428571Y-147904761D01*
X137333333Y-147809523D01*
X137285714Y-147619047D01*
X137285714Y-147285714D01*
X137333333Y-147095238D01*
X137428571Y-147000000D01*
X137523809Y-146952380D01*
X138714285Y-147428571D02*
X138857142Y-147476190D01*
X138904761Y-147523809D01*
X138952380Y-147619047D01*
X138952380Y-147761904D01*
X138904761Y-147857142D01*
X138857142Y-147904761D01*
X138761904Y-147952380D01*
X138380952Y-147952380D01*
X138380952Y-146952380D01*
X138714285Y-146952380D01*
X138809523Y-147000000D01*
X138857142Y-147047619D01*
X138904761Y-147142857D01*
X138904761Y-147238095D01*
X138857142Y-147333333D01*
X138809523Y-147380952D01*
X138714285Y-147428571D01*
X138380952Y-147428571D01*
X139571428Y-146952380D02*
X139761904Y-146952380D01*
X139857142Y-147000000D01*
X139952380Y-147095238D01*
X140000000Y-147285714D01*
X140000000Y-147619047D01*
X139952380Y-147809523D01*
X139857142Y-147904761D01*
X139761904Y-147952380D01*
X139571428Y-147952380D01*
X139476190Y-147904761D01*
X139380952Y-147809523D01*
X139333333Y-147619047D01*
X139333333Y-147285714D01*
X139380952Y-147095238D01*
X139476190Y-147000000D01*
X139571428Y-146952380D01*
X140285714Y-146952380D02*
X140857142Y-146952380D01*
X140571428Y-147952380D02*
X140571428Y-146952380D01*
X141142857Y-147904761D02*
X141285714Y-147952380D01*
X141523809Y-147952380D01*
X141619047Y-147904761D01*
X141666666Y-147857142D01*
X141714285Y-147761904D01*
X141714285Y-147666666D01*
X141666666Y-147571428D01*
X141619047Y-147523809D01*
X141523809Y-147476190D01*
X141333333Y-147428571D01*
X141238095Y-147380952D01*
X141190476Y-147333333D01*
X141142857Y-147238095D01*
X141142857Y-147142857D01*
X141190476Y-147047619D01*
X141238095Y-147000000D01*
X141333333Y-146952380D01*
X141571428Y-146952380D01*
X141714285Y-147000000D01*
X142904761Y-147952380D02*
X142904761Y-146952380D01*
X143238095Y-147666666D01*
X143571428Y-146952380D01*
X143571428Y-147952380D01*
X144047619Y-146952380D02*
X144047619Y-147761904D01*
X144095238Y-147857142D01*
X144142857Y-147904761D01*
X144238095Y-147952380D01*
X144428571Y-147952380D01*
X144523809Y-147904761D01*
X144571428Y-147857142D01*
X144619047Y-147761904D01*
X144619047Y-146952380D01*
X145047619Y-147904761D02*
X145190476Y-147952380D01*
X145428571Y-147952380D01*
X145523809Y-147904761D01*
X145571428Y-147857142D01*
X145619047Y-147761904D01*
X145619047Y-147666666D01*
X145571428Y-147571428D01*
X145523809Y-147523809D01*
X145428571Y-147476190D01*
X145238095Y-147428571D01*
X145142857Y-147380952D01*
X145095238Y-147333333D01*
X145047619Y-147238095D01*
X145047619Y-147142857D01*
X145095238Y-147047619D01*
X145142857Y-147000000D01*
X145238095Y-146952380D01*
X145476190Y-146952380D01*
X145619047Y-147000000D01*
X146619047Y-147857142D02*
X146571428Y-147904761D01*
X146428571Y-147952380D01*
X146333333Y-147952380D01*
X146190476Y-147904761D01*
X146095238Y-147809523D01*
X146047619Y-147714285D01*
X146000000Y-147523809D01*
X146000000Y-147380952D01*
X146047619Y-147190476D01*
X146095238Y-147095238D01*
X146190476Y-147000000D01*
X146333333Y-146952380D01*
X146428571Y-146952380D01*
X146571428Y-147000000D01*
X146619047Y-147047619D01*
X147523809Y-147952380D02*
X147047619Y-147952380D01*
X147047619Y-146952380D01*
X147857142Y-147428571D02*
X148190476Y-147428571D01*
X148333333Y-147952380D02*
X147857142Y-147952380D01*
X147857142Y-146952380D01*
X148333333Y-146952380D01*
X148523809Y-148047619D02*
X149285714Y-148047619D01*
X150095238Y-147952380D02*
X149761904Y-147476190D01*
X149523809Y-147952380D02*
X149523809Y-146952380D01*
X149904761Y-146952380D01*
X150000000Y-147000000D01*
X150047619Y-147047619D01*
X150095238Y-147142857D01*
X150095238Y-147285714D01*
X150047619Y-147380952D01*
X150000000Y-147428571D01*
X149904761Y-147476190D01*
X149523809Y-147476190D01*
X150714285Y-146952380D02*
X150904761Y-146952380D01*
X151000000Y-147000000D01*
X151095238Y-147095238D01*
X151142857Y-147285714D01*
X151142857Y-147619047D01*
X151095238Y-147809523D01*
X151000000Y-147904761D01*
X150904761Y-147952380D01*
X150714285Y-147952380D01*
X150619047Y-147904761D01*
X150523809Y-147809523D01*
X150476190Y-147619047D01*
X150476190Y-147285714D01*
X150523809Y-147095238D01*
X150619047Y-147000000D01*
X150714285Y-146952380D01*
X152047619Y-147952380D02*
X151571428Y-147952380D01*
X151571428Y-146952380D01*
X152857142Y-147952380D02*
X152380952Y-147952380D01*
X152380952Y-146952380D01*
X153190476Y-147428571D02*
X153523809Y-147428571D01*
X153666666Y-147952380D02*
X153190476Y-147952380D01*
X153190476Y-146952380D01*
X153666666Y-146952380D01*
X154666666Y-147952380D02*
X154333333Y-147476190D01*
X154095238Y-147952380D02*
X154095238Y-146952380D01*
X154476190Y-146952380D01*
X154571428Y-147000000D01*
X154619047Y-147047619D01*
X154666666Y-147142857D01*
X154666666Y-147285714D01*
X154619047Y-147380952D01*
X154571428Y-147428571D01*
X154476190Y-147476190D01*
X154095238Y-147476190D01*
X154857142Y-148047619D02*
X155619047Y-148047619D01*
X156380952Y-147952380D02*
X155809523Y-147952380D01*
X156095238Y-147952380D02*
X156095238Y-146952380D01*
X156000000Y-147095238D01*
X155904761Y-147190476D01*
X155809523Y-147238095D01*
X156666666Y-146952380D02*
X157000000Y-147952380D01*
X157333333Y-146952380D01*
X157857142Y-146952380D02*
X157952380Y-146952380D01*
X158047619Y-147000000D01*
X158095238Y-147047619D01*
X158142857Y-147142857D01*
X158190476Y-147333333D01*
X158190476Y-147571428D01*
X158142857Y-147761904D01*
X158095238Y-147857142D01*
X158047619Y-147904761D01*
X157952380Y-147952380D01*
X157857142Y-147952380D01*
X157761904Y-147904761D01*
X157714285Y-147857142D01*
X157666666Y-147761904D01*
X157619047Y-147571428D01*
X157619047Y-147333333D01*
X157666666Y-147142857D01*
X157714285Y-147047619D01*
X157761904Y-147000000D01*
X157857142Y-146952380D01*
X160761904Y-94850000D02*
X160666666Y-94802380D01*
X160523809Y-94802380D01*
X160380952Y-94850000D01*
X160285714Y-94945238D01*
X160238095Y-95040476D01*
X160190476Y-95230952D01*
X160190476Y-95373809D01*
X160238095Y-95564285D01*
X160285714Y-95659523D01*
X160380952Y-95754761D01*
X160523809Y-95802380D01*
X160619047Y-95802380D01*
X160761904Y-95754761D01*
X160809523Y-95707142D01*
X160809523Y-95373809D01*
X160619047Y-95373809D01*
X160809523Y-97452380D02*
X160476190Y-96976190D01*
X160238095Y-97452380D02*
X160238095Y-96452380D01*
X160619047Y-96452380D01*
X160714285Y-96500000D01*
X160761904Y-96547619D01*
X160809523Y-96642857D01*
X160809523Y-96785714D01*
X160761904Y-96880952D01*
X160714285Y-96928571D01*
X160619047Y-96976190D01*
X160238095Y-96976190D01*
X160214285Y-98102380D02*
X160785714Y-98102380D01*
X160500000Y-99102380D02*
X160500000Y-98102380D01*
X146833333Y-134452380D02*
X146357142Y-134452380D01*
X146357142Y-133452380D01*
X147738095Y-134357142D02*
X147690476Y-134404761D01*
X147547619Y-134452380D01*
X147452380Y-134452380D01*
X147309523Y-134404761D01*
X147214285Y-134309523D01*
X147166666Y-134214285D01*
X147119047Y-134023809D01*
X147119047Y-133880952D01*
X147166666Y-133690476D01*
X147214285Y-133595238D01*
X147309523Y-133500000D01*
X147452380Y-133452380D01*
X147547619Y-133452380D01*
X147690476Y-133500000D01*
X147738095Y-133547619D01*
X148119047Y-133547619D02*
X148166666Y-133500000D01*
X148261904Y-133452380D01*
X148500000Y-133452380D01*
X148595238Y-133500000D01*
X148642857Y-133547619D01*
X148690476Y-133642857D01*
X148690476Y-133738095D01*
X148642857Y-133880952D01*
X148071428Y-134452380D01*
X148690476Y-134452380D01*
X163119047Y-134404761D02*
X163261904Y-134452380D01*
X163500000Y-134452380D01*
X163595238Y-134404761D01*
X163642857Y-134357142D01*
X163690476Y-134261904D01*
X163690476Y-134166666D01*
X163642857Y-134071428D01*
X163595238Y-134023809D01*
X163500000Y-133976190D01*
X163309523Y-133928571D01*
X163214285Y-133880952D01*
X163166666Y-133833333D01*
X163119047Y-133738095D01*
X163119047Y-133642857D01*
X163166666Y-133547619D01*
X163214285Y-133500000D01*
X163309523Y-133452380D01*
X163547619Y-133452380D01*
X163690476Y-133500000D01*
X164119047Y-134452380D02*
X164119047Y-133452380D01*
X164500000Y-133452380D01*
X164595238Y-133500000D01*
X164642857Y-133547619D01*
X164690476Y-133642857D01*
X164690476Y-133785714D01*
X164642857Y-133880952D01*
X164595238Y-133928571D01*
X164500000Y-133976190D01*
X164119047Y-133976190D01*
X165119047Y-134452380D02*
X165119047Y-133452380D01*
X166261904Y-133452380D02*
X166928571Y-133452380D01*
X166261904Y-134452380D01*
X166928571Y-134452380D01*
X173952380Y-117857142D02*
X172952380Y-117857142D01*
X173428571Y-117857142D02*
X173428571Y-117285714D01*
X173952380Y-117285714D02*
X172952380Y-117285714D01*
X172952380Y-116619047D02*
X172952380Y-116428571D01*
X173000000Y-116333333D01*
X173095238Y-116238095D01*
X173285714Y-116190476D01*
X173619047Y-116190476D01*
X173809523Y-116238095D01*
X173904761Y-116333333D01*
X173952380Y-116428571D01*
X173952380Y-116619047D01*
X173904761Y-116714285D01*
X173809523Y-116809523D01*
X173619047Y-116857142D01*
X173285714Y-116857142D01*
X173095238Y-116809523D01*
X173000000Y-116714285D01*
X172952380Y-116619047D01*
X173952380Y-115761904D02*
X172952380Y-115761904D01*
X173666666Y-115428571D01*
X172952380Y-115095238D01*
X173952380Y-115095238D01*
X172952380Y-114714285D02*
X172952380Y-114047619D01*
X173952380Y-114714285D01*
X173952380Y-114047619D01*
X173952380Y-108857142D02*
X172952380Y-108857142D01*
X173428571Y-108857142D02*
X173428571Y-108285714D01*
X173952380Y-108285714D02*
X172952380Y-108285714D01*
X172952380Y-107619047D02*
X172952380Y-107428571D01*
X173000000Y-107333333D01*
X173095238Y-107238095D01*
X173285714Y-107190476D01*
X173619047Y-107190476D01*
X173809523Y-107238095D01*
X173904761Y-107333333D01*
X173952380Y-107428571D01*
X173952380Y-107619047D01*
X173904761Y-107714285D01*
X173809523Y-107809523D01*
X173619047Y-107857142D01*
X173285714Y-107857142D01*
X173095238Y-107809523D01*
X173000000Y-107714285D01*
X172952380Y-107619047D01*
X173952380Y-106761904D02*
X172952380Y-106761904D01*
X173666666Y-106428571D01*
X172952380Y-106095238D01*
X173952380Y-106095238D01*
X172952380Y-105714285D02*
X173952380Y-105047619D01*
X172952380Y-105047619D02*
X173952380Y-105714285D01*
X168261904Y-90428571D02*
X168595238Y-90428571D01*
X168738095Y-90952380D02*
X168261904Y-90952380D01*
X168261904Y-89952380D01*
X168738095Y-89952380D01*
X169166666Y-90952380D02*
X169166666Y-89952380D01*
X169738095Y-90952380D01*
X169738095Y-89952380D01*
X120452380Y-109619047D02*
X120452380Y-110190476D01*
X120452380Y-109904761D02*
X119452380Y-109904761D01*
X119595238Y-110000000D01*
X119690476Y-110095238D01*
X119738095Y-110190476D01*
X119547619Y-109238095D02*
X119500000Y-109190476D01*
X119452380Y-109095238D01*
X119452380Y-108857142D01*
X119500000Y-108761904D01*
X119547619Y-108714285D01*
X119642857Y-108666666D01*
X119738095Y-108666666D01*
X119880952Y-108714285D01*
X120452380Y-109285714D01*
X120452380Y-108666666D01*
X119452380Y-108380952D02*
X120452380Y-108047619D01*
X119452380Y-107714285D01*
X119880952Y-98452380D02*
X119309523Y-98452380D01*
X119595238Y-98452380D02*
X119595238Y-97452380D01*
X119500000Y-97595238D01*
X119404761Y-97690476D01*
X119309523Y-97738095D01*
X120261904Y-97547619D02*
X120309523Y-97500000D01*
X120404761Y-97452380D01*
X120642857Y-97452380D01*
X120738095Y-97500000D01*
X120785714Y-97547619D01*
X120833333Y-97642857D01*
X120833333Y-97738095D01*
X120785714Y-97880952D01*
X120214285Y-98452380D01*
X120833333Y-98452380D01*
X121119047Y-97452380D02*
X121452380Y-98452380D01*
X121785714Y-97452380D01*
X116166666Y-131452380D02*
X116833333Y-131452380D01*
X116166666Y-132452380D01*
X116833333Y-132452380D01*
X116166666Y-117452380D02*
X116833333Y-118452380D01*
X116833333Y-117452380D02*
X116166666Y-118452380D01*
D11*
X175500000Y-146500000D02*
G75*
G03*
X175500000Y-146500000I-3000000J0D01*
G01*
X115500000Y-146500000D02*
G75*
G03*
X115500000Y-146500000I-3000000J0D01*
G01*
X115500000Y-86500000D02*
G75*
G03*
X115500000Y-86500000I-3000000J0D01*
G01*
X175500000Y-86500000D02*
G75*
G03*
X175500000Y-86500000I-3000000J0D01*
G01*
X140680000Y-87170000D02*
X140680000Y-93920000D01*
X158680000Y-87170000D02*
X158680000Y-93920000D01*
X140680000Y-112670000D02*
X141430000Y-112670000D01*
X140680000Y-111920000D02*
X140680000Y-112670000D01*
X158680000Y-112670000D02*
X157930000Y-112670000D01*
X158680000Y-111920000D02*
X158680000Y-112670000D01*
X158680000Y-93110000D02*
X140680000Y-93110000D01*
X140680000Y-87170000D02*
X158680000Y-87170000D01*
X141430000Y-112670000D02*
X143180000Y-112670000D01*
X157930000Y-112670000D02*
X156180000Y-112670000D01*
X128410000Y-95410000D02*
X128410000Y-94150000D01*
X128410000Y-88590000D02*
X128410000Y-89850000D01*
X124650000Y-95410000D02*
X128410000Y-95410000D01*
X122400000Y-88590000D02*
X128410000Y-88590000D01*
X168750000Y-97750000D02*
X173250000Y-97750000D01*
X173250000Y-97750000D02*
X173250000Y-102250000D01*
X173250000Y-102250000D02*
X168750000Y-102250000D01*
X168750000Y-102250000D02*
X168750000Y-97750000D01*
X172500000Y-100000000D02*
G75*
G03*
X172500000Y-100000000I-1500000J0D01*
G01*
X168750000Y-91750000D02*
X173250000Y-91750000D01*
X173250000Y-91750000D02*
X173250000Y-96250000D01*
X173250000Y-96250000D02*
X168750000Y-96250000D01*
X168750000Y-96250000D02*
X168750000Y-91750000D01*
X172500000Y-94000000D02*
G75*
G03*
X172500000Y-94000000I-1500000J0D01*
G01*
X165735000Y-94272936D02*
X165735000Y-94727064D01*
X164265000Y-94272936D02*
X164265000Y-94727064D01*
X156272936Y-113765000D02*
X156727064Y-113765000D01*
X156272936Y-115235000D02*
X156727064Y-115235000D01*
X152772936Y-113765000D02*
X153227064Y-113765000D01*
X152772936Y-115235000D02*
X153227064Y-115235000D01*
X133765000Y-96727064D02*
X133765000Y-96272936D01*
X135235000Y-96727064D02*
X135235000Y-96272936D01*
X133235000Y-96272936D02*
X133235000Y-96727064D01*
X131765000Y-96272936D02*
X131765000Y-96727064D01*
X161940000Y-112040000D02*
X161940000Y-118010000D01*
X161940000Y-118010000D02*
X172060000Y-118010000D01*
X172060000Y-118010000D02*
X172060000Y-112040000D01*
X172060000Y-112040000D02*
X161940000Y-112040000D01*
X165250000Y-112050000D02*
X165250000Y-112800000D01*
X165250000Y-112800000D02*
X168750000Y-112800000D01*
X168750000Y-112800000D02*
X168750000Y-112050000D01*
X168750000Y-112050000D02*
X165250000Y-112050000D01*
X161950000Y-112050000D02*
X161950000Y-112800000D01*
X161950000Y-112800000D02*
X163750000Y-112800000D01*
X163750000Y-112800000D02*
X163750000Y-112050000D01*
X163750000Y-112050000D02*
X161950000Y-112050000D01*
X170250000Y-112050000D02*
X170250000Y-112800000D01*
X170250000Y-112800000D02*
X172050000Y-112800000D01*
X172050000Y-112800000D02*
X172050000Y-112050000D01*
X172050000Y-112050000D02*
X170250000Y-112050000D01*
X161950000Y-114300000D02*
X162700000Y-114300000D01*
X162700000Y-114300000D02*
X162700000Y-117250000D01*
X162700000Y-117250000D02*
X167000000Y-117250000D01*
X172050000Y-114300000D02*
X171300000Y-114300000D01*
X171300000Y-114300000D02*
X171300000Y-117250000D01*
X171300000Y-117250000D02*
X167000000Y-117250000D01*
X162900000Y-111750000D02*
X161650000Y-111750000D01*
X161650000Y-111750000D02*
X161650000Y-113000000D01*
X161940000Y-104540000D02*
X161940000Y-110510000D01*
X161940000Y-110510000D02*
X172060000Y-110510000D01*
X172060000Y-110510000D02*
X172060000Y-104540000D01*
X172060000Y-104540000D02*
X161940000Y-104540000D01*
X165250000Y-104550000D02*
X165250000Y-105300000D01*
X165250000Y-105300000D02*
X168750000Y-105300000D01*
X168750000Y-105300000D02*
X168750000Y-104550000D01*
X168750000Y-104550000D02*
X165250000Y-104550000D01*
X161950000Y-104550000D02*
X161950000Y-105300000D01*
X161950000Y-105300000D02*
X163750000Y-105300000D01*
X163750000Y-105300000D02*
X163750000Y-104550000D01*
X163750000Y-104550000D02*
X161950000Y-104550000D01*
X170250000Y-104550000D02*
X170250000Y-105300000D01*
X170250000Y-105300000D02*
X172050000Y-105300000D01*
X172050000Y-105300000D02*
X172050000Y-104550000D01*
X172050000Y-104550000D02*
X170250000Y-104550000D01*
X161950000Y-106800000D02*
X162700000Y-106800000D01*
X162700000Y-106800000D02*
X162700000Y-109750000D01*
X162700000Y-109750000D02*
X167000000Y-109750000D01*
X172050000Y-106800000D02*
X171300000Y-106800000D01*
X171300000Y-106800000D02*
X171300000Y-109750000D01*
X171300000Y-109750000D02*
X167000000Y-109750000D01*
X162900000Y-104250000D02*
X161650000Y-104250000D01*
X161650000Y-104250000D02*
X161650000Y-105500000D01*
X115680000Y-103124000D02*
G75*
G03*
X115680000Y-103124000I-1680000J0D01*
G01*
X118100000Y-110684000D02*
X118100000Y-100564000D01*
X116600000Y-110684000D02*
X116600000Y-100564000D01*
X111699000Y-110684000D02*
X111699000Y-100564000D01*
X108739000Y-110684000D02*
X108739000Y-100564000D01*
X118660000Y-110684000D02*
X118660000Y-100564000D01*
X108739000Y-110684000D02*
X118660000Y-110684000D01*
X108739000Y-100564000D02*
X118660000Y-100564000D01*
X112931000Y-101849000D02*
X112977000Y-101896000D01*
X115239000Y-104158000D02*
X115274000Y-104193000D01*
X112725000Y-102054000D02*
X112761000Y-102089000D01*
X115023000Y-104351000D02*
X115069000Y-104398000D01*
X118160000Y-110924000D02*
X118900000Y-110924000D01*
X118900000Y-110924000D02*
X118900000Y-110424000D01*
X115680253Y-108095195D02*
G75*
G02*
X115535000Y-108808000I-1680253J-28805D01*
G01*
X114683042Y-109659426D02*
G75*
G02*
X113316000Y-109659000I-683042J1535426D01*
G01*
X112464574Y-108807042D02*
G75*
G02*
X112465000Y-107440000I1535426J683042D01*
G01*
X113316958Y-106588574D02*
G75*
G02*
X114684000Y-106589000I683042J-1535426D01*
G01*
X115534756Y-107440682D02*
G75*
G02*
X115680000Y-108124000I-1534756J-683318D01*
G01*
X109040000Y-138560000D02*
X115010000Y-138560000D01*
X115010000Y-138560000D02*
X115010000Y-125940000D01*
X115010000Y-125940000D02*
X109040000Y-125940000D01*
X109040000Y-125940000D02*
X109040000Y-138560000D01*
X109050000Y-135250000D02*
X109800000Y-135250000D01*
X109800000Y-135250000D02*
X109800000Y-129250000D01*
X109800000Y-129250000D02*
X109050000Y-129250000D01*
X109050000Y-129250000D02*
X109050000Y-135250000D01*
X109050000Y-138550000D02*
X109800000Y-138550000D01*
X109800000Y-138550000D02*
X109800000Y-136750000D01*
X109800000Y-136750000D02*
X109050000Y-136750000D01*
X109050000Y-136750000D02*
X109050000Y-138550000D01*
X109050000Y-127750000D02*
X109800000Y-127750000D01*
X109800000Y-127750000D02*
X109800000Y-125950000D01*
X109800000Y-125950000D02*
X109050000Y-125950000D01*
X109050000Y-125950000D02*
X109050000Y-127750000D01*
X111300000Y-138550000D02*
X111300000Y-137800000D01*
X111300000Y-137800000D02*
X114250000Y-137800000D01*
X114250000Y-137800000D02*
X114250000Y-132250000D01*
X111300000Y-125950000D02*
X111300000Y-126700000D01*
X111300000Y-126700000D02*
X114250000Y-126700000D01*
X114250000Y-126700000D02*
X114250000Y-132250000D01*
X108750000Y-137600000D02*
X108750000Y-138850000D01*
X108750000Y-138850000D02*
X110000000Y-138850000D01*
X109040000Y-124060000D02*
X115010000Y-124060000D01*
X115010000Y-124060000D02*
X115010000Y-111440000D01*
X115010000Y-111440000D02*
X109040000Y-111440000D01*
X109040000Y-111440000D02*
X109040000Y-124060000D01*
X109050000Y-120750000D02*
X109800000Y-120750000D01*
X109800000Y-120750000D02*
X109800000Y-114750000D01*
X109800000Y-114750000D02*
X109050000Y-114750000D01*
X109050000Y-114750000D02*
X109050000Y-120750000D01*
X109050000Y-124050000D02*
X109800000Y-124050000D01*
X109800000Y-124050000D02*
X109800000Y-122250000D01*
X109800000Y-122250000D02*
X109050000Y-122250000D01*
X109050000Y-122250000D02*
X109050000Y-124050000D01*
X109050000Y-113250000D02*
X109800000Y-113250000D01*
X109800000Y-113250000D02*
X109800000Y-111450000D01*
X109800000Y-111450000D02*
X109050000Y-111450000D01*
X109050000Y-111450000D02*
X109050000Y-113250000D01*
X111300000Y-124050000D02*
X111300000Y-123300000D01*
X111300000Y-123300000D02*
X114250000Y-123300000D01*
X114250000Y-123300000D02*
X114250000Y-117750000D01*
X111300000Y-111450000D02*
X111300000Y-112200000D01*
X111300000Y-112200000D02*
X114250000Y-112200000D01*
X114250000Y-112200000D02*
X114250000Y-117750000D01*
X108750000Y-123100000D02*
X108750000Y-124350000D01*
X108750000Y-124350000D02*
X110000000Y-124350000D01*
X163830000Y-93090000D02*
X161170000Y-93090000D01*
X163830000Y-98230000D02*
X163830000Y-93090000D01*
X161170000Y-98230000D02*
X161170000Y-93090000D01*
X163830000Y-98230000D02*
X161170000Y-98230000D01*
X163830000Y-99500000D02*
X163830000Y-100830000D01*
X163830000Y-100830000D02*
X162500000Y-100830000D01*
X141440000Y-126540000D02*
X141440000Y-132510000D01*
X141440000Y-132510000D02*
X154060000Y-132510000D01*
X154060000Y-132510000D02*
X154060000Y-126540000D01*
X154060000Y-126540000D02*
X141440000Y-126540000D01*
X144750000Y-126550000D02*
X144750000Y-127300000D01*
X144750000Y-127300000D02*
X150750000Y-127300000D01*
X150750000Y-127300000D02*
X150750000Y-126550000D01*
X150750000Y-126550000D02*
X144750000Y-126550000D01*
X141450000Y-126550000D02*
X141450000Y-127300000D01*
X141450000Y-127300000D02*
X143250000Y-127300000D01*
X143250000Y-127300000D02*
X143250000Y-126550000D01*
X143250000Y-126550000D02*
X141450000Y-126550000D01*
X152250000Y-126550000D02*
X152250000Y-127300000D01*
X152250000Y-127300000D02*
X154050000Y-127300000D01*
X154050000Y-127300000D02*
X154050000Y-126550000D01*
X154050000Y-126550000D02*
X152250000Y-126550000D01*
X141450000Y-128800000D02*
X142200000Y-128800000D01*
X142200000Y-128800000D02*
X142200000Y-131750000D01*
X142200000Y-131750000D02*
X147750000Y-131750000D01*
X154050000Y-128800000D02*
X153300000Y-128800000D01*
X153300000Y-128800000D02*
X153300000Y-131750000D01*
X153300000Y-131750000D02*
X147750000Y-131750000D01*
X142400000Y-126250000D02*
X141150000Y-126250000D01*
X141150000Y-126250000D02*
X141150000Y-127500000D01*
X141440000Y-119540000D02*
X141440000Y-125510000D01*
X141440000Y-125510000D02*
X154060000Y-125510000D01*
X154060000Y-125510000D02*
X154060000Y-119540000D01*
X154060000Y-119540000D02*
X141440000Y-119540000D01*
X144750000Y-119550000D02*
X144750000Y-120300000D01*
X144750000Y-120300000D02*
X150750000Y-120300000D01*
X150750000Y-120300000D02*
X150750000Y-119550000D01*
X150750000Y-119550000D02*
X144750000Y-119550000D01*
X141450000Y-119550000D02*
X141450000Y-120300000D01*
X141450000Y-120300000D02*
X143250000Y-120300000D01*
X143250000Y-120300000D02*
X143250000Y-119550000D01*
X143250000Y-119550000D02*
X141450000Y-119550000D01*
X152250000Y-119550000D02*
X152250000Y-120300000D01*
X152250000Y-120300000D02*
X154050000Y-120300000D01*
X154050000Y-120300000D02*
X154050000Y-119550000D01*
X154050000Y-119550000D02*
X152250000Y-119550000D01*
X141450000Y-121800000D02*
X142200000Y-121800000D01*
X142200000Y-121800000D02*
X142200000Y-124750000D01*
X142200000Y-124750000D02*
X147750000Y-124750000D01*
X154050000Y-121800000D02*
X153300000Y-121800000D01*
X153300000Y-121800000D02*
X153300000Y-124750000D01*
X153300000Y-124750000D02*
X147750000Y-124750000D01*
X142400000Y-119250000D02*
X141150000Y-119250000D01*
X141150000Y-119250000D02*
X141150000Y-120500000D01*
X115680000Y-92964000D02*
G75*
G03*
X115680000Y-92964000I-1680000J0D01*
G01*
X118100000Y-100524000D02*
X118100000Y-90404000D01*
X116600000Y-100524000D02*
X116600000Y-90404000D01*
X111699000Y-100524000D02*
X111699000Y-90404000D01*
X108739000Y-100524000D02*
X108739000Y-90404000D01*
X118660000Y-100524000D02*
X118660000Y-90404000D01*
X108739000Y-100524000D02*
X118660000Y-100524000D01*
X108739000Y-90404000D02*
X118660000Y-90404000D01*
X112931000Y-91689000D02*
X112977000Y-91736000D01*
X115239000Y-93998000D02*
X115274000Y-94033000D01*
X112725000Y-91894000D02*
X112761000Y-91929000D01*
X115023000Y-94191000D02*
X115069000Y-94238000D01*
X118160000Y-100764000D02*
X118900000Y-100764000D01*
X118900000Y-100764000D02*
X118900000Y-100264000D01*
X115680253Y-97935195D02*
G75*
G02*
X115535000Y-98648000I-1680253J-28805D01*
G01*
X114683042Y-99499426D02*
G75*
G02*
X113316000Y-99499000I-683042J1535426D01*
G01*
X112464574Y-98647042D02*
G75*
G02*
X112465000Y-97280000I1535426J683042D01*
G01*
X113316958Y-96428574D02*
G75*
G02*
X114684000Y-96429000I683042J-1535426D01*
G01*
X115534756Y-97280682D02*
G75*
G02*
X115680000Y-97964000I-1534756J-683318D01*
G01*
X156440000Y-126540000D02*
X156440000Y-132510000D01*
X156440000Y-132510000D02*
X174060000Y-132510000D01*
X174060000Y-132510000D02*
X174060000Y-126540000D01*
X174060000Y-126540000D02*
X156440000Y-126540000D01*
X159750000Y-126550000D02*
X159750000Y-127300000D01*
X159750000Y-127300000D02*
X170750000Y-127300000D01*
X170750000Y-127300000D02*
X170750000Y-126550000D01*
X170750000Y-126550000D02*
X159750000Y-126550000D01*
X156450000Y-126550000D02*
X156450000Y-127300000D01*
X156450000Y-127300000D02*
X158250000Y-127300000D01*
X158250000Y-127300000D02*
X158250000Y-126550000D01*
X158250000Y-126550000D02*
X156450000Y-126550000D01*
X172250000Y-126550000D02*
X172250000Y-127300000D01*
X172250000Y-127300000D02*
X174050000Y-127300000D01*
X174050000Y-127300000D02*
X174050000Y-126550000D01*
X174050000Y-126550000D02*
X172250000Y-126550000D01*
X156450000Y-128800000D02*
X157200000Y-128800000D01*
X157200000Y-128800000D02*
X157200000Y-131750000D01*
X157200000Y-131750000D02*
X165250000Y-131750000D01*
X174050000Y-128800000D02*
X173300000Y-128800000D01*
X173300000Y-128800000D02*
X173300000Y-131750000D01*
X173300000Y-131750000D02*
X165250000Y-131750000D01*
X157400000Y-126250000D02*
X156150000Y-126250000D01*
X156150000Y-126250000D02*
X156150000Y-127500000D01*
X156440000Y-119540000D02*
X156440000Y-125510000D01*
X156440000Y-125510000D02*
X174060000Y-125510000D01*
X174060000Y-125510000D02*
X174060000Y-119540000D01*
X174060000Y-119540000D02*
X156440000Y-119540000D01*
X159750000Y-119550000D02*
X159750000Y-120300000D01*
X159750000Y-120300000D02*
X170750000Y-120300000D01*
X170750000Y-120300000D02*
X170750000Y-119550000D01*
X170750000Y-119550000D02*
X159750000Y-119550000D01*
X156450000Y-119550000D02*
X156450000Y-120300000D01*
X156450000Y-120300000D02*
X158250000Y-120300000D01*
X158250000Y-120300000D02*
X158250000Y-119550000D01*
X158250000Y-119550000D02*
X156450000Y-119550000D01*
X172250000Y-119550000D02*
X172250000Y-120300000D01*
X172250000Y-120300000D02*
X174050000Y-120300000D01*
X174050000Y-120300000D02*
X174050000Y-119550000D01*
X174050000Y-119550000D02*
X172250000Y-119550000D01*
X156450000Y-121800000D02*
X157200000Y-121800000D01*
X157200000Y-121800000D02*
X157200000Y-124750000D01*
X157200000Y-124750000D02*
X165250000Y-124750000D01*
X174050000Y-121800000D02*
X173300000Y-121800000D01*
X173300000Y-121800000D02*
X173300000Y-124750000D01*
X173300000Y-124750000D02*
X165250000Y-124750000D01*
X157400000Y-119250000D02*
X156150000Y-119250000D01*
X156150000Y-119250000D02*
X156150000Y-120500000D01*
X136265000Y-94723752D02*
X136265000Y-94201248D01*
X137735000Y-94723752D02*
X137735000Y-94201248D01*
X138265000Y-94723752D02*
X138265000Y-94201248D01*
X139735000Y-94723752D02*
X139735000Y-94201248D01*
X138223752Y-98235000D02*
X137701248Y-98235000D01*
X138223752Y-96765000D02*
X137701248Y-96765000D01*
X132910000Y-143910000D02*
X132910000Y-141560000D01*
X132910000Y-137090000D02*
X132910000Y-139440000D01*
X127154437Y-137090000D02*
X132910000Y-137090000D01*
X127154437Y-143910000D02*
X132910000Y-143910000D01*
X126090000Y-142845563D02*
X126090000Y-141560000D01*
X126090000Y-138154437D02*
X126090000Y-139440000D01*
X126090000Y-138154437D02*
X127154437Y-137090000D01*
X126090000Y-142845563D02*
X127154437Y-143910000D01*
X125062500Y-138652500D02*
X125850000Y-138652500D01*
X125456250Y-138258750D02*
X125456250Y-139046250D01*
X132602000Y-122410000D02*
X132602000Y-120060000D01*
X132602000Y-115590000D02*
X132602000Y-117940000D01*
X126846437Y-115590000D02*
X132602000Y-115590000D01*
X126846437Y-122410000D02*
X132602000Y-122410000D01*
X125782000Y-121345563D02*
X125782000Y-120060000D01*
X125782000Y-116654437D02*
X125782000Y-117940000D01*
X125782000Y-116654437D02*
X126846437Y-115590000D01*
X125782000Y-121345563D02*
X126846437Y-122410000D01*
X124754500Y-117152500D02*
X125542000Y-117152500D01*
X125148250Y-116758750D02*
X125148250Y-117546250D01*
X124276248Y-96765000D02*
X124798752Y-96765000D01*
X124276248Y-98235000D02*
X124798752Y-98235000D01*
X134430000Y-123600000D02*
X134430000Y-144180000D01*
X124270000Y-126270000D02*
X124270000Y-144180000D01*
X123000000Y-123600000D02*
X121600000Y-123600000D01*
X121600000Y-123600000D02*
X121600000Y-125000000D01*
X124270000Y-123600000D02*
X124270000Y-126270000D01*
X124270000Y-126270000D02*
X121600000Y-126270000D01*
X121600000Y-126270000D02*
X121600000Y-144180000D01*
X121600000Y-144180000D02*
X137100000Y-144180000D01*
X137100000Y-144180000D02*
X137100000Y-123600000D01*
X137100000Y-123600000D02*
X124270000Y-123600000D01*
X134430000Y-102320000D02*
X134430000Y-122900000D01*
X124270000Y-104990000D02*
X124270000Y-122900000D01*
X123000000Y-102320000D02*
X121600000Y-102320000D01*
X121600000Y-102320000D02*
X121600000Y-103720000D01*
X124270000Y-102320000D02*
X124270000Y-104990000D01*
X124270000Y-104990000D02*
X121600000Y-104990000D01*
X121600000Y-104990000D02*
X121600000Y-122900000D01*
X121600000Y-122900000D02*
X137100000Y-122900000D01*
X137100000Y-122900000D02*
X137100000Y-102320000D01*
X137100000Y-102320000D02*
X124270000Y-102320000D01*
D10*
X148918095Y-85322380D02*
X148918095Y-86131904D01*
X148965714Y-86227142D01*
X149013333Y-86274761D01*
X149108571Y-86322380D01*
X149299047Y-86322380D01*
X149394285Y-86274761D01*
X149441904Y-86227142D01*
X149489523Y-86131904D01*
X149489523Y-85322380D01*
X149918095Y-85417619D02*
X149965714Y-85370000D01*
X150060952Y-85322380D01*
X150299047Y-85322380D01*
X150394285Y-85370000D01*
X150441904Y-85417619D01*
X150489523Y-85512857D01*
X150489523Y-85608095D01*
X150441904Y-85750952D01*
X149870476Y-86322380D01*
X150489523Y-86322380D01*
X144918095Y-90336666D02*
X145394285Y-90336666D01*
X144822857Y-90622380D02*
X145156190Y-89622380D01*
X145489523Y-90622380D01*
X145822857Y-89955714D02*
X145822857Y-90622380D01*
X145822857Y-90050952D02*
X145870476Y-90003333D01*
X145965714Y-89955714D01*
X146108571Y-89955714D01*
X146203809Y-90003333D01*
X146251428Y-90098571D01*
X146251428Y-90622380D01*
X146584761Y-89955714D02*
X146965714Y-89955714D01*
X146727619Y-89622380D02*
X146727619Y-90479523D01*
X146775238Y-90574761D01*
X146870476Y-90622380D01*
X146965714Y-90622380D01*
X147680000Y-90574761D02*
X147584761Y-90622380D01*
X147394285Y-90622380D01*
X147299047Y-90574761D01*
X147251428Y-90479523D01*
X147251428Y-90098571D01*
X147299047Y-90003333D01*
X147394285Y-89955714D01*
X147584761Y-89955714D01*
X147680000Y-90003333D01*
X147727619Y-90098571D01*
X147727619Y-90193809D01*
X147251428Y-90289047D01*
X148156190Y-89955714D02*
X148156190Y-90622380D01*
X148156190Y-90050952D02*
X148203809Y-90003333D01*
X148299047Y-89955714D01*
X148441904Y-89955714D01*
X148537142Y-90003333D01*
X148584761Y-90098571D01*
X148584761Y-90622380D01*
X149060952Y-89955714D02*
X149060952Y-90622380D01*
X149060952Y-90050952D02*
X149108571Y-90003333D01*
X149203809Y-89955714D01*
X149346666Y-89955714D01*
X149441904Y-90003333D01*
X149489523Y-90098571D01*
X149489523Y-90622380D01*
X150394285Y-90622380D02*
X150394285Y-90098571D01*
X150346666Y-90003333D01*
X150251428Y-89955714D01*
X150060952Y-89955714D01*
X149965714Y-90003333D01*
X150394285Y-90574761D02*
X150299047Y-90622380D01*
X150060952Y-90622380D01*
X149965714Y-90574761D01*
X149918095Y-90479523D01*
X149918095Y-90384285D01*
X149965714Y-90289047D01*
X150060952Y-90241428D01*
X150299047Y-90241428D01*
X150394285Y-90193809D01*
X151584761Y-90336666D02*
X152060952Y-90336666D01*
X151489523Y-90622380D02*
X151822857Y-89622380D01*
X152156190Y-90622380D01*
X152489523Y-90622380D02*
X152489523Y-89955714D01*
X152489523Y-90146190D02*
X152537142Y-90050952D01*
X152584761Y-90003333D01*
X152680000Y-89955714D01*
X152775238Y-89955714D01*
X153489523Y-90574761D02*
X153394285Y-90622380D01*
X153203809Y-90622380D01*
X153108571Y-90574761D01*
X153060952Y-90479523D01*
X153060952Y-90098571D01*
X153108571Y-90003333D01*
X153203809Y-89955714D01*
X153394285Y-89955714D01*
X153489523Y-90003333D01*
X153537142Y-90098571D01*
X153537142Y-90193809D01*
X153060952Y-90289047D01*
X154394285Y-90622380D02*
X154394285Y-90098571D01*
X154346666Y-90003333D01*
X154251428Y-89955714D01*
X154060952Y-89955714D01*
X153965714Y-90003333D01*
X154394285Y-90574761D02*
X154299047Y-90622380D01*
X154060952Y-90622380D01*
X153965714Y-90574761D01*
X153918095Y-90479523D01*
X153918095Y-90384285D01*
X153965714Y-90289047D01*
X154060952Y-90241428D01*
X154299047Y-90241428D01*
X154394285Y-90193809D01*
X125738095Y-86952380D02*
X125738095Y-87761904D01*
X125785714Y-87857142D01*
X125833333Y-87904761D01*
X125928571Y-87952380D01*
X126119047Y-87952380D01*
X126214285Y-87904761D01*
X126261904Y-87857142D01*
X126309523Y-87761904D01*
X126309523Y-86952380D01*
X127309523Y-87952380D02*
X126738095Y-87952380D01*
X127023809Y-87952380D02*
X127023809Y-86952380D01*
X126928571Y-87095238D01*
X126833333Y-87190476D01*
X126738095Y-87238095D01*
X170788095Y-97404761D02*
X170930952Y-97452380D01*
X171169047Y-97452380D01*
X171264285Y-97404761D01*
X171311904Y-97357142D01*
X171359523Y-97261904D01*
X171359523Y-97166666D01*
X171311904Y-97071428D01*
X171264285Y-97023809D01*
X171169047Y-96976190D01*
X170978571Y-96928571D01*
X170883333Y-96880952D01*
X170835714Y-96833333D01*
X170788095Y-96738095D01*
X170788095Y-96642857D01*
X170835714Y-96547619D01*
X170883333Y-96500000D01*
X170978571Y-96452380D01*
X171216666Y-96452380D01*
X171359523Y-96500000D01*
X171740476Y-96547619D02*
X171788095Y-96500000D01*
X171883333Y-96452380D01*
X172121428Y-96452380D01*
X172216666Y-96500000D01*
X172264285Y-96547619D01*
X172311904Y-96642857D01*
X172311904Y-96738095D01*
X172264285Y-96880952D01*
X171692857Y-97452380D01*
X172311904Y-97452380D01*
X170788095Y-91404761D02*
X170930952Y-91452380D01*
X171169047Y-91452380D01*
X171264285Y-91404761D01*
X171311904Y-91357142D01*
X171359523Y-91261904D01*
X171359523Y-91166666D01*
X171311904Y-91071428D01*
X171264285Y-91023809D01*
X171169047Y-90976190D01*
X170978571Y-90928571D01*
X170883333Y-90880952D01*
X170835714Y-90833333D01*
X170788095Y-90738095D01*
X170788095Y-90642857D01*
X170835714Y-90547619D01*
X170883333Y-90500000D01*
X170978571Y-90452380D01*
X171216666Y-90452380D01*
X171359523Y-90500000D01*
X172311904Y-91452380D02*
X171740476Y-91452380D01*
X172026190Y-91452380D02*
X172026190Y-90452380D01*
X171930952Y-90595238D01*
X171835714Y-90690476D01*
X171740476Y-90738095D01*
X165452380Y-91166666D02*
X164976190Y-91500000D01*
X165452380Y-91738095D02*
X164452380Y-91738095D01*
X164452380Y-91357142D01*
X164500000Y-91261904D01*
X164547619Y-91214285D01*
X164642857Y-91166666D01*
X164785714Y-91166666D01*
X164880952Y-91214285D01*
X164928571Y-91261904D01*
X164976190Y-91357142D01*
X164976190Y-91738095D01*
X164452380Y-90261904D02*
X164452380Y-90738095D01*
X164928571Y-90785714D01*
X164880952Y-90738095D01*
X164833333Y-90642857D01*
X164833333Y-90404761D01*
X164880952Y-90309523D01*
X164928571Y-90261904D01*
X165023809Y-90214285D01*
X165261904Y-90214285D01*
X165357142Y-90261904D01*
X165404761Y-90309523D01*
X165452380Y-90404761D01*
X165452380Y-90642857D01*
X165404761Y-90738095D01*
X165357142Y-90785714D01*
X156333333Y-116952380D02*
X156000000Y-116476190D01*
X155761904Y-116952380D02*
X155761904Y-115952380D01*
X156142857Y-115952380D01*
X156238095Y-116000000D01*
X156285714Y-116047619D01*
X156333333Y-116142857D01*
X156333333Y-116285714D01*
X156285714Y-116380952D01*
X156238095Y-116428571D01*
X156142857Y-116476190D01*
X155761904Y-116476190D01*
X157190476Y-116285714D02*
X157190476Y-116952380D01*
X156952380Y-115904761D02*
X156714285Y-116619047D01*
X157333333Y-116619047D01*
X152833333Y-116952380D02*
X152500000Y-116476190D01*
X152261904Y-116952380D02*
X152261904Y-115952380D01*
X152642857Y-115952380D01*
X152738095Y-116000000D01*
X152785714Y-116047619D01*
X152833333Y-116142857D01*
X152833333Y-116285714D01*
X152785714Y-116380952D01*
X152738095Y-116428571D01*
X152642857Y-116476190D01*
X152261904Y-116476190D01*
X153166666Y-115952380D02*
X153785714Y-115952380D01*
X153452380Y-116333333D01*
X153595238Y-116333333D01*
X153690476Y-116380952D01*
X153738095Y-116428571D01*
X153785714Y-116523809D01*
X153785714Y-116761904D01*
X153738095Y-116857142D01*
X153690476Y-116904761D01*
X153595238Y-116952380D01*
X153309523Y-116952380D01*
X153214285Y-116904761D01*
X153166666Y-116857142D01*
X132952380Y-99666666D02*
X132476190Y-100000000D01*
X132952380Y-100238095D02*
X131952380Y-100238095D01*
X131952380Y-99857142D01*
X132000000Y-99761904D01*
X132047619Y-99714285D01*
X132142857Y-99666666D01*
X132285714Y-99666666D01*
X132380952Y-99714285D01*
X132428571Y-99761904D01*
X132476190Y-99857142D01*
X132476190Y-100238095D01*
X132047619Y-99285714D02*
X132000000Y-99238095D01*
X131952380Y-99142857D01*
X131952380Y-98904761D01*
X132000000Y-98809523D01*
X132047619Y-98761904D01*
X132142857Y-98714285D01*
X132238095Y-98714285D01*
X132380952Y-98761904D01*
X132952380Y-99333333D01*
X132952380Y-98714285D01*
X134952380Y-99666666D02*
X134476190Y-100000000D01*
X134952380Y-100238095D02*
X133952380Y-100238095D01*
X133952380Y-99857142D01*
X134000000Y-99761904D01*
X134047619Y-99714285D01*
X134142857Y-99666666D01*
X134285714Y-99666666D01*
X134380952Y-99714285D01*
X134428571Y-99761904D01*
X134476190Y-99857142D01*
X134476190Y-100238095D01*
X134952380Y-98714285D02*
X134952380Y-99285714D01*
X134952380Y-99000000D02*
X133952380Y-99000000D01*
X134095238Y-99095238D01*
X134190476Y-99190476D01*
X134238095Y-99285714D01*
X173190476Y-112452380D02*
X173190476Y-113166666D01*
X173142857Y-113309523D01*
X173047619Y-113404761D01*
X172904761Y-113452380D01*
X172809523Y-113452380D01*
X174190476Y-113452380D02*
X173619047Y-113452380D01*
X173904761Y-113452380D02*
X173904761Y-112452380D01*
X173809523Y-112595238D01*
X173714285Y-112690476D01*
X173619047Y-112738095D01*
X175142857Y-113452380D02*
X174571428Y-113452380D01*
X174857142Y-113452380D02*
X174857142Y-112452380D01*
X174761904Y-112595238D01*
X174666666Y-112690476D01*
X174571428Y-112738095D01*
X166190476Y-102902380D02*
X166190476Y-103616666D01*
X166142857Y-103759523D01*
X166047619Y-103854761D01*
X165904761Y-103902380D01*
X165809523Y-103902380D01*
X167190476Y-103902380D02*
X166619047Y-103902380D01*
X166904761Y-103902380D02*
X166904761Y-102902380D01*
X166809523Y-103045238D01*
X166714285Y-103140476D01*
X166619047Y-103188095D01*
X167809523Y-102902380D02*
X167904761Y-102902380D01*
X168000000Y-102950000D01*
X168047619Y-102997619D01*
X168095238Y-103092857D01*
X168142857Y-103283333D01*
X168142857Y-103521428D01*
X168095238Y-103711904D01*
X168047619Y-103807142D01*
X168000000Y-103854761D01*
X167904761Y-103902380D01*
X167809523Y-103902380D01*
X167714285Y-103854761D01*
X167666666Y-103807142D01*
X167619047Y-103711904D01*
X167571428Y-103521428D01*
X167571428Y-103283333D01*
X167619047Y-103092857D01*
X167666666Y-102997619D01*
X167714285Y-102950000D01*
X167809523Y-102902380D01*
X119452380Y-105833333D02*
X120166666Y-105833333D01*
X120309523Y-105880952D01*
X120404761Y-105976190D01*
X120452380Y-106119047D01*
X120452380Y-106214285D01*
X120452380Y-105309523D02*
X120452380Y-105119047D01*
X120404761Y-105023809D01*
X120357142Y-104976190D01*
X120214285Y-104880952D01*
X120023809Y-104833333D01*
X119642857Y-104833333D01*
X119547619Y-104880952D01*
X119500000Y-104928571D01*
X119452380Y-105023809D01*
X119452380Y-105214285D01*
X119500000Y-105309523D01*
X119547619Y-105357142D01*
X119642857Y-105404761D01*
X119880952Y-105404761D01*
X119976190Y-105357142D01*
X120023809Y-105309523D01*
X120071428Y-105214285D01*
X120071428Y-105023809D01*
X120023809Y-104928571D01*
X119976190Y-104880952D01*
X119880952Y-104833333D01*
X115952380Y-136833333D02*
X116666666Y-136833333D01*
X116809523Y-136880952D01*
X116904761Y-136976190D01*
X116952380Y-137119047D01*
X116952380Y-137214285D01*
X116380952Y-136214285D02*
X116333333Y-136309523D01*
X116285714Y-136357142D01*
X116190476Y-136404761D01*
X116142857Y-136404761D01*
X116047619Y-136357142D01*
X116000000Y-136309523D01*
X115952380Y-136214285D01*
X115952380Y-136023809D01*
X116000000Y-135928571D01*
X116047619Y-135880952D01*
X116142857Y-135833333D01*
X116190476Y-135833333D01*
X116285714Y-135880952D01*
X116333333Y-135928571D01*
X116380952Y-136023809D01*
X116380952Y-136214285D01*
X116428571Y-136309523D01*
X116476190Y-136357142D01*
X116571428Y-136404761D01*
X116761904Y-136404761D01*
X116857142Y-136357142D01*
X116904761Y-136309523D01*
X116952380Y-136214285D01*
X116952380Y-136023809D01*
X116904761Y-135928571D01*
X116857142Y-135880952D01*
X116761904Y-135833333D01*
X116571428Y-135833333D01*
X116476190Y-135880952D01*
X116428571Y-135928571D01*
X116380952Y-136023809D01*
X115952380Y-121833333D02*
X116666666Y-121833333D01*
X116809523Y-121880952D01*
X116904761Y-121976190D01*
X116952380Y-122119047D01*
X116952380Y-122214285D01*
X115952380Y-121452380D02*
X115952380Y-120785714D01*
X116952380Y-121214285D01*
X162166666Y-101282380D02*
X162166666Y-101996666D01*
X162119047Y-102139523D01*
X162023809Y-102234761D01*
X161880952Y-102282380D01*
X161785714Y-102282380D01*
X163071428Y-101282380D02*
X162880952Y-101282380D01*
X162785714Y-101330000D01*
X162738095Y-101377619D01*
X162642857Y-101520476D01*
X162595238Y-101710952D01*
X162595238Y-102091904D01*
X162642857Y-102187142D01*
X162690476Y-102234761D01*
X162785714Y-102282380D01*
X162976190Y-102282380D01*
X163071428Y-102234761D01*
X163119047Y-102187142D01*
X163166666Y-102091904D01*
X163166666Y-101853809D01*
X163119047Y-101758571D01*
X163071428Y-101710952D01*
X162976190Y-101663333D01*
X162785714Y-101663333D01*
X162690476Y-101710952D01*
X162642857Y-101758571D01*
X162595238Y-101853809D01*
X139666666Y-126452380D02*
X139666666Y-127166666D01*
X139619047Y-127309523D01*
X139523809Y-127404761D01*
X139380952Y-127452380D01*
X139285714Y-127452380D01*
X140619047Y-126452380D02*
X140142857Y-126452380D01*
X140095238Y-126928571D01*
X140142857Y-126880952D01*
X140238095Y-126833333D01*
X140476190Y-126833333D01*
X140571428Y-126880952D01*
X140619047Y-126928571D01*
X140666666Y-127023809D01*
X140666666Y-127261904D01*
X140619047Y-127357142D01*
X140571428Y-127404761D01*
X140476190Y-127452380D01*
X140238095Y-127452380D01*
X140142857Y-127404761D01*
X140095238Y-127357142D01*
X147416666Y-117902380D02*
X147416666Y-118616666D01*
X147369047Y-118759523D01*
X147273809Y-118854761D01*
X147130952Y-118902380D01*
X147035714Y-118902380D01*
X148321428Y-118235714D02*
X148321428Y-118902380D01*
X148083333Y-117854761D02*
X147845238Y-118569047D01*
X148464285Y-118569047D01*
X119452380Y-95833333D02*
X120166666Y-95833333D01*
X120309523Y-95880952D01*
X120404761Y-95976190D01*
X120452380Y-96119047D01*
X120452380Y-96214285D01*
X119452380Y-95452380D02*
X119452380Y-94833333D01*
X119833333Y-95166666D01*
X119833333Y-95023809D01*
X119880952Y-94928571D01*
X119928571Y-94880952D01*
X120023809Y-94833333D01*
X120261904Y-94833333D01*
X120357142Y-94880952D01*
X120404761Y-94928571D01*
X120452380Y-95023809D01*
X120452380Y-95309523D01*
X120404761Y-95404761D01*
X120357142Y-95452380D01*
X175166666Y-126952380D02*
X175166666Y-127666666D01*
X175119047Y-127809523D01*
X175023809Y-127904761D01*
X174880952Y-127952380D01*
X174785714Y-127952380D01*
X175595238Y-127047619D02*
X175642857Y-127000000D01*
X175738095Y-126952380D01*
X175976190Y-126952380D01*
X176071428Y-127000000D01*
X176119047Y-127047619D01*
X176166666Y-127142857D01*
X176166666Y-127238095D01*
X176119047Y-127380952D01*
X175547619Y-127952380D01*
X176166666Y-127952380D01*
X175166666Y-119952380D02*
X175166666Y-120666666D01*
X175119047Y-120809523D01*
X175023809Y-120904761D01*
X174880952Y-120952380D01*
X174785714Y-120952380D01*
X176166666Y-120952380D02*
X175595238Y-120952380D01*
X175880952Y-120952380D02*
X175880952Y-119952380D01*
X175785714Y-120095238D01*
X175690476Y-120190476D01*
X175595238Y-120238095D01*
X137357142Y-91666666D02*
X137404761Y-91714285D01*
X137452380Y-91857142D01*
X137452380Y-91952380D01*
X137404761Y-92095238D01*
X137309523Y-92190476D01*
X137214285Y-92238095D01*
X137023809Y-92285714D01*
X136880952Y-92285714D01*
X136690476Y-92238095D01*
X136595238Y-92190476D01*
X136500000Y-92095238D01*
X136452380Y-91952380D01*
X136452380Y-91857142D01*
X136500000Y-91714285D01*
X136547619Y-91666666D01*
X136452380Y-90809523D02*
X136452380Y-91000000D01*
X136500000Y-91095238D01*
X136547619Y-91142857D01*
X136690476Y-91238095D01*
X136880952Y-91285714D01*
X137261904Y-91285714D01*
X137357142Y-91238095D01*
X137404761Y-91190476D01*
X137452380Y-91095238D01*
X137452380Y-90904761D01*
X137404761Y-90809523D01*
X137357142Y-90761904D01*
X137261904Y-90714285D01*
X137023809Y-90714285D01*
X136928571Y-90761904D01*
X136880952Y-90809523D01*
X136833333Y-90904761D01*
X136833333Y-91095238D01*
X136880952Y-91190476D01*
X136928571Y-91238095D01*
X137023809Y-91285714D01*
X139357142Y-91666666D02*
X139404761Y-91714285D01*
X139452380Y-91857142D01*
X139452380Y-91952380D01*
X139404761Y-92095238D01*
X139309523Y-92190476D01*
X139214285Y-92238095D01*
X139023809Y-92285714D01*
X138880952Y-92285714D01*
X138690476Y-92238095D01*
X138595238Y-92190476D01*
X138500000Y-92095238D01*
X138452380Y-91952380D01*
X138452380Y-91857142D01*
X138500000Y-91714285D01*
X138547619Y-91666666D01*
X138452380Y-90761904D02*
X138452380Y-91238095D01*
X138928571Y-91285714D01*
X138880952Y-91238095D01*
X138833333Y-91142857D01*
X138833333Y-90904761D01*
X138880952Y-90809523D01*
X138928571Y-90761904D01*
X139023809Y-90714285D01*
X139261904Y-90714285D01*
X139357142Y-90761904D01*
X139404761Y-90809523D01*
X139452380Y-90904761D01*
X139452380Y-91142857D01*
X139404761Y-91238095D01*
X139357142Y-91285714D01*
X137795833Y-99537142D02*
X137748214Y-99584761D01*
X137605357Y-99632380D01*
X137510119Y-99632380D01*
X137367261Y-99584761D01*
X137272023Y-99489523D01*
X137224404Y-99394285D01*
X137176785Y-99203809D01*
X137176785Y-99060952D01*
X137224404Y-98870476D01*
X137272023Y-98775238D01*
X137367261Y-98680000D01*
X137510119Y-98632380D01*
X137605357Y-98632380D01*
X137748214Y-98680000D01*
X137795833Y-98727619D01*
X138652976Y-98965714D02*
X138652976Y-99632380D01*
X138414880Y-98584761D02*
X138176785Y-99299047D01*
X138795833Y-99299047D01*
X129333333Y-136507142D02*
X129285714Y-136554761D01*
X129142857Y-136602380D01*
X129047619Y-136602380D01*
X128904761Y-136554761D01*
X128809523Y-136459523D01*
X128761904Y-136364285D01*
X128714285Y-136173809D01*
X128714285Y-136030952D01*
X128761904Y-135840476D01*
X128809523Y-135745238D01*
X128904761Y-135650000D01*
X129047619Y-135602380D01*
X129142857Y-135602380D01*
X129285714Y-135650000D01*
X129333333Y-135697619D01*
X129666666Y-135602380D02*
X130285714Y-135602380D01*
X129952380Y-135983333D01*
X130095238Y-135983333D01*
X130190476Y-136030952D01*
X130238095Y-136078571D01*
X130285714Y-136173809D01*
X130285714Y-136411904D01*
X130238095Y-136507142D01*
X130190476Y-136554761D01*
X130095238Y-136602380D01*
X129809523Y-136602380D01*
X129714285Y-136554761D01*
X129666666Y-136507142D01*
X129025333Y-115007142D02*
X128977714Y-115054761D01*
X128834857Y-115102380D01*
X128739619Y-115102380D01*
X128596761Y-115054761D01*
X128501523Y-114959523D01*
X128453904Y-114864285D01*
X128406285Y-114673809D01*
X128406285Y-114530952D01*
X128453904Y-114340476D01*
X128501523Y-114245238D01*
X128596761Y-114150000D01*
X128739619Y-114102380D01*
X128834857Y-114102380D01*
X128977714Y-114150000D01*
X129025333Y-114197619D01*
X129406285Y-114197619D02*
X129453904Y-114150000D01*
X129549142Y-114102380D01*
X129787238Y-114102380D01*
X129882476Y-114150000D01*
X129930095Y-114197619D01*
X129977714Y-114292857D01*
X129977714Y-114388095D01*
X129930095Y-114530952D01*
X129358666Y-115102380D01*
X129977714Y-115102380D01*
X124370833Y-99857142D02*
X124323214Y-99904761D01*
X124180357Y-99952380D01*
X124085119Y-99952380D01*
X123942261Y-99904761D01*
X123847023Y-99809523D01*
X123799404Y-99714285D01*
X123751785Y-99523809D01*
X123751785Y-99380952D01*
X123799404Y-99190476D01*
X123847023Y-99095238D01*
X123942261Y-99000000D01*
X124085119Y-98952380D01*
X124180357Y-98952380D01*
X124323214Y-99000000D01*
X124370833Y-99047619D01*
X125323214Y-99952380D02*
X124751785Y-99952380D01*
X125037500Y-99952380D02*
X125037500Y-98952380D01*
X124942261Y-99095238D01*
X124847023Y-99190476D01*
X124751785Y-99238095D01*
X118785714Y-125166666D02*
X119261904Y-125166666D01*
X118690476Y-125452380D02*
X119023809Y-124452380D01*
X119357142Y-125452380D01*
X119642857Y-124547619D02*
X119690476Y-124500000D01*
X119785714Y-124452380D01*
X120023809Y-124452380D01*
X120119047Y-124500000D01*
X120166666Y-124547619D01*
X120214285Y-124642857D01*
X120214285Y-124738095D01*
X120166666Y-124880952D01*
X119595238Y-125452380D01*
X120214285Y-125452380D01*
X128635714Y-101346666D02*
X129111904Y-101346666D01*
X128540476Y-101632380D02*
X128873809Y-100632380D01*
X129207142Y-101632380D01*
X130064285Y-101632380D02*
X129492857Y-101632380D01*
X129778571Y-101632380D02*
X129778571Y-100632380D01*
X129683333Y-100775238D01*
X129588095Y-100870476D01*
X129492857Y-100918095D01*
%LPC*%
D12*
X147475000Y-100475000D03*
X149000000Y-100475000D03*
X150525000Y-100475000D03*
X150525000Y-103525000D03*
X149000000Y-103525000D03*
X147475000Y-103525000D03*
X147475000Y-102000000D03*
X150525000Y-102000000D03*
X149000000Y-102000000D03*
D13*
X158430000Y-94660000D03*
X158430000Y-95930000D03*
X158430000Y-97200000D03*
X158430000Y-98470000D03*
X158430000Y-99740000D03*
X158430000Y-101010000D03*
X158430000Y-102280000D03*
X158430000Y-103550000D03*
X158430000Y-104820000D03*
X158430000Y-106090000D03*
X158430000Y-107360000D03*
X158430000Y-108630000D03*
X158430000Y-109900000D03*
X158430000Y-111170000D03*
D14*
X155390000Y-112420000D03*
X154120000Y-112420000D03*
X152850000Y-112420000D03*
X151580000Y-112420000D03*
X150310000Y-112420000D03*
X149040000Y-112420000D03*
X147770000Y-112420000D03*
X146500000Y-112420000D03*
X145230000Y-112420000D03*
X143960000Y-112420000D03*
D13*
X140930000Y-94660000D03*
X140930000Y-95930000D03*
X140930000Y-97200000D03*
X140930000Y-98470000D03*
X140930000Y-99740000D03*
X140930000Y-101010000D03*
X140930000Y-102280000D03*
X140930000Y-103550000D03*
X140930000Y-104820000D03*
X140930000Y-106090000D03*
X140930000Y-107360000D03*
X140930000Y-108630000D03*
X140930000Y-109900000D03*
X140930000Y-111170000D03*
D15*
X123350000Y-89700000D03*
X123350000Y-94300000D03*
X123350000Y-92000000D03*
D16*
X129650000Y-92000000D03*
D17*
X167400000Y-101500000D03*
X174600000Y-101500000D03*
X174600000Y-98500000D03*
X167400000Y-98500000D03*
X167400000Y-95500000D03*
X174600000Y-95500000D03*
X174600000Y-92500000D03*
X167400000Y-92500000D03*
G36*
G01*
X164549999Y-94900000D02*
X165450001Y-94900000D01*
G75*
G02*
X165700000Y-95149999I0J-249999D01*
G01*
X165700000Y-95850001D01*
G75*
G02*
X165450001Y-96100000I-249999J0D01*
G01*
X164549999Y-96100000D01*
G75*
G02*
X164300000Y-95850001I0J249999D01*
G01*
X164300000Y-95149999D01*
G75*
G02*
X164549999Y-94900000I249999J0D01*
G01*
G37*
G36*
G01*
X164549999Y-92900000D02*
X165450001Y-92900000D01*
G75*
G02*
X165700000Y-93149999I0J-249999D01*
G01*
X165700000Y-93850001D01*
G75*
G02*
X165450001Y-94100000I-249999J0D01*
G01*
X164549999Y-94100000D01*
G75*
G02*
X164300000Y-93850001I0J249999D01*
G01*
X164300000Y-93149999D01*
G75*
G02*
X164549999Y-92900000I249999J0D01*
G01*
G37*
G36*
G01*
X156900000Y-114950001D02*
X156900000Y-114049999D01*
G75*
G02*
X157149999Y-113800000I249999J0D01*
G01*
X157850001Y-113800000D01*
G75*
G02*
X158100000Y-114049999I0J-249999D01*
G01*
X158100000Y-114950001D01*
G75*
G02*
X157850001Y-115200000I-249999J0D01*
G01*
X157149999Y-115200000D01*
G75*
G02*
X156900000Y-114950001I0J249999D01*
G01*
G37*
G36*
G01*
X154900000Y-114950001D02*
X154900000Y-114049999D01*
G75*
G02*
X155149999Y-113800000I249999J0D01*
G01*
X155850001Y-113800000D01*
G75*
G02*
X156100000Y-114049999I0J-249999D01*
G01*
X156100000Y-114950001D01*
G75*
G02*
X155850001Y-115200000I-249999J0D01*
G01*
X155149999Y-115200000D01*
G75*
G02*
X154900000Y-114950001I0J249999D01*
G01*
G37*
G36*
G01*
X153400000Y-114950001D02*
X153400000Y-114049999D01*
G75*
G02*
X153649999Y-113800000I249999J0D01*
G01*
X154350001Y-113800000D01*
G75*
G02*
X154600000Y-114049999I0J-249999D01*
G01*
X154600000Y-114950001D01*
G75*
G02*
X154350001Y-115200000I-249999J0D01*
G01*
X153649999Y-115200000D01*
G75*
G02*
X153400000Y-114950001I0J249999D01*
G01*
G37*
G36*
G01*
X151400000Y-114950001D02*
X151400000Y-114049999D01*
G75*
G02*
X151649999Y-113800000I249999J0D01*
G01*
X152350001Y-113800000D01*
G75*
G02*
X152600000Y-114049999I0J-249999D01*
G01*
X152600000Y-114950001D01*
G75*
G02*
X152350001Y-115200000I-249999J0D01*
G01*
X151649999Y-115200000D01*
G75*
G02*
X151400000Y-114950001I0J249999D01*
G01*
G37*
G36*
G01*
X134950001Y-96100000D02*
X134049999Y-96100000D01*
G75*
G02*
X133800000Y-95850001I0J249999D01*
G01*
X133800000Y-95149999D01*
G75*
G02*
X134049999Y-94900000I249999J0D01*
G01*
X134950001Y-94900000D01*
G75*
G02*
X135200000Y-95149999I0J-249999D01*
G01*
X135200000Y-95850001D01*
G75*
G02*
X134950001Y-96100000I-249999J0D01*
G01*
G37*
G36*
G01*
X134950001Y-98100000D02*
X134049999Y-98100000D01*
G75*
G02*
X133800000Y-97850001I0J249999D01*
G01*
X133800000Y-97149999D01*
G75*
G02*
X134049999Y-96900000I249999J0D01*
G01*
X134950001Y-96900000D01*
G75*
G02*
X135200000Y-97149999I0J-249999D01*
G01*
X135200000Y-97850001D01*
G75*
G02*
X134950001Y-98100000I-249999J0D01*
G01*
G37*
G36*
G01*
X132049999Y-96900000D02*
X132950001Y-96900000D01*
G75*
G02*
X133200000Y-97149999I0J-249999D01*
G01*
X133200000Y-97850001D01*
G75*
G02*
X132950001Y-98100000I-249999J0D01*
G01*
X132049999Y-98100000D01*
G75*
G02*
X131800000Y-97850001I0J249999D01*
G01*
X131800000Y-97149999D01*
G75*
G02*
X132049999Y-96900000I249999J0D01*
G01*
G37*
G36*
G01*
X132049999Y-94900000D02*
X132950001Y-94900000D01*
G75*
G02*
X133200000Y-95149999I0J-249999D01*
G01*
X133200000Y-95850001D01*
G75*
G02*
X132950001Y-96100000I-249999J0D01*
G01*
X132049999Y-96100000D01*
G75*
G02*
X131800000Y-95850001I0J249999D01*
G01*
X131800000Y-95149999D01*
G75*
G02*
X132049999Y-94900000I249999J0D01*
G01*
G37*
D18*
X169500000Y-114500000D03*
X167000000Y-114500000D03*
G36*
G01*
X163650000Y-115225000D02*
X163650000Y-113775000D01*
G75*
G02*
X163900000Y-113525000I250000J0D01*
G01*
X165100000Y-113525000D01*
G75*
G02*
X165350000Y-113775000I0J-250000D01*
G01*
X165350000Y-115225000D01*
G75*
G02*
X165100000Y-115475000I-250000J0D01*
G01*
X163900000Y-115475000D01*
G75*
G02*
X163650000Y-115225000I0J250000D01*
G01*
G37*
X169500000Y-107000000D03*
X167000000Y-107000000D03*
G36*
G01*
X163650000Y-107725000D02*
X163650000Y-106275000D01*
G75*
G02*
X163900000Y-106025000I250000J0D01*
G01*
X165100000Y-106025000D01*
G75*
G02*
X165350000Y-106275000I0J-250000D01*
G01*
X165350000Y-107725000D01*
G75*
G02*
X165100000Y-107975000I-250000J0D01*
G01*
X163900000Y-107975000D01*
G75*
G02*
X163650000Y-107725000I0J250000D01*
G01*
G37*
D19*
X114000000Y-103124000D03*
D20*
X114000000Y-108124000D03*
D21*
X111500000Y-128500000D03*
X111500000Y-131000000D03*
X111500000Y-133500000D03*
G36*
G01*
X112225000Y-136850000D02*
X110775000Y-136850000D01*
G75*
G02*
X110525000Y-136600000I0J250000D01*
G01*
X110525000Y-135400000D01*
G75*
G02*
X110775000Y-135150000I250000J0D01*
G01*
X112225000Y-135150000D01*
G75*
G02*
X112475000Y-135400000I0J-250000D01*
G01*
X112475000Y-136600000D01*
G75*
G02*
X112225000Y-136850000I-250000J0D01*
G01*
G37*
X111500000Y-114000000D03*
X111500000Y-116500000D03*
X111500000Y-119000000D03*
G36*
G01*
X112225000Y-122350000D02*
X110775000Y-122350000D01*
G75*
G02*
X110525000Y-122100000I0J250000D01*
G01*
X110525000Y-120900000D01*
G75*
G02*
X110775000Y-120650000I250000J0D01*
G01*
X112225000Y-120650000D01*
G75*
G02*
X112475000Y-120900000I0J-250000D01*
G01*
X112475000Y-122100000D01*
G75*
G02*
X112225000Y-122350000I-250000J0D01*
G01*
G37*
D22*
X162500000Y-94420000D03*
X162500000Y-96960000D03*
D23*
X162500000Y-99500000D03*
D18*
X151500000Y-129000000D03*
X149000000Y-129000000D03*
X146500000Y-129000000D03*
G36*
G01*
X143150000Y-129725000D02*
X143150000Y-128275000D01*
G75*
G02*
X143400000Y-128025000I250000J0D01*
G01*
X144600000Y-128025000D01*
G75*
G02*
X144850000Y-128275000I0J-250000D01*
G01*
X144850000Y-129725000D01*
G75*
G02*
X144600000Y-129975000I-250000J0D01*
G01*
X143400000Y-129975000D01*
G75*
G02*
X143150000Y-129725000I0J250000D01*
G01*
G37*
X151500000Y-122000000D03*
X149000000Y-122000000D03*
X146500000Y-122000000D03*
G36*
G01*
X143150000Y-122725000D02*
X143150000Y-121275000D01*
G75*
G02*
X143400000Y-121025000I250000J0D01*
G01*
X144600000Y-121025000D01*
G75*
G02*
X144850000Y-121275000I0J-250000D01*
G01*
X144850000Y-122725000D01*
G75*
G02*
X144600000Y-122975000I-250000J0D01*
G01*
X143400000Y-122975000D01*
G75*
G02*
X143150000Y-122725000I0J250000D01*
G01*
G37*
D19*
X114000000Y-92964000D03*
D20*
X114000000Y-97964000D03*
D18*
X171500000Y-129000000D03*
X169000000Y-129000000D03*
X166500000Y-129000000D03*
X164000000Y-129000000D03*
X161500000Y-129000000D03*
G36*
G01*
X158150000Y-129725000D02*
X158150000Y-128275000D01*
G75*
G02*
X158400000Y-128025000I250000J0D01*
G01*
X159600000Y-128025000D01*
G75*
G02*
X159850000Y-128275000I0J-250000D01*
G01*
X159850000Y-129725000D01*
G75*
G02*
X159600000Y-129975000I-250000J0D01*
G01*
X158400000Y-129975000D01*
G75*
G02*
X158150000Y-129725000I0J250000D01*
G01*
G37*
X171500000Y-122000000D03*
X169000000Y-122000000D03*
X166500000Y-122000000D03*
X164000000Y-122000000D03*
X161500000Y-122000000D03*
G36*
G01*
X158150000Y-122725000D02*
X158150000Y-121275000D01*
G75*
G02*
X158400000Y-121025000I250000J0D01*
G01*
X159600000Y-121025000D01*
G75*
G02*
X159850000Y-121275000I0J-250000D01*
G01*
X159850000Y-122725000D01*
G75*
G02*
X159600000Y-122975000I-250000J0D01*
G01*
X158400000Y-122975000D01*
G75*
G02*
X158150000Y-122725000I0J250000D01*
G01*
G37*
G36*
G01*
X137475000Y-94012500D02*
X136525000Y-94012500D01*
G75*
G02*
X136275000Y-93762500I0J250000D01*
G01*
X136275000Y-93087500D01*
G75*
G02*
X136525000Y-92837500I250000J0D01*
G01*
X137475000Y-92837500D01*
G75*
G02*
X137725000Y-93087500I0J-250000D01*
G01*
X137725000Y-93762500D01*
G75*
G02*
X137475000Y-94012500I-250000J0D01*
G01*
G37*
G36*
G01*
X137475000Y-96087500D02*
X136525000Y-96087500D01*
G75*
G02*
X136275000Y-95837500I0J250000D01*
G01*
X136275000Y-95162500D01*
G75*
G02*
X136525000Y-94912500I250000J0D01*
G01*
X137475000Y-94912500D01*
G75*
G02*
X137725000Y-95162500I0J-250000D01*
G01*
X137725000Y-95837500D01*
G75*
G02*
X137475000Y-96087500I-250000J0D01*
G01*
G37*
G36*
G01*
X139475000Y-94012500D02*
X138525000Y-94012500D01*
G75*
G02*
X138275000Y-93762500I0J250000D01*
G01*
X138275000Y-93087500D01*
G75*
G02*
X138525000Y-92837500I250000J0D01*
G01*
X139475000Y-92837500D01*
G75*
G02*
X139725000Y-93087500I0J-250000D01*
G01*
X139725000Y-93762500D01*
G75*
G02*
X139475000Y-94012500I-250000J0D01*
G01*
G37*
G36*
G01*
X139475000Y-96087500D02*
X138525000Y-96087500D01*
G75*
G02*
X138275000Y-95837500I0J250000D01*
G01*
X138275000Y-95162500D01*
G75*
G02*
X138525000Y-94912500I250000J0D01*
G01*
X139475000Y-94912500D01*
G75*
G02*
X139725000Y-95162500I0J-250000D01*
G01*
X139725000Y-95837500D01*
G75*
G02*
X139475000Y-96087500I-250000J0D01*
G01*
G37*
G36*
G01*
X137512500Y-97025000D02*
X137512500Y-97975000D01*
G75*
G02*
X137262500Y-98225000I-250000J0D01*
G01*
X136587500Y-98225000D01*
G75*
G02*
X136337500Y-97975000I0J250000D01*
G01*
X136337500Y-97025000D01*
G75*
G02*
X136587500Y-96775000I250000J0D01*
G01*
X137262500Y-96775000D01*
G75*
G02*
X137512500Y-97025000I0J-250000D01*
G01*
G37*
G36*
G01*
X139587500Y-97025000D02*
X139587500Y-97975000D01*
G75*
G02*
X139337500Y-98225000I-250000J0D01*
G01*
X138662500Y-98225000D01*
G75*
G02*
X138412500Y-97975000I0J250000D01*
G01*
X138412500Y-97025000D01*
G75*
G02*
X138662500Y-96775000I250000J0D01*
G01*
X139337500Y-96775000D01*
G75*
G02*
X139587500Y-97025000I0J-250000D01*
G01*
G37*
G36*
G01*
X130450000Y-141050000D02*
X130450000Y-139950000D01*
G75*
G02*
X130700000Y-139700000I250000J0D01*
G01*
X133700000Y-139700000D01*
G75*
G02*
X133950000Y-139950000I0J-250000D01*
G01*
X133950000Y-141050000D01*
G75*
G02*
X133700000Y-141300000I-250000J0D01*
G01*
X130700000Y-141300000D01*
G75*
G02*
X130450000Y-141050000I0J250000D01*
G01*
G37*
G36*
G01*
X125050000Y-141050000D02*
X125050000Y-139950000D01*
G75*
G02*
X125300000Y-139700000I250000J0D01*
G01*
X128300000Y-139700000D01*
G75*
G02*
X128550000Y-139950000I0J-250000D01*
G01*
X128550000Y-141050000D01*
G75*
G02*
X128300000Y-141300000I-250000J0D01*
G01*
X125300000Y-141300000D01*
G75*
G02*
X125050000Y-141050000I0J250000D01*
G01*
G37*
G36*
G01*
X130142000Y-119550000D02*
X130142000Y-118450000D01*
G75*
G02*
X130392000Y-118200000I250000J0D01*
G01*
X133392000Y-118200000D01*
G75*
G02*
X133642000Y-118450000I0J-250000D01*
G01*
X133642000Y-119550000D01*
G75*
G02*
X133392000Y-119800000I-250000J0D01*
G01*
X130392000Y-119800000D01*
G75*
G02*
X130142000Y-119550000I0J250000D01*
G01*
G37*
G36*
G01*
X124742000Y-119550000D02*
X124742000Y-118450000D01*
G75*
G02*
X124992000Y-118200000I250000J0D01*
G01*
X127992000Y-118200000D01*
G75*
G02*
X128242000Y-118450000I0J-250000D01*
G01*
X128242000Y-119550000D01*
G75*
G02*
X127992000Y-119800000I-250000J0D01*
G01*
X124992000Y-119800000D01*
G75*
G02*
X124742000Y-119550000I0J250000D01*
G01*
G37*
G36*
G01*
X124987500Y-97975000D02*
X124987500Y-97025000D01*
G75*
G02*
X125237500Y-96775000I250000J0D01*
G01*
X125912500Y-96775000D01*
G75*
G02*
X126162500Y-97025000I0J-250000D01*
G01*
X126162500Y-97975000D01*
G75*
G02*
X125912500Y-98225000I-250000J0D01*
G01*
X125237500Y-98225000D01*
G75*
G02*
X124987500Y-97975000I0J250000D01*
G01*
G37*
G36*
G01*
X122912500Y-97975000D02*
X122912500Y-97025000D01*
G75*
G02*
X123162500Y-96775000I250000J0D01*
G01*
X123837500Y-96775000D01*
G75*
G02*
X124087500Y-97025000I0J-250000D01*
G01*
X124087500Y-97975000D01*
G75*
G02*
X123837500Y-98225000I-250000J0D01*
G01*
X123162500Y-98225000D01*
G75*
G02*
X122912500Y-97975000I0J250000D01*
G01*
G37*
D24*
X135700000Y-125000000D03*
X123000000Y-142780000D03*
X135700000Y-127540000D03*
X123000000Y-140240000D03*
X135700000Y-130080000D03*
X123000000Y-137700000D03*
X135700000Y-132620000D03*
X123000000Y-135160000D03*
X135700000Y-135160000D03*
X123000000Y-132620000D03*
X135700000Y-137700000D03*
X123000000Y-130080000D03*
X135700000Y-140240000D03*
X123000000Y-127540000D03*
X135700000Y-142780000D03*
D25*
X123000000Y-125000000D03*
D24*
X135700000Y-103720000D03*
X123000000Y-121500000D03*
X135700000Y-106260000D03*
X123000000Y-118960000D03*
X135700000Y-108800000D03*
X123000000Y-116420000D03*
X135700000Y-111340000D03*
X123000000Y-113880000D03*
X135700000Y-113880000D03*
X123000000Y-111340000D03*
X135700000Y-116420000D03*
X123000000Y-108800000D03*
X135700000Y-118960000D03*
X123000000Y-106260000D03*
X135700000Y-121500000D03*
D25*
X123000000Y-103720000D03*
M02*
