G04 #@! TF.GenerationSoftware,KiCad,Pcbnew,(5.1.10)-1*
G04 #@! TF.CreationDate,2022-07-24T00:59:47-05:00*
G04 #@! TF.ProjectId,MuscleRoller,4d757363-6c65-4526-9f6c-6c65722e6b69,rev?*
G04 #@! TF.SameCoordinates,Original*
G04 #@! TF.FileFunction,Soldermask,Top*
G04 #@! TF.FilePolarity,Negative*
%FSLAX46Y46*%
G04 Gerber Fmt 4.6, Leading zero omitted, Abs format (unit mm)*
G04 Created by KiCad (PCBNEW (5.1.10)-1) date 2022-07-24 00:59:47*
%MOMM*%
%LPD*%
G01*
G04 APERTURE LIST*
%ADD10R,1.050000X1.050000*%
%ADD11R,1.500000X0.900000*%
%ADD12R,0.900000X1.500000*%
%ADD13R,2.000000X1.500000*%
%ADD14R,2.000000X3.800000*%
%ADD15R,1.600000X1.400000*%
%ADD16O,1.700000X1.950000*%
%ADD17C,2.600000*%
%ADD18R,2.600000X2.600000*%
%ADD19O,1.950000X1.700000*%
%ADD20O,1.700000X1.700000*%
%ADD21R,1.700000X1.700000*%
%ADD22O,1.600000X1.600000*%
%ADD23R,1.600000X1.600000*%
G04 APERTURE END LIST*
D10*
X147475000Y-100475000D03*
X149000000Y-100475000D03*
X150525000Y-100475000D03*
X150525000Y-103525000D03*
X149000000Y-103525000D03*
X147475000Y-103525000D03*
X147475000Y-102000000D03*
X150525000Y-102000000D03*
X149000000Y-102000000D03*
D11*
X158430000Y-94660000D03*
X158430000Y-95930000D03*
X158430000Y-97200000D03*
X158430000Y-98470000D03*
X158430000Y-99740000D03*
X158430000Y-101010000D03*
X158430000Y-102280000D03*
X158430000Y-103550000D03*
X158430000Y-104820000D03*
X158430000Y-106090000D03*
X158430000Y-107360000D03*
X158430000Y-108630000D03*
X158430000Y-109900000D03*
X158430000Y-111170000D03*
D12*
X155390000Y-112420000D03*
X154120000Y-112420000D03*
X152850000Y-112420000D03*
X151580000Y-112420000D03*
X150310000Y-112420000D03*
X149040000Y-112420000D03*
X147770000Y-112420000D03*
X146500000Y-112420000D03*
X145230000Y-112420000D03*
X143960000Y-112420000D03*
D11*
X140930000Y-94660000D03*
X140930000Y-95930000D03*
X140930000Y-97200000D03*
X140930000Y-98470000D03*
X140930000Y-99740000D03*
X140930000Y-101010000D03*
X140930000Y-102280000D03*
X140930000Y-103550000D03*
X140930000Y-104820000D03*
X140930000Y-106090000D03*
X140930000Y-107360000D03*
X140930000Y-108630000D03*
X140930000Y-109900000D03*
X140930000Y-111170000D03*
D13*
X123350000Y-89700000D03*
X123350000Y-94300000D03*
X123350000Y-92000000D03*
D14*
X129650000Y-92000000D03*
D15*
X167400000Y-101500000D03*
X174600000Y-101500000D03*
X174600000Y-98500000D03*
X167400000Y-98500000D03*
X167400000Y-95500000D03*
X174600000Y-95500000D03*
X174600000Y-92500000D03*
X167400000Y-92500000D03*
G36*
G01*
X164549999Y-94900000D02*
X165450001Y-94900000D01*
G75*
G02*
X165700000Y-95149999I0J-249999D01*
G01*
X165700000Y-95850001D01*
G75*
G02*
X165450001Y-96100000I-249999J0D01*
G01*
X164549999Y-96100000D01*
G75*
G02*
X164300000Y-95850001I0J249999D01*
G01*
X164300000Y-95149999D01*
G75*
G02*
X164549999Y-94900000I249999J0D01*
G01*
G37*
G36*
G01*
X164549999Y-92900000D02*
X165450001Y-92900000D01*
G75*
G02*
X165700000Y-93149999I0J-249999D01*
G01*
X165700000Y-93850001D01*
G75*
G02*
X165450001Y-94100000I-249999J0D01*
G01*
X164549999Y-94100000D01*
G75*
G02*
X164300000Y-93850001I0J249999D01*
G01*
X164300000Y-93149999D01*
G75*
G02*
X164549999Y-92900000I249999J0D01*
G01*
G37*
G36*
G01*
X156900000Y-114950001D02*
X156900000Y-114049999D01*
G75*
G02*
X157149999Y-113800000I249999J0D01*
G01*
X157850001Y-113800000D01*
G75*
G02*
X158100000Y-114049999I0J-249999D01*
G01*
X158100000Y-114950001D01*
G75*
G02*
X157850001Y-115200000I-249999J0D01*
G01*
X157149999Y-115200000D01*
G75*
G02*
X156900000Y-114950001I0J249999D01*
G01*
G37*
G36*
G01*
X154900000Y-114950001D02*
X154900000Y-114049999D01*
G75*
G02*
X155149999Y-113800000I249999J0D01*
G01*
X155850001Y-113800000D01*
G75*
G02*
X156100000Y-114049999I0J-249999D01*
G01*
X156100000Y-114950001D01*
G75*
G02*
X155850001Y-115200000I-249999J0D01*
G01*
X155149999Y-115200000D01*
G75*
G02*
X154900000Y-114950001I0J249999D01*
G01*
G37*
G36*
G01*
X153400000Y-114950001D02*
X153400000Y-114049999D01*
G75*
G02*
X153649999Y-113800000I249999J0D01*
G01*
X154350001Y-113800000D01*
G75*
G02*
X154600000Y-114049999I0J-249999D01*
G01*
X154600000Y-114950001D01*
G75*
G02*
X154350001Y-115200000I-249999J0D01*
G01*
X153649999Y-115200000D01*
G75*
G02*
X153400000Y-114950001I0J249999D01*
G01*
G37*
G36*
G01*
X151400000Y-114950001D02*
X151400000Y-114049999D01*
G75*
G02*
X151649999Y-113800000I249999J0D01*
G01*
X152350001Y-113800000D01*
G75*
G02*
X152600000Y-114049999I0J-249999D01*
G01*
X152600000Y-114950001D01*
G75*
G02*
X152350001Y-115200000I-249999J0D01*
G01*
X151649999Y-115200000D01*
G75*
G02*
X151400000Y-114950001I0J249999D01*
G01*
G37*
G36*
G01*
X134950001Y-96100000D02*
X134049999Y-96100000D01*
G75*
G02*
X133800000Y-95850001I0J249999D01*
G01*
X133800000Y-95149999D01*
G75*
G02*
X134049999Y-94900000I249999J0D01*
G01*
X134950001Y-94900000D01*
G75*
G02*
X135200000Y-95149999I0J-249999D01*
G01*
X135200000Y-95850001D01*
G75*
G02*
X134950001Y-96100000I-249999J0D01*
G01*
G37*
G36*
G01*
X134950001Y-98100000D02*
X134049999Y-98100000D01*
G75*
G02*
X133800000Y-97850001I0J249999D01*
G01*
X133800000Y-97149999D01*
G75*
G02*
X134049999Y-96900000I249999J0D01*
G01*
X134950001Y-96900000D01*
G75*
G02*
X135200000Y-97149999I0J-249999D01*
G01*
X135200000Y-97850001D01*
G75*
G02*
X134950001Y-98100000I-249999J0D01*
G01*
G37*
G36*
G01*
X132049999Y-96900000D02*
X132950001Y-96900000D01*
G75*
G02*
X133200000Y-97149999I0J-249999D01*
G01*
X133200000Y-97850001D01*
G75*
G02*
X132950001Y-98100000I-249999J0D01*
G01*
X132049999Y-98100000D01*
G75*
G02*
X131800000Y-97850001I0J249999D01*
G01*
X131800000Y-97149999D01*
G75*
G02*
X132049999Y-96900000I249999J0D01*
G01*
G37*
G36*
G01*
X132049999Y-94900000D02*
X132950001Y-94900000D01*
G75*
G02*
X133200000Y-95149999I0J-249999D01*
G01*
X133200000Y-95850001D01*
G75*
G02*
X132950001Y-96100000I-249999J0D01*
G01*
X132049999Y-96100000D01*
G75*
G02*
X131800000Y-95850001I0J249999D01*
G01*
X131800000Y-95149999D01*
G75*
G02*
X132049999Y-94900000I249999J0D01*
G01*
G37*
D16*
X169500000Y-114500000D03*
X167000000Y-114500000D03*
G36*
G01*
X163650000Y-115225000D02*
X163650000Y-113775000D01*
G75*
G02*
X163900000Y-113525000I250000J0D01*
G01*
X165100000Y-113525000D01*
G75*
G02*
X165350000Y-113775000I0J-250000D01*
G01*
X165350000Y-115225000D01*
G75*
G02*
X165100000Y-115475000I-250000J0D01*
G01*
X163900000Y-115475000D01*
G75*
G02*
X163650000Y-115225000I0J250000D01*
G01*
G37*
X169500000Y-107000000D03*
X167000000Y-107000000D03*
G36*
G01*
X163650000Y-107725000D02*
X163650000Y-106275000D01*
G75*
G02*
X163900000Y-106025000I250000J0D01*
G01*
X165100000Y-106025000D01*
G75*
G02*
X165350000Y-106275000I0J-250000D01*
G01*
X165350000Y-107725000D01*
G75*
G02*
X165100000Y-107975000I-250000J0D01*
G01*
X163900000Y-107975000D01*
G75*
G02*
X163650000Y-107725000I0J250000D01*
G01*
G37*
D17*
X114000000Y-103124000D03*
D18*
X114000000Y-108124000D03*
D19*
X111500000Y-128500000D03*
X111500000Y-131000000D03*
X111500000Y-133500000D03*
G36*
G01*
X112225000Y-136850000D02*
X110775000Y-136850000D01*
G75*
G02*
X110525000Y-136600000I0J250000D01*
G01*
X110525000Y-135400000D01*
G75*
G02*
X110775000Y-135150000I250000J0D01*
G01*
X112225000Y-135150000D01*
G75*
G02*
X112475000Y-135400000I0J-250000D01*
G01*
X112475000Y-136600000D01*
G75*
G02*
X112225000Y-136850000I-250000J0D01*
G01*
G37*
X111500000Y-114000000D03*
X111500000Y-116500000D03*
X111500000Y-119000000D03*
G36*
G01*
X112225000Y-122350000D02*
X110775000Y-122350000D01*
G75*
G02*
X110525000Y-122100000I0J250000D01*
G01*
X110525000Y-120900000D01*
G75*
G02*
X110775000Y-120650000I250000J0D01*
G01*
X112225000Y-120650000D01*
G75*
G02*
X112475000Y-120900000I0J-250000D01*
G01*
X112475000Y-122100000D01*
G75*
G02*
X112225000Y-122350000I-250000J0D01*
G01*
G37*
D20*
X162500000Y-94420000D03*
X162500000Y-96960000D03*
D21*
X162500000Y-99500000D03*
D16*
X151500000Y-129000000D03*
X149000000Y-129000000D03*
X146500000Y-129000000D03*
G36*
G01*
X143150000Y-129725000D02*
X143150000Y-128275000D01*
G75*
G02*
X143400000Y-128025000I250000J0D01*
G01*
X144600000Y-128025000D01*
G75*
G02*
X144850000Y-128275000I0J-250000D01*
G01*
X144850000Y-129725000D01*
G75*
G02*
X144600000Y-129975000I-250000J0D01*
G01*
X143400000Y-129975000D01*
G75*
G02*
X143150000Y-129725000I0J250000D01*
G01*
G37*
X151500000Y-122000000D03*
X149000000Y-122000000D03*
X146500000Y-122000000D03*
G36*
G01*
X143150000Y-122725000D02*
X143150000Y-121275000D01*
G75*
G02*
X143400000Y-121025000I250000J0D01*
G01*
X144600000Y-121025000D01*
G75*
G02*
X144850000Y-121275000I0J-250000D01*
G01*
X144850000Y-122725000D01*
G75*
G02*
X144600000Y-122975000I-250000J0D01*
G01*
X143400000Y-122975000D01*
G75*
G02*
X143150000Y-122725000I0J250000D01*
G01*
G37*
D17*
X114000000Y-92964000D03*
D18*
X114000000Y-97964000D03*
D16*
X171500000Y-129000000D03*
X169000000Y-129000000D03*
X166500000Y-129000000D03*
X164000000Y-129000000D03*
X161500000Y-129000000D03*
G36*
G01*
X158150000Y-129725000D02*
X158150000Y-128275000D01*
G75*
G02*
X158400000Y-128025000I250000J0D01*
G01*
X159600000Y-128025000D01*
G75*
G02*
X159850000Y-128275000I0J-250000D01*
G01*
X159850000Y-129725000D01*
G75*
G02*
X159600000Y-129975000I-250000J0D01*
G01*
X158400000Y-129975000D01*
G75*
G02*
X158150000Y-129725000I0J250000D01*
G01*
G37*
X171500000Y-122000000D03*
X169000000Y-122000000D03*
X166500000Y-122000000D03*
X164000000Y-122000000D03*
X161500000Y-122000000D03*
G36*
G01*
X158150000Y-122725000D02*
X158150000Y-121275000D01*
G75*
G02*
X158400000Y-121025000I250000J0D01*
G01*
X159600000Y-121025000D01*
G75*
G02*
X159850000Y-121275000I0J-250000D01*
G01*
X159850000Y-122725000D01*
G75*
G02*
X159600000Y-122975000I-250000J0D01*
G01*
X158400000Y-122975000D01*
G75*
G02*
X158150000Y-122725000I0J250000D01*
G01*
G37*
G36*
G01*
X137475000Y-94012500D02*
X136525000Y-94012500D01*
G75*
G02*
X136275000Y-93762500I0J250000D01*
G01*
X136275000Y-93087500D01*
G75*
G02*
X136525000Y-92837500I250000J0D01*
G01*
X137475000Y-92837500D01*
G75*
G02*
X137725000Y-93087500I0J-250000D01*
G01*
X137725000Y-93762500D01*
G75*
G02*
X137475000Y-94012500I-250000J0D01*
G01*
G37*
G36*
G01*
X137475000Y-96087500D02*
X136525000Y-96087500D01*
G75*
G02*
X136275000Y-95837500I0J250000D01*
G01*
X136275000Y-95162500D01*
G75*
G02*
X136525000Y-94912500I250000J0D01*
G01*
X137475000Y-94912500D01*
G75*
G02*
X137725000Y-95162500I0J-250000D01*
G01*
X137725000Y-95837500D01*
G75*
G02*
X137475000Y-96087500I-250000J0D01*
G01*
G37*
G36*
G01*
X139475000Y-94012500D02*
X138525000Y-94012500D01*
G75*
G02*
X138275000Y-93762500I0J250000D01*
G01*
X138275000Y-93087500D01*
G75*
G02*
X138525000Y-92837500I250000J0D01*
G01*
X139475000Y-92837500D01*
G75*
G02*
X139725000Y-93087500I0J-250000D01*
G01*
X139725000Y-93762500D01*
G75*
G02*
X139475000Y-94012500I-250000J0D01*
G01*
G37*
G36*
G01*
X139475000Y-96087500D02*
X138525000Y-96087500D01*
G75*
G02*
X138275000Y-95837500I0J250000D01*
G01*
X138275000Y-95162500D01*
G75*
G02*
X138525000Y-94912500I250000J0D01*
G01*
X139475000Y-94912500D01*
G75*
G02*
X139725000Y-95162500I0J-250000D01*
G01*
X139725000Y-95837500D01*
G75*
G02*
X139475000Y-96087500I-250000J0D01*
G01*
G37*
G36*
G01*
X137512500Y-97025000D02*
X137512500Y-97975000D01*
G75*
G02*
X137262500Y-98225000I-250000J0D01*
G01*
X136587500Y-98225000D01*
G75*
G02*
X136337500Y-97975000I0J250000D01*
G01*
X136337500Y-97025000D01*
G75*
G02*
X136587500Y-96775000I250000J0D01*
G01*
X137262500Y-96775000D01*
G75*
G02*
X137512500Y-97025000I0J-250000D01*
G01*
G37*
G36*
G01*
X139587500Y-97025000D02*
X139587500Y-97975000D01*
G75*
G02*
X139337500Y-98225000I-250000J0D01*
G01*
X138662500Y-98225000D01*
G75*
G02*
X138412500Y-97975000I0J250000D01*
G01*
X138412500Y-97025000D01*
G75*
G02*
X138662500Y-96775000I250000J0D01*
G01*
X139337500Y-96775000D01*
G75*
G02*
X139587500Y-97025000I0J-250000D01*
G01*
G37*
G36*
G01*
X130450000Y-141050000D02*
X130450000Y-139950000D01*
G75*
G02*
X130700000Y-139700000I250000J0D01*
G01*
X133700000Y-139700000D01*
G75*
G02*
X133950000Y-139950000I0J-250000D01*
G01*
X133950000Y-141050000D01*
G75*
G02*
X133700000Y-141300000I-250000J0D01*
G01*
X130700000Y-141300000D01*
G75*
G02*
X130450000Y-141050000I0J250000D01*
G01*
G37*
G36*
G01*
X125050000Y-141050000D02*
X125050000Y-139950000D01*
G75*
G02*
X125300000Y-139700000I250000J0D01*
G01*
X128300000Y-139700000D01*
G75*
G02*
X128550000Y-139950000I0J-250000D01*
G01*
X128550000Y-141050000D01*
G75*
G02*
X128300000Y-141300000I-250000J0D01*
G01*
X125300000Y-141300000D01*
G75*
G02*
X125050000Y-141050000I0J250000D01*
G01*
G37*
G36*
G01*
X130142000Y-119550000D02*
X130142000Y-118450000D01*
G75*
G02*
X130392000Y-118200000I250000J0D01*
G01*
X133392000Y-118200000D01*
G75*
G02*
X133642000Y-118450000I0J-250000D01*
G01*
X133642000Y-119550000D01*
G75*
G02*
X133392000Y-119800000I-250000J0D01*
G01*
X130392000Y-119800000D01*
G75*
G02*
X130142000Y-119550000I0J250000D01*
G01*
G37*
G36*
G01*
X124742000Y-119550000D02*
X124742000Y-118450000D01*
G75*
G02*
X124992000Y-118200000I250000J0D01*
G01*
X127992000Y-118200000D01*
G75*
G02*
X128242000Y-118450000I0J-250000D01*
G01*
X128242000Y-119550000D01*
G75*
G02*
X127992000Y-119800000I-250000J0D01*
G01*
X124992000Y-119800000D01*
G75*
G02*
X124742000Y-119550000I0J250000D01*
G01*
G37*
G36*
G01*
X124987500Y-97975000D02*
X124987500Y-97025000D01*
G75*
G02*
X125237500Y-96775000I250000J0D01*
G01*
X125912500Y-96775000D01*
G75*
G02*
X126162500Y-97025000I0J-250000D01*
G01*
X126162500Y-97975000D01*
G75*
G02*
X125912500Y-98225000I-250000J0D01*
G01*
X125237500Y-98225000D01*
G75*
G02*
X124987500Y-97975000I0J250000D01*
G01*
G37*
G36*
G01*
X122912500Y-97975000D02*
X122912500Y-97025000D01*
G75*
G02*
X123162500Y-96775000I250000J0D01*
G01*
X123837500Y-96775000D01*
G75*
G02*
X124087500Y-97025000I0J-250000D01*
G01*
X124087500Y-97975000D01*
G75*
G02*
X123837500Y-98225000I-250000J0D01*
G01*
X123162500Y-98225000D01*
G75*
G02*
X122912500Y-97975000I0J250000D01*
G01*
G37*
D22*
X135700000Y-125000000D03*
X123000000Y-142780000D03*
X135700000Y-127540000D03*
X123000000Y-140240000D03*
X135700000Y-130080000D03*
X123000000Y-137700000D03*
X135700000Y-132620000D03*
X123000000Y-135160000D03*
X135700000Y-135160000D03*
X123000000Y-132620000D03*
X135700000Y-137700000D03*
X123000000Y-130080000D03*
X135700000Y-140240000D03*
X123000000Y-127540000D03*
X135700000Y-142780000D03*
D23*
X123000000Y-125000000D03*
D22*
X135700000Y-103720000D03*
X123000000Y-121500000D03*
X135700000Y-106260000D03*
X123000000Y-118960000D03*
X135700000Y-108800000D03*
X123000000Y-116420000D03*
X135700000Y-111340000D03*
X123000000Y-113880000D03*
X135700000Y-113880000D03*
X123000000Y-111340000D03*
X135700000Y-116420000D03*
X123000000Y-108800000D03*
X135700000Y-118960000D03*
X123000000Y-106260000D03*
X135700000Y-121500000D03*
D23*
X123000000Y-103720000D03*
M02*
