M48
; DRILL file {KiCad (5.1.10)-1} date 07/24/22 00:59:49
; FORMAT={-:-/ absolute / metric / decimal}
; #@! TF.CreationDate,2022-07-24T00:59:49-05:00
; #@! TF.GenerationSoftware,Kicad,Pcbnew,(5.1.10)-1
; #@! TF.FileFunction,Plated,1,2,PTH
FMAT,2
METRIC
T1C0.305
T2C0.800
T3C0.950
T4C1.000
T5C1.300
%
G90
G05
T1
X120.269Y-93.599
X121.412Y-90.805
X126.619Y-97.663
X131.699Y-92.202
X135.636Y-94.361
X144.018Y-113.919
X153.924Y-110.871
X158.623Y-113.284
X159.639Y-95.885
X159.639Y-97.155
X165.862Y-101.473
T2
X123.0Y-103.72
X123.0Y-106.26
X123.0Y-108.8
X123.0Y-111.34
X123.0Y-113.88
X123.0Y-116.42
X123.0Y-118.96
X123.0Y-121.5
X123.0Y-125.0
X123.0Y-127.54
X123.0Y-130.08
X123.0Y-132.62
X123.0Y-135.16
X123.0Y-137.7
X123.0Y-140.24
X123.0Y-142.78
X135.7Y-103.72
X135.7Y-106.26
X135.7Y-108.8
X135.7Y-111.34
X135.7Y-113.88
X135.7Y-116.42
X135.7Y-118.96
X135.7Y-121.5
X135.7Y-125.0
X135.7Y-127.54
X135.7Y-130.08
X135.7Y-132.62
X135.7Y-135.16
X135.7Y-137.7
X135.7Y-140.24
X135.7Y-142.78
T3
X111.5Y-114.0
X111.5Y-116.5
X111.5Y-119.0
X111.5Y-121.5
X111.5Y-128.5
X111.5Y-131.0
X111.5Y-133.5
X111.5Y-136.0
X144.0Y-122.0
X144.0Y-129.0
X146.5Y-122.0
X146.5Y-129.0
X149.0Y-122.0
X149.0Y-129.0
X151.5Y-122.0
X151.5Y-129.0
X159.0Y-122.0
X159.0Y-129.0
X161.5Y-122.0
X161.5Y-129.0
X164.0Y-122.0
X164.0Y-129.0
X164.5Y-107.0
X164.5Y-114.5
X166.5Y-122.0
X166.5Y-129.0
X167.0Y-107.0
X167.0Y-114.5
X169.0Y-122.0
X169.0Y-129.0
X169.5Y-107.0
X169.5Y-114.5
X171.5Y-122.0
X171.5Y-129.0
T4
X162.5Y-94.42
X162.5Y-96.96
X162.5Y-99.5
T5
X114.0Y-92.964
X114.0Y-97.964
X114.0Y-103.124
X114.0Y-108.124
T0
M30
