G04 #@! TF.GenerationSoftware,KiCad,Pcbnew,6.0.7-f9a2dced07~116~ubuntu20.04.1*
G04 #@! TF.CreationDate,2022-08-24T01:16:15-05:00*
G04 #@! TF.ProjectId,MuscleRoller,4d757363-6c65-4526-9f6c-6c65722e6b69,rev?*
G04 #@! TF.SameCoordinates,Original*
G04 #@! TF.FileFunction,Copper,L2,Bot*
G04 #@! TF.FilePolarity,Positive*
%FSLAX46Y46*%
G04 Gerber Fmt 4.6, Leading zero omitted, Abs format (unit mm)*
G04 Created by KiCad (PCBNEW 6.0.7-f9a2dced07~116~ubuntu20.04.1) date 2022-08-24 01:16:15*
%MOMM*%
%LPD*%
G01*
G04 APERTURE LIST*
G04 Aperture macros list*
%AMRoundRect*
0 Rectangle with rounded corners*
0 $1 Rounding radius*
0 $2 $3 $4 $5 $6 $7 $8 $9 X,Y pos of 4 corners*
0 Add a 4 corners polygon primitive as box body*
4,1,4,$2,$3,$4,$5,$6,$7,$8,$9,$2,$3,0*
0 Add four circle primitives for the rounded corners*
1,1,$1+$1,$2,$3*
1,1,$1+$1,$4,$5*
1,1,$1+$1,$6,$7*
1,1,$1+$1,$8,$9*
0 Add four rect primitives between the rounded corners*
20,1,$1+$1,$2,$3,$4,$5,0*
20,1,$1+$1,$4,$5,$6,$7,0*
20,1,$1+$1,$6,$7,$8,$9,0*
20,1,$1+$1,$8,$9,$2,$3,0*%
G04 Aperture macros list end*
G04 #@! TA.AperFunction,ComponentPad*
%ADD10R,1.600000X1.600000*%
G04 #@! TD*
G04 #@! TA.AperFunction,ComponentPad*
%ADD11O,1.600000X1.600000*%
G04 #@! TD*
G04 #@! TA.AperFunction,ComponentPad*
%ADD12RoundRect,0.250000X-0.600000X-0.725000X0.600000X-0.725000X0.600000X0.725000X-0.600000X0.725000X0*%
G04 #@! TD*
G04 #@! TA.AperFunction,ComponentPad*
%ADD13O,1.700000X1.950000*%
G04 #@! TD*
G04 #@! TA.AperFunction,ComponentPad*
%ADD14R,1.700000X1.700000*%
G04 #@! TD*
G04 #@! TA.AperFunction,ComponentPad*
%ADD15O,1.700000X1.700000*%
G04 #@! TD*
G04 #@! TA.AperFunction,ComponentPad*
%ADD16RoundRect,0.250000X0.725000X-0.600000X0.725000X0.600000X-0.725000X0.600000X-0.725000X-0.600000X0*%
G04 #@! TD*
G04 #@! TA.AperFunction,ComponentPad*
%ADD17O,1.950000X1.700000*%
G04 #@! TD*
G04 #@! TA.AperFunction,ComponentPad*
%ADD18R,2.600000X2.600000*%
G04 #@! TD*
G04 #@! TA.AperFunction,ComponentPad*
%ADD19C,2.600000*%
G04 #@! TD*
G04 #@! TA.AperFunction,ViaPad*
%ADD20C,0.609600*%
G04 #@! TD*
G04 #@! TA.AperFunction,Conductor*
%ADD21C,0.254000*%
G04 #@! TD*
G04 #@! TA.AperFunction,Conductor*
%ADD22C,0.762000*%
G04 #@! TD*
G04 APERTURE END LIST*
D10*
X123000000Y-103720000D03*
D11*
X123000000Y-106260000D03*
X123000000Y-108800000D03*
X123000000Y-111340000D03*
X123000000Y-113880000D03*
X123000000Y-116420000D03*
X123000000Y-118960000D03*
X123000000Y-121500000D03*
X135700000Y-121500000D03*
X135700000Y-118960000D03*
X135700000Y-116420000D03*
X135700000Y-113880000D03*
X135700000Y-111340000D03*
X135700000Y-108800000D03*
X135700000Y-106260000D03*
X135700000Y-103720000D03*
D10*
X123000000Y-125000000D03*
D11*
X123000000Y-127540000D03*
X123000000Y-130080000D03*
X123000000Y-132620000D03*
X123000000Y-135160000D03*
X123000000Y-137700000D03*
X123000000Y-140240000D03*
X123000000Y-142780000D03*
X135700000Y-142780000D03*
X135700000Y-140240000D03*
X135700000Y-137700000D03*
X135700000Y-135160000D03*
X135700000Y-132620000D03*
X135700000Y-130080000D03*
X135700000Y-127540000D03*
X135700000Y-125000000D03*
D12*
X159000000Y-122000000D03*
D13*
X161500000Y-122000000D03*
X164000000Y-122000000D03*
X166500000Y-122000000D03*
X169000000Y-122000000D03*
X171500000Y-122000000D03*
D12*
X159000000Y-129000000D03*
D13*
X161500000Y-129000000D03*
X164000000Y-129000000D03*
X166500000Y-129000000D03*
X169000000Y-129000000D03*
X171500000Y-129000000D03*
D12*
X144000000Y-122000000D03*
D13*
X146500000Y-122000000D03*
X149000000Y-122000000D03*
X151500000Y-122000000D03*
D12*
X144000000Y-129000000D03*
D13*
X146500000Y-129000000D03*
X149000000Y-129000000D03*
X151500000Y-129000000D03*
D14*
X162500000Y-99500000D03*
D15*
X162500000Y-96960000D03*
X162500000Y-94420000D03*
D16*
X111500000Y-121500000D03*
D17*
X111500000Y-119000000D03*
X111500000Y-116500000D03*
X111500000Y-114000000D03*
D16*
X111500000Y-136000000D03*
D17*
X111500000Y-133500000D03*
X111500000Y-131000000D03*
X111500000Y-128500000D03*
D18*
X114000000Y-108124000D03*
D19*
X114000000Y-103124000D03*
D12*
X164500000Y-107000000D03*
D13*
X167000000Y-107000000D03*
X169500000Y-107000000D03*
D12*
X164500000Y-114500000D03*
D13*
X167000000Y-114500000D03*
X169500000Y-114500000D03*
D18*
X114000000Y-97964000D03*
D19*
X114000000Y-92964000D03*
D20*
X139319000Y-99822000D03*
X137700000Y-92300000D03*
X137700000Y-91300000D03*
X126619000Y-97663000D03*
X144018000Y-113919000D03*
X120269000Y-93599000D03*
X131699000Y-92202000D03*
X121412000Y-90805000D03*
X135636000Y-94361000D03*
X158623000Y-113284000D03*
X165862000Y-101473000D03*
X159639000Y-95885000D03*
X159639000Y-97155000D03*
X153924000Y-110871000D03*
D21*
X169500000Y-102698000D02*
X169500000Y-107000000D01*
X139319000Y-99822000D02*
X143814800Y-95326200D01*
X143814800Y-95326200D02*
X159870463Y-95326200D01*
X159870463Y-95326200D02*
X160655000Y-96110737D01*
X160655000Y-96110737D02*
X160655000Y-102362000D01*
X160655000Y-102362000D02*
X162941000Y-102362000D01*
X162941000Y-102362000D02*
X165100000Y-100203000D01*
X165100000Y-100203000D02*
X167005000Y-100203000D01*
X167005000Y-100203000D02*
X169500000Y-102698000D01*
X133477000Y-92202000D02*
X131699000Y-92202000D01*
X135636000Y-94361000D02*
X133477000Y-92202000D01*
X120269000Y-91948000D02*
X120269000Y-93599000D01*
X121412000Y-90805000D02*
X120269000Y-91948000D01*
X158623000Y-108712000D02*
X158623000Y-113284000D01*
X165862000Y-101473000D02*
X158623000Y-108712000D01*
X149987000Y-105537000D02*
X137517000Y-105537000D01*
X137517000Y-105537000D02*
X135700000Y-103720000D01*
X159639000Y-95885000D02*
X149987000Y-105537000D01*
X150534000Y-106260000D02*
X159639000Y-97155000D01*
X135700000Y-106260000D02*
X150534000Y-106260000D01*
D22*
X123000000Y-116420000D02*
X116580000Y-116420000D01*
X116580000Y-116420000D02*
X111500000Y-121500000D01*
X123000000Y-113880000D02*
X116620000Y-113880000D01*
X116620000Y-113880000D02*
X111500000Y-119000000D01*
X123000000Y-111340000D02*
X116660000Y-111340000D01*
X116660000Y-111340000D02*
X111500000Y-116500000D01*
X123000000Y-108800000D02*
X116700000Y-108800000D01*
X116700000Y-108800000D02*
X111500000Y-114000000D01*
X113200000Y-137700000D02*
X111500000Y-136000000D01*
X123000000Y-137700000D02*
X113200000Y-137700000D01*
X113160000Y-135160000D02*
X111500000Y-133500000D01*
X123000000Y-135160000D02*
X113160000Y-135160000D01*
X123000000Y-132620000D02*
X113120000Y-132620000D01*
X113120000Y-132620000D02*
X111500000Y-131000000D01*
X123000000Y-130080000D02*
X113080000Y-130080000D01*
X113080000Y-130080000D02*
X111500000Y-128500000D01*
D21*
X138709000Y-110871000D02*
X135700000Y-113880000D01*
X153924000Y-110871000D02*
X138709000Y-110871000D01*
X136754001Y-122554001D02*
X136754001Y-141725999D01*
X135700000Y-121500000D02*
X136754001Y-122554001D01*
X136754001Y-141725999D02*
X135700000Y-142780000D01*
G04 #@! TA.AperFunction,Conductor*
G36*
X177187621Y-81774502D02*
G01*
X177234114Y-81828158D01*
X177245500Y-81880500D01*
X177245500Y-151119500D01*
X177225498Y-151187621D01*
X177171842Y-151234114D01*
X177119500Y-151245500D01*
X107880500Y-151245500D01*
X107812379Y-151225498D01*
X107765886Y-151171842D01*
X107754500Y-151119500D01*
X107754500Y-146436876D01*
X110491372Y-146436876D01*
X110491547Y-146441327D01*
X110492417Y-146463459D01*
X110492417Y-146463462D01*
X110498684Y-146622974D01*
X110502516Y-146720524D01*
X110553516Y-146999772D01*
X110643353Y-147269048D01*
X110645346Y-147273036D01*
X110728954Y-147440361D01*
X110770236Y-147522980D01*
X110931631Y-147756500D01*
X111124320Y-147964950D01*
X111127774Y-147967762D01*
X111341001Y-148141356D01*
X111341005Y-148141359D01*
X111344458Y-148144170D01*
X111587652Y-148290585D01*
X111591747Y-148292319D01*
X111591749Y-148292320D01*
X111774820Y-148369840D01*
X111849049Y-148401272D01*
X111853342Y-148402410D01*
X111853347Y-148402412D01*
X111996898Y-148440473D01*
X112123435Y-148474024D01*
X112405334Y-148507389D01*
X112689122Y-148500701D01*
X112693517Y-148499969D01*
X112693522Y-148499969D01*
X112964734Y-148454827D01*
X112964738Y-148454826D01*
X112969136Y-148454094D01*
X113146887Y-148397878D01*
X113235544Y-148369840D01*
X113235546Y-148369839D01*
X113239790Y-148368497D01*
X113243801Y-148366571D01*
X113243806Y-148366569D01*
X113491665Y-148247549D01*
X113491666Y-148247548D01*
X113495684Y-148245619D01*
X113651724Y-148141356D01*
X113728002Y-148090389D01*
X113728006Y-148090386D01*
X113731710Y-148087911D01*
X113735027Y-148084940D01*
X113735031Y-148084937D01*
X113939845Y-147901490D01*
X113943161Y-147898520D01*
X114125817Y-147681225D01*
X114196122Y-147568494D01*
X114273669Y-147444152D01*
X114273671Y-147444149D01*
X114276033Y-147440361D01*
X114390813Y-147180734D01*
X114467866Y-146907525D01*
X114492983Y-146720524D01*
X114505227Y-146629367D01*
X114505228Y-146629359D01*
X114505654Y-146626185D01*
X114509620Y-146500000D01*
X114505151Y-146436876D01*
X170491372Y-146436876D01*
X170491547Y-146441327D01*
X170492417Y-146463459D01*
X170492417Y-146463462D01*
X170498684Y-146622974D01*
X170502516Y-146720524D01*
X170553516Y-146999772D01*
X170643353Y-147269048D01*
X170645346Y-147273036D01*
X170728954Y-147440361D01*
X170770236Y-147522980D01*
X170931631Y-147756500D01*
X171124320Y-147964950D01*
X171127774Y-147967762D01*
X171341001Y-148141356D01*
X171341005Y-148141359D01*
X171344458Y-148144170D01*
X171587652Y-148290585D01*
X171591747Y-148292319D01*
X171591749Y-148292320D01*
X171774820Y-148369840D01*
X171849049Y-148401272D01*
X171853342Y-148402410D01*
X171853347Y-148402412D01*
X171996898Y-148440473D01*
X172123435Y-148474024D01*
X172405334Y-148507389D01*
X172689122Y-148500701D01*
X172693517Y-148499969D01*
X172693522Y-148499969D01*
X172964734Y-148454827D01*
X172964738Y-148454826D01*
X172969136Y-148454094D01*
X173146887Y-148397878D01*
X173235544Y-148369840D01*
X173235546Y-148369839D01*
X173239790Y-148368497D01*
X173243801Y-148366571D01*
X173243806Y-148366569D01*
X173491665Y-148247549D01*
X173491666Y-148247548D01*
X173495684Y-148245619D01*
X173651724Y-148141356D01*
X173728002Y-148090389D01*
X173728006Y-148090386D01*
X173731710Y-148087911D01*
X173735027Y-148084940D01*
X173735031Y-148084937D01*
X173939845Y-147901490D01*
X173943161Y-147898520D01*
X174125817Y-147681225D01*
X174196122Y-147568494D01*
X174273669Y-147444152D01*
X174273671Y-147444149D01*
X174276033Y-147440361D01*
X174390813Y-147180734D01*
X174467866Y-146907525D01*
X174492983Y-146720524D01*
X174505227Y-146629367D01*
X174505228Y-146629359D01*
X174505654Y-146626185D01*
X174509620Y-146500000D01*
X174489571Y-146216842D01*
X174429825Y-145939334D01*
X174331574Y-145673013D01*
X174196778Y-145423192D01*
X174028127Y-145194856D01*
X173828986Y-144992562D01*
X173755118Y-144936188D01*
X173606872Y-144823050D01*
X173606868Y-144823047D01*
X173603327Y-144820345D01*
X173355655Y-144681641D01*
X173351506Y-144680036D01*
X173351502Y-144680034D01*
X173191830Y-144618262D01*
X173090909Y-144579219D01*
X173086588Y-144578217D01*
X173086580Y-144578215D01*
X172904110Y-144535922D01*
X172814374Y-144515122D01*
X172531566Y-144490628D01*
X172527131Y-144490872D01*
X172527127Y-144490872D01*
X172420718Y-144496728D01*
X172248128Y-144506226D01*
X172243768Y-144507093D01*
X172243762Y-144507094D01*
X172107296Y-144534239D01*
X171969715Y-144561606D01*
X171965505Y-144563084D01*
X171965503Y-144563085D01*
X171914996Y-144580822D01*
X171701884Y-144655662D01*
X171697933Y-144657715D01*
X171697927Y-144657717D01*
X171453926Y-144784465D01*
X171449976Y-144786517D01*
X171446361Y-144789100D01*
X171446355Y-144789104D01*
X171402638Y-144820345D01*
X171219020Y-144951561D01*
X171013623Y-145147501D01*
X171010867Y-145150997D01*
X171010866Y-145150998D01*
X170976291Y-145194856D01*
X170837882Y-145370426D01*
X170809314Y-145419610D01*
X170697540Y-145612042D01*
X170697537Y-145612048D01*
X170695306Y-145615889D01*
X170693636Y-145620012D01*
X170590411Y-145874861D01*
X170590408Y-145874869D01*
X170588738Y-145878993D01*
X170520305Y-146154488D01*
X170491372Y-146436876D01*
X114505151Y-146436876D01*
X114489571Y-146216842D01*
X114429825Y-145939334D01*
X114331574Y-145673013D01*
X114196778Y-145423192D01*
X114028127Y-145194856D01*
X113828986Y-144992562D01*
X113755118Y-144936188D01*
X113606872Y-144823050D01*
X113606868Y-144823047D01*
X113603327Y-144820345D01*
X113355655Y-144681641D01*
X113351506Y-144680036D01*
X113351502Y-144680034D01*
X113191830Y-144618262D01*
X113090909Y-144579219D01*
X113086588Y-144578217D01*
X113086580Y-144578215D01*
X112904110Y-144535922D01*
X112814374Y-144515122D01*
X112531566Y-144490628D01*
X112527131Y-144490872D01*
X112527127Y-144490872D01*
X112420718Y-144496728D01*
X112248128Y-144506226D01*
X112243768Y-144507093D01*
X112243762Y-144507094D01*
X112107296Y-144534239D01*
X111969715Y-144561606D01*
X111965505Y-144563084D01*
X111965503Y-144563085D01*
X111914996Y-144580822D01*
X111701884Y-144655662D01*
X111697933Y-144657715D01*
X111697927Y-144657717D01*
X111453926Y-144784465D01*
X111449976Y-144786517D01*
X111446361Y-144789100D01*
X111446355Y-144789104D01*
X111402638Y-144820345D01*
X111219020Y-144951561D01*
X111013623Y-145147501D01*
X111010867Y-145150997D01*
X111010866Y-145150998D01*
X110976291Y-145194856D01*
X110837882Y-145370426D01*
X110809314Y-145419610D01*
X110697540Y-145612042D01*
X110697537Y-145612048D01*
X110695306Y-145615889D01*
X110693636Y-145620012D01*
X110590411Y-145874861D01*
X110590408Y-145874869D01*
X110588738Y-145878993D01*
X110520305Y-146154488D01*
X110491372Y-146436876D01*
X107754500Y-146436876D01*
X107754500Y-140506522D01*
X121717273Y-140506522D01*
X121764764Y-140683761D01*
X121768510Y-140694053D01*
X121860586Y-140891511D01*
X121866069Y-140901007D01*
X121991028Y-141079467D01*
X121998084Y-141087875D01*
X122152125Y-141241916D01*
X122160533Y-141248972D01*
X122338993Y-141373931D01*
X122348489Y-141379414D01*
X122545947Y-141471490D01*
X122556239Y-141475236D01*
X122721015Y-141519387D01*
X122781638Y-141556339D01*
X122812659Y-141620199D01*
X122804231Y-141690694D01*
X122759028Y-141745441D01*
X122723979Y-141761967D01*
X122657728Y-141781466D01*
X122603066Y-141797554D01*
X122597601Y-141800411D01*
X122425261Y-141890508D01*
X122425257Y-141890511D01*
X122419801Y-141893363D01*
X122258635Y-142022943D01*
X122125708Y-142181360D01*
X122026082Y-142362578D01*
X121963553Y-142559696D01*
X121940501Y-142765206D01*
X121957806Y-142971278D01*
X122014807Y-143170066D01*
X122017625Y-143175548D01*
X122017626Y-143175552D01*
X122106514Y-143348509D01*
X122106517Y-143348513D01*
X122109334Y-143353995D01*
X122237786Y-143516061D01*
X122395271Y-143650091D01*
X122575789Y-143750980D01*
X122772466Y-143814884D01*
X122977809Y-143839370D01*
X122983944Y-143838898D01*
X122983946Y-143838898D01*
X123177856Y-143823977D01*
X123177860Y-143823976D01*
X123183998Y-143823504D01*
X123383178Y-143767892D01*
X123388682Y-143765112D01*
X123388684Y-143765111D01*
X123562262Y-143677431D01*
X123562264Y-143677430D01*
X123567763Y-143674652D01*
X123730722Y-143547334D01*
X123734748Y-143542670D01*
X123734751Y-143542667D01*
X123861819Y-143395457D01*
X123861820Y-143395455D01*
X123865848Y-143390789D01*
X123967995Y-143210979D01*
X124033270Y-143014753D01*
X124059189Y-142809586D01*
X124059602Y-142780000D01*
X124058151Y-142765206D01*
X134640501Y-142765206D01*
X134657806Y-142971278D01*
X134714807Y-143170066D01*
X134717625Y-143175548D01*
X134717626Y-143175552D01*
X134806514Y-143348509D01*
X134806517Y-143348513D01*
X134809334Y-143353995D01*
X134937786Y-143516061D01*
X135095271Y-143650091D01*
X135275789Y-143750980D01*
X135472466Y-143814884D01*
X135677809Y-143839370D01*
X135683944Y-143838898D01*
X135683946Y-143838898D01*
X135877856Y-143823977D01*
X135877860Y-143823976D01*
X135883998Y-143823504D01*
X136083178Y-143767892D01*
X136088682Y-143765112D01*
X136088684Y-143765111D01*
X136262262Y-143677431D01*
X136262264Y-143677430D01*
X136267763Y-143674652D01*
X136430722Y-143547334D01*
X136434748Y-143542670D01*
X136434751Y-143542667D01*
X136561819Y-143395457D01*
X136561820Y-143395455D01*
X136565848Y-143390789D01*
X136667995Y-143210979D01*
X136733270Y-143014753D01*
X136759189Y-142809586D01*
X136759602Y-142780000D01*
X136739422Y-142574189D01*
X136693018Y-142420490D01*
X136692477Y-142349495D01*
X136724545Y-142294977D01*
X136985477Y-142034045D01*
X137004500Y-142018681D01*
X137005559Y-142017717D01*
X137014305Y-142012070D01*
X137020753Y-142003891D01*
X137020755Y-142003889D01*
X137035235Y-141985522D01*
X137039210Y-141981049D01*
X137039138Y-141980988D01*
X137042491Y-141977031D01*
X137046172Y-141973350D01*
X137057456Y-141957559D01*
X137061020Y-141952813D01*
X137086488Y-141920507D01*
X137092935Y-141912329D01*
X137095985Y-141903644D01*
X137101336Y-141896156D01*
X137116111Y-141846749D01*
X137117927Y-141841162D01*
X137135017Y-141792497D01*
X137135501Y-141786908D01*
X137135501Y-141784197D01*
X137135616Y-141781528D01*
X137135635Y-141781467D01*
X137135809Y-141781474D01*
X137135856Y-141780727D01*
X137137726Y-141774474D01*
X137135598Y-141720310D01*
X137135501Y-141715364D01*
X137135501Y-129772756D01*
X142895500Y-129772756D01*
X142902202Y-129834448D01*
X142904974Y-129841841D01*
X142904974Y-129841843D01*
X142914887Y-129868287D01*
X142952929Y-129969764D01*
X142958309Y-129976943D01*
X142958311Y-129976946D01*
X142996785Y-130028281D01*
X143039596Y-130085404D01*
X143046776Y-130090785D01*
X143148054Y-130166689D01*
X143148057Y-130166691D01*
X143155236Y-130172071D01*
X143239922Y-130203818D01*
X143283157Y-130220026D01*
X143283159Y-130220026D01*
X143290552Y-130222798D01*
X143298402Y-130223651D01*
X143298403Y-130223651D01*
X143299149Y-130223732D01*
X143352244Y-130229500D01*
X144647756Y-130229500D01*
X144700851Y-130223732D01*
X144701597Y-130223651D01*
X144701598Y-130223651D01*
X144709448Y-130222798D01*
X144716841Y-130220026D01*
X144716843Y-130220026D01*
X144760078Y-130203818D01*
X144844764Y-130172071D01*
X144851943Y-130166691D01*
X144851946Y-130166689D01*
X144953224Y-130090785D01*
X144960404Y-130085404D01*
X145003215Y-130028281D01*
X145041689Y-129976946D01*
X145041691Y-129976943D01*
X145047071Y-129969764D01*
X145097798Y-129834448D01*
X145100320Y-129835393D01*
X145129085Y-129785026D01*
X145192036Y-129752197D01*
X145262742Y-129758614D01*
X145320982Y-129805440D01*
X145434850Y-129974575D01*
X145441519Y-129982870D01*
X145593228Y-130141900D01*
X145601186Y-130148941D01*
X145777525Y-130280141D01*
X145786562Y-130285745D01*
X145982484Y-130385357D01*
X145992335Y-130389357D01*
X146202240Y-130454534D01*
X146212624Y-130456817D01*
X146228043Y-130458861D01*
X146242207Y-130456665D01*
X146246000Y-130443478D01*
X146246000Y-130441192D01*
X146754000Y-130441192D01*
X146757973Y-130454723D01*
X146768580Y-130456248D01*
X146886421Y-130431523D01*
X146896617Y-130428463D01*
X147101029Y-130347737D01*
X147110561Y-130343006D01*
X147298462Y-130228984D01*
X147307052Y-130222720D01*
X147473052Y-130078673D01*
X147480472Y-130071042D01*
X147619826Y-129901089D01*
X147625850Y-129892322D01*
X147734576Y-129701318D01*
X147739041Y-129691655D01*
X147768966Y-129609212D01*
X147811010Y-129552004D01*
X147877309Y-129526608D01*
X147946814Y-129541088D01*
X147999421Y-129594510D01*
X148066324Y-129724410D01*
X148088151Y-129752197D01*
X148192808Y-129885432D01*
X148192812Y-129885436D01*
X148196514Y-129890149D01*
X148201044Y-129894080D01*
X148201045Y-129894081D01*
X148351165Y-130024350D01*
X148351170Y-130024354D01*
X148355696Y-130028281D01*
X148538126Y-130133819D01*
X148737222Y-130202957D01*
X148743155Y-130203817D01*
X148743158Y-130203818D01*
X148939860Y-130232338D01*
X148939863Y-130232338D01*
X148945800Y-130233199D01*
X149156333Y-130223455D01*
X149162157Y-130222051D01*
X149162160Y-130222051D01*
X149355393Y-130175482D01*
X149355395Y-130175481D01*
X149361226Y-130174076D01*
X149366684Y-130171594D01*
X149366688Y-130171593D01*
X149495357Y-130113090D01*
X149553084Y-130086843D01*
X149708010Y-129976946D01*
X149720100Y-129968370D01*
X149720101Y-129968369D01*
X149724986Y-129964904D01*
X149870728Y-129812660D01*
X149927710Y-129724410D01*
X149981800Y-129640640D01*
X149981801Y-129640637D01*
X149985052Y-129635603D01*
X150063834Y-129440122D01*
X150104229Y-129233271D01*
X150104500Y-129227730D01*
X150104500Y-129177659D01*
X150395500Y-129177659D01*
X150410493Y-129334806D01*
X150469823Y-129537042D01*
X150472573Y-129542381D01*
X150523574Y-129641405D01*
X150566324Y-129724410D01*
X150588151Y-129752197D01*
X150692808Y-129885432D01*
X150692812Y-129885436D01*
X150696514Y-129890149D01*
X150701044Y-129894080D01*
X150701045Y-129894081D01*
X150851165Y-130024350D01*
X150851170Y-130024354D01*
X150855696Y-130028281D01*
X151038126Y-130133819D01*
X151237222Y-130202957D01*
X151243155Y-130203817D01*
X151243158Y-130203818D01*
X151439860Y-130232338D01*
X151439863Y-130232338D01*
X151445800Y-130233199D01*
X151656333Y-130223455D01*
X151662157Y-130222051D01*
X151662160Y-130222051D01*
X151855393Y-130175482D01*
X151855395Y-130175481D01*
X151861226Y-130174076D01*
X151866684Y-130171594D01*
X151866688Y-130171593D01*
X151995357Y-130113090D01*
X152053084Y-130086843D01*
X152208010Y-129976946D01*
X152220100Y-129968370D01*
X152220101Y-129968369D01*
X152224986Y-129964904D01*
X152370728Y-129812660D01*
X152396494Y-129772756D01*
X157895500Y-129772756D01*
X157902202Y-129834448D01*
X157904974Y-129841841D01*
X157904974Y-129841843D01*
X157914887Y-129868287D01*
X157952929Y-129969764D01*
X157958309Y-129976943D01*
X157958311Y-129976946D01*
X157996785Y-130028281D01*
X158039596Y-130085404D01*
X158046776Y-130090785D01*
X158148054Y-130166689D01*
X158148057Y-130166691D01*
X158155236Y-130172071D01*
X158239922Y-130203818D01*
X158283157Y-130220026D01*
X158283159Y-130220026D01*
X158290552Y-130222798D01*
X158298402Y-130223651D01*
X158298403Y-130223651D01*
X158299149Y-130223732D01*
X158352244Y-130229500D01*
X159647756Y-130229500D01*
X159700851Y-130223732D01*
X159701597Y-130223651D01*
X159701598Y-130223651D01*
X159709448Y-130222798D01*
X159716841Y-130220026D01*
X159716843Y-130220026D01*
X159760078Y-130203818D01*
X159844764Y-130172071D01*
X159851943Y-130166691D01*
X159851946Y-130166689D01*
X159953224Y-130090785D01*
X159960404Y-130085404D01*
X160003215Y-130028281D01*
X160041689Y-129976946D01*
X160041691Y-129976943D01*
X160047071Y-129969764D01*
X160097798Y-129834448D01*
X160100320Y-129835393D01*
X160129085Y-129785026D01*
X160192036Y-129752197D01*
X160262742Y-129758614D01*
X160320982Y-129805440D01*
X160434850Y-129974575D01*
X160441519Y-129982870D01*
X160593228Y-130141900D01*
X160601186Y-130148941D01*
X160777525Y-130280141D01*
X160786562Y-130285745D01*
X160982484Y-130385357D01*
X160992335Y-130389357D01*
X161202240Y-130454534D01*
X161212624Y-130456817D01*
X161228043Y-130458861D01*
X161242207Y-130456665D01*
X161246000Y-130443478D01*
X161246000Y-130441192D01*
X161754000Y-130441192D01*
X161757973Y-130454723D01*
X161768580Y-130456248D01*
X161886421Y-130431523D01*
X161896617Y-130428463D01*
X162101029Y-130347737D01*
X162110561Y-130343006D01*
X162298462Y-130228984D01*
X162307052Y-130222720D01*
X162473052Y-130078673D01*
X162480472Y-130071042D01*
X162619826Y-129901089D01*
X162625850Y-129892322D01*
X162734576Y-129701318D01*
X162739041Y-129691655D01*
X162768966Y-129609212D01*
X162811010Y-129552004D01*
X162877309Y-129526608D01*
X162946814Y-129541088D01*
X162999421Y-129594510D01*
X163066324Y-129724410D01*
X163088151Y-129752197D01*
X163192808Y-129885432D01*
X163192812Y-129885436D01*
X163196514Y-129890149D01*
X163201044Y-129894080D01*
X163201045Y-129894081D01*
X163351165Y-130024350D01*
X163351170Y-130024354D01*
X163355696Y-130028281D01*
X163538126Y-130133819D01*
X163737222Y-130202957D01*
X163743155Y-130203817D01*
X163743158Y-130203818D01*
X163939860Y-130232338D01*
X163939863Y-130232338D01*
X163945800Y-130233199D01*
X164156333Y-130223455D01*
X164162157Y-130222051D01*
X164162160Y-130222051D01*
X164355393Y-130175482D01*
X164355395Y-130175481D01*
X164361226Y-130174076D01*
X164366684Y-130171594D01*
X164366688Y-130171593D01*
X164495357Y-130113090D01*
X164553084Y-130086843D01*
X164708010Y-129976946D01*
X164720100Y-129968370D01*
X164720101Y-129968369D01*
X164724986Y-129964904D01*
X164870728Y-129812660D01*
X164927710Y-129724410D01*
X164981800Y-129640640D01*
X164981801Y-129640637D01*
X164985052Y-129635603D01*
X165063834Y-129440122D01*
X165104229Y-129233271D01*
X165104500Y-129227730D01*
X165104500Y-129177659D01*
X165395500Y-129177659D01*
X165410493Y-129334806D01*
X165469823Y-129537042D01*
X165472573Y-129542381D01*
X165523574Y-129641405D01*
X165566324Y-129724410D01*
X165588151Y-129752197D01*
X165692808Y-129885432D01*
X165692812Y-129885436D01*
X165696514Y-129890149D01*
X165701044Y-129894080D01*
X165701045Y-129894081D01*
X165851165Y-130024350D01*
X165851170Y-130024354D01*
X165855696Y-130028281D01*
X166038126Y-130133819D01*
X166237222Y-130202957D01*
X166243155Y-130203817D01*
X166243158Y-130203818D01*
X166439860Y-130232338D01*
X166439863Y-130232338D01*
X166445800Y-130233199D01*
X166656333Y-130223455D01*
X166662157Y-130222051D01*
X166662160Y-130222051D01*
X166855393Y-130175482D01*
X166855395Y-130175481D01*
X166861226Y-130174076D01*
X166866684Y-130171594D01*
X166866688Y-130171593D01*
X166995357Y-130113090D01*
X167053084Y-130086843D01*
X167208010Y-129976946D01*
X167220100Y-129968370D01*
X167220101Y-129968369D01*
X167224986Y-129964904D01*
X167370728Y-129812660D01*
X167427710Y-129724410D01*
X167481800Y-129640640D01*
X167481801Y-129640637D01*
X167485052Y-129635603D01*
X167563834Y-129440122D01*
X167604229Y-129233271D01*
X167604500Y-129227730D01*
X167604500Y-129177659D01*
X167895500Y-129177659D01*
X167910493Y-129334806D01*
X167969823Y-129537042D01*
X167972573Y-129542381D01*
X168023574Y-129641405D01*
X168066324Y-129724410D01*
X168088151Y-129752197D01*
X168192808Y-129885432D01*
X168192812Y-129885436D01*
X168196514Y-129890149D01*
X168201044Y-129894080D01*
X168201045Y-129894081D01*
X168351165Y-130024350D01*
X168351170Y-130024354D01*
X168355696Y-130028281D01*
X168538126Y-130133819D01*
X168737222Y-130202957D01*
X168743155Y-130203817D01*
X168743158Y-130203818D01*
X168939860Y-130232338D01*
X168939863Y-130232338D01*
X168945800Y-130233199D01*
X169156333Y-130223455D01*
X169162157Y-130222051D01*
X169162160Y-130222051D01*
X169355393Y-130175482D01*
X169355395Y-130175481D01*
X169361226Y-130174076D01*
X169366684Y-130171594D01*
X169366688Y-130171593D01*
X169495357Y-130113090D01*
X169553084Y-130086843D01*
X169708010Y-129976946D01*
X169720100Y-129968370D01*
X169720101Y-129968369D01*
X169724986Y-129964904D01*
X169870728Y-129812660D01*
X169927710Y-129724410D01*
X169981800Y-129640640D01*
X169981801Y-129640637D01*
X169985052Y-129635603D01*
X170063834Y-129440122D01*
X170104229Y-129233271D01*
X170104500Y-129227730D01*
X170104500Y-129177659D01*
X170395500Y-129177659D01*
X170410493Y-129334806D01*
X170469823Y-129537042D01*
X170472573Y-129542381D01*
X170523574Y-129641405D01*
X170566324Y-129724410D01*
X170588151Y-129752197D01*
X170692808Y-129885432D01*
X170692812Y-129885436D01*
X170696514Y-129890149D01*
X170701044Y-129894080D01*
X170701045Y-129894081D01*
X170851165Y-130024350D01*
X170851170Y-130024354D01*
X170855696Y-130028281D01*
X171038126Y-130133819D01*
X171237222Y-130202957D01*
X171243155Y-130203817D01*
X171243158Y-130203818D01*
X171439860Y-130232338D01*
X171439863Y-130232338D01*
X171445800Y-130233199D01*
X171656333Y-130223455D01*
X171662157Y-130222051D01*
X171662160Y-130222051D01*
X171855393Y-130175482D01*
X171855395Y-130175481D01*
X171861226Y-130174076D01*
X171866684Y-130171594D01*
X171866688Y-130171593D01*
X171995357Y-130113090D01*
X172053084Y-130086843D01*
X172208010Y-129976946D01*
X172220100Y-129968370D01*
X172220101Y-129968369D01*
X172224986Y-129964904D01*
X172370728Y-129812660D01*
X172427710Y-129724410D01*
X172481800Y-129640640D01*
X172481801Y-129640637D01*
X172485052Y-129635603D01*
X172563834Y-129440122D01*
X172604229Y-129233271D01*
X172604500Y-129227730D01*
X172604500Y-128822341D01*
X172589507Y-128665194D01*
X172586908Y-128656333D01*
X172531868Y-128468722D01*
X172530177Y-128462958D01*
X172479415Y-128364397D01*
X172436422Y-128280921D01*
X172436420Y-128280918D01*
X172433676Y-128275590D01*
X172364355Y-128187340D01*
X172307192Y-128114568D01*
X172307188Y-128114564D01*
X172303486Y-128109851D01*
X172227363Y-128043794D01*
X172148835Y-127975650D01*
X172148830Y-127975646D01*
X172144304Y-127971719D01*
X171961874Y-127866181D01*
X171762778Y-127797043D01*
X171756845Y-127796183D01*
X171756842Y-127796182D01*
X171560140Y-127767662D01*
X171560137Y-127767662D01*
X171554200Y-127766801D01*
X171343667Y-127776545D01*
X171337843Y-127777949D01*
X171337840Y-127777949D01*
X171144607Y-127824518D01*
X171144605Y-127824519D01*
X171138774Y-127825924D01*
X171133316Y-127828406D01*
X171133312Y-127828407D01*
X171073294Y-127855696D01*
X170946916Y-127913157D01*
X170868594Y-127968715D01*
X170788648Y-128025425D01*
X170775014Y-128035096D01*
X170629272Y-128187340D01*
X170626021Y-128192375D01*
X170522423Y-128352821D01*
X170514948Y-128364397D01*
X170436166Y-128559878D01*
X170395771Y-128766729D01*
X170395500Y-128772270D01*
X170395500Y-129177659D01*
X170104500Y-129177659D01*
X170104500Y-128822341D01*
X170089507Y-128665194D01*
X170086908Y-128656333D01*
X170031868Y-128468722D01*
X170030177Y-128462958D01*
X169979415Y-128364397D01*
X169936422Y-128280921D01*
X169936420Y-128280918D01*
X169933676Y-128275590D01*
X169864355Y-128187340D01*
X169807192Y-128114568D01*
X169807188Y-128114564D01*
X169803486Y-128109851D01*
X169727363Y-128043794D01*
X169648835Y-127975650D01*
X169648830Y-127975646D01*
X169644304Y-127971719D01*
X169461874Y-127866181D01*
X169262778Y-127797043D01*
X169256845Y-127796183D01*
X169256842Y-127796182D01*
X169060140Y-127767662D01*
X169060137Y-127767662D01*
X169054200Y-127766801D01*
X168843667Y-127776545D01*
X168837843Y-127777949D01*
X168837840Y-127777949D01*
X168644607Y-127824518D01*
X168644605Y-127824519D01*
X168638774Y-127825924D01*
X168633316Y-127828406D01*
X168633312Y-127828407D01*
X168573294Y-127855696D01*
X168446916Y-127913157D01*
X168368594Y-127968715D01*
X168288648Y-128025425D01*
X168275014Y-128035096D01*
X168129272Y-128187340D01*
X168126021Y-128192375D01*
X168022423Y-128352821D01*
X168014948Y-128364397D01*
X167936166Y-128559878D01*
X167895771Y-128766729D01*
X167895500Y-128772270D01*
X167895500Y-129177659D01*
X167604500Y-129177659D01*
X167604500Y-128822341D01*
X167589507Y-128665194D01*
X167586908Y-128656333D01*
X167531868Y-128468722D01*
X167530177Y-128462958D01*
X167479415Y-128364397D01*
X167436422Y-128280921D01*
X167436420Y-128280918D01*
X167433676Y-128275590D01*
X167364355Y-128187340D01*
X167307192Y-128114568D01*
X167307188Y-128114564D01*
X167303486Y-128109851D01*
X167227363Y-128043794D01*
X167148835Y-127975650D01*
X167148830Y-127975646D01*
X167144304Y-127971719D01*
X166961874Y-127866181D01*
X166762778Y-127797043D01*
X166756845Y-127796183D01*
X166756842Y-127796182D01*
X166560140Y-127767662D01*
X166560137Y-127767662D01*
X166554200Y-127766801D01*
X166343667Y-127776545D01*
X166337843Y-127777949D01*
X166337840Y-127777949D01*
X166144607Y-127824518D01*
X166144605Y-127824519D01*
X166138774Y-127825924D01*
X166133316Y-127828406D01*
X166133312Y-127828407D01*
X166073294Y-127855696D01*
X165946916Y-127913157D01*
X165868594Y-127968715D01*
X165788648Y-128025425D01*
X165775014Y-128035096D01*
X165629272Y-128187340D01*
X165626021Y-128192375D01*
X165522423Y-128352821D01*
X165514948Y-128364397D01*
X165436166Y-128559878D01*
X165395771Y-128766729D01*
X165395500Y-128772270D01*
X165395500Y-129177659D01*
X165104500Y-129177659D01*
X165104500Y-128822341D01*
X165089507Y-128665194D01*
X165086908Y-128656333D01*
X165031868Y-128468722D01*
X165030177Y-128462958D01*
X164979415Y-128364397D01*
X164936422Y-128280921D01*
X164936420Y-128280918D01*
X164933676Y-128275590D01*
X164864355Y-128187340D01*
X164807192Y-128114568D01*
X164807188Y-128114564D01*
X164803486Y-128109851D01*
X164727363Y-128043794D01*
X164648835Y-127975650D01*
X164648830Y-127975646D01*
X164644304Y-127971719D01*
X164461874Y-127866181D01*
X164262778Y-127797043D01*
X164256845Y-127796183D01*
X164256842Y-127796182D01*
X164060140Y-127767662D01*
X164060137Y-127767662D01*
X164054200Y-127766801D01*
X163843667Y-127776545D01*
X163837843Y-127777949D01*
X163837840Y-127777949D01*
X163644607Y-127824518D01*
X163644605Y-127824519D01*
X163638774Y-127825924D01*
X163633316Y-127828406D01*
X163633312Y-127828407D01*
X163573294Y-127855696D01*
X163446916Y-127913157D01*
X163368594Y-127968715D01*
X163288648Y-128025425D01*
X163275014Y-128035096D01*
X163129272Y-128187340D01*
X163126021Y-128192375D01*
X163022423Y-128352821D01*
X163014948Y-128364397D01*
X163012705Y-128369963D01*
X163004720Y-128389774D01*
X162960704Y-128445479D01*
X162893558Y-128468544D01*
X162824602Y-128451646D01*
X162772973Y-128394424D01*
X162693063Y-128217030D01*
X162687894Y-128207744D01*
X162565150Y-128025425D01*
X162558481Y-128017130D01*
X162406772Y-127858100D01*
X162398814Y-127851059D01*
X162222475Y-127719859D01*
X162213438Y-127714255D01*
X162017516Y-127614643D01*
X162007665Y-127610643D01*
X161797760Y-127545466D01*
X161787376Y-127543183D01*
X161771957Y-127541139D01*
X161757793Y-127543335D01*
X161754000Y-127556522D01*
X161754000Y-130441192D01*
X161246000Y-130441192D01*
X161246000Y-127558808D01*
X161242027Y-127545277D01*
X161231420Y-127543752D01*
X161113579Y-127568477D01*
X161103383Y-127571537D01*
X160898971Y-127652263D01*
X160889439Y-127656994D01*
X160701538Y-127771016D01*
X160692948Y-127777280D01*
X160526948Y-127921327D01*
X160519528Y-127928958D01*
X160380174Y-128098911D01*
X160374152Y-128107674D01*
X160326939Y-128190617D01*
X160275856Y-128239924D01*
X160206226Y-128253786D01*
X160140155Y-128227803D01*
X160098620Y-128170224D01*
X160098122Y-128168532D01*
X160097798Y-128165552D01*
X160047071Y-128030236D01*
X160041691Y-128023057D01*
X160041689Y-128023054D01*
X159965785Y-127921776D01*
X159960404Y-127914596D01*
X159888743Y-127860889D01*
X159851946Y-127833311D01*
X159851943Y-127833309D01*
X159844764Y-127827929D01*
X159755046Y-127794296D01*
X159716843Y-127779974D01*
X159716841Y-127779974D01*
X159709448Y-127777202D01*
X159701598Y-127776349D01*
X159701597Y-127776349D01*
X159651153Y-127770869D01*
X159651152Y-127770869D01*
X159647756Y-127770500D01*
X158352244Y-127770500D01*
X158348848Y-127770869D01*
X158348847Y-127770869D01*
X158298403Y-127776349D01*
X158298402Y-127776349D01*
X158290552Y-127777202D01*
X158283159Y-127779974D01*
X158283157Y-127779974D01*
X158244954Y-127794296D01*
X158155236Y-127827929D01*
X158148057Y-127833309D01*
X158148054Y-127833311D01*
X158111257Y-127860889D01*
X158039596Y-127914596D01*
X158034215Y-127921776D01*
X157958311Y-128023054D01*
X157958309Y-128023057D01*
X157952929Y-128030236D01*
X157902202Y-128165552D01*
X157895500Y-128227244D01*
X157895500Y-129772756D01*
X152396494Y-129772756D01*
X152427710Y-129724410D01*
X152481800Y-129640640D01*
X152481801Y-129640637D01*
X152485052Y-129635603D01*
X152563834Y-129440122D01*
X152604229Y-129233271D01*
X152604500Y-129227730D01*
X152604500Y-128822341D01*
X152589507Y-128665194D01*
X152586908Y-128656333D01*
X152531868Y-128468722D01*
X152530177Y-128462958D01*
X152479415Y-128364397D01*
X152436422Y-128280921D01*
X152436420Y-128280918D01*
X152433676Y-128275590D01*
X152364355Y-128187340D01*
X152307192Y-128114568D01*
X152307188Y-128114564D01*
X152303486Y-128109851D01*
X152227363Y-128043794D01*
X152148835Y-127975650D01*
X152148830Y-127975646D01*
X152144304Y-127971719D01*
X151961874Y-127866181D01*
X151762778Y-127797043D01*
X151756845Y-127796183D01*
X151756842Y-127796182D01*
X151560140Y-127767662D01*
X151560137Y-127767662D01*
X151554200Y-127766801D01*
X151343667Y-127776545D01*
X151337843Y-127777949D01*
X151337840Y-127777949D01*
X151144607Y-127824518D01*
X151144605Y-127824519D01*
X151138774Y-127825924D01*
X151133316Y-127828406D01*
X151133312Y-127828407D01*
X151073294Y-127855696D01*
X150946916Y-127913157D01*
X150868594Y-127968715D01*
X150788648Y-128025425D01*
X150775014Y-128035096D01*
X150629272Y-128187340D01*
X150626021Y-128192375D01*
X150522423Y-128352821D01*
X150514948Y-128364397D01*
X150436166Y-128559878D01*
X150395771Y-128766729D01*
X150395500Y-128772270D01*
X150395500Y-129177659D01*
X150104500Y-129177659D01*
X150104500Y-128822341D01*
X150089507Y-128665194D01*
X150086908Y-128656333D01*
X150031868Y-128468722D01*
X150030177Y-128462958D01*
X149979415Y-128364397D01*
X149936422Y-128280921D01*
X149936420Y-128280918D01*
X149933676Y-128275590D01*
X149864355Y-128187340D01*
X149807192Y-128114568D01*
X149807188Y-128114564D01*
X149803486Y-128109851D01*
X149727363Y-128043794D01*
X149648835Y-127975650D01*
X149648830Y-127975646D01*
X149644304Y-127971719D01*
X149461874Y-127866181D01*
X149262778Y-127797043D01*
X149256845Y-127796183D01*
X149256842Y-127796182D01*
X149060140Y-127767662D01*
X149060137Y-127767662D01*
X149054200Y-127766801D01*
X148843667Y-127776545D01*
X148837843Y-127777949D01*
X148837840Y-127777949D01*
X148644607Y-127824518D01*
X148644605Y-127824519D01*
X148638774Y-127825924D01*
X148633316Y-127828406D01*
X148633312Y-127828407D01*
X148573294Y-127855696D01*
X148446916Y-127913157D01*
X148368594Y-127968715D01*
X148288648Y-128025425D01*
X148275014Y-128035096D01*
X148129272Y-128187340D01*
X148126021Y-128192375D01*
X148022423Y-128352821D01*
X148014948Y-128364397D01*
X148012705Y-128369963D01*
X148004720Y-128389774D01*
X147960704Y-128445479D01*
X147893558Y-128468544D01*
X147824602Y-128451646D01*
X147772973Y-128394424D01*
X147693063Y-128217030D01*
X147687894Y-128207744D01*
X147565150Y-128025425D01*
X147558481Y-128017130D01*
X147406772Y-127858100D01*
X147398814Y-127851059D01*
X147222475Y-127719859D01*
X147213438Y-127714255D01*
X147017516Y-127614643D01*
X147007665Y-127610643D01*
X146797760Y-127545466D01*
X146787376Y-127543183D01*
X146771957Y-127541139D01*
X146757793Y-127543335D01*
X146754000Y-127556522D01*
X146754000Y-130441192D01*
X146246000Y-130441192D01*
X146246000Y-127558808D01*
X146242027Y-127545277D01*
X146231420Y-127543752D01*
X146113579Y-127568477D01*
X146103383Y-127571537D01*
X145898971Y-127652263D01*
X145889439Y-127656994D01*
X145701538Y-127771016D01*
X145692948Y-127777280D01*
X145526948Y-127921327D01*
X145519528Y-127928958D01*
X145380174Y-128098911D01*
X145374152Y-128107674D01*
X145326939Y-128190617D01*
X145275856Y-128239924D01*
X145206226Y-128253786D01*
X145140155Y-128227803D01*
X145098620Y-128170224D01*
X145098122Y-128168532D01*
X145097798Y-128165552D01*
X145047071Y-128030236D01*
X145041691Y-128023057D01*
X145041689Y-128023054D01*
X144965785Y-127921776D01*
X144960404Y-127914596D01*
X144888743Y-127860889D01*
X144851946Y-127833311D01*
X144851943Y-127833309D01*
X144844764Y-127827929D01*
X144755046Y-127794296D01*
X144716843Y-127779974D01*
X144716841Y-127779974D01*
X144709448Y-127777202D01*
X144701598Y-127776349D01*
X144701597Y-127776349D01*
X144651153Y-127770869D01*
X144651152Y-127770869D01*
X144647756Y-127770500D01*
X143352244Y-127770500D01*
X143348848Y-127770869D01*
X143348847Y-127770869D01*
X143298403Y-127776349D01*
X143298402Y-127776349D01*
X143290552Y-127777202D01*
X143283159Y-127779974D01*
X143283157Y-127779974D01*
X143244954Y-127794296D01*
X143155236Y-127827929D01*
X143148057Y-127833309D01*
X143148054Y-127833311D01*
X143111257Y-127860889D01*
X143039596Y-127914596D01*
X143034215Y-127921776D01*
X142958311Y-128023054D01*
X142958309Y-128023057D01*
X142952929Y-128030236D01*
X142902202Y-128165552D01*
X142895500Y-128227244D01*
X142895500Y-129772756D01*
X137135501Y-129772756D01*
X137135501Y-122772756D01*
X142895500Y-122772756D01*
X142902202Y-122834448D01*
X142952929Y-122969764D01*
X142958309Y-122976943D01*
X142958311Y-122976946D01*
X142996785Y-123028281D01*
X143039596Y-123085404D01*
X143046776Y-123090785D01*
X143148054Y-123166689D01*
X143148057Y-123166691D01*
X143155236Y-123172071D01*
X143239922Y-123203818D01*
X143283157Y-123220026D01*
X143283159Y-123220026D01*
X143290552Y-123222798D01*
X143298402Y-123223651D01*
X143298403Y-123223651D01*
X143299149Y-123223732D01*
X143352244Y-123229500D01*
X144647756Y-123229500D01*
X144700851Y-123223732D01*
X144701597Y-123223651D01*
X144701598Y-123223651D01*
X144709448Y-123222798D01*
X144716841Y-123220026D01*
X144716843Y-123220026D01*
X144760078Y-123203818D01*
X144844764Y-123172071D01*
X144851943Y-123166691D01*
X144851946Y-123166689D01*
X144953224Y-123090785D01*
X144960404Y-123085404D01*
X145003215Y-123028281D01*
X145041689Y-122976946D01*
X145041691Y-122976943D01*
X145047071Y-122969764D01*
X145097798Y-122834448D01*
X145100320Y-122835393D01*
X145129085Y-122785026D01*
X145192036Y-122752197D01*
X145262742Y-122758614D01*
X145320982Y-122805440D01*
X145434850Y-122974575D01*
X145441519Y-122982870D01*
X145593228Y-123141900D01*
X145601186Y-123148941D01*
X145777525Y-123280141D01*
X145786562Y-123285745D01*
X145982484Y-123385357D01*
X145992335Y-123389357D01*
X146202240Y-123454534D01*
X146212624Y-123456817D01*
X146228043Y-123458861D01*
X146242207Y-123456665D01*
X146246000Y-123443478D01*
X146246000Y-123441192D01*
X146754000Y-123441192D01*
X146757973Y-123454723D01*
X146768580Y-123456248D01*
X146886421Y-123431523D01*
X146896617Y-123428463D01*
X147101029Y-123347737D01*
X147110561Y-123343006D01*
X147298462Y-123228984D01*
X147307052Y-123222720D01*
X147473052Y-123078673D01*
X147480472Y-123071042D01*
X147619826Y-122901089D01*
X147625850Y-122892322D01*
X147734576Y-122701318D01*
X147739041Y-122691655D01*
X147768966Y-122609212D01*
X147811010Y-122552004D01*
X147877309Y-122526608D01*
X147946814Y-122541088D01*
X147999421Y-122594510D01*
X148066324Y-122724410D01*
X148088151Y-122752197D01*
X148192808Y-122885432D01*
X148192812Y-122885436D01*
X148196514Y-122890149D01*
X148201044Y-122894080D01*
X148201045Y-122894081D01*
X148351165Y-123024350D01*
X148351170Y-123024354D01*
X148355696Y-123028281D01*
X148538126Y-123133819D01*
X148737222Y-123202957D01*
X148743155Y-123203817D01*
X148743158Y-123203818D01*
X148939860Y-123232338D01*
X148939863Y-123232338D01*
X148945800Y-123233199D01*
X149156333Y-123223455D01*
X149162157Y-123222051D01*
X149162160Y-123222051D01*
X149355393Y-123175482D01*
X149355395Y-123175481D01*
X149361226Y-123174076D01*
X149366684Y-123171594D01*
X149366688Y-123171593D01*
X149544414Y-123090785D01*
X149553084Y-123086843D01*
X149708010Y-122976946D01*
X149720100Y-122968370D01*
X149720101Y-122968369D01*
X149724986Y-122964904D01*
X149870728Y-122812660D01*
X149927710Y-122724410D01*
X149981800Y-122640640D01*
X149981801Y-122640637D01*
X149985052Y-122635603D01*
X150063834Y-122440122D01*
X150097577Y-122267334D01*
X150103361Y-122237717D01*
X150103361Y-122237714D01*
X150104229Y-122233271D01*
X150104500Y-122227730D01*
X150104500Y-122177659D01*
X150395500Y-122177659D01*
X150410493Y-122334806D01*
X150412183Y-122340566D01*
X150412183Y-122340567D01*
X150450442Y-122470980D01*
X150469823Y-122537042D01*
X150493918Y-122583825D01*
X150523180Y-122640640D01*
X150566324Y-122724410D01*
X150588151Y-122752197D01*
X150692808Y-122885432D01*
X150692812Y-122885436D01*
X150696514Y-122890149D01*
X150701044Y-122894080D01*
X150701045Y-122894081D01*
X150851165Y-123024350D01*
X150851170Y-123024354D01*
X150855696Y-123028281D01*
X151038126Y-123133819D01*
X151237222Y-123202957D01*
X151243155Y-123203817D01*
X151243158Y-123203818D01*
X151439860Y-123232338D01*
X151439863Y-123232338D01*
X151445800Y-123233199D01*
X151656333Y-123223455D01*
X151662157Y-123222051D01*
X151662160Y-123222051D01*
X151855393Y-123175482D01*
X151855395Y-123175481D01*
X151861226Y-123174076D01*
X151866684Y-123171594D01*
X151866688Y-123171593D01*
X152044414Y-123090785D01*
X152053084Y-123086843D01*
X152208010Y-122976946D01*
X152220100Y-122968370D01*
X152220101Y-122968369D01*
X152224986Y-122964904D01*
X152370728Y-122812660D01*
X152396494Y-122772756D01*
X157895500Y-122772756D01*
X157902202Y-122834448D01*
X157952929Y-122969764D01*
X157958309Y-122976943D01*
X157958311Y-122976946D01*
X157996785Y-123028281D01*
X158039596Y-123085404D01*
X158046776Y-123090785D01*
X158148054Y-123166689D01*
X158148057Y-123166691D01*
X158155236Y-123172071D01*
X158239922Y-123203818D01*
X158283157Y-123220026D01*
X158283159Y-123220026D01*
X158290552Y-123222798D01*
X158298402Y-123223651D01*
X158298403Y-123223651D01*
X158299149Y-123223732D01*
X158352244Y-123229500D01*
X159647756Y-123229500D01*
X159700851Y-123223732D01*
X159701597Y-123223651D01*
X159701598Y-123223651D01*
X159709448Y-123222798D01*
X159716841Y-123220026D01*
X159716843Y-123220026D01*
X159760078Y-123203818D01*
X159844764Y-123172071D01*
X159851943Y-123166691D01*
X159851946Y-123166689D01*
X159953224Y-123090785D01*
X159960404Y-123085404D01*
X160003215Y-123028281D01*
X160041689Y-122976946D01*
X160041691Y-122976943D01*
X160047071Y-122969764D01*
X160097798Y-122834448D01*
X160100320Y-122835393D01*
X160129085Y-122785026D01*
X160192036Y-122752197D01*
X160262742Y-122758614D01*
X160320982Y-122805440D01*
X160434850Y-122974575D01*
X160441519Y-122982870D01*
X160593228Y-123141900D01*
X160601186Y-123148941D01*
X160777525Y-123280141D01*
X160786562Y-123285745D01*
X160982484Y-123385357D01*
X160992335Y-123389357D01*
X161202240Y-123454534D01*
X161212624Y-123456817D01*
X161228043Y-123458861D01*
X161242207Y-123456665D01*
X161246000Y-123443478D01*
X161246000Y-123441192D01*
X161754000Y-123441192D01*
X161757973Y-123454723D01*
X161768580Y-123456248D01*
X161886421Y-123431523D01*
X161896617Y-123428463D01*
X162101029Y-123347737D01*
X162110561Y-123343006D01*
X162298462Y-123228984D01*
X162307052Y-123222720D01*
X162473052Y-123078673D01*
X162480472Y-123071042D01*
X162619826Y-122901089D01*
X162625850Y-122892322D01*
X162734576Y-122701318D01*
X162739041Y-122691655D01*
X162768966Y-122609212D01*
X162811010Y-122552004D01*
X162877309Y-122526608D01*
X162946814Y-122541088D01*
X162999421Y-122594510D01*
X163066324Y-122724410D01*
X163088151Y-122752197D01*
X163192808Y-122885432D01*
X163192812Y-122885436D01*
X163196514Y-122890149D01*
X163201044Y-122894080D01*
X163201045Y-122894081D01*
X163351165Y-123024350D01*
X163351170Y-123024354D01*
X163355696Y-123028281D01*
X163538126Y-123133819D01*
X163737222Y-123202957D01*
X163743155Y-123203817D01*
X163743158Y-123203818D01*
X163939860Y-123232338D01*
X163939863Y-123232338D01*
X163945800Y-123233199D01*
X164156333Y-123223455D01*
X164162157Y-123222051D01*
X164162160Y-123222051D01*
X164355393Y-123175482D01*
X164355395Y-123175481D01*
X164361226Y-123174076D01*
X164366684Y-123171594D01*
X164366688Y-123171593D01*
X164544414Y-123090785D01*
X164553084Y-123086843D01*
X164708010Y-122976946D01*
X164720100Y-122968370D01*
X164720101Y-122968369D01*
X164724986Y-122964904D01*
X164870728Y-122812660D01*
X164927710Y-122724410D01*
X164981800Y-122640640D01*
X164981801Y-122640637D01*
X164985052Y-122635603D01*
X165063834Y-122440122D01*
X165097577Y-122267334D01*
X165103361Y-122237717D01*
X165103361Y-122237714D01*
X165104229Y-122233271D01*
X165104500Y-122227730D01*
X165104500Y-122177659D01*
X165395500Y-122177659D01*
X165410493Y-122334806D01*
X165412183Y-122340566D01*
X165412183Y-122340567D01*
X165450442Y-122470980D01*
X165469823Y-122537042D01*
X165493918Y-122583825D01*
X165523180Y-122640640D01*
X165566324Y-122724410D01*
X165588151Y-122752197D01*
X165692808Y-122885432D01*
X165692812Y-122885436D01*
X165696514Y-122890149D01*
X165701044Y-122894080D01*
X165701045Y-122894081D01*
X165851165Y-123024350D01*
X165851170Y-123024354D01*
X165855696Y-123028281D01*
X166038126Y-123133819D01*
X166237222Y-123202957D01*
X166243155Y-123203817D01*
X166243158Y-123203818D01*
X166439860Y-123232338D01*
X166439863Y-123232338D01*
X166445800Y-123233199D01*
X166656333Y-123223455D01*
X166662157Y-123222051D01*
X166662160Y-123222051D01*
X166855393Y-123175482D01*
X166855395Y-123175481D01*
X166861226Y-123174076D01*
X166866684Y-123171594D01*
X166866688Y-123171593D01*
X167044414Y-123090785D01*
X167053084Y-123086843D01*
X167208010Y-122976946D01*
X167220100Y-122968370D01*
X167220101Y-122968369D01*
X167224986Y-122964904D01*
X167370728Y-122812660D01*
X167427710Y-122724410D01*
X167481800Y-122640640D01*
X167481801Y-122640637D01*
X167485052Y-122635603D01*
X167563834Y-122440122D01*
X167597577Y-122267334D01*
X167603361Y-122237717D01*
X167603361Y-122237714D01*
X167604229Y-122233271D01*
X167604500Y-122227730D01*
X167604500Y-122177659D01*
X167895500Y-122177659D01*
X167910493Y-122334806D01*
X167912183Y-122340566D01*
X167912183Y-122340567D01*
X167950442Y-122470980D01*
X167969823Y-122537042D01*
X167993918Y-122583825D01*
X168023180Y-122640640D01*
X168066324Y-122724410D01*
X168088151Y-122752197D01*
X168192808Y-122885432D01*
X168192812Y-122885436D01*
X168196514Y-122890149D01*
X168201044Y-122894080D01*
X168201045Y-122894081D01*
X168351165Y-123024350D01*
X168351170Y-123024354D01*
X168355696Y-123028281D01*
X168538126Y-123133819D01*
X168737222Y-123202957D01*
X168743155Y-123203817D01*
X168743158Y-123203818D01*
X168939860Y-123232338D01*
X168939863Y-123232338D01*
X168945800Y-123233199D01*
X169156333Y-123223455D01*
X169162157Y-123222051D01*
X169162160Y-123222051D01*
X169355393Y-123175482D01*
X169355395Y-123175481D01*
X169361226Y-123174076D01*
X169366684Y-123171594D01*
X169366688Y-123171593D01*
X169544414Y-123090785D01*
X169553084Y-123086843D01*
X169708010Y-122976946D01*
X169720100Y-122968370D01*
X169720101Y-122968369D01*
X169724986Y-122964904D01*
X169870728Y-122812660D01*
X169927710Y-122724410D01*
X169981800Y-122640640D01*
X169981801Y-122640637D01*
X169985052Y-122635603D01*
X170063834Y-122440122D01*
X170097577Y-122267334D01*
X170103361Y-122237717D01*
X170103361Y-122237714D01*
X170104229Y-122233271D01*
X170104500Y-122227730D01*
X170104500Y-122177659D01*
X170395500Y-122177659D01*
X170410493Y-122334806D01*
X170412183Y-122340566D01*
X170412183Y-122340567D01*
X170450442Y-122470980D01*
X170469823Y-122537042D01*
X170493918Y-122583825D01*
X170523180Y-122640640D01*
X170566324Y-122724410D01*
X170588151Y-122752197D01*
X170692808Y-122885432D01*
X170692812Y-122885436D01*
X170696514Y-122890149D01*
X170701044Y-122894080D01*
X170701045Y-122894081D01*
X170851165Y-123024350D01*
X170851170Y-123024354D01*
X170855696Y-123028281D01*
X171038126Y-123133819D01*
X171237222Y-123202957D01*
X171243155Y-123203817D01*
X171243158Y-123203818D01*
X171439860Y-123232338D01*
X171439863Y-123232338D01*
X171445800Y-123233199D01*
X171656333Y-123223455D01*
X171662157Y-123222051D01*
X171662160Y-123222051D01*
X171855393Y-123175482D01*
X171855395Y-123175481D01*
X171861226Y-123174076D01*
X171866684Y-123171594D01*
X171866688Y-123171593D01*
X172044414Y-123090785D01*
X172053084Y-123086843D01*
X172208010Y-122976946D01*
X172220100Y-122968370D01*
X172220101Y-122968369D01*
X172224986Y-122964904D01*
X172370728Y-122812660D01*
X172427710Y-122724410D01*
X172481800Y-122640640D01*
X172481801Y-122640637D01*
X172485052Y-122635603D01*
X172563834Y-122440122D01*
X172597577Y-122267334D01*
X172603361Y-122237717D01*
X172603361Y-122237714D01*
X172604229Y-122233271D01*
X172604500Y-122227730D01*
X172604500Y-121822341D01*
X172589507Y-121665194D01*
X172530177Y-121462958D01*
X172479415Y-121364397D01*
X172436422Y-121280921D01*
X172436420Y-121280918D01*
X172433676Y-121275590D01*
X172364355Y-121187340D01*
X172307192Y-121114568D01*
X172307188Y-121114564D01*
X172303486Y-121109851D01*
X172290879Y-121098911D01*
X172148835Y-120975650D01*
X172148830Y-120975646D01*
X172144304Y-120971719D01*
X171961874Y-120866181D01*
X171762778Y-120797043D01*
X171756845Y-120796183D01*
X171756842Y-120796182D01*
X171560140Y-120767662D01*
X171560137Y-120767662D01*
X171554200Y-120766801D01*
X171343667Y-120776545D01*
X171337843Y-120777949D01*
X171337840Y-120777949D01*
X171144607Y-120824518D01*
X171144605Y-120824519D01*
X171138774Y-120825924D01*
X171133316Y-120828406D01*
X171133312Y-120828407D01*
X171080886Y-120852244D01*
X170946916Y-120913157D01*
X170924641Y-120928958D01*
X170788648Y-121025425D01*
X170775014Y-121035096D01*
X170629272Y-121187340D01*
X170626021Y-121192375D01*
X170556321Y-121300322D01*
X170514948Y-121364397D01*
X170436166Y-121559878D01*
X170395771Y-121766729D01*
X170395500Y-121772270D01*
X170395500Y-122177659D01*
X170104500Y-122177659D01*
X170104500Y-121822341D01*
X170089507Y-121665194D01*
X170030177Y-121462958D01*
X169979415Y-121364397D01*
X169936422Y-121280921D01*
X169936420Y-121280918D01*
X169933676Y-121275590D01*
X169864355Y-121187340D01*
X169807192Y-121114568D01*
X169807188Y-121114564D01*
X169803486Y-121109851D01*
X169790879Y-121098911D01*
X169648835Y-120975650D01*
X169648830Y-120975646D01*
X169644304Y-120971719D01*
X169461874Y-120866181D01*
X169262778Y-120797043D01*
X169256845Y-120796183D01*
X169256842Y-120796182D01*
X169060140Y-120767662D01*
X169060137Y-120767662D01*
X169054200Y-120766801D01*
X168843667Y-120776545D01*
X168837843Y-120777949D01*
X168837840Y-120777949D01*
X168644607Y-120824518D01*
X168644605Y-120824519D01*
X168638774Y-120825924D01*
X168633316Y-120828406D01*
X168633312Y-120828407D01*
X168580886Y-120852244D01*
X168446916Y-120913157D01*
X168424641Y-120928958D01*
X168288648Y-121025425D01*
X168275014Y-121035096D01*
X168129272Y-121187340D01*
X168126021Y-121192375D01*
X168056321Y-121300322D01*
X168014948Y-121364397D01*
X167936166Y-121559878D01*
X167895771Y-121766729D01*
X167895500Y-121772270D01*
X167895500Y-122177659D01*
X167604500Y-122177659D01*
X167604500Y-121822341D01*
X167589507Y-121665194D01*
X167530177Y-121462958D01*
X167479415Y-121364397D01*
X167436422Y-121280921D01*
X167436420Y-121280918D01*
X167433676Y-121275590D01*
X167364355Y-121187340D01*
X167307192Y-121114568D01*
X167307188Y-121114564D01*
X167303486Y-121109851D01*
X167290879Y-121098911D01*
X167148835Y-120975650D01*
X167148830Y-120975646D01*
X167144304Y-120971719D01*
X166961874Y-120866181D01*
X166762778Y-120797043D01*
X166756845Y-120796183D01*
X166756842Y-120796182D01*
X166560140Y-120767662D01*
X166560137Y-120767662D01*
X166554200Y-120766801D01*
X166343667Y-120776545D01*
X166337843Y-120777949D01*
X166337840Y-120777949D01*
X166144607Y-120824518D01*
X166144605Y-120824519D01*
X166138774Y-120825924D01*
X166133316Y-120828406D01*
X166133312Y-120828407D01*
X166080886Y-120852244D01*
X165946916Y-120913157D01*
X165924641Y-120928958D01*
X165788648Y-121025425D01*
X165775014Y-121035096D01*
X165629272Y-121187340D01*
X165626021Y-121192375D01*
X165556321Y-121300322D01*
X165514948Y-121364397D01*
X165436166Y-121559878D01*
X165395771Y-121766729D01*
X165395500Y-121772270D01*
X165395500Y-122177659D01*
X165104500Y-122177659D01*
X165104500Y-121822341D01*
X165089507Y-121665194D01*
X165030177Y-121462958D01*
X164979415Y-121364397D01*
X164936422Y-121280921D01*
X164936420Y-121280918D01*
X164933676Y-121275590D01*
X164864355Y-121187340D01*
X164807192Y-121114568D01*
X164807188Y-121114564D01*
X164803486Y-121109851D01*
X164790879Y-121098911D01*
X164648835Y-120975650D01*
X164648830Y-120975646D01*
X164644304Y-120971719D01*
X164461874Y-120866181D01*
X164262778Y-120797043D01*
X164256845Y-120796183D01*
X164256842Y-120796182D01*
X164060140Y-120767662D01*
X164060137Y-120767662D01*
X164054200Y-120766801D01*
X163843667Y-120776545D01*
X163837843Y-120777949D01*
X163837840Y-120777949D01*
X163644607Y-120824518D01*
X163644605Y-120824519D01*
X163638774Y-120825924D01*
X163633316Y-120828406D01*
X163633312Y-120828407D01*
X163580886Y-120852244D01*
X163446916Y-120913157D01*
X163424641Y-120928958D01*
X163288648Y-121025425D01*
X163275014Y-121035096D01*
X163129272Y-121187340D01*
X163126021Y-121192375D01*
X163056321Y-121300322D01*
X163014948Y-121364397D01*
X163012705Y-121369963D01*
X163004720Y-121389774D01*
X162960704Y-121445479D01*
X162893558Y-121468544D01*
X162824602Y-121451646D01*
X162772973Y-121394424D01*
X162693063Y-121217030D01*
X162687894Y-121207744D01*
X162565150Y-121025425D01*
X162558481Y-121017130D01*
X162406772Y-120858100D01*
X162398814Y-120851059D01*
X162222475Y-120719859D01*
X162213438Y-120714255D01*
X162017516Y-120614643D01*
X162007665Y-120610643D01*
X161797760Y-120545466D01*
X161787376Y-120543183D01*
X161771957Y-120541139D01*
X161757793Y-120543335D01*
X161754000Y-120556522D01*
X161754000Y-123441192D01*
X161246000Y-123441192D01*
X161246000Y-120558808D01*
X161242027Y-120545277D01*
X161231420Y-120543752D01*
X161113579Y-120568477D01*
X161103383Y-120571537D01*
X160898971Y-120652263D01*
X160889439Y-120656994D01*
X160701538Y-120771016D01*
X160692948Y-120777280D01*
X160526948Y-120921327D01*
X160519528Y-120928958D01*
X160380174Y-121098911D01*
X160374152Y-121107674D01*
X160326939Y-121190617D01*
X160275856Y-121239924D01*
X160206226Y-121253786D01*
X160140155Y-121227803D01*
X160098620Y-121170224D01*
X160098122Y-121168532D01*
X160097798Y-121165552D01*
X160047071Y-121030236D01*
X160041691Y-121023057D01*
X160041689Y-121023054D01*
X159965785Y-120921776D01*
X159960404Y-120914596D01*
X159893178Y-120864213D01*
X159851946Y-120833311D01*
X159851943Y-120833309D01*
X159844764Y-120827929D01*
X159745060Y-120790552D01*
X159716843Y-120779974D01*
X159716841Y-120779974D01*
X159709448Y-120777202D01*
X159701598Y-120776349D01*
X159701597Y-120776349D01*
X159651153Y-120770869D01*
X159651152Y-120770869D01*
X159647756Y-120770500D01*
X158352244Y-120770500D01*
X158348848Y-120770869D01*
X158348847Y-120770869D01*
X158298403Y-120776349D01*
X158298402Y-120776349D01*
X158290552Y-120777202D01*
X158283159Y-120779974D01*
X158283157Y-120779974D01*
X158254940Y-120790552D01*
X158155236Y-120827929D01*
X158148057Y-120833309D01*
X158148054Y-120833311D01*
X158106822Y-120864213D01*
X158039596Y-120914596D01*
X158034215Y-120921776D01*
X157958311Y-121023054D01*
X157958309Y-121023057D01*
X157952929Y-121030236D01*
X157930234Y-121090775D01*
X157906795Y-121153301D01*
X157902202Y-121165552D01*
X157895500Y-121227244D01*
X157895500Y-122772756D01*
X152396494Y-122772756D01*
X152427710Y-122724410D01*
X152481800Y-122640640D01*
X152481801Y-122640637D01*
X152485052Y-122635603D01*
X152563834Y-122440122D01*
X152597577Y-122267334D01*
X152603361Y-122237717D01*
X152603361Y-122237714D01*
X152604229Y-122233271D01*
X152604500Y-122227730D01*
X152604500Y-121822341D01*
X152589507Y-121665194D01*
X152530177Y-121462958D01*
X152479415Y-121364397D01*
X152436422Y-121280921D01*
X152436420Y-121280918D01*
X152433676Y-121275590D01*
X152364355Y-121187340D01*
X152307192Y-121114568D01*
X152307188Y-121114564D01*
X152303486Y-121109851D01*
X152290879Y-121098911D01*
X152148835Y-120975650D01*
X152148830Y-120975646D01*
X152144304Y-120971719D01*
X151961874Y-120866181D01*
X151762778Y-120797043D01*
X151756845Y-120796183D01*
X151756842Y-120796182D01*
X151560140Y-120767662D01*
X151560137Y-120767662D01*
X151554200Y-120766801D01*
X151343667Y-120776545D01*
X151337843Y-120777949D01*
X151337840Y-120777949D01*
X151144607Y-120824518D01*
X151144605Y-120824519D01*
X151138774Y-120825924D01*
X151133316Y-120828406D01*
X151133312Y-120828407D01*
X151080886Y-120852244D01*
X150946916Y-120913157D01*
X150924641Y-120928958D01*
X150788648Y-121025425D01*
X150775014Y-121035096D01*
X150629272Y-121187340D01*
X150626021Y-121192375D01*
X150556321Y-121300322D01*
X150514948Y-121364397D01*
X150436166Y-121559878D01*
X150395771Y-121766729D01*
X150395500Y-121772270D01*
X150395500Y-122177659D01*
X150104500Y-122177659D01*
X150104500Y-121822341D01*
X150089507Y-121665194D01*
X150030177Y-121462958D01*
X149979415Y-121364397D01*
X149936422Y-121280921D01*
X149936420Y-121280918D01*
X149933676Y-121275590D01*
X149864355Y-121187340D01*
X149807192Y-121114568D01*
X149807188Y-121114564D01*
X149803486Y-121109851D01*
X149790879Y-121098911D01*
X149648835Y-120975650D01*
X149648830Y-120975646D01*
X149644304Y-120971719D01*
X149461874Y-120866181D01*
X149262778Y-120797043D01*
X149256845Y-120796183D01*
X149256842Y-120796182D01*
X149060140Y-120767662D01*
X149060137Y-120767662D01*
X149054200Y-120766801D01*
X148843667Y-120776545D01*
X148837843Y-120777949D01*
X148837840Y-120777949D01*
X148644607Y-120824518D01*
X148644605Y-120824519D01*
X148638774Y-120825924D01*
X148633316Y-120828406D01*
X148633312Y-120828407D01*
X148580886Y-120852244D01*
X148446916Y-120913157D01*
X148424641Y-120928958D01*
X148288648Y-121025425D01*
X148275014Y-121035096D01*
X148129272Y-121187340D01*
X148126021Y-121192375D01*
X148056321Y-121300322D01*
X148014948Y-121364397D01*
X148012705Y-121369963D01*
X148004720Y-121389774D01*
X147960704Y-121445479D01*
X147893558Y-121468544D01*
X147824602Y-121451646D01*
X147772973Y-121394424D01*
X147693063Y-121217030D01*
X147687894Y-121207744D01*
X147565150Y-121025425D01*
X147558481Y-121017130D01*
X147406772Y-120858100D01*
X147398814Y-120851059D01*
X147222475Y-120719859D01*
X147213438Y-120714255D01*
X147017516Y-120614643D01*
X147007665Y-120610643D01*
X146797760Y-120545466D01*
X146787376Y-120543183D01*
X146771957Y-120541139D01*
X146757793Y-120543335D01*
X146754000Y-120556522D01*
X146754000Y-123441192D01*
X146246000Y-123441192D01*
X146246000Y-120558808D01*
X146242027Y-120545277D01*
X146231420Y-120543752D01*
X146113579Y-120568477D01*
X146103383Y-120571537D01*
X145898971Y-120652263D01*
X145889439Y-120656994D01*
X145701538Y-120771016D01*
X145692948Y-120777280D01*
X145526948Y-120921327D01*
X145519528Y-120928958D01*
X145380174Y-121098911D01*
X145374152Y-121107674D01*
X145326939Y-121190617D01*
X145275856Y-121239924D01*
X145206226Y-121253786D01*
X145140155Y-121227803D01*
X145098620Y-121170224D01*
X145098122Y-121168532D01*
X145097798Y-121165552D01*
X145047071Y-121030236D01*
X145041691Y-121023057D01*
X145041689Y-121023054D01*
X144965785Y-120921776D01*
X144960404Y-120914596D01*
X144893178Y-120864213D01*
X144851946Y-120833311D01*
X144851943Y-120833309D01*
X144844764Y-120827929D01*
X144745060Y-120790552D01*
X144716843Y-120779974D01*
X144716841Y-120779974D01*
X144709448Y-120777202D01*
X144701598Y-120776349D01*
X144701597Y-120776349D01*
X144651153Y-120770869D01*
X144651152Y-120770869D01*
X144647756Y-120770500D01*
X143352244Y-120770500D01*
X143348848Y-120770869D01*
X143348847Y-120770869D01*
X143298403Y-120776349D01*
X143298402Y-120776349D01*
X143290552Y-120777202D01*
X143283159Y-120779974D01*
X143283157Y-120779974D01*
X143254940Y-120790552D01*
X143155236Y-120827929D01*
X143148057Y-120833309D01*
X143148054Y-120833311D01*
X143106822Y-120864213D01*
X143039596Y-120914596D01*
X143034215Y-120921776D01*
X142958311Y-121023054D01*
X142958309Y-121023057D01*
X142952929Y-121030236D01*
X142930234Y-121090775D01*
X142906795Y-121153301D01*
X142902202Y-121165552D01*
X142895500Y-121227244D01*
X142895500Y-122772756D01*
X137135501Y-122772756D01*
X137135501Y-122608141D01*
X137138088Y-122583825D01*
X137138155Y-122582402D01*
X137140347Y-122572221D01*
X137136374Y-122538653D01*
X137136022Y-122532679D01*
X137135929Y-122532687D01*
X137135501Y-122527509D01*
X137135501Y-122522309D01*
X137134647Y-122517177D01*
X137132315Y-122503166D01*
X137131478Y-122497287D01*
X137126643Y-122456434D01*
X137126643Y-122456433D01*
X137125419Y-122446094D01*
X137121434Y-122437795D01*
X137119923Y-122428718D01*
X137095457Y-122383375D01*
X137092761Y-122378084D01*
X137073874Y-122338750D01*
X137073872Y-122338746D01*
X137070442Y-122331604D01*
X137066832Y-122327309D01*
X137064905Y-122325382D01*
X137063110Y-122323425D01*
X137063079Y-122323367D01*
X137063208Y-122323249D01*
X137062711Y-122322685D01*
X137059613Y-122316944D01*
X137019805Y-122280146D01*
X137016240Y-122276717D01*
X136723648Y-121984125D01*
X136689622Y-121921813D01*
X136693184Y-121855259D01*
X136731325Y-121740601D01*
X136731326Y-121740598D01*
X136733270Y-121734753D01*
X136759189Y-121529586D01*
X136759602Y-121500000D01*
X136739422Y-121294189D01*
X136679651Y-121096217D01*
X136586899Y-120921776D01*
X136585459Y-120919067D01*
X136585457Y-120919064D01*
X136582565Y-120913625D01*
X136578674Y-120908855D01*
X136578672Y-120908851D01*
X136455758Y-120758143D01*
X136455755Y-120758140D01*
X136451863Y-120753368D01*
X136444966Y-120747662D01*
X136297271Y-120625478D01*
X136297266Y-120625475D01*
X136292522Y-120621550D01*
X136287103Y-120618620D01*
X136287100Y-120618618D01*
X136116032Y-120526122D01*
X136116027Y-120526120D01*
X136110612Y-120523192D01*
X135913063Y-120462040D01*
X135906938Y-120461396D01*
X135906937Y-120461396D01*
X135713526Y-120441068D01*
X135713524Y-120441068D01*
X135707397Y-120440424D01*
X135581229Y-120451906D01*
X135507591Y-120458607D01*
X135507590Y-120458607D01*
X135501450Y-120459166D01*
X135303066Y-120517554D01*
X135297601Y-120520411D01*
X135125261Y-120610508D01*
X135125257Y-120610511D01*
X135119801Y-120613363D01*
X134958635Y-120742943D01*
X134825708Y-120901360D01*
X134726082Y-121082578D01*
X134663553Y-121279696D01*
X134662867Y-121285813D01*
X134662866Y-121285817D01*
X134642370Y-121468544D01*
X134640501Y-121485206D01*
X134641743Y-121500000D01*
X134656118Y-121671171D01*
X134657806Y-121691278D01*
X134714807Y-121890066D01*
X134717625Y-121895548D01*
X134717626Y-121895552D01*
X134806514Y-122068509D01*
X134806517Y-122068513D01*
X134809334Y-122073995D01*
X134937786Y-122236061D01*
X134942479Y-122240055D01*
X134942480Y-122240056D01*
X135073951Y-122351946D01*
X135095271Y-122370091D01*
X135275789Y-122470980D01*
X135472466Y-122534884D01*
X135677809Y-122559370D01*
X135683944Y-122558898D01*
X135683946Y-122558898D01*
X135877856Y-122543977D01*
X135877860Y-122543976D01*
X135883998Y-122543504D01*
X136063225Y-122493463D01*
X136134215Y-122494409D01*
X136186204Y-122525726D01*
X136335596Y-122675118D01*
X136369622Y-122737430D01*
X136372501Y-122764213D01*
X136372501Y-123953428D01*
X136352499Y-124021549D01*
X136298843Y-124068042D01*
X136228569Y-124078146D01*
X136186576Y-124064265D01*
X136110612Y-124023192D01*
X135913063Y-123962040D01*
X135906938Y-123961396D01*
X135906937Y-123961396D01*
X135713526Y-123941068D01*
X135713524Y-123941068D01*
X135707397Y-123940424D01*
X135581229Y-123951906D01*
X135507591Y-123958607D01*
X135507590Y-123958607D01*
X135501450Y-123959166D01*
X135303066Y-124017554D01*
X135297601Y-124020411D01*
X135125261Y-124110508D01*
X135125257Y-124110511D01*
X135119801Y-124113363D01*
X134958635Y-124242943D01*
X134825708Y-124401360D01*
X134726082Y-124582578D01*
X134663553Y-124779696D01*
X134640501Y-124985206D01*
X134657806Y-125191278D01*
X134714807Y-125390066D01*
X134717625Y-125395548D01*
X134717626Y-125395552D01*
X134806514Y-125568509D01*
X134806517Y-125568513D01*
X134809334Y-125573995D01*
X134937786Y-125736061D01*
X135095271Y-125870091D01*
X135275789Y-125970980D01*
X135472466Y-126034884D01*
X135677809Y-126059370D01*
X135683944Y-126058898D01*
X135683946Y-126058898D01*
X135877856Y-126043977D01*
X135877860Y-126043976D01*
X135883998Y-126043504D01*
X136083178Y-125987892D01*
X136137713Y-125960345D01*
X136189691Y-125934089D01*
X136259513Y-125921229D01*
X136325204Y-125948159D01*
X136365907Y-126006329D01*
X136372501Y-126046555D01*
X136372501Y-126493428D01*
X136352499Y-126561549D01*
X136298843Y-126608042D01*
X136228569Y-126618146D01*
X136186576Y-126604265D01*
X136110612Y-126563192D01*
X135913063Y-126502040D01*
X135906938Y-126501396D01*
X135906937Y-126501396D01*
X135713526Y-126481068D01*
X135713524Y-126481068D01*
X135707397Y-126480424D01*
X135581229Y-126491906D01*
X135507591Y-126498607D01*
X135507590Y-126498607D01*
X135501450Y-126499166D01*
X135303066Y-126557554D01*
X135297601Y-126560411D01*
X135125261Y-126650508D01*
X135125257Y-126650511D01*
X135119801Y-126653363D01*
X134958635Y-126782943D01*
X134825708Y-126941360D01*
X134726082Y-127122578D01*
X134663553Y-127319696D01*
X134662867Y-127325813D01*
X134662866Y-127325817D01*
X134650237Y-127438408D01*
X134640501Y-127525206D01*
X134657806Y-127731278D01*
X134714807Y-127930066D01*
X134717625Y-127935548D01*
X134717626Y-127935552D01*
X134806514Y-128108509D01*
X134806517Y-128108513D01*
X134809334Y-128113995D01*
X134937786Y-128276061D01*
X134942479Y-128280055D01*
X134942480Y-128280056D01*
X135071399Y-128389774D01*
X135095271Y-128410091D01*
X135275789Y-128510980D01*
X135472466Y-128574884D01*
X135677809Y-128599370D01*
X135683944Y-128598898D01*
X135683946Y-128598898D01*
X135877856Y-128583977D01*
X135877860Y-128583976D01*
X135883998Y-128583504D01*
X136083178Y-128527892D01*
X136137713Y-128500345D01*
X136189691Y-128474089D01*
X136259513Y-128461229D01*
X136325204Y-128488159D01*
X136365907Y-128546329D01*
X136372501Y-128586555D01*
X136372501Y-129033428D01*
X136352499Y-129101549D01*
X136298843Y-129148042D01*
X136228569Y-129158146D01*
X136186576Y-129144265D01*
X136110612Y-129103192D01*
X135913063Y-129042040D01*
X135906938Y-129041396D01*
X135906937Y-129041396D01*
X135713526Y-129021068D01*
X135713524Y-129021068D01*
X135707397Y-129020424D01*
X135581229Y-129031906D01*
X135507591Y-129038607D01*
X135507590Y-129038607D01*
X135501450Y-129039166D01*
X135303066Y-129097554D01*
X135297601Y-129100411D01*
X135125261Y-129190508D01*
X135125257Y-129190511D01*
X135119801Y-129193363D01*
X134958635Y-129322943D01*
X134825708Y-129481360D01*
X134726082Y-129662578D01*
X134663553Y-129859696D01*
X134662867Y-129865813D01*
X134662866Y-129865817D01*
X134645084Y-130024350D01*
X134640501Y-130065206D01*
X134641594Y-130078224D01*
X134651904Y-130200990D01*
X134657806Y-130271278D01*
X134714807Y-130470066D01*
X134717625Y-130475548D01*
X134717626Y-130475552D01*
X134806514Y-130648509D01*
X134806517Y-130648513D01*
X134809334Y-130653995D01*
X134937786Y-130816061D01*
X134942479Y-130820055D01*
X134942480Y-130820056D01*
X135083250Y-130939860D01*
X135095271Y-130950091D01*
X135275789Y-131050980D01*
X135472466Y-131114884D01*
X135677809Y-131139370D01*
X135683944Y-131138898D01*
X135683946Y-131138898D01*
X135877856Y-131123977D01*
X135877860Y-131123976D01*
X135883998Y-131123504D01*
X136083178Y-131067892D01*
X136137713Y-131040345D01*
X136189691Y-131014089D01*
X136259513Y-131001229D01*
X136325204Y-131028159D01*
X136365907Y-131086329D01*
X136372501Y-131126555D01*
X136372501Y-131573428D01*
X136352499Y-131641549D01*
X136298843Y-131688042D01*
X136228569Y-131698146D01*
X136186576Y-131684265D01*
X136110612Y-131643192D01*
X135913063Y-131582040D01*
X135906938Y-131581396D01*
X135906937Y-131581396D01*
X135713526Y-131561068D01*
X135713524Y-131561068D01*
X135707397Y-131560424D01*
X135581229Y-131571906D01*
X135507591Y-131578607D01*
X135507590Y-131578607D01*
X135501450Y-131579166D01*
X135303066Y-131637554D01*
X135297601Y-131640411D01*
X135125261Y-131730508D01*
X135125257Y-131730511D01*
X135119801Y-131733363D01*
X134958635Y-131862943D01*
X134825708Y-132021360D01*
X134726082Y-132202578D01*
X134663553Y-132399696D01*
X134662867Y-132405813D01*
X134662866Y-132405817D01*
X134655687Y-132469823D01*
X134640501Y-132605206D01*
X134657806Y-132811278D01*
X134714807Y-133010066D01*
X134717625Y-133015548D01*
X134717626Y-133015552D01*
X134806514Y-133188509D01*
X134806517Y-133188513D01*
X134809334Y-133193995D01*
X134937786Y-133356061D01*
X134942479Y-133360055D01*
X134942480Y-133360056D01*
X135050276Y-133451797D01*
X135095271Y-133490091D01*
X135275789Y-133590980D01*
X135472466Y-133654884D01*
X135677809Y-133679370D01*
X135683944Y-133678898D01*
X135683946Y-133678898D01*
X135877856Y-133663977D01*
X135877860Y-133663976D01*
X135883998Y-133663504D01*
X136083178Y-133607892D01*
X136137713Y-133580345D01*
X136189691Y-133554089D01*
X136259513Y-133541229D01*
X136325204Y-133568159D01*
X136365907Y-133626329D01*
X136372501Y-133666555D01*
X136372501Y-134113428D01*
X136352499Y-134181549D01*
X136298843Y-134228042D01*
X136228569Y-134238146D01*
X136186576Y-134224265D01*
X136110612Y-134183192D01*
X135913063Y-134122040D01*
X135906938Y-134121396D01*
X135906937Y-134121396D01*
X135713526Y-134101068D01*
X135713524Y-134101068D01*
X135707397Y-134100424D01*
X135581229Y-134111906D01*
X135507591Y-134118607D01*
X135507590Y-134118607D01*
X135501450Y-134119166D01*
X135303066Y-134177554D01*
X135297601Y-134180411D01*
X135125261Y-134270508D01*
X135125257Y-134270511D01*
X135119801Y-134273363D01*
X134958635Y-134402943D01*
X134825708Y-134561360D01*
X134726082Y-134742578D01*
X134663553Y-134939696D01*
X134662867Y-134945813D01*
X134662866Y-134945817D01*
X134661927Y-134954189D01*
X134640501Y-135145206D01*
X134641743Y-135160000D01*
X134652707Y-135290552D01*
X134657806Y-135351278D01*
X134714807Y-135550066D01*
X134717625Y-135555548D01*
X134717626Y-135555552D01*
X134806514Y-135728509D01*
X134806517Y-135728513D01*
X134809334Y-135733995D01*
X134937786Y-135896061D01*
X135095271Y-136030091D01*
X135275789Y-136130980D01*
X135472466Y-136194884D01*
X135677809Y-136219370D01*
X135683944Y-136218898D01*
X135683946Y-136218898D01*
X135877856Y-136203977D01*
X135877860Y-136203976D01*
X135883998Y-136203504D01*
X136083178Y-136147892D01*
X136137713Y-136120345D01*
X136189691Y-136094089D01*
X136259513Y-136081229D01*
X136325204Y-136108159D01*
X136365907Y-136166329D01*
X136372501Y-136206555D01*
X136372501Y-136653428D01*
X136352499Y-136721549D01*
X136298843Y-136768042D01*
X136228569Y-136778146D01*
X136186576Y-136764265D01*
X136110612Y-136723192D01*
X135913063Y-136662040D01*
X135906938Y-136661396D01*
X135906937Y-136661396D01*
X135713526Y-136641068D01*
X135713524Y-136641068D01*
X135707397Y-136640424D01*
X135589501Y-136651153D01*
X135507591Y-136658607D01*
X135507590Y-136658607D01*
X135501450Y-136659166D01*
X135303066Y-136717554D01*
X135297601Y-136720411D01*
X135125261Y-136810508D01*
X135125257Y-136810511D01*
X135119801Y-136813363D01*
X134958635Y-136942943D01*
X134825708Y-137101360D01*
X134726082Y-137282578D01*
X134663553Y-137479696D01*
X134640501Y-137685206D01*
X134657806Y-137891278D01*
X134714807Y-138090066D01*
X134717625Y-138095548D01*
X134717626Y-138095552D01*
X134806514Y-138268509D01*
X134806517Y-138268513D01*
X134809334Y-138273995D01*
X134937786Y-138436061D01*
X135095271Y-138570091D01*
X135275789Y-138670980D01*
X135472466Y-138734884D01*
X135677809Y-138759370D01*
X135683944Y-138758898D01*
X135683946Y-138758898D01*
X135877856Y-138743977D01*
X135877860Y-138743976D01*
X135883998Y-138743504D01*
X136083178Y-138687892D01*
X136137713Y-138660345D01*
X136189691Y-138634089D01*
X136259513Y-138621229D01*
X136325204Y-138648159D01*
X136365907Y-138706329D01*
X136372501Y-138746555D01*
X136372501Y-139193428D01*
X136352499Y-139261549D01*
X136298843Y-139308042D01*
X136228569Y-139318146D01*
X136186576Y-139304265D01*
X136110612Y-139263192D01*
X135913063Y-139202040D01*
X135906938Y-139201396D01*
X135906937Y-139201396D01*
X135713526Y-139181068D01*
X135713524Y-139181068D01*
X135707397Y-139180424D01*
X135581229Y-139191906D01*
X135507591Y-139198607D01*
X135507590Y-139198607D01*
X135501450Y-139199166D01*
X135303066Y-139257554D01*
X135297601Y-139260411D01*
X135125261Y-139350508D01*
X135125257Y-139350511D01*
X135119801Y-139353363D01*
X134958635Y-139482943D01*
X134825708Y-139641360D01*
X134726082Y-139822578D01*
X134663553Y-140019696D01*
X134640501Y-140225206D01*
X134657806Y-140431278D01*
X134714807Y-140630066D01*
X134717625Y-140635548D01*
X134717626Y-140635552D01*
X134806514Y-140808509D01*
X134806517Y-140808513D01*
X134809334Y-140813995D01*
X134937786Y-140976061D01*
X135095271Y-141110091D01*
X135275789Y-141210980D01*
X135472466Y-141274884D01*
X135677809Y-141299370D01*
X135683944Y-141298898D01*
X135683946Y-141298898D01*
X135877856Y-141283977D01*
X135877860Y-141283976D01*
X135883998Y-141283504D01*
X136083178Y-141227892D01*
X136137713Y-141200345D01*
X136189691Y-141174089D01*
X136259513Y-141161229D01*
X136325204Y-141188159D01*
X136365907Y-141246329D01*
X136372501Y-141286555D01*
X136372501Y-141515786D01*
X136352499Y-141583907D01*
X136335596Y-141604881D01*
X136184726Y-141755751D01*
X136122414Y-141789777D01*
X136058372Y-141787021D01*
X136058007Y-141786908D01*
X135913063Y-141742040D01*
X135906938Y-141741396D01*
X135906937Y-141741396D01*
X135713526Y-141721068D01*
X135713524Y-141721068D01*
X135707397Y-141720424D01*
X135581229Y-141731906D01*
X135507591Y-141738607D01*
X135507590Y-141738607D01*
X135501450Y-141739166D01*
X135303066Y-141797554D01*
X135297601Y-141800411D01*
X135125261Y-141890508D01*
X135125257Y-141890511D01*
X135119801Y-141893363D01*
X134958635Y-142022943D01*
X134825708Y-142181360D01*
X134726082Y-142362578D01*
X134663553Y-142559696D01*
X134640501Y-142765206D01*
X124058151Y-142765206D01*
X124039422Y-142574189D01*
X123979651Y-142376217D01*
X123882565Y-142193625D01*
X123878674Y-142188855D01*
X123878672Y-142188851D01*
X123755758Y-142038143D01*
X123755755Y-142038140D01*
X123751863Y-142033368D01*
X123741215Y-142024559D01*
X123597271Y-141905478D01*
X123597266Y-141905475D01*
X123592522Y-141901550D01*
X123587103Y-141898620D01*
X123587100Y-141898618D01*
X123416032Y-141806122D01*
X123416027Y-141806120D01*
X123410612Y-141803192D01*
X123275118Y-141761249D01*
X123215959Y-141721999D01*
X123187412Y-141656994D01*
X123198541Y-141586875D01*
X123245812Y-141533904D01*
X123279767Y-141519178D01*
X123443761Y-141475236D01*
X123454053Y-141471490D01*
X123651511Y-141379414D01*
X123661007Y-141373931D01*
X123839467Y-141248972D01*
X123847875Y-141241916D01*
X124001916Y-141087875D01*
X124008972Y-141079467D01*
X124133931Y-140901007D01*
X124139414Y-140891511D01*
X124231490Y-140694053D01*
X124235236Y-140683761D01*
X124281394Y-140511497D01*
X124281058Y-140497401D01*
X124273116Y-140494000D01*
X121732033Y-140494000D01*
X121718502Y-140497973D01*
X121717273Y-140506522D01*
X107754500Y-140506522D01*
X107754500Y-133445800D01*
X110266801Y-133445800D01*
X110276545Y-133656333D01*
X110325924Y-133861226D01*
X110413157Y-134053084D01*
X110535096Y-134224986D01*
X110687340Y-134370728D01*
X110692375Y-134373979D01*
X110859360Y-134481800D01*
X110859363Y-134481801D01*
X110864397Y-134485052D01*
X111059878Y-134563834D01*
X111194099Y-134590045D01*
X111262283Y-134603361D01*
X111262286Y-134603361D01*
X111266729Y-134604229D01*
X111272270Y-134604500D01*
X111653577Y-134604500D01*
X111721698Y-134624502D01*
X111742672Y-134641405D01*
X111781672Y-134680405D01*
X111815698Y-134742717D01*
X111810633Y-134813532D01*
X111768086Y-134870368D01*
X111701566Y-134895179D01*
X111692577Y-134895500D01*
X110727244Y-134895500D01*
X110723848Y-134895869D01*
X110723847Y-134895869D01*
X110673403Y-134901349D01*
X110673402Y-134901349D01*
X110665552Y-134902202D01*
X110658159Y-134904974D01*
X110658157Y-134904974D01*
X110619954Y-134919296D01*
X110530236Y-134952929D01*
X110523057Y-134958309D01*
X110523054Y-134958311D01*
X110435023Y-135024287D01*
X110414596Y-135039596D01*
X110409215Y-135046776D01*
X110333311Y-135148054D01*
X110333309Y-135148057D01*
X110327929Y-135155236D01*
X110277202Y-135290552D01*
X110270500Y-135352244D01*
X110270500Y-136647756D01*
X110270869Y-136651152D01*
X110270869Y-136651153D01*
X110271740Y-136659166D01*
X110277202Y-136709448D01*
X110327929Y-136844764D01*
X110333309Y-136851943D01*
X110333311Y-136851946D01*
X110360118Y-136887714D01*
X110414596Y-136960404D01*
X110421776Y-136965785D01*
X110523054Y-137041689D01*
X110523057Y-137041691D01*
X110530236Y-137047071D01*
X110619954Y-137080704D01*
X110658157Y-137095026D01*
X110658159Y-137095026D01*
X110665552Y-137097798D01*
X110673402Y-137098651D01*
X110673403Y-137098651D01*
X110698340Y-137101360D01*
X110727244Y-137104500D01*
X111653578Y-137104500D01*
X111721699Y-137124502D01*
X111742669Y-137141401D01*
X112694761Y-138093494D01*
X112702325Y-138101808D01*
X112706447Y-138108303D01*
X112756265Y-138155085D01*
X112759107Y-138157840D01*
X112778906Y-138177639D01*
X112782031Y-138180063D01*
X112782040Y-138180071D01*
X112782126Y-138180137D01*
X112791151Y-138187845D01*
X112823494Y-138218217D01*
X112830438Y-138222035D01*
X112830440Y-138222036D01*
X112841329Y-138228022D01*
X112857847Y-138238873D01*
X112873933Y-138251350D01*
X112914666Y-138268976D01*
X112925314Y-138274193D01*
X112964197Y-138295569D01*
X112971872Y-138297540D01*
X112971878Y-138297542D01*
X112983911Y-138300631D01*
X113002613Y-138307034D01*
X113021292Y-138315117D01*
X113055128Y-138320476D01*
X113065127Y-138322060D01*
X113076740Y-138324465D01*
X113119718Y-138335500D01*
X113140065Y-138335500D01*
X113159777Y-138337051D01*
X113179879Y-138340235D01*
X113187771Y-138339489D01*
X113224056Y-138336059D01*
X113235914Y-138335500D01*
X122097171Y-138335500D01*
X122165292Y-138355502D01*
X122195916Y-138383235D01*
X122237786Y-138436061D01*
X122395271Y-138570091D01*
X122575789Y-138670980D01*
X122718791Y-138717444D01*
X122725402Y-138719592D01*
X122784008Y-138759665D01*
X122811645Y-138825062D01*
X122799538Y-138895019D01*
X122751532Y-138947325D01*
X122719077Y-138961132D01*
X122556239Y-139004764D01*
X122545947Y-139008510D01*
X122348489Y-139100586D01*
X122338993Y-139106069D01*
X122160533Y-139231028D01*
X122152125Y-139238084D01*
X121998084Y-139392125D01*
X121991028Y-139400533D01*
X121866069Y-139578993D01*
X121860586Y-139588489D01*
X121768510Y-139785947D01*
X121764764Y-139796239D01*
X121718606Y-139968503D01*
X121718942Y-139982599D01*
X121726884Y-139986000D01*
X124267967Y-139986000D01*
X124281498Y-139982027D01*
X124282727Y-139973478D01*
X124235236Y-139796239D01*
X124231490Y-139785947D01*
X124139414Y-139588489D01*
X124133931Y-139578993D01*
X124008972Y-139400533D01*
X124001916Y-139392125D01*
X123847875Y-139238084D01*
X123839467Y-139231028D01*
X123661007Y-139106069D01*
X123651511Y-139100586D01*
X123454053Y-139008510D01*
X123443761Y-139004764D01*
X123278603Y-138960510D01*
X123217980Y-138923558D01*
X123186959Y-138859697D01*
X123195387Y-138789203D01*
X123240590Y-138734456D01*
X123277323Y-138717447D01*
X123383178Y-138687892D01*
X123388682Y-138685112D01*
X123388684Y-138685111D01*
X123562262Y-138597431D01*
X123562264Y-138597430D01*
X123567763Y-138594652D01*
X123730722Y-138467334D01*
X123734748Y-138462670D01*
X123734751Y-138462667D01*
X123861819Y-138315457D01*
X123861820Y-138315455D01*
X123865848Y-138310789D01*
X123921520Y-138212790D01*
X123964950Y-138136340D01*
X123964952Y-138136336D01*
X123967995Y-138130979D01*
X124033270Y-137934753D01*
X124059189Y-137729586D01*
X124059602Y-137700000D01*
X124039422Y-137494189D01*
X123979651Y-137296217D01*
X123897336Y-137141405D01*
X123885459Y-137119067D01*
X123885457Y-137119064D01*
X123882565Y-137113625D01*
X123878674Y-137108855D01*
X123878672Y-137108851D01*
X123755758Y-136958143D01*
X123755755Y-136958140D01*
X123751863Y-136953368D01*
X123744966Y-136947662D01*
X123597271Y-136825478D01*
X123597266Y-136825475D01*
X123592522Y-136821550D01*
X123587103Y-136818620D01*
X123587100Y-136818618D01*
X123416032Y-136726122D01*
X123416027Y-136726120D01*
X123410612Y-136723192D01*
X123213063Y-136662040D01*
X123206938Y-136661396D01*
X123206937Y-136661396D01*
X123013526Y-136641068D01*
X123013524Y-136641068D01*
X123007397Y-136640424D01*
X122889501Y-136651153D01*
X122807591Y-136658607D01*
X122807590Y-136658607D01*
X122801450Y-136659166D01*
X122603066Y-136717554D01*
X122597601Y-136720411D01*
X122425261Y-136810508D01*
X122425257Y-136810511D01*
X122419801Y-136813363D01*
X122258635Y-136942943D01*
X122194404Y-137019491D01*
X122135294Y-137058818D01*
X122097882Y-137064500D01*
X113515423Y-137064500D01*
X113447302Y-137044498D01*
X113426327Y-137027595D01*
X112766404Y-136367671D01*
X112732379Y-136305359D01*
X112729500Y-136278576D01*
X112729500Y-135861588D01*
X112749502Y-135793467D01*
X112803158Y-135746974D01*
X112873432Y-135736870D01*
X112909801Y-135749033D01*
X112909881Y-135748832D01*
X112913578Y-135750296D01*
X112916198Y-135751172D01*
X112917246Y-135751748D01*
X112917249Y-135751749D01*
X112924197Y-135755569D01*
X112943915Y-135760632D01*
X112962611Y-135767033D01*
X112981293Y-135775117D01*
X112989117Y-135776356D01*
X112989123Y-135776358D01*
X113025120Y-135782060D01*
X113036740Y-135784466D01*
X113072037Y-135793528D01*
X113079718Y-135795500D01*
X113100066Y-135795500D01*
X113119778Y-135797051D01*
X113139880Y-135800235D01*
X113184055Y-135796059D01*
X113195914Y-135795500D01*
X122097171Y-135795500D01*
X122165292Y-135815502D01*
X122195916Y-135843235D01*
X122237786Y-135896061D01*
X122395271Y-136030091D01*
X122575789Y-136130980D01*
X122772466Y-136194884D01*
X122977809Y-136219370D01*
X122983944Y-136218898D01*
X122983946Y-136218898D01*
X123177856Y-136203977D01*
X123177860Y-136203976D01*
X123183998Y-136203504D01*
X123383178Y-136147892D01*
X123388682Y-136145112D01*
X123388684Y-136145111D01*
X123562262Y-136057431D01*
X123562264Y-136057430D01*
X123567763Y-136054652D01*
X123730722Y-135927334D01*
X123734748Y-135922670D01*
X123734751Y-135922667D01*
X123861819Y-135775457D01*
X123861820Y-135775455D01*
X123865848Y-135770789D01*
X123938002Y-135643776D01*
X123964950Y-135596340D01*
X123964952Y-135596336D01*
X123967995Y-135590979D01*
X124033270Y-135394753D01*
X124059189Y-135189586D01*
X124059602Y-135160000D01*
X124039422Y-134954189D01*
X123979651Y-134756217D01*
X123898982Y-134604500D01*
X123885459Y-134579067D01*
X123885457Y-134579064D01*
X123882565Y-134573625D01*
X123878674Y-134568855D01*
X123878672Y-134568851D01*
X123755758Y-134418143D01*
X123755755Y-134418140D01*
X123751863Y-134413368D01*
X123744966Y-134407662D01*
X123597271Y-134285478D01*
X123597266Y-134285475D01*
X123592522Y-134281550D01*
X123587103Y-134278620D01*
X123587100Y-134278618D01*
X123416032Y-134186122D01*
X123416027Y-134186120D01*
X123410612Y-134183192D01*
X123213063Y-134122040D01*
X123206938Y-134121396D01*
X123206937Y-134121396D01*
X123013526Y-134101068D01*
X123013524Y-134101068D01*
X123007397Y-134100424D01*
X122881229Y-134111906D01*
X122807591Y-134118607D01*
X122807590Y-134118607D01*
X122801450Y-134119166D01*
X122603066Y-134177554D01*
X122597601Y-134180411D01*
X122425261Y-134270508D01*
X122425257Y-134270511D01*
X122419801Y-134273363D01*
X122258635Y-134402943D01*
X122245881Y-134418143D01*
X122194404Y-134479491D01*
X122135294Y-134518818D01*
X122097882Y-134524500D01*
X113475423Y-134524500D01*
X113407302Y-134504498D01*
X113386328Y-134487595D01*
X112742373Y-133843640D01*
X112708347Y-133781328D01*
X112706772Y-133736465D01*
X112732338Y-133560140D01*
X112732338Y-133560137D01*
X112733199Y-133554200D01*
X112723455Y-133343667D01*
X112725822Y-133343557D01*
X112734546Y-133283582D01*
X112781126Y-133230002D01*
X112849279Y-133210111D01*
X112883892Y-133216744D01*
X112884194Y-133215569D01*
X112903911Y-133220631D01*
X112922613Y-133227034D01*
X112941292Y-133235117D01*
X112975128Y-133240476D01*
X112985127Y-133242060D01*
X112996740Y-133244465D01*
X113039718Y-133255500D01*
X113060065Y-133255500D01*
X113079777Y-133257051D01*
X113099879Y-133260235D01*
X113107771Y-133259489D01*
X113144056Y-133256059D01*
X113155914Y-133255500D01*
X122097171Y-133255500D01*
X122165292Y-133275502D01*
X122195916Y-133303235D01*
X122237786Y-133356061D01*
X122242479Y-133360055D01*
X122242480Y-133360056D01*
X122350276Y-133451797D01*
X122395271Y-133490091D01*
X122575789Y-133590980D01*
X122772466Y-133654884D01*
X122977809Y-133679370D01*
X122983944Y-133678898D01*
X122983946Y-133678898D01*
X123177856Y-133663977D01*
X123177860Y-133663976D01*
X123183998Y-133663504D01*
X123383178Y-133607892D01*
X123388682Y-133605112D01*
X123388684Y-133605111D01*
X123562262Y-133517431D01*
X123562264Y-133517430D01*
X123567763Y-133514652D01*
X123730722Y-133387334D01*
X123734748Y-133382670D01*
X123734751Y-133382667D01*
X123861819Y-133235457D01*
X123861820Y-133235455D01*
X123865848Y-133230789D01*
X123918437Y-133138217D01*
X123964950Y-133056340D01*
X123964952Y-133056336D01*
X123967995Y-133050979D01*
X124033270Y-132854753D01*
X124059189Y-132649586D01*
X124059602Y-132620000D01*
X124039422Y-132414189D01*
X123979651Y-132216217D01*
X123918948Y-132102052D01*
X123885459Y-132039067D01*
X123885457Y-132039064D01*
X123882565Y-132033625D01*
X123878674Y-132028855D01*
X123878672Y-132028851D01*
X123755758Y-131878143D01*
X123755755Y-131878140D01*
X123751863Y-131873368D01*
X123744966Y-131867662D01*
X123597271Y-131745478D01*
X123597266Y-131745475D01*
X123592522Y-131741550D01*
X123587103Y-131738620D01*
X123587100Y-131738618D01*
X123416032Y-131646122D01*
X123416027Y-131646120D01*
X123410612Y-131643192D01*
X123213063Y-131582040D01*
X123206938Y-131581396D01*
X123206937Y-131581396D01*
X123013526Y-131561068D01*
X123013524Y-131561068D01*
X123007397Y-131560424D01*
X122881229Y-131571906D01*
X122807591Y-131578607D01*
X122807590Y-131578607D01*
X122801450Y-131579166D01*
X122603066Y-131637554D01*
X122597601Y-131640411D01*
X122425261Y-131730508D01*
X122425257Y-131730511D01*
X122419801Y-131733363D01*
X122258635Y-131862943D01*
X122249375Y-131873979D01*
X122194404Y-131939491D01*
X122135294Y-131978818D01*
X122097882Y-131984500D01*
X113435422Y-131984500D01*
X113367301Y-131964498D01*
X113346327Y-131947595D01*
X112742373Y-131343641D01*
X112708347Y-131281329D01*
X112706772Y-131236466D01*
X112732338Y-131060140D01*
X112732338Y-131060137D01*
X112733199Y-131054200D01*
X112723455Y-130843667D01*
X112722050Y-130837837D01*
X112722049Y-130837830D01*
X112721924Y-130837310D01*
X112721937Y-130837042D01*
X112721205Y-130831897D01*
X112722197Y-130831756D01*
X112725412Y-130766400D01*
X112766685Y-130708632D01*
X112832637Y-130682348D01*
X112886094Y-130690833D01*
X112886407Y-130689757D01*
X112894013Y-130691967D01*
X112901292Y-130695117D01*
X112928342Y-130699401D01*
X112945127Y-130702060D01*
X112956740Y-130704465D01*
X112999718Y-130715500D01*
X113020065Y-130715500D01*
X113039777Y-130717051D01*
X113059879Y-130720235D01*
X113067771Y-130719489D01*
X113104056Y-130716059D01*
X113115914Y-130715500D01*
X122097171Y-130715500D01*
X122165292Y-130735502D01*
X122195916Y-130763235D01*
X122237786Y-130816061D01*
X122242479Y-130820055D01*
X122242480Y-130820056D01*
X122383250Y-130939860D01*
X122395271Y-130950091D01*
X122575789Y-131050980D01*
X122772466Y-131114884D01*
X122977809Y-131139370D01*
X122983944Y-131138898D01*
X122983946Y-131138898D01*
X123177856Y-131123977D01*
X123177860Y-131123976D01*
X123183998Y-131123504D01*
X123383178Y-131067892D01*
X123388682Y-131065112D01*
X123388684Y-131065111D01*
X123562262Y-130977431D01*
X123562264Y-130977430D01*
X123567763Y-130974652D01*
X123730722Y-130847334D01*
X123734748Y-130842670D01*
X123734751Y-130842667D01*
X123861819Y-130695457D01*
X123861820Y-130695455D01*
X123865848Y-130690789D01*
X123941489Y-130557638D01*
X123964950Y-130516340D01*
X123964952Y-130516336D01*
X123967995Y-130510979D01*
X124008453Y-130389357D01*
X124031325Y-130320601D01*
X124031326Y-130320598D01*
X124033270Y-130314753D01*
X124059189Y-130109586D01*
X124059602Y-130080000D01*
X124039422Y-129874189D01*
X123979651Y-129676217D01*
X123905650Y-129537042D01*
X123885459Y-129499067D01*
X123885457Y-129499064D01*
X123882565Y-129493625D01*
X123878674Y-129488855D01*
X123878672Y-129488851D01*
X123755758Y-129338143D01*
X123755755Y-129338140D01*
X123751863Y-129333368D01*
X123747114Y-129329439D01*
X123597271Y-129205478D01*
X123597266Y-129205475D01*
X123592522Y-129201550D01*
X123587103Y-129198620D01*
X123587100Y-129198618D01*
X123416032Y-129106122D01*
X123416027Y-129106120D01*
X123410612Y-129103192D01*
X123213063Y-129042040D01*
X123206938Y-129041396D01*
X123206937Y-129041396D01*
X123013526Y-129021068D01*
X123013524Y-129021068D01*
X123007397Y-129020424D01*
X122881229Y-129031906D01*
X122807591Y-129038607D01*
X122807590Y-129038607D01*
X122801450Y-129039166D01*
X122603066Y-129097554D01*
X122597601Y-129100411D01*
X122425261Y-129190508D01*
X122425257Y-129190511D01*
X122419801Y-129193363D01*
X122258635Y-129322943D01*
X122248681Y-129334806D01*
X122194404Y-129399491D01*
X122135294Y-129438818D01*
X122097882Y-129444500D01*
X113395423Y-129444500D01*
X113327302Y-129424498D01*
X113306328Y-129407595D01*
X112742373Y-128843640D01*
X112708347Y-128781328D01*
X112706772Y-128736465D01*
X112732338Y-128560140D01*
X112732338Y-128560137D01*
X112733199Y-128554200D01*
X112723455Y-128343667D01*
X112708334Y-128280921D01*
X112675482Y-128144607D01*
X112675481Y-128144605D01*
X112674076Y-128138774D01*
X112663071Y-128114568D01*
X112600221Y-127976340D01*
X112586843Y-127946916D01*
X112464904Y-127775014D01*
X112312660Y-127629272D01*
X112210918Y-127563578D01*
X112140640Y-127518200D01*
X112140637Y-127518199D01*
X112135603Y-127514948D01*
X111940122Y-127436166D01*
X111805739Y-127409923D01*
X111737717Y-127396639D01*
X111737714Y-127396639D01*
X111733271Y-127395771D01*
X111727730Y-127395500D01*
X111322341Y-127395500D01*
X111165194Y-127410493D01*
X110962958Y-127469823D01*
X110957619Y-127472573D01*
X110780921Y-127563578D01*
X110780918Y-127563580D01*
X110775590Y-127566324D01*
X110770875Y-127570028D01*
X110614568Y-127692808D01*
X110614564Y-127692812D01*
X110609851Y-127696514D01*
X110605920Y-127701044D01*
X110605919Y-127701045D01*
X110475650Y-127851165D01*
X110475646Y-127851170D01*
X110471719Y-127855696D01*
X110366181Y-128038126D01*
X110297043Y-128237222D01*
X110296183Y-128243155D01*
X110296182Y-128243158D01*
X110274924Y-128389774D01*
X110266801Y-128445800D01*
X110276545Y-128656333D01*
X110280121Y-128671171D01*
X110315834Y-128819357D01*
X110325924Y-128861226D01*
X110413157Y-129053084D01*
X110535096Y-129224986D01*
X110687340Y-129370728D01*
X110692375Y-129373979D01*
X110859360Y-129481800D01*
X110859363Y-129481801D01*
X110864397Y-129485052D01*
X111059878Y-129563834D01*
X111194099Y-129590045D01*
X111262283Y-129603361D01*
X111262286Y-129603361D01*
X111266729Y-129604229D01*
X111272270Y-129604500D01*
X111653578Y-129604500D01*
X111721699Y-129624502D01*
X111742673Y-129641405D01*
X111781673Y-129680405D01*
X111815699Y-129742717D01*
X111810634Y-129813532D01*
X111768087Y-129870368D01*
X111701567Y-129895179D01*
X111692578Y-129895500D01*
X111322341Y-129895500D01*
X111165194Y-129910493D01*
X111159434Y-129912183D01*
X111159433Y-129912183D01*
X110979725Y-129964904D01*
X110962958Y-129969823D01*
X110949128Y-129976946D01*
X110780921Y-130063578D01*
X110780918Y-130063580D01*
X110775590Y-130066324D01*
X110770875Y-130070028D01*
X110614568Y-130192808D01*
X110614564Y-130192812D01*
X110609851Y-130196514D01*
X110605920Y-130201044D01*
X110605919Y-130201045D01*
X110475650Y-130351165D01*
X110475646Y-130351170D01*
X110471719Y-130355696D01*
X110366181Y-130538126D01*
X110297043Y-130737222D01*
X110296183Y-130743155D01*
X110296182Y-130743158D01*
X110274482Y-130892821D01*
X110266801Y-130945800D01*
X110276545Y-131156333D01*
X110325924Y-131361226D01*
X110413157Y-131553084D01*
X110535096Y-131724986D01*
X110543847Y-131733363D01*
X110675177Y-131859084D01*
X110687340Y-131870728D01*
X110692375Y-131873979D01*
X110859360Y-131981800D01*
X110859363Y-131981801D01*
X110864397Y-131985052D01*
X111059878Y-132063834D01*
X111194099Y-132090045D01*
X111262283Y-132103361D01*
X111262286Y-132103361D01*
X111266729Y-132104229D01*
X111272270Y-132104500D01*
X111653577Y-132104500D01*
X111721698Y-132124502D01*
X111742672Y-132141405D01*
X111781672Y-132180405D01*
X111815698Y-132242717D01*
X111810633Y-132313532D01*
X111768086Y-132370368D01*
X111701566Y-132395179D01*
X111692577Y-132395500D01*
X111322341Y-132395500D01*
X111165194Y-132410493D01*
X111159434Y-132412183D01*
X111159433Y-132412183D01*
X111131690Y-132420322D01*
X110962958Y-132469823D01*
X110957619Y-132472573D01*
X110780921Y-132563578D01*
X110780918Y-132563580D01*
X110775590Y-132566324D01*
X110770875Y-132570028D01*
X110614568Y-132692808D01*
X110614564Y-132692812D01*
X110609851Y-132696514D01*
X110605920Y-132701044D01*
X110605919Y-132701045D01*
X110475650Y-132851165D01*
X110475646Y-132851170D01*
X110471719Y-132855696D01*
X110366181Y-133038126D01*
X110297043Y-133237222D01*
X110296183Y-133243155D01*
X110296182Y-133243158D01*
X110275278Y-133387334D01*
X110266801Y-133445800D01*
X107754500Y-133445800D01*
X107754500Y-125844669D01*
X121692001Y-125844669D01*
X121692371Y-125851490D01*
X121697895Y-125902352D01*
X121701521Y-125917604D01*
X121746676Y-126038054D01*
X121755214Y-126053649D01*
X121831715Y-126155724D01*
X121844276Y-126168285D01*
X121946351Y-126244786D01*
X121961946Y-126253324D01*
X122082394Y-126298478D01*
X122097649Y-126302105D01*
X122148514Y-126307631D01*
X122155328Y-126308000D01*
X122576601Y-126308000D01*
X122644722Y-126328002D01*
X122691215Y-126381658D01*
X122701319Y-126451932D01*
X122671825Y-126516512D01*
X122614607Y-126553308D01*
X122614688Y-126553508D01*
X122613637Y-126553933D01*
X122612174Y-126554873D01*
X122603066Y-126557554D01*
X122597601Y-126560411D01*
X122425261Y-126650508D01*
X122425257Y-126650511D01*
X122419801Y-126653363D01*
X122258635Y-126782943D01*
X122125708Y-126941360D01*
X122026082Y-127122578D01*
X121963553Y-127319696D01*
X121962867Y-127325813D01*
X121962866Y-127325817D01*
X121950237Y-127438408D01*
X121940501Y-127525206D01*
X121957806Y-127731278D01*
X122014807Y-127930066D01*
X122017625Y-127935548D01*
X122017626Y-127935552D01*
X122106514Y-128108509D01*
X122106517Y-128108513D01*
X122109334Y-128113995D01*
X122237786Y-128276061D01*
X122242479Y-128280055D01*
X122242480Y-128280056D01*
X122371399Y-128389774D01*
X122395271Y-128410091D01*
X122575789Y-128510980D01*
X122772466Y-128574884D01*
X122977809Y-128599370D01*
X122983944Y-128598898D01*
X122983946Y-128598898D01*
X123177856Y-128583977D01*
X123177860Y-128583976D01*
X123183998Y-128583504D01*
X123383178Y-128527892D01*
X123388682Y-128525112D01*
X123388684Y-128525111D01*
X123562262Y-128437431D01*
X123562264Y-128437430D01*
X123567763Y-128434652D01*
X123730722Y-128307334D01*
X123734748Y-128302670D01*
X123734751Y-128302667D01*
X123861819Y-128155457D01*
X123861820Y-128155455D01*
X123865848Y-128150789D01*
X123938412Y-128023054D01*
X123964950Y-127976340D01*
X123964952Y-127976336D01*
X123967995Y-127970979D01*
X124033270Y-127774753D01*
X124059189Y-127569586D01*
X124059602Y-127540000D01*
X124039422Y-127334189D01*
X123979651Y-127136217D01*
X123882565Y-126953625D01*
X123878674Y-126948855D01*
X123878672Y-126948851D01*
X123755758Y-126798143D01*
X123755755Y-126798140D01*
X123751863Y-126793368D01*
X123744966Y-126787662D01*
X123597271Y-126665478D01*
X123597266Y-126665475D01*
X123592522Y-126661550D01*
X123587103Y-126658620D01*
X123587100Y-126658618D01*
X123416032Y-126566122D01*
X123416027Y-126566120D01*
X123410612Y-126563192D01*
X123382093Y-126554364D01*
X123322934Y-126515112D01*
X123294387Y-126450107D01*
X123305516Y-126379989D01*
X123352787Y-126327018D01*
X123419353Y-126307999D01*
X123844669Y-126307999D01*
X123851490Y-126307629D01*
X123902352Y-126302105D01*
X123917604Y-126298479D01*
X124038054Y-126253324D01*
X124053649Y-126244786D01*
X124155724Y-126168285D01*
X124168285Y-126155724D01*
X124244786Y-126053649D01*
X124253324Y-126038054D01*
X124298478Y-125917606D01*
X124302105Y-125902351D01*
X124307631Y-125851486D01*
X124308000Y-125844672D01*
X124308000Y-125272115D01*
X124303525Y-125256876D01*
X124302135Y-125255671D01*
X124294452Y-125254000D01*
X121710116Y-125254000D01*
X121694877Y-125258475D01*
X121693672Y-125259865D01*
X121692001Y-125267548D01*
X121692001Y-125844669D01*
X107754500Y-125844669D01*
X107754500Y-124727885D01*
X121692000Y-124727885D01*
X121696475Y-124743124D01*
X121697865Y-124744329D01*
X121705548Y-124746000D01*
X122727885Y-124746000D01*
X122743124Y-124741525D01*
X122744329Y-124740135D01*
X122746000Y-124732452D01*
X122746000Y-124727885D01*
X123254000Y-124727885D01*
X123258475Y-124743124D01*
X123259865Y-124744329D01*
X123267548Y-124746000D01*
X124289884Y-124746000D01*
X124305123Y-124741525D01*
X124306328Y-124740135D01*
X124307999Y-124732452D01*
X124307999Y-124155331D01*
X124307629Y-124148510D01*
X124302105Y-124097648D01*
X124298479Y-124082396D01*
X124253324Y-123961946D01*
X124244786Y-123946351D01*
X124168285Y-123844276D01*
X124155724Y-123831715D01*
X124053649Y-123755214D01*
X124038054Y-123746676D01*
X123917606Y-123701522D01*
X123902351Y-123697895D01*
X123851486Y-123692369D01*
X123844672Y-123692000D01*
X123272115Y-123692000D01*
X123256876Y-123696475D01*
X123255671Y-123697865D01*
X123254000Y-123705548D01*
X123254000Y-124727885D01*
X122746000Y-124727885D01*
X122746000Y-123710116D01*
X122741525Y-123694877D01*
X122740135Y-123693672D01*
X122732452Y-123692001D01*
X122155331Y-123692001D01*
X122148510Y-123692371D01*
X122097648Y-123697895D01*
X122082396Y-123701521D01*
X121961946Y-123746676D01*
X121946351Y-123755214D01*
X121844276Y-123831715D01*
X121831715Y-123844276D01*
X121755214Y-123946351D01*
X121746676Y-123961946D01*
X121701522Y-124082394D01*
X121697895Y-124097649D01*
X121692369Y-124148514D01*
X121692000Y-124155328D01*
X121692000Y-124727885D01*
X107754500Y-124727885D01*
X107754500Y-118945800D01*
X110266801Y-118945800D01*
X110276545Y-119156333D01*
X110325924Y-119361226D01*
X110328406Y-119366684D01*
X110328407Y-119366688D01*
X110349943Y-119414053D01*
X110413157Y-119553084D01*
X110535096Y-119724986D01*
X110539423Y-119729128D01*
X110666584Y-119850858D01*
X110687340Y-119870728D01*
X110692375Y-119873979D01*
X110859360Y-119981800D01*
X110859363Y-119981801D01*
X110864397Y-119985052D01*
X111059878Y-120063834D01*
X111191342Y-120089507D01*
X111262283Y-120103361D01*
X111262286Y-120103361D01*
X111266729Y-120104229D01*
X111272270Y-120104500D01*
X111677659Y-120104500D01*
X111681557Y-120104128D01*
X111681739Y-120104163D01*
X111683631Y-120104073D01*
X111683653Y-120104532D01*
X111751269Y-120117574D01*
X111802645Y-120166574D01*
X111819373Y-120235572D01*
X111796143Y-120302660D01*
X111782612Y-120318654D01*
X111742671Y-120358595D01*
X111680359Y-120392621D01*
X111653576Y-120395500D01*
X110727244Y-120395500D01*
X110723848Y-120395869D01*
X110723847Y-120395869D01*
X110673403Y-120401349D01*
X110673402Y-120401349D01*
X110665552Y-120402202D01*
X110658159Y-120404974D01*
X110658157Y-120404974D01*
X110642899Y-120410694D01*
X110530236Y-120452929D01*
X110523057Y-120458309D01*
X110523054Y-120458311D01*
X110446331Y-120515812D01*
X110414596Y-120539596D01*
X110409215Y-120546776D01*
X110333311Y-120648054D01*
X110333309Y-120648057D01*
X110327929Y-120655236D01*
X110324779Y-120663640D01*
X110281927Y-120777949D01*
X110277202Y-120790552D01*
X110270500Y-120852244D01*
X110270500Y-122147756D01*
X110270869Y-122151152D01*
X110270869Y-122151153D01*
X110273749Y-122177659D01*
X110277202Y-122209448D01*
X110279974Y-122216841D01*
X110279974Y-122216843D01*
X110286133Y-122233271D01*
X110327929Y-122344764D01*
X110333309Y-122351943D01*
X110333311Y-122351946D01*
X110383981Y-122419554D01*
X110414596Y-122460404D01*
X110421776Y-122465785D01*
X110523054Y-122541689D01*
X110523057Y-122541691D01*
X110530236Y-122547071D01*
X110619954Y-122580704D01*
X110658157Y-122595026D01*
X110658159Y-122595026D01*
X110665552Y-122597798D01*
X110673402Y-122598651D01*
X110673403Y-122598651D01*
X110723847Y-122604131D01*
X110727244Y-122604500D01*
X112272756Y-122604500D01*
X112276153Y-122604131D01*
X112326597Y-122598651D01*
X112326598Y-122598651D01*
X112334448Y-122597798D01*
X112341841Y-122595026D01*
X112341843Y-122595026D01*
X112380046Y-122580704D01*
X112469764Y-122547071D01*
X112476943Y-122541691D01*
X112476946Y-122541689D01*
X112578224Y-122465785D01*
X112585404Y-122460404D01*
X112616019Y-122419554D01*
X112666689Y-122351946D01*
X112666691Y-122351943D01*
X112672071Y-122344764D01*
X112713867Y-122233271D01*
X112720026Y-122216843D01*
X112720026Y-122216841D01*
X112722798Y-122209448D01*
X112726252Y-122177659D01*
X112729131Y-122151153D01*
X112729131Y-122151152D01*
X112729500Y-122147756D01*
X112729500Y-121221422D01*
X112749502Y-121153301D01*
X112766405Y-121132327D01*
X114672210Y-119226522D01*
X121717273Y-119226522D01*
X121764764Y-119403761D01*
X121768510Y-119414053D01*
X121860586Y-119611511D01*
X121866069Y-119621007D01*
X121991028Y-119799467D01*
X121998084Y-119807875D01*
X122152125Y-119961916D01*
X122160533Y-119968972D01*
X122338993Y-120093931D01*
X122348489Y-120099414D01*
X122545947Y-120191490D01*
X122556239Y-120195236D01*
X122721015Y-120239387D01*
X122781638Y-120276339D01*
X122812659Y-120340199D01*
X122804231Y-120410694D01*
X122759028Y-120465441D01*
X122723978Y-120481967D01*
X122603066Y-120517554D01*
X122597601Y-120520411D01*
X122425261Y-120610508D01*
X122425257Y-120610511D01*
X122419801Y-120613363D01*
X122258635Y-120742943D01*
X122125708Y-120901360D01*
X122026082Y-121082578D01*
X121963553Y-121279696D01*
X121962867Y-121285813D01*
X121962866Y-121285817D01*
X121942370Y-121468544D01*
X121940501Y-121485206D01*
X121941743Y-121500000D01*
X121956118Y-121671171D01*
X121957806Y-121691278D01*
X122014807Y-121890066D01*
X122017625Y-121895548D01*
X122017626Y-121895552D01*
X122106514Y-122068509D01*
X122106517Y-122068513D01*
X122109334Y-122073995D01*
X122237786Y-122236061D01*
X122242479Y-122240055D01*
X122242480Y-122240056D01*
X122373951Y-122351946D01*
X122395271Y-122370091D01*
X122575789Y-122470980D01*
X122772466Y-122534884D01*
X122977809Y-122559370D01*
X122983944Y-122558898D01*
X122983946Y-122558898D01*
X123177856Y-122543977D01*
X123177860Y-122543976D01*
X123183998Y-122543504D01*
X123383178Y-122487892D01*
X123388682Y-122485112D01*
X123388684Y-122485111D01*
X123562262Y-122397431D01*
X123562264Y-122397430D01*
X123567763Y-122394652D01*
X123730722Y-122267334D01*
X123734748Y-122262670D01*
X123734751Y-122262667D01*
X123861819Y-122115457D01*
X123861820Y-122115455D01*
X123865848Y-122110789D01*
X123967995Y-121930979D01*
X124033270Y-121734753D01*
X124059189Y-121529586D01*
X124059602Y-121500000D01*
X124039422Y-121294189D01*
X123979651Y-121096217D01*
X123886899Y-120921776D01*
X123885459Y-120919067D01*
X123885457Y-120919064D01*
X123882565Y-120913625D01*
X123878674Y-120908855D01*
X123878672Y-120908851D01*
X123755758Y-120758143D01*
X123755755Y-120758140D01*
X123751863Y-120753368D01*
X123744966Y-120747662D01*
X123597271Y-120625478D01*
X123597266Y-120625475D01*
X123592522Y-120621550D01*
X123587103Y-120618620D01*
X123587100Y-120618618D01*
X123416032Y-120526122D01*
X123416027Y-120526120D01*
X123410612Y-120523192D01*
X123275118Y-120481249D01*
X123215959Y-120441999D01*
X123187412Y-120376994D01*
X123198541Y-120306875D01*
X123245812Y-120253904D01*
X123279767Y-120239178D01*
X123443761Y-120195236D01*
X123454053Y-120191490D01*
X123651511Y-120099414D01*
X123661007Y-120093931D01*
X123839467Y-119968972D01*
X123847875Y-119961916D01*
X124001916Y-119807875D01*
X124008972Y-119799467D01*
X124133931Y-119621007D01*
X124139414Y-119611511D01*
X124231490Y-119414053D01*
X124235236Y-119403761D01*
X124281394Y-119231497D01*
X124281058Y-119217401D01*
X124273116Y-119214000D01*
X121732033Y-119214000D01*
X121718502Y-119217973D01*
X121717273Y-119226522D01*
X114672210Y-119226522D01*
X114953526Y-118945206D01*
X134640501Y-118945206D01*
X134657806Y-119151278D01*
X134714807Y-119350066D01*
X134717625Y-119355548D01*
X134717626Y-119355552D01*
X134806514Y-119528509D01*
X134806517Y-119528513D01*
X134809334Y-119533995D01*
X134937786Y-119696061D01*
X135095271Y-119830091D01*
X135275789Y-119930980D01*
X135472466Y-119994884D01*
X135677809Y-120019370D01*
X135683944Y-120018898D01*
X135683946Y-120018898D01*
X135877856Y-120003977D01*
X135877860Y-120003976D01*
X135883998Y-120003504D01*
X136083178Y-119947892D01*
X136088682Y-119945112D01*
X136088684Y-119945111D01*
X136262262Y-119857431D01*
X136262264Y-119857430D01*
X136267763Y-119854652D01*
X136430722Y-119727334D01*
X136434748Y-119722670D01*
X136434751Y-119722667D01*
X136561819Y-119575457D01*
X136561820Y-119575455D01*
X136565848Y-119570789D01*
X136667995Y-119390979D01*
X136725736Y-119217401D01*
X136731325Y-119200601D01*
X136731326Y-119200598D01*
X136733270Y-119194753D01*
X136759189Y-118989586D01*
X136759602Y-118960000D01*
X136739422Y-118754189D01*
X136679651Y-118556217D01*
X136582565Y-118373625D01*
X136578674Y-118368855D01*
X136578672Y-118368851D01*
X136455758Y-118218143D01*
X136455755Y-118218140D01*
X136451863Y-118213368D01*
X136444966Y-118207662D01*
X136297271Y-118085478D01*
X136297266Y-118085475D01*
X136292522Y-118081550D01*
X136287103Y-118078620D01*
X136287100Y-118078618D01*
X136116032Y-117986122D01*
X136116027Y-117986120D01*
X136110612Y-117983192D01*
X135913063Y-117922040D01*
X135906938Y-117921396D01*
X135906937Y-117921396D01*
X135713526Y-117901068D01*
X135713524Y-117901068D01*
X135707397Y-117900424D01*
X135603017Y-117909923D01*
X135507591Y-117918607D01*
X135507590Y-117918607D01*
X135501450Y-117919166D01*
X135303066Y-117977554D01*
X135297601Y-117980411D01*
X135125261Y-118070508D01*
X135125257Y-118070511D01*
X135119801Y-118073363D01*
X134958635Y-118202943D01*
X134825708Y-118361360D01*
X134726082Y-118542578D01*
X134724219Y-118548451D01*
X134666135Y-118731558D01*
X134663553Y-118739696D01*
X134662867Y-118745813D01*
X134662866Y-118745817D01*
X134651219Y-118849656D01*
X134640501Y-118945206D01*
X114953526Y-118945206D01*
X116806328Y-117092405D01*
X116868640Y-117058379D01*
X116895423Y-117055500D01*
X122097171Y-117055500D01*
X122165292Y-117075502D01*
X122195916Y-117103235D01*
X122237786Y-117156061D01*
X122242479Y-117160055D01*
X122242480Y-117160056D01*
X122323640Y-117229128D01*
X122395271Y-117290091D01*
X122575789Y-117390980D01*
X122718791Y-117437444D01*
X122725402Y-117439592D01*
X122784008Y-117479665D01*
X122811645Y-117545062D01*
X122799538Y-117615019D01*
X122751532Y-117667325D01*
X122719077Y-117681132D01*
X122556239Y-117724764D01*
X122545947Y-117728510D01*
X122348489Y-117820586D01*
X122338993Y-117826069D01*
X122160533Y-117951028D01*
X122152125Y-117958084D01*
X121998084Y-118112125D01*
X121991028Y-118120533D01*
X121866069Y-118298993D01*
X121860586Y-118308489D01*
X121768510Y-118505947D01*
X121764764Y-118516239D01*
X121718606Y-118688503D01*
X121718942Y-118702599D01*
X121726884Y-118706000D01*
X124267967Y-118706000D01*
X124281498Y-118702027D01*
X124282727Y-118693478D01*
X124235236Y-118516239D01*
X124231490Y-118505947D01*
X124139414Y-118308489D01*
X124133931Y-118298993D01*
X124008972Y-118120533D01*
X124001916Y-118112125D01*
X123847875Y-117958084D01*
X123839467Y-117951028D01*
X123661007Y-117826069D01*
X123651511Y-117820586D01*
X123454053Y-117728510D01*
X123443761Y-117724764D01*
X123278603Y-117680510D01*
X123217980Y-117643558D01*
X123186959Y-117579697D01*
X123195387Y-117509203D01*
X123240590Y-117454456D01*
X123277323Y-117437447D01*
X123383178Y-117407892D01*
X123388682Y-117405112D01*
X123388684Y-117405111D01*
X123562262Y-117317431D01*
X123562264Y-117317430D01*
X123567763Y-117314652D01*
X123730722Y-117187334D01*
X123734748Y-117182670D01*
X123734751Y-117182667D01*
X123861819Y-117035457D01*
X123861820Y-117035455D01*
X123865848Y-117030789D01*
X123967995Y-116850979D01*
X124033270Y-116654753D01*
X124059189Y-116449586D01*
X124059602Y-116420000D01*
X124058151Y-116405206D01*
X134640501Y-116405206D01*
X134641743Y-116420000D01*
X134653388Y-116558663D01*
X134657806Y-116611278D01*
X134714807Y-116810066D01*
X134717625Y-116815548D01*
X134717626Y-116815552D01*
X134806514Y-116988509D01*
X134806517Y-116988513D01*
X134809334Y-116993995D01*
X134937786Y-117156061D01*
X134942479Y-117160055D01*
X134942480Y-117160056D01*
X135023640Y-117229128D01*
X135095271Y-117290091D01*
X135275789Y-117390980D01*
X135472466Y-117454884D01*
X135677809Y-117479370D01*
X135683944Y-117478898D01*
X135683946Y-117478898D01*
X135877856Y-117463977D01*
X135877860Y-117463976D01*
X135883998Y-117463504D01*
X136083178Y-117407892D01*
X136088682Y-117405112D01*
X136088684Y-117405111D01*
X136262262Y-117317431D01*
X136262264Y-117317430D01*
X136267763Y-117314652D01*
X136430722Y-117187334D01*
X136434748Y-117182670D01*
X136434751Y-117182667D01*
X136561819Y-117035457D01*
X136561820Y-117035455D01*
X136565848Y-117030789D01*
X136667995Y-116850979D01*
X136733270Y-116654753D01*
X136759189Y-116449586D01*
X136759602Y-116420000D01*
X136739422Y-116214189D01*
X136679651Y-116016217D01*
X136612198Y-115889357D01*
X136585459Y-115839067D01*
X136585457Y-115839064D01*
X136582565Y-115833625D01*
X136578674Y-115828855D01*
X136578672Y-115828851D01*
X136455758Y-115678143D01*
X136455755Y-115678140D01*
X136451863Y-115673368D01*
X136444966Y-115667662D01*
X136297271Y-115545478D01*
X136297266Y-115545475D01*
X136292522Y-115541550D01*
X136287103Y-115538620D01*
X136287100Y-115538618D01*
X136116032Y-115446122D01*
X136116027Y-115446120D01*
X136110612Y-115443192D01*
X135913063Y-115382040D01*
X135906938Y-115381396D01*
X135906937Y-115381396D01*
X135713526Y-115361068D01*
X135713524Y-115361068D01*
X135707397Y-115360424D01*
X135581229Y-115371906D01*
X135507591Y-115378607D01*
X135507590Y-115378607D01*
X135501450Y-115379166D01*
X135303066Y-115437554D01*
X135297601Y-115440411D01*
X135125261Y-115530508D01*
X135125257Y-115530511D01*
X135119801Y-115533363D01*
X134958635Y-115662943D01*
X134825708Y-115821360D01*
X134726082Y-116002578D01*
X134663553Y-116199696D01*
X134662867Y-116205813D01*
X134662866Y-116205817D01*
X134658678Y-116243158D01*
X134640501Y-116405206D01*
X124058151Y-116405206D01*
X124039422Y-116214189D01*
X123979651Y-116016217D01*
X123912198Y-115889357D01*
X123885459Y-115839067D01*
X123885457Y-115839064D01*
X123882565Y-115833625D01*
X123878674Y-115828855D01*
X123878672Y-115828851D01*
X123755758Y-115678143D01*
X123755755Y-115678140D01*
X123751863Y-115673368D01*
X123744966Y-115667662D01*
X123597271Y-115545478D01*
X123597266Y-115545475D01*
X123592522Y-115541550D01*
X123587103Y-115538620D01*
X123587100Y-115538618D01*
X123416032Y-115446122D01*
X123416027Y-115446120D01*
X123410612Y-115443192D01*
X123213063Y-115382040D01*
X123206938Y-115381396D01*
X123206937Y-115381396D01*
X123013526Y-115361068D01*
X123013524Y-115361068D01*
X123007397Y-115360424D01*
X122881229Y-115371906D01*
X122807591Y-115378607D01*
X122807590Y-115378607D01*
X122801450Y-115379166D01*
X122603066Y-115437554D01*
X122597601Y-115440411D01*
X122425261Y-115530508D01*
X122425257Y-115530511D01*
X122419801Y-115533363D01*
X122258635Y-115662943D01*
X122194404Y-115739491D01*
X122135294Y-115778818D01*
X122097882Y-115784500D01*
X116659032Y-115784500D01*
X116647793Y-115783970D01*
X116640281Y-115782291D01*
X116632356Y-115782540D01*
X116632355Y-115782540D01*
X116571970Y-115784438D01*
X116568012Y-115784500D01*
X116540017Y-115784500D01*
X116536083Y-115784997D01*
X116536081Y-115784997D01*
X116535994Y-115785008D01*
X116524160Y-115785940D01*
X116479795Y-115787335D01*
X116472182Y-115789547D01*
X116472181Y-115789547D01*
X116460252Y-115793013D01*
X116440888Y-115797023D01*
X116428560Y-115798580D01*
X116428558Y-115798580D01*
X116420701Y-115799573D01*
X116413337Y-115802489D01*
X116413332Y-115802490D01*
X116379444Y-115815907D01*
X116368215Y-115819752D01*
X116362681Y-115821360D01*
X116325607Y-115832131D01*
X116318780Y-115836169D01*
X116318777Y-115836170D01*
X116308094Y-115842488D01*
X116290336Y-115851188D01*
X116278785Y-115855761D01*
X116278779Y-115855765D01*
X116271412Y-115858681D01*
X116265001Y-115863339D01*
X116264999Y-115863340D01*
X116235512Y-115884764D01*
X116225590Y-115891281D01*
X116194232Y-115909826D01*
X116194228Y-115909829D01*
X116187402Y-115913866D01*
X116173018Y-115928250D01*
X116157984Y-115941091D01*
X116141513Y-115953058D01*
X116136460Y-115959166D01*
X116113223Y-115987255D01*
X116105233Y-115996035D01*
X112947355Y-119153912D01*
X112885043Y-119187938D01*
X112814227Y-119182873D01*
X112757392Y-119140326D01*
X112732581Y-119073806D01*
X112732420Y-119059571D01*
X112733199Y-119054200D01*
X112723455Y-118843667D01*
X112707303Y-118776646D01*
X112710788Y-118705736D01*
X112740701Y-118658031D01*
X116125976Y-115272756D01*
X163395500Y-115272756D01*
X163402202Y-115334448D01*
X163452929Y-115469764D01*
X163458309Y-115476943D01*
X163458311Y-115476946D01*
X163503486Y-115537223D01*
X163539596Y-115585404D01*
X163546776Y-115590785D01*
X163648054Y-115666689D01*
X163648057Y-115666691D01*
X163655236Y-115672071D01*
X163739922Y-115703818D01*
X163783157Y-115720026D01*
X163783159Y-115720026D01*
X163790552Y-115722798D01*
X163798402Y-115723651D01*
X163798403Y-115723651D01*
X163799149Y-115723732D01*
X163852244Y-115729500D01*
X165147756Y-115729500D01*
X165200851Y-115723732D01*
X165201597Y-115723651D01*
X165201598Y-115723651D01*
X165209448Y-115722798D01*
X165216841Y-115720026D01*
X165216843Y-115720026D01*
X165260078Y-115703818D01*
X165344764Y-115672071D01*
X165351943Y-115666691D01*
X165351946Y-115666689D01*
X165453224Y-115590785D01*
X165460404Y-115585404D01*
X165496514Y-115537223D01*
X165541689Y-115476946D01*
X165541691Y-115476943D01*
X165547071Y-115469764D01*
X165597798Y-115334448D01*
X165600320Y-115335393D01*
X165629085Y-115285026D01*
X165692036Y-115252197D01*
X165762742Y-115258614D01*
X165820982Y-115305440D01*
X165934850Y-115474575D01*
X165941519Y-115482870D01*
X166093228Y-115641900D01*
X166101186Y-115648941D01*
X166277525Y-115780141D01*
X166286562Y-115785745D01*
X166482484Y-115885357D01*
X166492335Y-115889357D01*
X166702240Y-115954534D01*
X166712624Y-115956817D01*
X166728043Y-115958861D01*
X166742207Y-115956665D01*
X166746000Y-115943478D01*
X166746000Y-115941192D01*
X167254000Y-115941192D01*
X167257973Y-115954723D01*
X167268580Y-115956248D01*
X167386421Y-115931523D01*
X167396617Y-115928463D01*
X167601029Y-115847737D01*
X167610561Y-115843006D01*
X167798462Y-115728984D01*
X167807052Y-115722720D01*
X167973052Y-115578673D01*
X167980472Y-115571042D01*
X168119826Y-115401089D01*
X168125850Y-115392322D01*
X168234576Y-115201318D01*
X168239041Y-115191655D01*
X168268966Y-115109212D01*
X168311010Y-115052004D01*
X168377309Y-115026608D01*
X168446814Y-115041088D01*
X168499421Y-115094510D01*
X168566324Y-115224410D01*
X168588151Y-115252197D01*
X168692808Y-115385432D01*
X168692812Y-115385436D01*
X168696514Y-115390149D01*
X168701044Y-115394080D01*
X168701045Y-115394081D01*
X168851165Y-115524350D01*
X168851170Y-115524354D01*
X168855696Y-115528281D01*
X169038126Y-115633819D01*
X169237222Y-115702957D01*
X169243155Y-115703817D01*
X169243158Y-115703818D01*
X169439860Y-115732338D01*
X169439863Y-115732338D01*
X169445800Y-115733199D01*
X169656333Y-115723455D01*
X169662157Y-115722051D01*
X169662160Y-115722051D01*
X169855393Y-115675482D01*
X169855395Y-115675481D01*
X169861226Y-115674076D01*
X169866684Y-115671594D01*
X169866688Y-115671593D01*
X170044414Y-115590785D01*
X170053084Y-115586843D01*
X170208010Y-115476946D01*
X170220100Y-115468370D01*
X170220101Y-115468369D01*
X170224986Y-115464904D01*
X170370728Y-115312660D01*
X170427710Y-115224410D01*
X170481800Y-115140640D01*
X170481801Y-115140637D01*
X170485052Y-115135603D01*
X170563834Y-114940122D01*
X170596889Y-114770858D01*
X170603361Y-114737717D01*
X170603361Y-114737714D01*
X170604229Y-114733271D01*
X170604500Y-114727730D01*
X170604500Y-114322341D01*
X170589507Y-114165194D01*
X170586908Y-114156333D01*
X170531868Y-113968722D01*
X170530177Y-113962958D01*
X170479415Y-113864397D01*
X170436422Y-113780921D01*
X170436420Y-113780918D01*
X170433676Y-113775590D01*
X170364355Y-113687340D01*
X170307192Y-113614568D01*
X170307188Y-113614564D01*
X170303486Y-113609851D01*
X170290879Y-113598911D01*
X170148835Y-113475650D01*
X170148830Y-113475646D01*
X170144304Y-113471719D01*
X169961874Y-113366181D01*
X169762778Y-113297043D01*
X169756845Y-113296183D01*
X169756842Y-113296182D01*
X169560140Y-113267662D01*
X169560137Y-113267662D01*
X169554200Y-113266801D01*
X169343667Y-113276545D01*
X169337843Y-113277949D01*
X169337840Y-113277949D01*
X169144607Y-113324518D01*
X169144605Y-113324519D01*
X169138774Y-113325924D01*
X169133316Y-113328406D01*
X169133312Y-113328407D01*
X169020995Y-113379475D01*
X168946916Y-113413157D01*
X168868966Y-113468451D01*
X168788648Y-113525425D01*
X168775014Y-113535096D01*
X168752669Y-113558438D01*
X168639796Y-113676347D01*
X168629272Y-113687340D01*
X168626021Y-113692375D01*
X168532096Y-113837840D01*
X168514948Y-113864397D01*
X168512705Y-113869963D01*
X168504720Y-113889774D01*
X168460704Y-113945479D01*
X168393558Y-113968544D01*
X168324602Y-113951646D01*
X168272973Y-113894424D01*
X168193063Y-113717030D01*
X168187894Y-113707744D01*
X168065150Y-113525425D01*
X168058481Y-113517130D01*
X167906772Y-113358100D01*
X167898814Y-113351059D01*
X167722475Y-113219859D01*
X167713438Y-113214255D01*
X167517516Y-113114643D01*
X167507665Y-113110643D01*
X167297760Y-113045466D01*
X167287376Y-113043183D01*
X167271957Y-113041139D01*
X167257793Y-113043335D01*
X167254000Y-113056522D01*
X167254000Y-115941192D01*
X166746000Y-115941192D01*
X166746000Y-113058808D01*
X166742027Y-113045277D01*
X166731420Y-113043752D01*
X166613579Y-113068477D01*
X166603383Y-113071537D01*
X166398971Y-113152263D01*
X166389439Y-113156994D01*
X166201538Y-113271016D01*
X166192948Y-113277280D01*
X166026948Y-113421327D01*
X166019528Y-113428958D01*
X165880174Y-113598911D01*
X165874152Y-113607674D01*
X165826939Y-113690617D01*
X165775856Y-113739924D01*
X165706226Y-113753786D01*
X165640155Y-113727803D01*
X165598620Y-113670224D01*
X165598122Y-113668532D01*
X165597798Y-113665552D01*
X165547071Y-113530236D01*
X165541691Y-113523057D01*
X165541689Y-113523054D01*
X165465785Y-113421776D01*
X165460404Y-113414596D01*
X165434226Y-113394977D01*
X165351946Y-113333311D01*
X165351943Y-113333309D01*
X165344764Y-113327929D01*
X165220540Y-113281360D01*
X165216843Y-113279974D01*
X165216841Y-113279974D01*
X165209448Y-113277202D01*
X165201598Y-113276349D01*
X165201597Y-113276349D01*
X165151153Y-113270869D01*
X165151152Y-113270869D01*
X165147756Y-113270500D01*
X163852244Y-113270500D01*
X163848848Y-113270869D01*
X163848847Y-113270869D01*
X163798403Y-113276349D01*
X163798402Y-113276349D01*
X163790552Y-113277202D01*
X163783159Y-113279974D01*
X163783157Y-113279974D01*
X163779460Y-113281360D01*
X163655236Y-113327929D01*
X163648057Y-113333309D01*
X163648054Y-113333311D01*
X163565774Y-113394977D01*
X163539596Y-113414596D01*
X163534215Y-113421776D01*
X163458311Y-113523054D01*
X163458309Y-113523057D01*
X163452929Y-113530236D01*
X163402202Y-113665552D01*
X163401349Y-113673402D01*
X163401349Y-113673403D01*
X163397618Y-113707744D01*
X163395500Y-113727244D01*
X163395500Y-115272756D01*
X116125976Y-115272756D01*
X116846327Y-114552405D01*
X116908639Y-114518379D01*
X116935422Y-114515500D01*
X122097171Y-114515500D01*
X122165292Y-114535502D01*
X122195916Y-114563235D01*
X122237786Y-114616061D01*
X122242479Y-114620055D01*
X122242480Y-114620056D01*
X122380732Y-114737717D01*
X122395271Y-114750091D01*
X122575789Y-114850980D01*
X122772466Y-114914884D01*
X122977809Y-114939370D01*
X122983944Y-114938898D01*
X122983946Y-114938898D01*
X123177856Y-114923977D01*
X123177860Y-114923976D01*
X123183998Y-114923504D01*
X123383178Y-114867892D01*
X123388682Y-114865112D01*
X123388684Y-114865111D01*
X123562262Y-114777431D01*
X123562264Y-114777430D01*
X123567763Y-114774652D01*
X123730722Y-114647334D01*
X123734748Y-114642670D01*
X123734751Y-114642667D01*
X123861819Y-114495457D01*
X123861820Y-114495455D01*
X123865848Y-114490789D01*
X123942764Y-114355393D01*
X123964950Y-114316340D01*
X123964952Y-114316336D01*
X123967995Y-114310979D01*
X124010610Y-114182873D01*
X124031325Y-114120601D01*
X124031326Y-114120598D01*
X124033270Y-114114753D01*
X124059189Y-113909586D01*
X124059602Y-113880000D01*
X124058151Y-113865206D01*
X134640501Y-113865206D01*
X134641743Y-113880000D01*
X134656849Y-114059878D01*
X134657806Y-114071278D01*
X134714807Y-114270066D01*
X134717625Y-114275548D01*
X134717626Y-114275552D01*
X134806514Y-114448509D01*
X134806517Y-114448513D01*
X134809334Y-114453995D01*
X134937786Y-114616061D01*
X134942479Y-114620055D01*
X134942480Y-114620056D01*
X135080732Y-114737717D01*
X135095271Y-114750091D01*
X135275789Y-114850980D01*
X135472466Y-114914884D01*
X135677809Y-114939370D01*
X135683944Y-114938898D01*
X135683946Y-114938898D01*
X135877856Y-114923977D01*
X135877860Y-114923976D01*
X135883998Y-114923504D01*
X136083178Y-114867892D01*
X136088682Y-114865112D01*
X136088684Y-114865111D01*
X136262262Y-114777431D01*
X136262264Y-114777430D01*
X136267763Y-114774652D01*
X136430722Y-114647334D01*
X136434748Y-114642670D01*
X136434751Y-114642667D01*
X136561819Y-114495457D01*
X136561820Y-114495455D01*
X136565848Y-114490789D01*
X136642764Y-114355393D01*
X136664950Y-114316340D01*
X136664952Y-114316336D01*
X136667995Y-114310979D01*
X136710610Y-114182873D01*
X136731325Y-114120601D01*
X136731326Y-114120598D01*
X136733270Y-114114753D01*
X136759189Y-113909586D01*
X136759602Y-113880000D01*
X136739422Y-113674189D01*
X136698498Y-113538640D01*
X136693018Y-113520490D01*
X136692477Y-113449495D01*
X136724545Y-113394977D01*
X136835522Y-113284000D01*
X158058874Y-113284000D01*
X158059952Y-113292188D01*
X158076669Y-113419166D01*
X158078096Y-113430007D01*
X158134453Y-113566063D01*
X158224103Y-113682897D01*
X158340937Y-113772547D01*
X158476993Y-113828904D01*
X158485177Y-113829981D01*
X158485179Y-113829982D01*
X158614812Y-113847048D01*
X158623000Y-113848126D01*
X158631188Y-113847048D01*
X158760821Y-113829982D01*
X158760823Y-113829981D01*
X158769007Y-113828904D01*
X158905063Y-113772547D01*
X159021897Y-113682897D01*
X159111547Y-113566063D01*
X159167904Y-113430007D01*
X159169332Y-113419166D01*
X159186048Y-113292188D01*
X159187126Y-113284000D01*
X159183047Y-113253013D01*
X159168982Y-113146179D01*
X159168981Y-113146177D01*
X159167904Y-113137993D01*
X159111547Y-113001937D01*
X159030536Y-112896362D01*
X159004937Y-112830144D01*
X159004500Y-112819660D01*
X159004500Y-108922212D01*
X159024502Y-108854091D01*
X159041405Y-108833117D01*
X160101766Y-107772756D01*
X163395500Y-107772756D01*
X163402202Y-107834448D01*
X163452929Y-107969764D01*
X163458309Y-107976943D01*
X163458311Y-107976946D01*
X163496785Y-108028281D01*
X163539596Y-108085404D01*
X163546776Y-108090785D01*
X163648054Y-108166689D01*
X163648057Y-108166691D01*
X163655236Y-108172071D01*
X163739922Y-108203818D01*
X163783157Y-108220026D01*
X163783159Y-108220026D01*
X163790552Y-108222798D01*
X163798402Y-108223651D01*
X163798403Y-108223651D01*
X163847494Y-108228984D01*
X163852244Y-108229500D01*
X165147756Y-108229500D01*
X165152506Y-108228984D01*
X165201597Y-108223651D01*
X165201598Y-108223651D01*
X165209448Y-108222798D01*
X165216841Y-108220026D01*
X165216843Y-108220026D01*
X165260078Y-108203818D01*
X165344764Y-108172071D01*
X165351943Y-108166691D01*
X165351946Y-108166689D01*
X165453224Y-108090785D01*
X165460404Y-108085404D01*
X165503215Y-108028281D01*
X165541689Y-107976946D01*
X165541691Y-107976943D01*
X165547071Y-107969764D01*
X165597798Y-107834448D01*
X165600320Y-107835393D01*
X165629085Y-107785026D01*
X165692036Y-107752197D01*
X165762742Y-107758614D01*
X165820982Y-107805440D01*
X165934850Y-107974575D01*
X165941519Y-107982870D01*
X166093228Y-108141900D01*
X166101186Y-108148941D01*
X166277525Y-108280141D01*
X166286562Y-108285745D01*
X166482484Y-108385357D01*
X166492335Y-108389357D01*
X166702240Y-108454534D01*
X166712624Y-108456817D01*
X166728043Y-108458861D01*
X166742207Y-108456665D01*
X166746000Y-108443478D01*
X166746000Y-105558808D01*
X166742027Y-105545277D01*
X166731420Y-105543752D01*
X166613579Y-105568477D01*
X166603383Y-105571537D01*
X166398971Y-105652263D01*
X166389439Y-105656994D01*
X166201538Y-105771016D01*
X166192948Y-105777280D01*
X166026948Y-105921327D01*
X166019528Y-105928958D01*
X165880174Y-106098911D01*
X165874152Y-106107674D01*
X165826939Y-106190617D01*
X165775856Y-106239924D01*
X165706226Y-106253786D01*
X165640155Y-106227803D01*
X165598620Y-106170224D01*
X165598122Y-106168532D01*
X165597798Y-106165552D01*
X165547071Y-106030236D01*
X165541691Y-106023057D01*
X165541689Y-106023054D01*
X165465785Y-105921776D01*
X165460404Y-105914596D01*
X165399816Y-105869188D01*
X165351946Y-105833311D01*
X165351943Y-105833309D01*
X165344764Y-105827929D01*
X165255046Y-105794296D01*
X165216843Y-105779974D01*
X165216841Y-105779974D01*
X165209448Y-105777202D01*
X165201598Y-105776349D01*
X165201597Y-105776349D01*
X165151153Y-105770869D01*
X165151152Y-105770869D01*
X165147756Y-105770500D01*
X163852244Y-105770500D01*
X163848848Y-105770869D01*
X163848847Y-105770869D01*
X163798403Y-105776349D01*
X163798402Y-105776349D01*
X163790552Y-105777202D01*
X163783159Y-105779974D01*
X163783157Y-105779974D01*
X163744954Y-105794296D01*
X163655236Y-105827929D01*
X163648057Y-105833309D01*
X163648054Y-105833311D01*
X163600184Y-105869188D01*
X163539596Y-105914596D01*
X163534215Y-105921776D01*
X163458311Y-106023054D01*
X163458309Y-106023057D01*
X163452929Y-106030236D01*
X163402202Y-106165552D01*
X163395500Y-106227244D01*
X163395500Y-107772756D01*
X160101766Y-107772756D01*
X165803423Y-102071100D01*
X165865735Y-102037074D01*
X165876063Y-102035275D01*
X165952854Y-102025165D01*
X165999821Y-102018982D01*
X165999823Y-102018981D01*
X166008007Y-102017904D01*
X166144063Y-101961547D01*
X166260897Y-101871897D01*
X166350547Y-101755063D01*
X166406904Y-101619007D01*
X166414004Y-101565081D01*
X166425048Y-101481188D01*
X166426126Y-101473000D01*
X166406904Y-101326993D01*
X166350547Y-101190937D01*
X166260897Y-101074103D01*
X166144063Y-100984453D01*
X166008007Y-100928096D01*
X165999823Y-100927019D01*
X165999821Y-100927018D01*
X165870188Y-100909952D01*
X165862000Y-100908874D01*
X165853812Y-100909952D01*
X165724179Y-100927018D01*
X165724177Y-100927019D01*
X165715993Y-100928096D01*
X165579937Y-100984453D01*
X165463103Y-101074103D01*
X165373453Y-101190937D01*
X165317096Y-101326993D01*
X165316019Y-101335177D01*
X165316018Y-101335179D01*
X165299726Y-101458930D01*
X165271003Y-101523858D01*
X165263899Y-101531579D01*
X161822153Y-104973324D01*
X158391521Y-108403956D01*
X158372505Y-108419315D01*
X158371444Y-108420281D01*
X158362696Y-108425929D01*
X158343399Y-108450407D01*
X158341771Y-108452472D01*
X158337794Y-108456947D01*
X158337865Y-108457008D01*
X158334512Y-108460965D01*
X158330829Y-108464648D01*
X158327803Y-108468883D01*
X158327801Y-108468885D01*
X158319547Y-108480436D01*
X158315984Y-108485182D01*
X158284066Y-108525670D01*
X158281015Y-108534357D01*
X158275666Y-108541843D01*
X158272683Y-108551819D01*
X158272682Y-108551820D01*
X158260902Y-108591211D01*
X158259072Y-108596843D01*
X158241984Y-108645502D01*
X158241500Y-108651091D01*
X158241500Y-108653802D01*
X158241385Y-108656469D01*
X158241366Y-108656532D01*
X158241192Y-108656525D01*
X158241145Y-108657271D01*
X158239275Y-108663524D01*
X158239684Y-108673928D01*
X158241403Y-108717678D01*
X158241500Y-108722625D01*
X158241500Y-112819660D01*
X158221498Y-112887781D01*
X158215473Y-112896350D01*
X158134453Y-113001937D01*
X158078096Y-113137993D01*
X158077019Y-113146177D01*
X158077018Y-113146179D01*
X158062953Y-113253013D01*
X158058874Y-113284000D01*
X136835522Y-113284000D01*
X138830117Y-111289405D01*
X138892429Y-111255379D01*
X138919212Y-111252500D01*
X153459660Y-111252500D01*
X153527781Y-111272502D01*
X153536350Y-111278527D01*
X153641937Y-111359547D01*
X153777993Y-111415904D01*
X153786177Y-111416981D01*
X153786179Y-111416982D01*
X153915812Y-111434048D01*
X153924000Y-111435126D01*
X153932188Y-111434048D01*
X154061821Y-111416982D01*
X154061823Y-111416981D01*
X154070007Y-111415904D01*
X154206063Y-111359547D01*
X154322897Y-111269897D01*
X154412547Y-111153063D01*
X154468904Y-111017007D01*
X154478764Y-110942116D01*
X154487048Y-110879188D01*
X154488126Y-110871000D01*
X154479406Y-110804764D01*
X154469982Y-110733179D01*
X154469981Y-110733177D01*
X154468904Y-110724993D01*
X154412547Y-110588937D01*
X154322897Y-110472103D01*
X154206063Y-110382453D01*
X154070007Y-110326096D01*
X154061823Y-110325019D01*
X154061821Y-110325018D01*
X153932188Y-110307952D01*
X153924000Y-110306874D01*
X153915812Y-110307952D01*
X153786179Y-110325018D01*
X153786177Y-110325019D01*
X153777993Y-110326096D01*
X153641937Y-110382453D01*
X153536362Y-110463464D01*
X153470144Y-110489063D01*
X153459660Y-110489500D01*
X138763140Y-110489500D01*
X138738824Y-110486913D01*
X138737401Y-110486846D01*
X138727220Y-110484654D01*
X138693681Y-110488624D01*
X138693652Y-110488627D01*
X138687678Y-110488979D01*
X138687686Y-110489072D01*
X138682508Y-110489500D01*
X138677308Y-110489500D01*
X138672179Y-110490354D01*
X138672176Y-110490354D01*
X138658165Y-110492686D01*
X138652286Y-110493523D01*
X138611433Y-110498358D01*
X138611432Y-110498358D01*
X138601093Y-110499582D01*
X138592794Y-110503567D01*
X138583717Y-110505078D01*
X138538349Y-110529558D01*
X138533086Y-110532239D01*
X138486602Y-110554560D01*
X138482308Y-110558169D01*
X138480382Y-110560095D01*
X138478424Y-110561891D01*
X138478367Y-110561921D01*
X138478249Y-110561792D01*
X138477684Y-110562290D01*
X138471943Y-110565388D01*
X138464874Y-110573035D01*
X138464873Y-110573036D01*
X138435146Y-110605195D01*
X138431716Y-110608761D01*
X136184726Y-112855751D01*
X136122414Y-112889777D01*
X136058372Y-112887021D01*
X136052176Y-112885103D01*
X135913063Y-112842040D01*
X135906938Y-112841396D01*
X135906937Y-112841396D01*
X135713526Y-112821068D01*
X135713524Y-112821068D01*
X135707397Y-112820424D01*
X135600589Y-112830144D01*
X135507591Y-112838607D01*
X135507590Y-112838607D01*
X135501450Y-112839166D01*
X135303066Y-112897554D01*
X135297601Y-112900411D01*
X135125261Y-112990508D01*
X135125257Y-112990511D01*
X135119801Y-112993363D01*
X134958635Y-113122943D01*
X134825708Y-113281360D01*
X134726082Y-113462578D01*
X134663553Y-113659696D01*
X134662867Y-113665813D01*
X134662866Y-113665817D01*
X134649955Y-113780921D01*
X134640501Y-113865206D01*
X124058151Y-113865206D01*
X124039422Y-113674189D01*
X123979651Y-113476217D01*
X123909758Y-113344767D01*
X123885459Y-113299067D01*
X123885457Y-113299064D01*
X123882565Y-113293625D01*
X123878674Y-113288855D01*
X123878672Y-113288851D01*
X123755758Y-113138143D01*
X123755755Y-113138140D01*
X123751863Y-113133368D01*
X123744966Y-113127662D01*
X123597271Y-113005478D01*
X123597266Y-113005475D01*
X123592522Y-113001550D01*
X123587103Y-112998620D01*
X123587100Y-112998618D01*
X123416032Y-112906122D01*
X123416027Y-112906120D01*
X123410612Y-112903192D01*
X123213063Y-112842040D01*
X123206938Y-112841396D01*
X123206937Y-112841396D01*
X123013526Y-112821068D01*
X123013524Y-112821068D01*
X123007397Y-112820424D01*
X122900589Y-112830144D01*
X122807591Y-112838607D01*
X122807590Y-112838607D01*
X122801450Y-112839166D01*
X122603066Y-112897554D01*
X122597601Y-112900411D01*
X122425261Y-112990508D01*
X122425257Y-112990511D01*
X122419801Y-112993363D01*
X122258635Y-113122943D01*
X122246007Y-113137993D01*
X122194404Y-113199491D01*
X122135294Y-113238818D01*
X122097882Y-113244500D01*
X116699020Y-113244500D01*
X116687791Y-113243971D01*
X116680281Y-113242292D01*
X116672355Y-113242541D01*
X116672354Y-113242541D01*
X116612002Y-113244438D01*
X116608044Y-113244500D01*
X116580017Y-113244500D01*
X116575971Y-113245011D01*
X116564143Y-113245942D01*
X116519795Y-113247336D01*
X116512178Y-113249549D01*
X116500253Y-113253013D01*
X116480894Y-113257022D01*
X116479633Y-113257181D01*
X116460701Y-113259573D01*
X116453337Y-113262489D01*
X116453332Y-113262490D01*
X116433103Y-113270500D01*
X116419428Y-113275914D01*
X116408224Y-113279751D01*
X116365607Y-113292132D01*
X116348094Y-113302489D01*
X116330343Y-113311185D01*
X116318785Y-113315761D01*
X116318780Y-113315764D01*
X116311412Y-113318681D01*
X116304997Y-113323342D01*
X116275507Y-113344767D01*
X116265585Y-113351284D01*
X116234228Y-113369828D01*
X116234225Y-113369830D01*
X116227401Y-113373866D01*
X116213014Y-113388253D01*
X116197980Y-113401094D01*
X116181513Y-113413058D01*
X116176460Y-113419166D01*
X116153228Y-113447249D01*
X116145238Y-113456029D01*
X112947355Y-116653912D01*
X112885043Y-116687938D01*
X112814228Y-116682873D01*
X112757392Y-116640326D01*
X112732581Y-116573806D01*
X112732420Y-116559571D01*
X112733199Y-116554200D01*
X112723455Y-116343667D01*
X112707303Y-116276646D01*
X112710788Y-116205736D01*
X112740701Y-116158031D01*
X116886328Y-112012405D01*
X116948640Y-111978379D01*
X116975423Y-111975500D01*
X122097171Y-111975500D01*
X122165292Y-111995502D01*
X122195916Y-112023235D01*
X122237786Y-112076061D01*
X122395271Y-112210091D01*
X122575789Y-112310980D01*
X122772466Y-112374884D01*
X122977809Y-112399370D01*
X122983944Y-112398898D01*
X122983946Y-112398898D01*
X123177856Y-112383977D01*
X123177860Y-112383976D01*
X123183998Y-112383504D01*
X123383178Y-112327892D01*
X123388682Y-112325112D01*
X123388684Y-112325111D01*
X123562262Y-112237431D01*
X123562264Y-112237430D01*
X123567763Y-112234652D01*
X123730722Y-112107334D01*
X123734748Y-112102670D01*
X123734751Y-112102667D01*
X123861819Y-111955457D01*
X123861820Y-111955455D01*
X123865848Y-111950789D01*
X123967995Y-111770979D01*
X124033270Y-111574753D01*
X124059189Y-111369586D01*
X124059602Y-111340000D01*
X124058151Y-111325206D01*
X134640501Y-111325206D01*
X134657806Y-111531278D01*
X134714807Y-111730066D01*
X134717625Y-111735548D01*
X134717626Y-111735552D01*
X134806514Y-111908509D01*
X134806517Y-111908513D01*
X134809334Y-111913995D01*
X134937786Y-112076061D01*
X135095271Y-112210091D01*
X135275789Y-112310980D01*
X135472466Y-112374884D01*
X135677809Y-112399370D01*
X135683944Y-112398898D01*
X135683946Y-112398898D01*
X135877856Y-112383977D01*
X135877860Y-112383976D01*
X135883998Y-112383504D01*
X136083178Y-112327892D01*
X136088682Y-112325112D01*
X136088684Y-112325111D01*
X136262262Y-112237431D01*
X136262264Y-112237430D01*
X136267763Y-112234652D01*
X136430722Y-112107334D01*
X136434748Y-112102670D01*
X136434751Y-112102667D01*
X136561819Y-111955457D01*
X136561820Y-111955455D01*
X136565848Y-111950789D01*
X136667995Y-111770979D01*
X136733270Y-111574753D01*
X136759189Y-111369586D01*
X136759602Y-111340000D01*
X136739422Y-111134189D01*
X136679651Y-110936217D01*
X136613221Y-110811281D01*
X136585459Y-110759067D01*
X136585457Y-110759064D01*
X136582565Y-110753625D01*
X136578674Y-110748855D01*
X136578672Y-110748851D01*
X136455758Y-110598143D01*
X136455755Y-110598140D01*
X136451863Y-110593368D01*
X136444966Y-110587662D01*
X136297271Y-110465478D01*
X136297266Y-110465475D01*
X136292522Y-110461550D01*
X136287103Y-110458620D01*
X136287100Y-110458618D01*
X136116032Y-110366122D01*
X136116027Y-110366120D01*
X136110612Y-110363192D01*
X135913063Y-110302040D01*
X135906938Y-110301396D01*
X135906937Y-110301396D01*
X135713526Y-110281068D01*
X135713524Y-110281068D01*
X135707397Y-110280424D01*
X135581229Y-110291906D01*
X135507591Y-110298607D01*
X135507590Y-110298607D01*
X135501450Y-110299166D01*
X135303066Y-110357554D01*
X135297601Y-110360411D01*
X135125261Y-110450508D01*
X135125257Y-110450511D01*
X135119801Y-110453363D01*
X134958635Y-110582943D01*
X134825708Y-110741360D01*
X134726082Y-110922578D01*
X134663553Y-111119696D01*
X134662867Y-111125813D01*
X134662866Y-111125817D01*
X134648656Y-111252500D01*
X134640501Y-111325206D01*
X124058151Y-111325206D01*
X124039422Y-111134189D01*
X123979651Y-110936217D01*
X123913221Y-110811281D01*
X123885459Y-110759067D01*
X123885457Y-110759064D01*
X123882565Y-110753625D01*
X123878674Y-110748855D01*
X123878672Y-110748851D01*
X123755758Y-110598143D01*
X123755755Y-110598140D01*
X123751863Y-110593368D01*
X123744966Y-110587662D01*
X123597271Y-110465478D01*
X123597266Y-110465475D01*
X123592522Y-110461550D01*
X123587103Y-110458620D01*
X123587100Y-110458618D01*
X123416032Y-110366122D01*
X123416027Y-110366120D01*
X123410612Y-110363192D01*
X123213063Y-110302040D01*
X123206938Y-110301396D01*
X123206937Y-110301396D01*
X123013526Y-110281068D01*
X123013524Y-110281068D01*
X123007397Y-110280424D01*
X122881229Y-110291906D01*
X122807591Y-110298607D01*
X122807590Y-110298607D01*
X122801450Y-110299166D01*
X122603066Y-110357554D01*
X122597601Y-110360411D01*
X122425261Y-110450508D01*
X122425257Y-110450511D01*
X122419801Y-110453363D01*
X122258635Y-110582943D01*
X122194404Y-110659491D01*
X122135294Y-110698818D01*
X122097882Y-110704500D01*
X116739032Y-110704500D01*
X116727793Y-110703970D01*
X116720281Y-110702291D01*
X116712356Y-110702540D01*
X116712355Y-110702540D01*
X116651970Y-110704438D01*
X116648012Y-110704500D01*
X116620017Y-110704500D01*
X116616083Y-110704997D01*
X116616081Y-110704997D01*
X116615994Y-110705008D01*
X116604160Y-110705940D01*
X116559795Y-110707335D01*
X116552182Y-110709547D01*
X116552181Y-110709547D01*
X116540252Y-110713013D01*
X116520888Y-110717023D01*
X116508560Y-110718580D01*
X116508558Y-110718580D01*
X116500701Y-110719573D01*
X116493337Y-110722489D01*
X116493332Y-110722490D01*
X116459444Y-110735907D01*
X116448215Y-110739752D01*
X116442681Y-110741360D01*
X116405607Y-110752131D01*
X116398780Y-110756169D01*
X116398777Y-110756170D01*
X116388094Y-110762488D01*
X116370336Y-110771188D01*
X116358785Y-110775761D01*
X116358779Y-110775765D01*
X116351412Y-110778681D01*
X116345001Y-110783339D01*
X116344999Y-110783340D01*
X116315512Y-110804764D01*
X116305590Y-110811281D01*
X116274232Y-110829826D01*
X116274228Y-110829829D01*
X116267402Y-110833866D01*
X116253018Y-110848250D01*
X116237984Y-110861091D01*
X116221513Y-110873058D01*
X116216460Y-110879166D01*
X116193223Y-110907255D01*
X116185233Y-110916035D01*
X112947355Y-114153912D01*
X112885043Y-114187938D01*
X112814227Y-114182873D01*
X112757392Y-114140326D01*
X112732581Y-114073806D01*
X112732420Y-114059571D01*
X112733199Y-114054200D01*
X112723455Y-113843667D01*
X112707303Y-113776646D01*
X112710788Y-113705736D01*
X112740701Y-113658031D01*
X114830099Y-111568634D01*
X116926328Y-109472405D01*
X116988640Y-109438379D01*
X117015423Y-109435500D01*
X122097171Y-109435500D01*
X122165292Y-109455502D01*
X122195916Y-109483235D01*
X122232392Y-109529255D01*
X122237786Y-109536061D01*
X122242479Y-109540055D01*
X122242480Y-109540056D01*
X122387802Y-109663734D01*
X122395271Y-109670091D01*
X122575789Y-109770980D01*
X122772466Y-109834884D01*
X122977809Y-109859370D01*
X122983944Y-109858898D01*
X122983946Y-109858898D01*
X123177856Y-109843977D01*
X123177860Y-109843976D01*
X123183998Y-109843504D01*
X123383178Y-109787892D01*
X123388682Y-109785112D01*
X123388684Y-109785111D01*
X123562262Y-109697431D01*
X123562264Y-109697430D01*
X123567763Y-109694652D01*
X123730722Y-109567334D01*
X123734748Y-109562670D01*
X123734751Y-109562667D01*
X123861819Y-109415457D01*
X123861820Y-109415455D01*
X123865848Y-109410789D01*
X123967995Y-109230979D01*
X124033270Y-109034753D01*
X124059189Y-108829586D01*
X124059602Y-108800000D01*
X124058151Y-108785206D01*
X134640501Y-108785206D01*
X134657806Y-108991278D01*
X134714807Y-109190066D01*
X134717625Y-109195548D01*
X134717626Y-109195552D01*
X134806514Y-109368509D01*
X134806517Y-109368513D01*
X134809334Y-109373995D01*
X134937786Y-109536061D01*
X134942479Y-109540055D01*
X134942480Y-109540056D01*
X135087802Y-109663734D01*
X135095271Y-109670091D01*
X135275789Y-109770980D01*
X135472466Y-109834884D01*
X135677809Y-109859370D01*
X135683944Y-109858898D01*
X135683946Y-109858898D01*
X135877856Y-109843977D01*
X135877860Y-109843976D01*
X135883998Y-109843504D01*
X136083178Y-109787892D01*
X136088682Y-109785112D01*
X136088684Y-109785111D01*
X136262262Y-109697431D01*
X136262264Y-109697430D01*
X136267763Y-109694652D01*
X136430722Y-109567334D01*
X136434748Y-109562670D01*
X136434751Y-109562667D01*
X136561819Y-109415457D01*
X136561820Y-109415455D01*
X136565848Y-109410789D01*
X136667995Y-109230979D01*
X136733270Y-109034753D01*
X136759189Y-108829586D01*
X136759602Y-108800000D01*
X136739422Y-108594189D01*
X136679651Y-108396217D01*
X136609755Y-108264762D01*
X136585459Y-108219067D01*
X136585457Y-108219064D01*
X136582565Y-108213625D01*
X136578674Y-108208855D01*
X136578672Y-108208851D01*
X136455758Y-108058143D01*
X136455755Y-108058140D01*
X136451863Y-108053368D01*
X136444966Y-108047662D01*
X136297271Y-107925478D01*
X136297266Y-107925475D01*
X136292522Y-107921550D01*
X136287103Y-107918620D01*
X136287100Y-107918618D01*
X136116032Y-107826122D01*
X136116027Y-107826120D01*
X136110612Y-107823192D01*
X135913063Y-107762040D01*
X135906938Y-107761396D01*
X135906937Y-107761396D01*
X135713526Y-107741068D01*
X135713524Y-107741068D01*
X135707397Y-107740424D01*
X135581229Y-107751906D01*
X135507591Y-107758607D01*
X135507590Y-107758607D01*
X135501450Y-107759166D01*
X135303066Y-107817554D01*
X135297601Y-107820411D01*
X135125261Y-107910508D01*
X135125257Y-107910511D01*
X135119801Y-107913363D01*
X134958635Y-108042943D01*
X134825708Y-108201360D01*
X134726082Y-108382578D01*
X134663553Y-108579696D01*
X134662867Y-108585813D01*
X134662866Y-108585817D01*
X134647799Y-108720146D01*
X134640501Y-108785206D01*
X124058151Y-108785206D01*
X124039422Y-108594189D01*
X123979651Y-108396217D01*
X123909755Y-108264762D01*
X123885459Y-108219067D01*
X123885457Y-108219064D01*
X123882565Y-108213625D01*
X123878674Y-108208855D01*
X123878672Y-108208851D01*
X123755758Y-108058143D01*
X123755755Y-108058140D01*
X123751863Y-108053368D01*
X123744966Y-108047662D01*
X123597271Y-107925478D01*
X123597266Y-107925475D01*
X123592522Y-107921550D01*
X123587103Y-107918620D01*
X123587100Y-107918618D01*
X123416032Y-107826122D01*
X123416027Y-107826120D01*
X123410612Y-107823192D01*
X123213063Y-107762040D01*
X123206938Y-107761396D01*
X123206937Y-107761396D01*
X123013526Y-107741068D01*
X123013524Y-107741068D01*
X123007397Y-107740424D01*
X122881229Y-107751906D01*
X122807591Y-107758607D01*
X122807590Y-107758607D01*
X122801450Y-107759166D01*
X122603066Y-107817554D01*
X122597601Y-107820411D01*
X122425261Y-107910508D01*
X122425257Y-107910511D01*
X122419801Y-107913363D01*
X122258635Y-108042943D01*
X122221799Y-108086843D01*
X122194404Y-108119491D01*
X122135294Y-108158818D01*
X122097882Y-108164500D01*
X116779032Y-108164500D01*
X116767793Y-108163970D01*
X116760281Y-108162291D01*
X116752356Y-108162540D01*
X116752355Y-108162540D01*
X116691970Y-108164438D01*
X116688012Y-108164500D01*
X116660017Y-108164500D01*
X116656083Y-108164997D01*
X116656081Y-108164997D01*
X116655994Y-108165008D01*
X116644160Y-108165940D01*
X116599796Y-108167335D01*
X116585141Y-108171593D01*
X116580257Y-108173012D01*
X116560896Y-108177021D01*
X116548568Y-108178578D01*
X116548558Y-108178581D01*
X116540701Y-108179573D01*
X116533333Y-108182490D01*
X116533330Y-108182491D01*
X116499446Y-108195906D01*
X116488221Y-108199750D01*
X116445607Y-108212131D01*
X116438781Y-108216168D01*
X116428091Y-108222490D01*
X116410341Y-108231187D01*
X116391412Y-108238681D01*
X116384998Y-108243341D01*
X116355514Y-108264762D01*
X116345594Y-108271278D01*
X116314229Y-108289827D01*
X116314226Y-108289829D01*
X116307402Y-108293865D01*
X116293014Y-108308253D01*
X116277980Y-108321094D01*
X116261513Y-108333058D01*
X116256460Y-108339166D01*
X116233228Y-108367249D01*
X116225238Y-108376029D01*
X115769595Y-108831672D01*
X115707283Y-108865698D01*
X115636468Y-108860633D01*
X115579632Y-108818086D01*
X115554821Y-108751566D01*
X115554500Y-108742577D01*
X115554499Y-106805123D01*
X115554499Y-106798934D01*
X115539734Y-106724699D01*
X115483484Y-106640516D01*
X115399301Y-106584266D01*
X115325067Y-106569500D01*
X114000215Y-106569500D01*
X112674934Y-106569501D01*
X112640046Y-106576440D01*
X112612874Y-106581844D01*
X112612872Y-106581845D01*
X112600699Y-106584266D01*
X112590379Y-106591161D01*
X112590378Y-106591162D01*
X112574971Y-106601457D01*
X112516516Y-106640516D01*
X112460266Y-106724699D01*
X112445500Y-106798933D01*
X112445501Y-109449066D01*
X112460266Y-109523301D01*
X112516516Y-109607484D01*
X112600699Y-109663734D01*
X112674933Y-109678500D01*
X112719741Y-109678500D01*
X114618578Y-109678499D01*
X114686699Y-109698501D01*
X114733192Y-109752157D01*
X114743296Y-109822431D01*
X114713802Y-109887011D01*
X114707673Y-109893594D01*
X111742672Y-112858595D01*
X111680360Y-112892621D01*
X111653577Y-112895500D01*
X111322341Y-112895500D01*
X111165194Y-112910493D01*
X110962958Y-112969823D01*
X110913313Y-112995392D01*
X110780921Y-113063578D01*
X110780918Y-113063580D01*
X110775590Y-113066324D01*
X110770875Y-113070028D01*
X110614568Y-113192808D01*
X110614564Y-113192812D01*
X110609851Y-113196514D01*
X110605920Y-113201044D01*
X110605919Y-113201045D01*
X110475650Y-113351165D01*
X110475646Y-113351170D01*
X110471719Y-113355696D01*
X110366181Y-113538126D01*
X110297043Y-113737222D01*
X110296183Y-113743155D01*
X110296182Y-113743158D01*
X110267662Y-113939860D01*
X110266801Y-113945800D01*
X110276545Y-114156333D01*
X110280121Y-114171171D01*
X110315834Y-114319357D01*
X110325924Y-114361226D01*
X110413157Y-114553084D01*
X110535096Y-114724986D01*
X110687340Y-114870728D01*
X110692375Y-114873979D01*
X110859360Y-114981800D01*
X110859363Y-114981801D01*
X110864397Y-114985052D01*
X111059878Y-115063834D01*
X111191342Y-115089507D01*
X111262283Y-115103361D01*
X111262286Y-115103361D01*
X111266729Y-115104229D01*
X111272270Y-115104500D01*
X111677659Y-115104500D01*
X111680645Y-115104215D01*
X111680647Y-115104215D01*
X111681561Y-115104128D01*
X111681742Y-115104163D01*
X111683631Y-115104073D01*
X111683653Y-115104532D01*
X111751273Y-115117575D01*
X111802647Y-115166577D01*
X111819374Y-115235575D01*
X111796143Y-115302663D01*
X111782613Y-115318654D01*
X111742672Y-115358595D01*
X111680360Y-115392621D01*
X111653577Y-115395500D01*
X111322341Y-115395500D01*
X111165194Y-115410493D01*
X111159434Y-115412183D01*
X111159433Y-115412183D01*
X110979725Y-115464904D01*
X110962958Y-115469823D01*
X110949128Y-115476946D01*
X110780921Y-115563578D01*
X110780918Y-115563580D01*
X110775590Y-115566324D01*
X110770875Y-115570028D01*
X110614568Y-115692808D01*
X110614564Y-115692812D01*
X110609851Y-115696514D01*
X110605920Y-115701044D01*
X110605919Y-115701045D01*
X110475650Y-115851165D01*
X110475646Y-115851170D01*
X110471719Y-115855696D01*
X110366181Y-116038126D01*
X110297043Y-116237222D01*
X110296183Y-116243155D01*
X110296182Y-116243158D01*
X110267662Y-116439860D01*
X110266801Y-116445800D01*
X110276545Y-116656333D01*
X110277949Y-116662158D01*
X110314917Y-116815552D01*
X110325924Y-116861226D01*
X110413157Y-117053084D01*
X110535096Y-117224986D01*
X110687340Y-117370728D01*
X110692375Y-117373979D01*
X110859360Y-117481800D01*
X110859363Y-117481801D01*
X110864397Y-117485052D01*
X111059878Y-117563834D01*
X111191342Y-117589507D01*
X111262283Y-117603361D01*
X111262286Y-117603361D01*
X111266729Y-117604229D01*
X111272270Y-117604500D01*
X111677659Y-117604500D01*
X111680645Y-117604215D01*
X111680647Y-117604215D01*
X111681561Y-117604128D01*
X111681742Y-117604163D01*
X111683631Y-117604073D01*
X111683653Y-117604532D01*
X111751273Y-117617575D01*
X111802647Y-117666577D01*
X111819374Y-117735575D01*
X111796143Y-117802663D01*
X111782613Y-117818654D01*
X111742672Y-117858595D01*
X111680360Y-117892621D01*
X111653577Y-117895500D01*
X111322341Y-117895500D01*
X111165194Y-117910493D01*
X111159434Y-117912183D01*
X111159433Y-117912183D01*
X111027024Y-117951028D01*
X110962958Y-117969823D01*
X110940538Y-117981370D01*
X110780921Y-118063578D01*
X110780918Y-118063580D01*
X110775590Y-118066324D01*
X110751206Y-118085478D01*
X110614568Y-118192808D01*
X110614564Y-118192812D01*
X110609851Y-118196514D01*
X110605920Y-118201044D01*
X110605919Y-118201045D01*
X110475650Y-118351165D01*
X110475646Y-118351170D01*
X110471719Y-118355696D01*
X110366181Y-118538126D01*
X110297043Y-118737222D01*
X110296183Y-118743155D01*
X110296182Y-118743158D01*
X110282454Y-118837840D01*
X110266801Y-118945800D01*
X107754500Y-118945800D01*
X107754500Y-103124000D01*
X112440693Y-103124000D01*
X112459891Y-103367929D01*
X112461045Y-103372736D01*
X112461046Y-103372742D01*
X112490115Y-103493823D01*
X112517011Y-103605852D01*
X112518904Y-103610423D01*
X112518905Y-103610425D01*
X112577999Y-103753090D01*
X112610647Y-103831911D01*
X112738494Y-104040538D01*
X112897403Y-104226597D01*
X113083462Y-104385506D01*
X113292089Y-104513353D01*
X113296659Y-104515246D01*
X113296663Y-104515248D01*
X113432445Y-104571490D01*
X113518148Y-104606989D01*
X113582136Y-104622351D01*
X113751258Y-104662954D01*
X113751264Y-104662955D01*
X113756071Y-104664109D01*
X114000000Y-104683307D01*
X114243929Y-104664109D01*
X114248736Y-104662955D01*
X114248742Y-104662954D01*
X114417864Y-104622351D01*
X114481852Y-104606989D01*
X114567555Y-104571490D01*
X114584023Y-104564669D01*
X121692001Y-104564669D01*
X121692371Y-104571490D01*
X121697895Y-104622352D01*
X121701521Y-104637604D01*
X121746676Y-104758054D01*
X121755214Y-104773649D01*
X121831715Y-104875724D01*
X121844276Y-104888285D01*
X121946351Y-104964786D01*
X121961946Y-104973324D01*
X122082394Y-105018478D01*
X122097649Y-105022105D01*
X122148514Y-105027631D01*
X122155328Y-105028000D01*
X122576601Y-105028000D01*
X122644722Y-105048002D01*
X122691215Y-105101658D01*
X122701319Y-105171932D01*
X122671825Y-105236512D01*
X122614607Y-105273308D01*
X122614688Y-105273508D01*
X122613637Y-105273933D01*
X122612174Y-105274873D01*
X122603066Y-105277554D01*
X122597601Y-105280411D01*
X122425261Y-105370508D01*
X122425257Y-105370511D01*
X122419801Y-105373363D01*
X122258635Y-105502943D01*
X122125708Y-105661360D01*
X122026082Y-105842578D01*
X121963553Y-106039696D01*
X121962867Y-106045813D01*
X121962866Y-106045817D01*
X121941188Y-106239081D01*
X121940501Y-106245206D01*
X121941743Y-106260000D01*
X121950978Y-106369963D01*
X121957806Y-106451278D01*
X122014807Y-106650066D01*
X122017625Y-106655548D01*
X122017626Y-106655552D01*
X122106514Y-106828509D01*
X122106517Y-106828513D01*
X122109334Y-106833995D01*
X122237786Y-106996061D01*
X122395271Y-107130091D01*
X122575789Y-107230980D01*
X122772466Y-107294884D01*
X122977809Y-107319370D01*
X122983944Y-107318898D01*
X122983946Y-107318898D01*
X123177856Y-107303977D01*
X123177860Y-107303976D01*
X123183998Y-107303504D01*
X123383178Y-107247892D01*
X123388682Y-107245112D01*
X123388684Y-107245111D01*
X123562262Y-107157431D01*
X123562264Y-107157430D01*
X123567763Y-107154652D01*
X123730722Y-107027334D01*
X123734748Y-107022670D01*
X123734751Y-107022667D01*
X123861819Y-106875457D01*
X123861820Y-106875455D01*
X123865848Y-106870789D01*
X123941924Y-106736872D01*
X123964950Y-106696340D01*
X123964952Y-106696336D01*
X123967995Y-106690979D01*
X124023544Y-106523992D01*
X124031325Y-106500601D01*
X124031326Y-106500598D01*
X124033270Y-106494753D01*
X124059189Y-106289586D01*
X124059602Y-106260000D01*
X124058151Y-106245206D01*
X134640501Y-106245206D01*
X134641743Y-106260000D01*
X134650978Y-106369963D01*
X134657806Y-106451278D01*
X134714807Y-106650066D01*
X134717625Y-106655548D01*
X134717626Y-106655552D01*
X134806514Y-106828509D01*
X134806517Y-106828513D01*
X134809334Y-106833995D01*
X134937786Y-106996061D01*
X135095271Y-107130091D01*
X135275789Y-107230980D01*
X135472466Y-107294884D01*
X135677809Y-107319370D01*
X135683944Y-107318898D01*
X135683946Y-107318898D01*
X135877856Y-107303977D01*
X135877860Y-107303976D01*
X135883998Y-107303504D01*
X136083178Y-107247892D01*
X136088682Y-107245112D01*
X136088684Y-107245111D01*
X136262262Y-107157431D01*
X136262264Y-107157430D01*
X136267763Y-107154652D01*
X136430722Y-107027334D01*
X136434748Y-107022670D01*
X136434751Y-107022667D01*
X136561819Y-106875457D01*
X136561820Y-106875455D01*
X136565848Y-106870789D01*
X136641924Y-106736872D01*
X136659881Y-106705263D01*
X136710921Y-106655912D01*
X136769437Y-106641500D01*
X150479865Y-106641500D01*
X150504164Y-106644086D01*
X150505602Y-106644154D01*
X150515780Y-106646345D01*
X150549341Y-106642373D01*
X150555320Y-106642021D01*
X150555312Y-106641928D01*
X150560490Y-106641500D01*
X150565692Y-106641500D01*
X150584846Y-106638312D01*
X150590704Y-106637478D01*
X150607318Y-106635512D01*
X150631567Y-106632642D01*
X150631568Y-106632642D01*
X150641907Y-106631418D01*
X150650206Y-106627433D01*
X150659283Y-106625922D01*
X150704651Y-106601442D01*
X150709914Y-106598761D01*
X150749250Y-106579873D01*
X150749254Y-106579870D01*
X150756398Y-106576440D01*
X150760692Y-106572830D01*
X150762624Y-106570898D01*
X150764573Y-106569111D01*
X150764626Y-106569082D01*
X150764745Y-106569212D01*
X150765313Y-106568711D01*
X150771057Y-106565612D01*
X150807868Y-106525790D01*
X150811297Y-106522225D01*
X159580423Y-97753100D01*
X159642735Y-97719074D01*
X159653063Y-97717275D01*
X159723776Y-97707965D01*
X159776821Y-97700982D01*
X159776823Y-97700981D01*
X159785007Y-97699904D01*
X159921063Y-97643547D01*
X160037897Y-97553897D01*
X160042925Y-97547345D01*
X160047539Y-97541332D01*
X160104877Y-97499465D01*
X160175748Y-97495244D01*
X160237651Y-97530009D01*
X160270931Y-97592723D01*
X160273500Y-97618037D01*
X160273500Y-102339759D01*
X160273030Y-102350630D01*
X160269417Y-102392346D01*
X160274300Y-102412001D01*
X160279922Y-102434635D01*
X160281927Y-102444321D01*
X160289078Y-102487283D01*
X160294024Y-102496449D01*
X160295599Y-102501049D01*
X160297524Y-102505498D01*
X160300035Y-102515607D01*
X160323350Y-102551715D01*
X160323670Y-102552211D01*
X160328707Y-102560729D01*
X160344442Y-102589892D01*
X160344445Y-102589895D01*
X160349388Y-102599057D01*
X160357030Y-102606122D01*
X160360011Y-102609965D01*
X160363283Y-102613560D01*
X160368929Y-102622304D01*
X160377106Y-102628750D01*
X160403147Y-102649279D01*
X160410664Y-102655699D01*
X160442652Y-102685269D01*
X160452177Y-102689480D01*
X160456241Y-102692150D01*
X160460491Y-102694486D01*
X160468670Y-102700934D01*
X160509773Y-102715369D01*
X160518966Y-102719008D01*
X160558813Y-102736624D01*
X160569185Y-102737523D01*
X160576858Y-102739493D01*
X160581023Y-102740390D01*
X160588502Y-102743016D01*
X160594091Y-102743500D01*
X160632759Y-102743500D01*
X160643630Y-102743970D01*
X160685346Y-102747583D01*
X160695455Y-102745072D01*
X160705837Y-102744255D01*
X160705887Y-102744884D01*
X160717199Y-102743500D01*
X162886865Y-102743500D01*
X162911164Y-102746086D01*
X162912602Y-102746154D01*
X162922780Y-102748345D01*
X162956341Y-102744373D01*
X162962320Y-102744021D01*
X162962312Y-102743928D01*
X162967490Y-102743500D01*
X162972692Y-102743500D01*
X162991846Y-102740312D01*
X162997704Y-102739478D01*
X163014318Y-102737512D01*
X163038567Y-102734642D01*
X163038568Y-102734642D01*
X163048907Y-102733418D01*
X163057206Y-102729433D01*
X163066283Y-102727922D01*
X163111651Y-102703442D01*
X163116914Y-102700761D01*
X163156250Y-102681873D01*
X163156254Y-102681870D01*
X163163398Y-102678440D01*
X163167692Y-102674830D01*
X163169624Y-102672898D01*
X163171573Y-102671111D01*
X163171626Y-102671082D01*
X163171745Y-102671212D01*
X163172313Y-102670711D01*
X163178057Y-102667612D01*
X163214867Y-102627791D01*
X163218296Y-102624226D01*
X165221118Y-100621405D01*
X165283430Y-100587379D01*
X165310213Y-100584500D01*
X166794788Y-100584500D01*
X166862909Y-100604502D01*
X166883883Y-100621405D01*
X169081595Y-102819117D01*
X169115621Y-102881429D01*
X169118500Y-102908212D01*
X169118500Y-105754018D01*
X169098498Y-105822139D01*
X169044651Y-105868719D01*
X168952373Y-105910675D01*
X168952366Y-105910679D01*
X168946916Y-105913157D01*
X168924641Y-105928958D01*
X168788648Y-106025425D01*
X168775014Y-106035096D01*
X168629272Y-106187340D01*
X168626021Y-106192375D01*
X168568848Y-106280921D01*
X168514948Y-106364397D01*
X168512705Y-106369963D01*
X168504720Y-106389774D01*
X168460704Y-106445479D01*
X168393558Y-106468544D01*
X168324602Y-106451646D01*
X168272973Y-106394424D01*
X168193063Y-106217030D01*
X168187894Y-106207744D01*
X168065150Y-106025425D01*
X168058481Y-106017130D01*
X167906772Y-105858100D01*
X167898814Y-105851059D01*
X167722475Y-105719859D01*
X167713438Y-105714255D01*
X167517516Y-105614643D01*
X167507665Y-105610643D01*
X167297760Y-105545466D01*
X167287376Y-105543183D01*
X167271957Y-105541139D01*
X167257793Y-105543335D01*
X167254000Y-105556522D01*
X167254000Y-108441192D01*
X167257973Y-108454723D01*
X167268580Y-108456248D01*
X167386421Y-108431523D01*
X167396617Y-108428463D01*
X167601029Y-108347737D01*
X167610561Y-108343006D01*
X167798462Y-108228984D01*
X167807052Y-108222720D01*
X167973052Y-108078673D01*
X167980472Y-108071042D01*
X168119826Y-107901089D01*
X168125850Y-107892322D01*
X168234576Y-107701318D01*
X168239041Y-107691655D01*
X168268966Y-107609212D01*
X168311010Y-107552004D01*
X168377309Y-107526608D01*
X168446814Y-107541088D01*
X168499421Y-107594510D01*
X168566324Y-107724410D01*
X168579409Y-107741068D01*
X168692808Y-107885432D01*
X168692812Y-107885436D01*
X168696514Y-107890149D01*
X168701044Y-107894080D01*
X168701045Y-107894081D01*
X168851165Y-108024350D01*
X168851170Y-108024354D01*
X168855696Y-108028281D01*
X169038126Y-108133819D01*
X169237222Y-108202957D01*
X169243155Y-108203817D01*
X169243158Y-108203818D01*
X169439860Y-108232338D01*
X169439863Y-108232338D01*
X169445800Y-108233199D01*
X169656333Y-108223455D01*
X169662157Y-108222051D01*
X169662160Y-108222051D01*
X169855393Y-108175482D01*
X169855395Y-108175481D01*
X169861226Y-108174076D01*
X169866684Y-108171594D01*
X169866688Y-108171593D01*
X170044414Y-108090785D01*
X170053084Y-108086843D01*
X170208010Y-107976946D01*
X170220100Y-107968370D01*
X170220101Y-107968369D01*
X170224986Y-107964904D01*
X170370728Y-107812660D01*
X170427710Y-107724410D01*
X170481800Y-107640640D01*
X170481801Y-107640637D01*
X170485052Y-107635603D01*
X170563834Y-107440122D01*
X170604229Y-107233271D01*
X170604500Y-107227730D01*
X170604500Y-106822341D01*
X170589507Y-106665194D01*
X170582682Y-106641928D01*
X170531868Y-106468722D01*
X170530177Y-106462958D01*
X170479415Y-106364397D01*
X170436422Y-106280921D01*
X170436420Y-106280918D01*
X170433676Y-106275590D01*
X170364355Y-106187340D01*
X170307192Y-106114568D01*
X170307188Y-106114564D01*
X170303486Y-106109851D01*
X170290879Y-106098911D01*
X170148835Y-105975650D01*
X170148830Y-105975646D01*
X170144304Y-105971719D01*
X169983168Y-105878500D01*
X169967072Y-105869188D01*
X169967071Y-105869188D01*
X169961874Y-105866181D01*
X169956202Y-105864211D01*
X169955048Y-105863683D01*
X169901437Y-105817138D01*
X169881500Y-105749119D01*
X169881500Y-102752140D01*
X169884087Y-102727824D01*
X169884154Y-102726401D01*
X169886346Y-102716220D01*
X169882373Y-102682652D01*
X169882021Y-102676678D01*
X169881928Y-102676686D01*
X169881500Y-102671508D01*
X169881500Y-102666308D01*
X169880521Y-102660424D01*
X169878314Y-102647165D01*
X169877477Y-102641286D01*
X169872642Y-102600433D01*
X169872642Y-102600432D01*
X169871418Y-102590093D01*
X169867433Y-102581794D01*
X169865922Y-102572717D01*
X169841442Y-102527349D01*
X169838761Y-102522086D01*
X169819869Y-102482743D01*
X169816440Y-102475602D01*
X169812831Y-102471308D01*
X169810905Y-102469382D01*
X169809109Y-102467424D01*
X169809079Y-102467367D01*
X169809208Y-102467249D01*
X169808710Y-102466684D01*
X169805612Y-102460943D01*
X169765804Y-102424145D01*
X169762239Y-102420716D01*
X167313044Y-99971521D01*
X167297685Y-99952505D01*
X167296719Y-99951444D01*
X167291071Y-99942696D01*
X167264528Y-99921771D01*
X167260053Y-99917794D01*
X167259992Y-99917865D01*
X167256035Y-99914512D01*
X167252352Y-99910829D01*
X167236561Y-99899545D01*
X167231815Y-99895982D01*
X167199507Y-99870512D01*
X167199506Y-99870511D01*
X167191330Y-99864066D01*
X167182643Y-99861015D01*
X167175157Y-99855666D01*
X167165181Y-99852683D01*
X167165180Y-99852682D01*
X167133798Y-99843297D01*
X167125786Y-99840901D01*
X167120157Y-99839072D01*
X167071498Y-99821984D01*
X167065909Y-99821500D01*
X167063198Y-99821500D01*
X167060531Y-99821385D01*
X167060468Y-99821366D01*
X167060475Y-99821192D01*
X167059729Y-99821145D01*
X167053476Y-99819275D01*
X167007746Y-99821072D01*
X166999322Y-99821403D01*
X166994375Y-99821500D01*
X165154135Y-99821500D01*
X165129836Y-99818914D01*
X165128398Y-99818846D01*
X165118220Y-99816655D01*
X165088516Y-99820170D01*
X165084658Y-99820627D01*
X165078680Y-99820979D01*
X165078688Y-99821072D01*
X165073510Y-99821500D01*
X165068308Y-99821500D01*
X165049154Y-99824688D01*
X165043296Y-99825522D01*
X165026682Y-99827488D01*
X165002433Y-99830358D01*
X165002432Y-99830358D01*
X164992093Y-99831582D01*
X164983794Y-99835567D01*
X164974717Y-99837078D01*
X164929349Y-99861558D01*
X164924086Y-99864239D01*
X164884750Y-99883127D01*
X164884746Y-99883130D01*
X164877602Y-99886560D01*
X164873308Y-99890170D01*
X164871376Y-99892102D01*
X164869427Y-99893889D01*
X164869374Y-99893918D01*
X164869255Y-99893788D01*
X164868687Y-99894289D01*
X164862943Y-99897388D01*
X164855876Y-99905033D01*
X164826134Y-99937208D01*
X164822704Y-99940774D01*
X162819882Y-101943595D01*
X162757570Y-101977621D01*
X162730787Y-101980500D01*
X161162500Y-101980500D01*
X161094379Y-101960498D01*
X161047886Y-101906842D01*
X161036500Y-101854500D01*
X161036500Y-98624933D01*
X161395500Y-98624933D01*
X161395501Y-100375066D01*
X161410266Y-100449301D01*
X161466516Y-100533484D01*
X161550699Y-100589734D01*
X161624933Y-100604500D01*
X162499858Y-100604500D01*
X163375066Y-100604499D01*
X163410818Y-100597388D01*
X163437126Y-100592156D01*
X163437128Y-100592155D01*
X163449301Y-100589734D01*
X163459621Y-100582839D01*
X163459622Y-100582838D01*
X163523168Y-100540377D01*
X163533484Y-100533484D01*
X163589734Y-100449301D01*
X163604500Y-100375067D01*
X163604499Y-98624934D01*
X163589734Y-98550699D01*
X163533484Y-98466516D01*
X163449301Y-98410266D01*
X163375067Y-98395500D01*
X162500142Y-98395500D01*
X161624934Y-98395501D01*
X161589182Y-98402612D01*
X161562874Y-98407844D01*
X161562872Y-98407845D01*
X161550699Y-98410266D01*
X161540379Y-98417161D01*
X161540378Y-98417162D01*
X161479985Y-98457516D01*
X161466516Y-98466516D01*
X161410266Y-98550699D01*
X161395500Y-98624933D01*
X161036500Y-98624933D01*
X161036500Y-96164877D01*
X161039087Y-96140561D01*
X161039154Y-96139138D01*
X161041346Y-96128957D01*
X161037373Y-96095389D01*
X161037021Y-96089415D01*
X161036928Y-96089423D01*
X161036500Y-96084245D01*
X161036500Y-96079045D01*
X161033765Y-96062612D01*
X161033314Y-96059902D01*
X161032477Y-96054023D01*
X161027642Y-96013170D01*
X161027642Y-96013169D01*
X161026418Y-96002830D01*
X161022433Y-95994531D01*
X161020922Y-95985454D01*
X160996442Y-95940086D01*
X160993761Y-95934823D01*
X160974873Y-95895487D01*
X160974870Y-95895483D01*
X160971440Y-95888339D01*
X160967830Y-95884045D01*
X160965898Y-95882113D01*
X160964111Y-95880164D01*
X160964082Y-95880111D01*
X160964212Y-95879992D01*
X160963711Y-95879424D01*
X160960612Y-95873680D01*
X160939525Y-95854187D01*
X160920805Y-95836883D01*
X160917238Y-95833453D01*
X160178503Y-95094717D01*
X160163149Y-95075706D01*
X160162183Y-95074644D01*
X160156534Y-95065896D01*
X160148359Y-95059452D01*
X160148357Y-95059449D01*
X160129991Y-95044971D01*
X160125516Y-95040994D01*
X160125455Y-95041065D01*
X160121498Y-95037712D01*
X160117815Y-95034029D01*
X160111622Y-95029603D01*
X160102027Y-95022747D01*
X160097278Y-95019182D01*
X160090907Y-95014159D01*
X160056793Y-94987266D01*
X160048106Y-94984215D01*
X160040620Y-94978866D01*
X160030644Y-94975883D01*
X160030643Y-94975882D01*
X159999261Y-94966497D01*
X159991249Y-94964101D01*
X159985620Y-94962272D01*
X159936961Y-94945184D01*
X159931372Y-94944700D01*
X159928661Y-94944700D01*
X159925994Y-94944585D01*
X159925931Y-94944566D01*
X159925938Y-94944392D01*
X159925192Y-94944345D01*
X159918939Y-94942475D01*
X159873209Y-94944272D01*
X159864785Y-94944603D01*
X159859838Y-94944700D01*
X143868936Y-94944700D01*
X143844646Y-94942115D01*
X143843201Y-94942047D01*
X143833020Y-94939855D01*
X143799456Y-94943827D01*
X143793479Y-94944180D01*
X143793487Y-94944272D01*
X143788311Y-94944700D01*
X143783108Y-94944700D01*
X143763936Y-94947891D01*
X143758097Y-94948722D01*
X143706892Y-94954782D01*
X143698593Y-94958767D01*
X143689517Y-94960278D01*
X143644163Y-94984750D01*
X143638873Y-94987445D01*
X143599548Y-95006328D01*
X143599545Y-95006330D01*
X143592402Y-95009760D01*
X143588108Y-95013370D01*
X143586178Y-95015300D01*
X143584227Y-95017089D01*
X143584174Y-95017118D01*
X143584055Y-95016988D01*
X143583487Y-95017489D01*
X143577743Y-95020588D01*
X143570676Y-95028233D01*
X143540933Y-95060409D01*
X143537503Y-95063975D01*
X139377577Y-99223900D01*
X139315265Y-99257926D01*
X139304937Y-99259725D01*
X139234224Y-99269035D01*
X139181179Y-99276018D01*
X139181177Y-99276019D01*
X139172993Y-99277096D01*
X139036937Y-99333453D01*
X138920103Y-99423103D01*
X138830453Y-99539937D01*
X138774096Y-99675993D01*
X138773019Y-99684177D01*
X138773018Y-99684179D01*
X138757933Y-99798768D01*
X138754874Y-99822000D01*
X138757121Y-99839067D01*
X138770511Y-99940774D01*
X138774096Y-99968007D01*
X138830453Y-100104063D01*
X138920103Y-100220897D01*
X139036937Y-100310547D01*
X139172993Y-100366904D01*
X139181177Y-100367981D01*
X139181179Y-100367982D01*
X139310812Y-100385048D01*
X139319000Y-100386126D01*
X139327188Y-100385048D01*
X139456821Y-100367982D01*
X139456823Y-100367981D01*
X139465007Y-100366904D01*
X139601063Y-100310547D01*
X139717897Y-100220897D01*
X139807547Y-100104063D01*
X139863904Y-99968007D01*
X139865945Y-99952505D01*
X139881274Y-99836070D01*
X139909997Y-99771142D01*
X139917101Y-99763421D01*
X143935918Y-95744605D01*
X143998230Y-95710579D01*
X144025013Y-95707700D01*
X158954541Y-95707700D01*
X159022662Y-95727702D01*
X159069155Y-95781358D01*
X159079462Y-95850151D01*
X159076725Y-95870935D01*
X159048001Y-95935861D01*
X159040899Y-95943579D01*
X149865882Y-105118595D01*
X149803570Y-105152621D01*
X149776787Y-105155500D01*
X137727212Y-105155500D01*
X137659091Y-105135498D01*
X137638121Y-105118599D01*
X136723646Y-104204123D01*
X136689622Y-104141813D01*
X136693184Y-104075259D01*
X136731325Y-103960601D01*
X136731326Y-103960598D01*
X136733270Y-103954753D01*
X136759189Y-103749586D01*
X136759602Y-103720000D01*
X136739422Y-103514189D01*
X136679651Y-103316217D01*
X136582565Y-103133625D01*
X136578674Y-103128855D01*
X136578672Y-103128851D01*
X136455758Y-102978143D01*
X136455755Y-102978140D01*
X136451863Y-102973368D01*
X136444966Y-102967662D01*
X136297271Y-102845478D01*
X136297266Y-102845475D01*
X136292522Y-102841550D01*
X136287103Y-102838620D01*
X136287100Y-102838618D01*
X136116032Y-102746122D01*
X136116027Y-102746120D01*
X136110612Y-102743192D01*
X135913063Y-102682040D01*
X135906938Y-102681396D01*
X135906937Y-102681396D01*
X135713526Y-102661068D01*
X135713524Y-102661068D01*
X135707397Y-102660424D01*
X135590402Y-102671071D01*
X135507591Y-102678607D01*
X135507590Y-102678607D01*
X135501450Y-102679166D01*
X135303066Y-102737554D01*
X135297601Y-102740411D01*
X135125261Y-102830508D01*
X135125257Y-102830511D01*
X135119801Y-102833363D01*
X134958635Y-102962943D01*
X134825708Y-103121360D01*
X134726082Y-103302578D01*
X134663553Y-103499696D01*
X134662867Y-103505813D01*
X134662866Y-103505817D01*
X134641188Y-103699081D01*
X134640501Y-103705206D01*
X134657806Y-103911278D01*
X134714807Y-104110066D01*
X134717625Y-104115548D01*
X134717626Y-104115552D01*
X134806514Y-104288509D01*
X134806517Y-104288513D01*
X134809334Y-104293995D01*
X134937786Y-104456061D01*
X134942479Y-104460055D01*
X134942480Y-104460056D01*
X135007331Y-104515248D01*
X135095271Y-104590091D01*
X135275789Y-104690980D01*
X135472466Y-104754884D01*
X135677809Y-104779370D01*
X135683944Y-104778898D01*
X135683946Y-104778898D01*
X135877856Y-104763977D01*
X135877860Y-104763976D01*
X135883998Y-104763504D01*
X136063225Y-104713463D01*
X136134215Y-104714409D01*
X136186202Y-104745724D01*
X137103884Y-105663407D01*
X137137908Y-105725717D01*
X137132843Y-105796533D01*
X137090296Y-105853368D01*
X137023776Y-105878179D01*
X137014787Y-105878500D01*
X136767207Y-105878500D01*
X136699086Y-105858498D01*
X136655956Y-105811654D01*
X136647916Y-105796533D01*
X136582565Y-105673625D01*
X136578674Y-105668855D01*
X136578672Y-105668851D01*
X136455758Y-105518143D01*
X136455755Y-105518140D01*
X136451863Y-105513368D01*
X136444966Y-105507662D01*
X136297271Y-105385478D01*
X136297266Y-105385475D01*
X136292522Y-105381550D01*
X136287103Y-105378620D01*
X136287100Y-105378618D01*
X136116032Y-105286122D01*
X136116027Y-105286120D01*
X136110612Y-105283192D01*
X135913063Y-105222040D01*
X135906938Y-105221396D01*
X135906937Y-105221396D01*
X135713526Y-105201068D01*
X135713524Y-105201068D01*
X135707397Y-105200424D01*
X135581229Y-105211906D01*
X135507591Y-105218607D01*
X135507590Y-105218607D01*
X135501450Y-105219166D01*
X135303066Y-105277554D01*
X135297601Y-105280411D01*
X135125261Y-105370508D01*
X135125257Y-105370511D01*
X135119801Y-105373363D01*
X134958635Y-105502943D01*
X134825708Y-105661360D01*
X134726082Y-105842578D01*
X134663553Y-106039696D01*
X134662867Y-106045813D01*
X134662866Y-106045817D01*
X134641188Y-106239081D01*
X134640501Y-106245206D01*
X124058151Y-106245206D01*
X124039422Y-106054189D01*
X123979651Y-105856217D01*
X123907148Y-105719859D01*
X123885459Y-105679067D01*
X123885456Y-105679063D01*
X123882565Y-105673625D01*
X123878674Y-105668855D01*
X123878672Y-105668851D01*
X123755758Y-105518143D01*
X123755755Y-105518140D01*
X123751863Y-105513368D01*
X123744966Y-105507662D01*
X123597271Y-105385478D01*
X123597266Y-105385475D01*
X123592522Y-105381550D01*
X123587103Y-105378620D01*
X123587100Y-105378618D01*
X123416032Y-105286122D01*
X123416027Y-105286120D01*
X123410612Y-105283192D01*
X123382093Y-105274364D01*
X123322934Y-105235112D01*
X123294387Y-105170107D01*
X123305516Y-105099989D01*
X123352787Y-105047018D01*
X123419353Y-105027999D01*
X123844669Y-105027999D01*
X123851490Y-105027629D01*
X123902352Y-105022105D01*
X123917604Y-105018479D01*
X124038054Y-104973324D01*
X124053649Y-104964786D01*
X124155724Y-104888285D01*
X124168285Y-104875724D01*
X124244786Y-104773649D01*
X124253324Y-104758054D01*
X124298478Y-104637606D01*
X124302105Y-104622351D01*
X124307631Y-104571486D01*
X124308000Y-104564672D01*
X124308000Y-103992115D01*
X124303525Y-103976876D01*
X124302135Y-103975671D01*
X124294452Y-103974000D01*
X121710116Y-103974000D01*
X121694877Y-103978475D01*
X121693672Y-103979865D01*
X121692001Y-103987548D01*
X121692001Y-104564669D01*
X114584023Y-104564669D01*
X114703337Y-104515248D01*
X114703341Y-104515246D01*
X114707911Y-104513353D01*
X114916538Y-104385506D01*
X115102597Y-104226597D01*
X115261506Y-104040538D01*
X115389353Y-103831911D01*
X115422002Y-103753090D01*
X115481095Y-103610425D01*
X115481096Y-103610423D01*
X115482989Y-103605852D01*
X115509885Y-103493823D01*
X115520914Y-103447885D01*
X121692000Y-103447885D01*
X121696475Y-103463124D01*
X121697865Y-103464329D01*
X121705548Y-103466000D01*
X122727885Y-103466000D01*
X122743124Y-103461525D01*
X122744329Y-103460135D01*
X122746000Y-103452452D01*
X122746000Y-103447885D01*
X123254000Y-103447885D01*
X123258475Y-103463124D01*
X123259865Y-103464329D01*
X123267548Y-103466000D01*
X124289884Y-103466000D01*
X124305123Y-103461525D01*
X124306328Y-103460135D01*
X124307999Y-103452452D01*
X124307999Y-102875331D01*
X124307629Y-102868510D01*
X124302105Y-102817648D01*
X124298479Y-102802396D01*
X124253324Y-102681946D01*
X124244786Y-102666351D01*
X124168285Y-102564276D01*
X124155724Y-102551715D01*
X124053649Y-102475214D01*
X124038054Y-102466676D01*
X123917606Y-102421522D01*
X123902351Y-102417895D01*
X123851486Y-102412369D01*
X123844672Y-102412000D01*
X123272115Y-102412000D01*
X123256876Y-102416475D01*
X123255671Y-102417865D01*
X123254000Y-102425548D01*
X123254000Y-103447885D01*
X122746000Y-103447885D01*
X122746000Y-102430116D01*
X122741525Y-102414877D01*
X122740135Y-102413672D01*
X122732452Y-102412001D01*
X122155331Y-102412001D01*
X122148510Y-102412371D01*
X122097648Y-102417895D01*
X122082396Y-102421521D01*
X121961946Y-102466676D01*
X121946351Y-102475214D01*
X121844276Y-102551715D01*
X121831715Y-102564276D01*
X121755214Y-102666351D01*
X121746676Y-102681946D01*
X121701522Y-102802394D01*
X121697895Y-102817649D01*
X121692369Y-102868514D01*
X121692000Y-102875328D01*
X121692000Y-103447885D01*
X115520914Y-103447885D01*
X115538954Y-103372742D01*
X115538955Y-103372736D01*
X115540109Y-103367929D01*
X115559307Y-103124000D01*
X115540109Y-102880071D01*
X115537335Y-102868514D01*
X115493341Y-102685269D01*
X115482989Y-102642148D01*
X115481095Y-102637575D01*
X115391248Y-102420663D01*
X115391246Y-102420659D01*
X115389353Y-102416089D01*
X115261506Y-102207462D01*
X115102597Y-102021403D01*
X114916538Y-101862494D01*
X114707911Y-101734647D01*
X114703341Y-101732754D01*
X114703337Y-101732752D01*
X114486425Y-101642905D01*
X114486423Y-101642904D01*
X114481852Y-101641011D01*
X114390198Y-101619007D01*
X114248742Y-101585046D01*
X114248736Y-101585045D01*
X114243929Y-101583891D01*
X114000000Y-101564693D01*
X113756071Y-101583891D01*
X113751264Y-101585045D01*
X113751258Y-101585046D01*
X113609802Y-101619007D01*
X113518148Y-101641011D01*
X113513577Y-101642904D01*
X113513575Y-101642905D01*
X113296663Y-101732752D01*
X113296659Y-101732754D01*
X113292089Y-101734647D01*
X113083462Y-101862494D01*
X112897403Y-102021403D01*
X112738494Y-102207462D01*
X112610647Y-102416089D01*
X112608754Y-102420659D01*
X112608752Y-102420663D01*
X112518905Y-102637575D01*
X112517011Y-102642148D01*
X112506659Y-102685269D01*
X112462666Y-102868514D01*
X112459891Y-102880071D01*
X112440693Y-103124000D01*
X107754500Y-103124000D01*
X107754500Y-96638933D01*
X112445500Y-96638933D01*
X112445501Y-99289066D01*
X112460266Y-99363301D01*
X112516516Y-99447484D01*
X112600699Y-99503734D01*
X112674933Y-99518500D01*
X113999785Y-99518500D01*
X115325066Y-99518499D01*
X115360818Y-99511388D01*
X115387126Y-99506156D01*
X115387128Y-99506155D01*
X115399301Y-99503734D01*
X115409621Y-99496839D01*
X115409622Y-99496838D01*
X115473168Y-99454377D01*
X115483484Y-99447484D01*
X115539734Y-99363301D01*
X115554500Y-99289067D01*
X115554499Y-96638934D01*
X115539734Y-96564699D01*
X115483484Y-96480516D01*
X115399301Y-96424266D01*
X115325067Y-96409500D01*
X114000215Y-96409500D01*
X112674934Y-96409501D01*
X112639182Y-96416612D01*
X112612874Y-96421844D01*
X112612872Y-96421845D01*
X112600699Y-96424266D01*
X112590379Y-96431161D01*
X112590378Y-96431162D01*
X112567777Y-96446264D01*
X112516516Y-96480516D01*
X112460266Y-96564699D01*
X112445500Y-96638933D01*
X107754500Y-96638933D01*
X107754500Y-94408906D01*
X112919839Y-94408906D01*
X112928553Y-94420427D01*
X113035452Y-94498809D01*
X113043351Y-94503745D01*
X113272905Y-94624519D01*
X113281454Y-94628236D01*
X113526327Y-94713749D01*
X113535336Y-94716163D01*
X113790166Y-94764544D01*
X113799423Y-94765598D01*
X114058607Y-94775783D01*
X114067921Y-94775457D01*
X114325753Y-94747220D01*
X114334930Y-94745519D01*
X114585758Y-94679481D01*
X114594574Y-94676445D01*
X114832880Y-94574062D01*
X114841167Y-94569748D01*
X115061718Y-94433266D01*
X115069268Y-94427780D01*
X115074559Y-94423301D01*
X115082997Y-94410497D01*
X115076935Y-94400145D01*
X114012812Y-93336022D01*
X113998868Y-93328408D01*
X113997035Y-93328539D01*
X113990420Y-93332790D01*
X112926497Y-94396713D01*
X112919839Y-94408906D01*
X107754500Y-94408906D01*
X107754500Y-92921211D01*
X112187775Y-92921211D01*
X112200220Y-93180288D01*
X112201356Y-93189543D01*
X112251961Y-93443945D01*
X112254449Y-93452917D01*
X112342095Y-93697033D01*
X112345895Y-93705568D01*
X112468658Y-93934042D01*
X112473666Y-93941904D01*
X112543720Y-94035716D01*
X112554979Y-94044165D01*
X112567397Y-94037393D01*
X113627978Y-92976812D01*
X113634356Y-92965132D01*
X114364408Y-92965132D01*
X114364539Y-92966965D01*
X114368790Y-92973580D01*
X115436094Y-94040884D01*
X115448474Y-94047644D01*
X115456815Y-94041400D01*
X115590832Y-93833048D01*
X115595275Y-93824864D01*
X115697019Y-93599000D01*
X119704874Y-93599000D01*
X119724096Y-93745007D01*
X119780453Y-93881063D01*
X119870103Y-93997897D01*
X119986937Y-94087547D01*
X120122993Y-94143904D01*
X120131177Y-94144981D01*
X120131179Y-94144982D01*
X120260812Y-94162048D01*
X120269000Y-94163126D01*
X120277188Y-94162048D01*
X120406821Y-94144982D01*
X120406823Y-94144981D01*
X120415007Y-94143904D01*
X120551063Y-94087547D01*
X120667897Y-93997897D01*
X120757547Y-93881063D01*
X120813904Y-93745007D01*
X120833126Y-93599000D01*
X120813904Y-93452993D01*
X120757547Y-93316937D01*
X120676536Y-93211362D01*
X120650937Y-93145144D01*
X120650500Y-93134660D01*
X120650500Y-92202000D01*
X131134874Y-92202000D01*
X131154096Y-92348007D01*
X131210453Y-92484063D01*
X131300103Y-92600897D01*
X131416937Y-92690547D01*
X131552993Y-92746904D01*
X131561177Y-92747981D01*
X131561179Y-92747982D01*
X131690812Y-92765048D01*
X131699000Y-92766126D01*
X131707188Y-92765048D01*
X131836821Y-92747982D01*
X131836823Y-92747981D01*
X131845007Y-92746904D01*
X131981063Y-92690547D01*
X132086638Y-92609536D01*
X132152856Y-92583937D01*
X132163340Y-92583500D01*
X133266788Y-92583500D01*
X133334909Y-92603502D01*
X133355883Y-92620405D01*
X135037900Y-94302423D01*
X135071926Y-94364735D01*
X135073725Y-94375063D01*
X135079698Y-94420427D01*
X135090017Y-94498809D01*
X135091096Y-94507007D01*
X135147453Y-94643063D01*
X135237103Y-94759897D01*
X135353937Y-94849547D01*
X135489993Y-94905904D01*
X135498177Y-94906981D01*
X135498179Y-94906982D01*
X135627812Y-94924048D01*
X135636000Y-94925126D01*
X135644188Y-94924048D01*
X135773821Y-94906982D01*
X135773823Y-94906981D01*
X135782007Y-94905904D01*
X135918063Y-94849547D01*
X136034897Y-94759897D01*
X136090092Y-94687966D01*
X161168257Y-94687966D01*
X161198565Y-94822446D01*
X161201645Y-94832275D01*
X161281770Y-95029603D01*
X161286413Y-95038794D01*
X161397694Y-95220388D01*
X161403777Y-95228699D01*
X161543213Y-95389667D01*
X161550580Y-95396883D01*
X161714434Y-95532916D01*
X161722881Y-95538831D01*
X161906756Y-95646279D01*
X161916042Y-95650729D01*
X162065124Y-95707657D01*
X162121627Y-95750644D01*
X162145920Y-95817355D01*
X162130290Y-95886610D01*
X162079699Y-95936421D01*
X162063785Y-95943579D01*
X162022463Y-95958824D01*
X161848010Y-96062612D01*
X161843670Y-96066418D01*
X161843666Y-96066421D01*
X161728907Y-96167063D01*
X161695392Y-96196455D01*
X161569720Y-96355869D01*
X161567031Y-96360980D01*
X161567029Y-96360983D01*
X161540868Y-96410707D01*
X161475203Y-96535515D01*
X161415007Y-96729378D01*
X161391148Y-96930964D01*
X161404424Y-97133522D01*
X161405845Y-97139118D01*
X161405846Y-97139123D01*
X161426119Y-97218945D01*
X161454392Y-97330269D01*
X161456809Y-97335512D01*
X161494010Y-97416208D01*
X161539377Y-97514616D01*
X161542710Y-97519332D01*
X161632728Y-97646705D01*
X161656533Y-97680389D01*
X161801938Y-97822035D01*
X161970720Y-97934812D01*
X161976023Y-97937090D01*
X161976026Y-97937092D01*
X162064707Y-97975192D01*
X162157228Y-98014942D01*
X162230244Y-98031464D01*
X162349579Y-98058467D01*
X162349584Y-98058468D01*
X162355216Y-98059742D01*
X162360987Y-98059969D01*
X162360989Y-98059969D01*
X162420756Y-98062317D01*
X162558053Y-98067712D01*
X162658499Y-98053148D01*
X162753231Y-98039413D01*
X162753236Y-98039412D01*
X162758945Y-98038584D01*
X162764409Y-98036729D01*
X162764414Y-98036728D01*
X162945693Y-97975192D01*
X162945698Y-97975190D01*
X162951165Y-97973334D01*
X163128276Y-97874147D01*
X163190934Y-97822035D01*
X163279913Y-97748031D01*
X163284345Y-97744345D01*
X163365552Y-97646705D01*
X163410453Y-97592718D01*
X163410455Y-97592715D01*
X163414147Y-97588276D01*
X163473845Y-97481677D01*
X163510510Y-97416208D01*
X163510511Y-97416206D01*
X163513334Y-97411165D01*
X163515190Y-97405698D01*
X163515192Y-97405693D01*
X163576728Y-97224414D01*
X163576729Y-97224409D01*
X163578584Y-97218945D01*
X163579412Y-97213236D01*
X163579413Y-97213231D01*
X163607179Y-97021727D01*
X163607712Y-97018053D01*
X163609232Y-96960000D01*
X163590658Y-96757859D01*
X163588745Y-96751077D01*
X163537125Y-96568046D01*
X163537124Y-96568044D01*
X163535557Y-96562487D01*
X163531560Y-96554380D01*
X163448331Y-96385609D01*
X163445776Y-96380428D01*
X163421589Y-96348037D01*
X163362389Y-96268760D01*
X163324320Y-96217779D01*
X163175258Y-96079987D01*
X163170375Y-96076906D01*
X163170371Y-96076903D01*
X163008464Y-95974748D01*
X163003581Y-95971667D01*
X162931614Y-95942955D01*
X162875755Y-95899134D01*
X162852455Y-95832069D01*
X162869111Y-95763054D01*
X162920436Y-95714000D01*
X162942098Y-95705239D01*
X162992252Y-95690192D01*
X163001842Y-95686433D01*
X163193095Y-95592739D01*
X163201945Y-95587464D01*
X163375328Y-95463792D01*
X163383200Y-95457139D01*
X163534052Y-95306812D01*
X163540730Y-95298965D01*
X163665003Y-95126020D01*
X163670313Y-95117183D01*
X163764670Y-94926267D01*
X163768469Y-94916672D01*
X163830377Y-94712910D01*
X163832555Y-94702837D01*
X163833986Y-94691962D01*
X163831775Y-94677778D01*
X163818617Y-94674000D01*
X161183225Y-94674000D01*
X161169694Y-94677973D01*
X161168257Y-94687966D01*
X136090092Y-94687966D01*
X136124547Y-94643063D01*
X136180904Y-94507007D01*
X136181984Y-94498809D01*
X136199048Y-94369188D01*
X136200126Y-94361000D01*
X136180904Y-94214993D01*
X136155715Y-94154183D01*
X161164389Y-94154183D01*
X161165912Y-94162607D01*
X161178292Y-94166000D01*
X162227885Y-94166000D01*
X162243124Y-94161525D01*
X162244329Y-94160135D01*
X162246000Y-94152452D01*
X162246000Y-94147885D01*
X162754000Y-94147885D01*
X162758475Y-94163124D01*
X162759865Y-94164329D01*
X162767548Y-94166000D01*
X163818344Y-94166000D01*
X163831875Y-94162027D01*
X163833180Y-94152947D01*
X163791214Y-93985875D01*
X163787894Y-93976124D01*
X163702972Y-93780814D01*
X163698105Y-93771739D01*
X163582426Y-93592926D01*
X163576136Y-93584757D01*
X163432806Y-93427240D01*
X163425273Y-93420215D01*
X163258139Y-93288222D01*
X163249552Y-93282517D01*
X163063117Y-93179599D01*
X163053705Y-93175369D01*
X162852959Y-93104280D01*
X162842988Y-93101646D01*
X162771837Y-93088972D01*
X162758540Y-93090432D01*
X162754000Y-93104989D01*
X162754000Y-94147885D01*
X162246000Y-94147885D01*
X162246000Y-93103102D01*
X162242082Y-93089758D01*
X162227806Y-93087771D01*
X162189324Y-93093660D01*
X162179288Y-93096051D01*
X161976868Y-93162212D01*
X161967359Y-93166209D01*
X161778463Y-93264542D01*
X161769738Y-93270036D01*
X161599433Y-93397905D01*
X161591726Y-93404748D01*
X161444590Y-93558717D01*
X161438104Y-93566727D01*
X161318098Y-93742649D01*
X161313000Y-93751623D01*
X161223338Y-93944783D01*
X161219775Y-93954470D01*
X161164389Y-94154183D01*
X136155715Y-94154183D01*
X136124547Y-94078937D01*
X136034897Y-93962103D01*
X135918063Y-93872453D01*
X135782007Y-93816096D01*
X135773823Y-93815019D01*
X135773821Y-93815018D01*
X135650070Y-93798726D01*
X135585142Y-93770003D01*
X135577421Y-93762899D01*
X133785044Y-91970521D01*
X133769685Y-91951505D01*
X133768719Y-91950444D01*
X133763071Y-91941696D01*
X133736528Y-91920771D01*
X133732053Y-91916794D01*
X133731992Y-91916865D01*
X133728035Y-91913512D01*
X133724352Y-91909829D01*
X133708561Y-91898545D01*
X133703815Y-91894982D01*
X133671507Y-91869512D01*
X133671506Y-91869511D01*
X133663330Y-91863066D01*
X133654643Y-91860015D01*
X133647157Y-91854666D01*
X133637181Y-91851683D01*
X133637180Y-91851682D01*
X133597789Y-91839902D01*
X133592157Y-91838072D01*
X133543498Y-91820984D01*
X133537909Y-91820500D01*
X133535198Y-91820500D01*
X133532531Y-91820385D01*
X133532468Y-91820366D01*
X133532475Y-91820192D01*
X133531729Y-91820145D01*
X133525476Y-91818275D01*
X133476692Y-91820192D01*
X133471322Y-91820403D01*
X133466375Y-91820500D01*
X132163340Y-91820500D01*
X132095219Y-91800498D01*
X132086650Y-91794473D01*
X131981063Y-91713453D01*
X131845007Y-91657096D01*
X131836823Y-91656019D01*
X131836821Y-91656018D01*
X131707188Y-91638952D01*
X131699000Y-91637874D01*
X131690812Y-91638952D01*
X131561179Y-91656018D01*
X131561177Y-91656019D01*
X131552993Y-91657096D01*
X131416937Y-91713453D01*
X131300103Y-91803103D01*
X131210453Y-91919937D01*
X131154096Y-92055993D01*
X131153019Y-92064177D01*
X131153018Y-92064179D01*
X131143446Y-92136891D01*
X131134874Y-92202000D01*
X120650500Y-92202000D01*
X120650500Y-92158213D01*
X120670502Y-92090092D01*
X120687405Y-92069117D01*
X121353424Y-91403099D01*
X121415736Y-91369074D01*
X121426067Y-91367274D01*
X121484641Y-91359563D01*
X121549821Y-91350982D01*
X121549823Y-91350981D01*
X121558007Y-91349904D01*
X121694063Y-91293547D01*
X121810897Y-91203897D01*
X121900547Y-91087063D01*
X121956904Y-90951007D01*
X121976126Y-90805000D01*
X121956904Y-90658993D01*
X121900547Y-90522937D01*
X121810897Y-90406103D01*
X121694063Y-90316453D01*
X121558007Y-90260096D01*
X121549823Y-90259019D01*
X121549821Y-90259018D01*
X121420188Y-90241952D01*
X121412000Y-90240874D01*
X121403812Y-90241952D01*
X121274179Y-90259018D01*
X121274177Y-90259019D01*
X121265993Y-90260096D01*
X121129937Y-90316453D01*
X121013103Y-90406103D01*
X120923453Y-90522937D01*
X120867096Y-90658993D01*
X120866019Y-90667177D01*
X120866018Y-90667179D01*
X120849727Y-90790927D01*
X120821005Y-90855854D01*
X120813901Y-90863576D01*
X120037518Y-91639960D01*
X120018522Y-91655301D01*
X120017448Y-91656278D01*
X120008696Y-91661929D01*
X119988516Y-91687527D01*
X119987771Y-91688472D01*
X119983794Y-91692947D01*
X119983865Y-91693008D01*
X119980512Y-91696965D01*
X119976829Y-91700648D01*
X119973803Y-91704883D01*
X119973801Y-91704885D01*
X119965547Y-91716436D01*
X119961984Y-91721182D01*
X119930066Y-91761670D01*
X119927015Y-91770357D01*
X119921666Y-91777843D01*
X119918683Y-91787819D01*
X119918682Y-91787820D01*
X119906902Y-91827211D01*
X119905072Y-91832843D01*
X119887984Y-91881502D01*
X119887500Y-91887091D01*
X119887500Y-91889802D01*
X119887385Y-91892469D01*
X119887366Y-91892532D01*
X119887192Y-91892525D01*
X119887145Y-91893271D01*
X119885275Y-91899524D01*
X119886077Y-91919937D01*
X119887403Y-91953678D01*
X119887500Y-91958625D01*
X119887500Y-93134660D01*
X119867498Y-93202781D01*
X119861473Y-93211350D01*
X119780453Y-93316937D01*
X119724096Y-93452993D01*
X119704874Y-93599000D01*
X115697019Y-93599000D01*
X115701807Y-93588370D01*
X115704997Y-93579605D01*
X115775402Y-93329972D01*
X115777262Y-93320830D01*
X115810187Y-93062019D01*
X115810668Y-93055733D01*
X115812987Y-92967160D01*
X115812836Y-92960851D01*
X115793501Y-92700663D01*
X115792125Y-92691457D01*
X115734878Y-92438467D01*
X115732154Y-92429556D01*
X115638143Y-92187806D01*
X115634132Y-92179397D01*
X115505422Y-91954202D01*
X115500211Y-91946476D01*
X115456996Y-91891658D01*
X115445071Y-91883187D01*
X115433537Y-91889673D01*
X114372022Y-92951188D01*
X114364408Y-92965132D01*
X113634356Y-92965132D01*
X113635592Y-92962868D01*
X113635461Y-92961035D01*
X113631210Y-92954420D01*
X112565816Y-91889026D01*
X112552507Y-91881758D01*
X112542472Y-91888878D01*
X112526937Y-91907556D01*
X112521531Y-91915135D01*
X112386965Y-92136891D01*
X112382736Y-92145192D01*
X112282432Y-92384389D01*
X112279471Y-92393239D01*
X112215628Y-92644625D01*
X112214006Y-92653822D01*
X112188020Y-92911885D01*
X112187775Y-92921211D01*
X107754500Y-92921211D01*
X107754500Y-91516689D01*
X112917102Y-91516689D01*
X112921675Y-91526465D01*
X113987188Y-92591978D01*
X114001132Y-92599592D01*
X114002965Y-92599461D01*
X114009580Y-92595210D01*
X115074349Y-91530441D01*
X115080733Y-91518751D01*
X115071321Y-91506641D01*
X114924045Y-91404471D01*
X114916010Y-91399738D01*
X114683376Y-91285016D01*
X114674743Y-91281528D01*
X114427703Y-91202450D01*
X114418643Y-91200274D01*
X114162630Y-91158580D01*
X114153343Y-91157768D01*
X113893992Y-91154373D01*
X113884681Y-91154943D01*
X113627682Y-91189919D01*
X113618546Y-91191860D01*
X113369543Y-91264439D01*
X113360800Y-91267707D01*
X113125252Y-91376296D01*
X113117097Y-91380816D01*
X112926240Y-91505947D01*
X112917102Y-91516689D01*
X107754500Y-91516689D01*
X107754500Y-86436876D01*
X110491372Y-86436876D01*
X110491547Y-86441327D01*
X110492417Y-86463459D01*
X110492417Y-86463462D01*
X110498684Y-86622974D01*
X110502516Y-86720524D01*
X110553516Y-86999772D01*
X110643353Y-87269048D01*
X110645346Y-87273036D01*
X110728954Y-87440361D01*
X110770236Y-87522980D01*
X110931631Y-87756500D01*
X111124320Y-87964950D01*
X111127774Y-87967762D01*
X111341001Y-88141356D01*
X111341005Y-88141359D01*
X111344458Y-88144170D01*
X111587652Y-88290585D01*
X111591747Y-88292319D01*
X111591749Y-88292320D01*
X111774820Y-88369840D01*
X111849049Y-88401272D01*
X111853342Y-88402410D01*
X111853347Y-88402412D01*
X111996898Y-88440473D01*
X112123435Y-88474024D01*
X112405334Y-88507389D01*
X112689122Y-88500701D01*
X112693517Y-88499969D01*
X112693522Y-88499969D01*
X112964734Y-88454827D01*
X112964738Y-88454826D01*
X112969136Y-88454094D01*
X113146887Y-88397878D01*
X113235544Y-88369840D01*
X113235546Y-88369839D01*
X113239790Y-88368497D01*
X113243801Y-88366571D01*
X113243806Y-88366569D01*
X113491665Y-88247549D01*
X113491666Y-88247548D01*
X113495684Y-88245619D01*
X113651724Y-88141356D01*
X113728002Y-88090389D01*
X113728006Y-88090386D01*
X113731710Y-88087911D01*
X113735027Y-88084940D01*
X113735031Y-88084937D01*
X113939845Y-87901490D01*
X113943161Y-87898520D01*
X114125817Y-87681225D01*
X114196122Y-87568494D01*
X114273669Y-87444152D01*
X114273671Y-87444149D01*
X114276033Y-87440361D01*
X114390813Y-87180734D01*
X114467866Y-86907525D01*
X114492983Y-86720524D01*
X114505227Y-86629367D01*
X114505228Y-86629359D01*
X114505654Y-86626185D01*
X114509620Y-86500000D01*
X114505151Y-86436876D01*
X170491372Y-86436876D01*
X170491547Y-86441327D01*
X170492417Y-86463459D01*
X170492417Y-86463462D01*
X170498684Y-86622974D01*
X170502516Y-86720524D01*
X170553516Y-86999772D01*
X170643353Y-87269048D01*
X170645346Y-87273036D01*
X170728954Y-87440361D01*
X170770236Y-87522980D01*
X170931631Y-87756500D01*
X171124320Y-87964950D01*
X171127774Y-87967762D01*
X171341001Y-88141356D01*
X171341005Y-88141359D01*
X171344458Y-88144170D01*
X171587652Y-88290585D01*
X171591747Y-88292319D01*
X171591749Y-88292320D01*
X171774820Y-88369840D01*
X171849049Y-88401272D01*
X171853342Y-88402410D01*
X171853347Y-88402412D01*
X171996898Y-88440473D01*
X172123435Y-88474024D01*
X172405334Y-88507389D01*
X172689122Y-88500701D01*
X172693517Y-88499969D01*
X172693522Y-88499969D01*
X172964734Y-88454827D01*
X172964738Y-88454826D01*
X172969136Y-88454094D01*
X173146887Y-88397878D01*
X173235544Y-88369840D01*
X173235546Y-88369839D01*
X173239790Y-88368497D01*
X173243801Y-88366571D01*
X173243806Y-88366569D01*
X173491665Y-88247549D01*
X173491666Y-88247548D01*
X173495684Y-88245619D01*
X173651724Y-88141356D01*
X173728002Y-88090389D01*
X173728006Y-88090386D01*
X173731710Y-88087911D01*
X173735027Y-88084940D01*
X173735031Y-88084937D01*
X173939845Y-87901490D01*
X173943161Y-87898520D01*
X174125817Y-87681225D01*
X174196122Y-87568494D01*
X174273669Y-87444152D01*
X174273671Y-87444149D01*
X174276033Y-87440361D01*
X174390813Y-87180734D01*
X174467866Y-86907525D01*
X174492983Y-86720524D01*
X174505227Y-86629367D01*
X174505228Y-86629359D01*
X174505654Y-86626185D01*
X174509620Y-86500000D01*
X174489571Y-86216842D01*
X174429825Y-85939334D01*
X174331574Y-85673013D01*
X174196778Y-85423192D01*
X174028127Y-85194856D01*
X173828986Y-84992562D01*
X173755118Y-84936188D01*
X173606872Y-84823050D01*
X173606868Y-84823047D01*
X173603327Y-84820345D01*
X173355655Y-84681641D01*
X173351506Y-84680036D01*
X173351502Y-84680034D01*
X173191830Y-84618262D01*
X173090909Y-84579219D01*
X173086588Y-84578217D01*
X173086580Y-84578215D01*
X172904110Y-84535922D01*
X172814374Y-84515122D01*
X172531566Y-84490628D01*
X172527131Y-84490872D01*
X172527127Y-84490872D01*
X172420718Y-84496728D01*
X172248128Y-84506226D01*
X172243768Y-84507093D01*
X172243762Y-84507094D01*
X172107296Y-84534239D01*
X171969715Y-84561606D01*
X171965505Y-84563084D01*
X171965503Y-84563085D01*
X171914996Y-84580822D01*
X171701884Y-84655662D01*
X171697933Y-84657715D01*
X171697927Y-84657717D01*
X171453926Y-84784465D01*
X171449976Y-84786517D01*
X171446361Y-84789100D01*
X171446355Y-84789104D01*
X171402638Y-84820345D01*
X171219020Y-84951561D01*
X171013623Y-85147501D01*
X171010867Y-85150997D01*
X171010866Y-85150998D01*
X170976291Y-85194856D01*
X170837882Y-85370426D01*
X170809314Y-85419610D01*
X170697540Y-85612042D01*
X170697537Y-85612048D01*
X170695306Y-85615889D01*
X170693636Y-85620012D01*
X170590411Y-85874861D01*
X170590408Y-85874869D01*
X170588738Y-85878993D01*
X170520305Y-86154488D01*
X170491372Y-86436876D01*
X114505151Y-86436876D01*
X114489571Y-86216842D01*
X114429825Y-85939334D01*
X114331574Y-85673013D01*
X114196778Y-85423192D01*
X114028127Y-85194856D01*
X113828986Y-84992562D01*
X113755118Y-84936188D01*
X113606872Y-84823050D01*
X113606868Y-84823047D01*
X113603327Y-84820345D01*
X113355655Y-84681641D01*
X113351506Y-84680036D01*
X113351502Y-84680034D01*
X113191830Y-84618262D01*
X113090909Y-84579219D01*
X113086588Y-84578217D01*
X113086580Y-84578215D01*
X112904110Y-84535922D01*
X112814374Y-84515122D01*
X112531566Y-84490628D01*
X112527131Y-84490872D01*
X112527127Y-84490872D01*
X112420718Y-84496728D01*
X112248128Y-84506226D01*
X112243768Y-84507093D01*
X112243762Y-84507094D01*
X112107296Y-84534239D01*
X111969715Y-84561606D01*
X111965505Y-84563084D01*
X111965503Y-84563085D01*
X111914996Y-84580822D01*
X111701884Y-84655662D01*
X111697933Y-84657715D01*
X111697927Y-84657717D01*
X111453926Y-84784465D01*
X111449976Y-84786517D01*
X111446361Y-84789100D01*
X111446355Y-84789104D01*
X111402638Y-84820345D01*
X111219020Y-84951561D01*
X111013623Y-85147501D01*
X111010867Y-85150997D01*
X111010866Y-85150998D01*
X110976291Y-85194856D01*
X110837882Y-85370426D01*
X110809314Y-85419610D01*
X110697540Y-85612042D01*
X110697537Y-85612048D01*
X110695306Y-85615889D01*
X110693636Y-85620012D01*
X110590411Y-85874861D01*
X110590408Y-85874869D01*
X110588738Y-85878993D01*
X110520305Y-86154488D01*
X110491372Y-86436876D01*
X107754500Y-86436876D01*
X107754500Y-81880500D01*
X107774502Y-81812379D01*
X107828158Y-81765886D01*
X107880500Y-81754500D01*
X177119500Y-81754500D01*
X177187621Y-81774502D01*
G37*
G04 #@! TD.AperFunction*
M02*
