G04 #@! TF.GenerationSoftware,KiCad,Pcbnew,6.0.7-f9a2dced07~116~ubuntu20.04.1*
G04 #@! TF.CreationDate,2022-08-24T01:16:15-05:00*
G04 #@! TF.ProjectId,MuscleRoller,4d757363-6c65-4526-9f6c-6c65722e6b69,rev?*
G04 #@! TF.SameCoordinates,Original*
G04 #@! TF.FileFunction,Legend,Bot*
G04 #@! TF.FilePolarity,Positive*
%FSLAX46Y46*%
G04 Gerber Fmt 4.6, Leading zero omitted, Abs format (unit mm)*
G04 Created by KiCad (PCBNEW 6.0.7-f9a2dced07~116~ubuntu20.04.1) date 2022-08-24 01:16:15*
%MOMM*%
%LPD*%
G01*
G04 APERTURE LIST*
G04 Aperture macros list*
%AMRoundRect*
0 Rectangle with rounded corners*
0 $1 Rounding radius*
0 $2 $3 $4 $5 $6 $7 $8 $9 X,Y pos of 4 corners*
0 Add a 4 corners polygon primitive as box body*
4,1,4,$2,$3,$4,$5,$6,$7,$8,$9,$2,$3,0*
0 Add four circle primitives for the rounded corners*
1,1,$1+$1,$2,$3*
1,1,$1+$1,$4,$5*
1,1,$1+$1,$6,$7*
1,1,$1+$1,$8,$9*
0 Add four rect primitives between the rounded corners*
20,1,$1+$1,$2,$3,$4,$5,0*
20,1,$1+$1,$4,$5,$6,$7,0*
20,1,$1+$1,$6,$7,$8,$9,0*
20,1,$1+$1,$8,$9,$2,$3,0*%
G04 Aperture macros list end*
%ADD10R,1.600000X1.600000*%
%ADD11O,1.600000X1.600000*%
%ADD12RoundRect,0.250000X-0.600000X-0.725000X0.600000X-0.725000X0.600000X0.725000X-0.600000X0.725000X0*%
%ADD13O,1.700000X1.950000*%
%ADD14R,1.700000X1.700000*%
%ADD15O,1.700000X1.700000*%
%ADD16RoundRect,0.250000X0.725000X-0.600000X0.725000X0.600000X-0.725000X0.600000X-0.725000X-0.600000X0*%
%ADD17O,1.950000X1.700000*%
%ADD18R,2.600000X2.600000*%
%ADD19C,2.600000*%
G04 APERTURE END LIST*
%LPC*%
D10*
X123000000Y-103720000D03*
D11*
X123000000Y-106260000D03*
X123000000Y-108800000D03*
X123000000Y-111340000D03*
X123000000Y-113880000D03*
X123000000Y-116420000D03*
X123000000Y-118960000D03*
X123000000Y-121500000D03*
X135700000Y-121500000D03*
X135700000Y-118960000D03*
X135700000Y-116420000D03*
X135700000Y-113880000D03*
X135700000Y-111340000D03*
X135700000Y-108800000D03*
X135700000Y-106260000D03*
X135700000Y-103720000D03*
D10*
X123000000Y-125000000D03*
D11*
X123000000Y-127540000D03*
X123000000Y-130080000D03*
X123000000Y-132620000D03*
X123000000Y-135160000D03*
X123000000Y-137700000D03*
X123000000Y-140240000D03*
X123000000Y-142780000D03*
X135700000Y-142780000D03*
X135700000Y-140240000D03*
X135700000Y-137700000D03*
X135700000Y-135160000D03*
X135700000Y-132620000D03*
X135700000Y-130080000D03*
X135700000Y-127540000D03*
X135700000Y-125000000D03*
D12*
X159000000Y-122000000D03*
D13*
X161500000Y-122000000D03*
X164000000Y-122000000D03*
X166500000Y-122000000D03*
X169000000Y-122000000D03*
X171500000Y-122000000D03*
D12*
X159000000Y-129000000D03*
D13*
X161500000Y-129000000D03*
X164000000Y-129000000D03*
X166500000Y-129000000D03*
X169000000Y-129000000D03*
X171500000Y-129000000D03*
D12*
X144000000Y-122000000D03*
D13*
X146500000Y-122000000D03*
X149000000Y-122000000D03*
X151500000Y-122000000D03*
D12*
X144000000Y-129000000D03*
D13*
X146500000Y-129000000D03*
X149000000Y-129000000D03*
X151500000Y-129000000D03*
D14*
X162500000Y-99500000D03*
D15*
X162500000Y-96960000D03*
X162500000Y-94420000D03*
D16*
X111500000Y-121500000D03*
D17*
X111500000Y-119000000D03*
X111500000Y-116500000D03*
X111500000Y-114000000D03*
D16*
X111500000Y-136000000D03*
D17*
X111500000Y-133500000D03*
X111500000Y-131000000D03*
X111500000Y-128500000D03*
D18*
X114000000Y-108124000D03*
D19*
X114000000Y-103124000D03*
D12*
X164500000Y-107000000D03*
D13*
X167000000Y-107000000D03*
X169500000Y-107000000D03*
D12*
X164500000Y-114500000D03*
D13*
X167000000Y-114500000D03*
X169500000Y-114500000D03*
D18*
X114000000Y-97964000D03*
D19*
X114000000Y-92964000D03*
M02*
