%FSLAX45Y45*%
G04 Gerber Fmt 4.5, Leading zero omitted, Abs format (unit mm)*
G04 Created by KiCad (PCBNEW (5.1.9)-1) date 2021-11-04 11:44:47*
%MOMM*%
%LPD*%
G01*
G04 APERTURE LIST*
%TA.AperFunction,Profile*%
%ADD10C,0.050000*%
%TD*%
%ADD11C,0.200000*%
%ADD12C,0.300000*%
G04 APERTURE END LIST*
D10*
X5400000Y-11600000D02*
X5400000Y-5200000D01*
X12000000Y-11600000D02*
X5400000Y-11600000D01*
X12000000Y-5200000D02*
X12000000Y-11600000D01*
X5400000Y-5200000D02*
X12000000Y-5200000D01*
X5975000Y-11200000D02*
G75*
G03*
X5975000Y-11200000I-175000J0D01*
G01*
X11775000Y-11200000D02*
G75*
G03*
X11775000Y-11200000I-175000J0D01*
G01*
X5975000Y-5600000D02*
G75*
G03*
X5975000Y-5600000I-175000J0D01*
G01*
X11775000Y-5600000D02*
G75*
G03*
X11775000Y-5600000I-175000J0D01*
G01*
D11*
X9560000Y-7310000D02*
X9590000Y-7340000D01*
X9590000Y-7310000D02*
X9560000Y-7340000D01*
X9560000Y-7460000D02*
X9590000Y-7490000D01*
X9590000Y-7460000D02*
X9560000Y-7490000D01*
X9635000Y-7235000D02*
X9665000Y-7265000D01*
X9665000Y-7235000D02*
X9635000Y-7265000D01*
X9635000Y-7385000D02*
X9665000Y-7415000D01*
X9665000Y-7385000D02*
X9635000Y-7415000D01*
X9635000Y-7535000D02*
X9665000Y-7565000D01*
X9665000Y-7535000D02*
X9635000Y-7565000D01*
X9715000Y-7310000D02*
X9745000Y-7340000D01*
X9745000Y-7310000D02*
X9715000Y-7340000D01*
X9715000Y-7460000D02*
X9745000Y-7490000D01*
X9745000Y-7460000D02*
X9715000Y-7490000D01*
X9785000Y-7235000D02*
X9815000Y-7265000D01*
X9815000Y-7235000D02*
X9785000Y-7265000D01*
X9785000Y-7385000D02*
X9815000Y-7415000D01*
X9815000Y-7385000D02*
X9785000Y-7415000D01*
X9785000Y-7535000D02*
X9815000Y-7565000D01*
X9815000Y-7535000D02*
X9785000Y-7565000D01*
X9860000Y-7310000D02*
X9890000Y-7340000D01*
X9890000Y-7310000D02*
X9860000Y-7340000D01*
X9860000Y-7460000D02*
X9890000Y-7490000D01*
X9890000Y-7460000D02*
X9860000Y-7490000D01*
X7901940Y-5969000D02*
G75*
G03*
X7901940Y-5969000I-15240J0D01*
G01*
X10886440Y-5359400D02*
G75*
G03*
X10886440Y-5359400I-15240J0D01*
G01*
X10886440Y-9144000D02*
G75*
G03*
X10886440Y-9144000I-15240J0D01*
G01*
X7350000Y-7160000D02*
X7350000Y-7240000D01*
X7310000Y-7200000D02*
X7390000Y-7200000D01*
X7350000Y-7414000D02*
X7350000Y-7494000D01*
X7310000Y-7454000D02*
X7390000Y-7454000D01*
X7350000Y-7668000D02*
X7350000Y-7748000D01*
X7310000Y-7708000D02*
X7390000Y-7708000D01*
X7350000Y-7922000D02*
X7350000Y-8002000D01*
X7310000Y-7962000D02*
X7390000Y-7962000D01*
X7350000Y-8176000D02*
X7350000Y-8256000D01*
X7310000Y-8216000D02*
X7390000Y-8216000D01*
X7350000Y-8430000D02*
X7350000Y-8510000D01*
X7310000Y-8470000D02*
X7390000Y-8470000D01*
X7350000Y-8684000D02*
X7350000Y-8764000D01*
X7310000Y-8724000D02*
X7390000Y-8724000D01*
X7350000Y-8938000D02*
X7350000Y-9018000D01*
X7310000Y-8978000D02*
X7390000Y-8978000D01*
X7350000Y-9482000D02*
X7350000Y-9562000D01*
X7310000Y-9522000D02*
X7390000Y-9522000D01*
X7350000Y-9736000D02*
X7350000Y-9816000D01*
X7310000Y-9776000D02*
X7390000Y-9776000D01*
X7350000Y-9990000D02*
X7350000Y-10070000D01*
X7310000Y-10030000D02*
X7390000Y-10030000D01*
X7350000Y-10244000D02*
X7350000Y-10324000D01*
X7310000Y-10284000D02*
X7390000Y-10284000D01*
X7350000Y-10498000D02*
X7350000Y-10578000D01*
X7310000Y-10538000D02*
X7390000Y-10538000D01*
X7350000Y-10752000D02*
X7350000Y-10832000D01*
X7310000Y-10792000D02*
X7390000Y-10792000D01*
X7350000Y-11006000D02*
X7350000Y-11086000D01*
X7310000Y-11046000D02*
X7390000Y-11046000D01*
X7350000Y-11260000D02*
X7350000Y-11340000D01*
X7310000Y-11300000D02*
X7390000Y-11300000D01*
X8620000Y-7160000D02*
X8620000Y-7240000D01*
X8580000Y-7200000D02*
X8660000Y-7200000D01*
X8620000Y-7414000D02*
X8620000Y-7494000D01*
X8580000Y-7454000D02*
X8660000Y-7454000D01*
X8620000Y-7668000D02*
X8620000Y-7748000D01*
X8580000Y-7708000D02*
X8660000Y-7708000D01*
X8620000Y-7922000D02*
X8620000Y-8002000D01*
X8580000Y-7962000D02*
X8660000Y-7962000D01*
X8620000Y-8176000D02*
X8620000Y-8256000D01*
X8580000Y-8216000D02*
X8660000Y-8216000D01*
X8620000Y-8430000D02*
X8620000Y-8510000D01*
X8580000Y-8470000D02*
X8660000Y-8470000D01*
X8620000Y-8684000D02*
X8620000Y-8764000D01*
X8580000Y-8724000D02*
X8660000Y-8724000D01*
X8620000Y-8938000D02*
X8620000Y-9018000D01*
X8580000Y-8978000D02*
X8660000Y-8978000D01*
X8620000Y-9482000D02*
X8620000Y-9562000D01*
X8580000Y-9522000D02*
X8660000Y-9522000D01*
X8620000Y-9736000D02*
X8620000Y-9816000D01*
X8580000Y-9776000D02*
X8660000Y-9776000D01*
X8620000Y-9990000D02*
X8620000Y-10070000D01*
X8580000Y-10030000D02*
X8660000Y-10030000D01*
X8620000Y-10244000D02*
X8620000Y-10324000D01*
X8580000Y-10284000D02*
X8660000Y-10284000D01*
X8620000Y-10498000D02*
X8620000Y-10578000D01*
X8580000Y-10538000D02*
X8660000Y-10538000D01*
X8620000Y-10752000D02*
X8620000Y-10832000D01*
X8580000Y-10792000D02*
X8660000Y-10792000D01*
X8620000Y-11006000D02*
X8620000Y-11086000D01*
X8580000Y-11046000D02*
X8660000Y-11046000D01*
X8620000Y-11260000D02*
X8620000Y-11340000D01*
X8580000Y-11300000D02*
X8660000Y-11300000D01*
X5983588Y-7783588D02*
X5983588Y-7716412D01*
X5916412Y-7716412D01*
X5916412Y-7783588D01*
X5983588Y-7783588D01*
X5983588Y-8033588D02*
X5983588Y-7966412D01*
X5916412Y-7966412D01*
X5916412Y-8033588D01*
X5983588Y-8033588D01*
X5983588Y-8283588D02*
X5983588Y-8216412D01*
X5916412Y-8216412D01*
X5916412Y-8283588D01*
X5983588Y-8283588D01*
X5983588Y-8533588D02*
X5983588Y-8466412D01*
X5916412Y-8466412D01*
X5916412Y-8533588D01*
X5983588Y-8533588D01*
X5983588Y-9583588D02*
X5983588Y-9516412D01*
X5916412Y-9516412D01*
X5916412Y-9583588D01*
X5983588Y-9583588D01*
X5983588Y-9833588D02*
X5983588Y-9766412D01*
X5916412Y-9766412D01*
X5916412Y-9833588D01*
X5983588Y-9833588D01*
X5983588Y-10083588D02*
X5983588Y-10016412D01*
X5916412Y-10016412D01*
X5916412Y-10083588D01*
X5983588Y-10083588D01*
X5983588Y-10333588D02*
X5983588Y-10266412D01*
X5916412Y-10266412D01*
X5916412Y-10333588D01*
X5983588Y-10333588D01*
X6733588Y-7783588D02*
X6733588Y-7716412D01*
X6666412Y-7716412D01*
X6666412Y-7783588D01*
X6733588Y-7783588D01*
X6733588Y-8033588D02*
X6733588Y-7966412D01*
X6666412Y-7966412D01*
X6666412Y-8033588D01*
X6733588Y-8033588D01*
X6733588Y-8283588D02*
X6733588Y-8216412D01*
X6666412Y-8216412D01*
X6666412Y-8283588D01*
X6733588Y-8283588D01*
X6733588Y-8533588D02*
X6733588Y-8466412D01*
X6666412Y-8466412D01*
X6666412Y-8533588D01*
X6733588Y-8533588D01*
X6733588Y-9583588D02*
X6733588Y-9516412D01*
X6666412Y-9516412D01*
X6666412Y-9583588D01*
X6733588Y-9583588D01*
X6733588Y-9833588D02*
X6733588Y-9766412D01*
X6666412Y-9766412D01*
X6666412Y-9833588D01*
X6733588Y-9833588D01*
X6733588Y-10083588D02*
X6733588Y-10016412D01*
X6666412Y-10016412D01*
X6666412Y-10083588D01*
X6733588Y-10083588D01*
X6733588Y-10333588D02*
X6733588Y-10266412D01*
X6666412Y-10266412D01*
X6666412Y-10333588D01*
X6733588Y-10333588D01*
X9433588Y-9783588D02*
X9433588Y-9716412D01*
X9366412Y-9716412D01*
X9366412Y-9783588D01*
X9433588Y-9783588D01*
X9433588Y-10533588D02*
X9433588Y-10466412D01*
X9366412Y-10466412D01*
X9366412Y-10533588D01*
X9433588Y-10533588D01*
X9683588Y-9783588D02*
X9683588Y-9716412D01*
X9616412Y-9716412D01*
X9616412Y-9783588D01*
X9683588Y-9783588D01*
X9683588Y-10533588D02*
X9683588Y-10466412D01*
X9616412Y-10466412D01*
X9616412Y-10533588D01*
X9683588Y-10533588D01*
X9933588Y-9783588D02*
X9933588Y-9716412D01*
X9866412Y-9716412D01*
X9866412Y-9783588D01*
X9933588Y-9783588D01*
X9933588Y-10533588D02*
X9933588Y-10466412D01*
X9866412Y-10466412D01*
X9866412Y-10533588D01*
X9933588Y-10533588D01*
X10183588Y-9783588D02*
X10183588Y-9716412D01*
X10116412Y-9716412D01*
X10116412Y-9783588D01*
X10183588Y-9783588D01*
X10183588Y-10533588D02*
X10183588Y-10466412D01*
X10116412Y-10466412D01*
X10116412Y-10533588D01*
X10183588Y-10533588D01*
X10933588Y-9383588D02*
X10933588Y-9316412D01*
X10866412Y-9316412D01*
X10866412Y-9383588D01*
X10933588Y-9383588D01*
X10933588Y-9633588D02*
X10933588Y-9566412D01*
X10866412Y-9566412D01*
X10866412Y-9633588D01*
X10933588Y-9633588D01*
X10933588Y-9883588D02*
X10933588Y-9816412D01*
X10866412Y-9816412D01*
X10866412Y-9883588D01*
X10933588Y-9883588D01*
X10933588Y-10533588D02*
X10933588Y-10466412D01*
X10866412Y-10466412D01*
X10866412Y-10533588D01*
X10933588Y-10533588D01*
X10933588Y-10783588D02*
X10933588Y-10716412D01*
X10866412Y-10716412D01*
X10866412Y-10783588D01*
X10933588Y-10783588D01*
X10933588Y-11033588D02*
X10933588Y-10966412D01*
X10866412Y-10966412D01*
X10866412Y-11033588D01*
X10933588Y-11033588D01*
X7975000Y-7375000D02*
X8025000Y-7325000D01*
X7975000Y-7275000D01*
X7925000Y-7325000D01*
X7975000Y-7375000D01*
X7975000Y-7629000D02*
X8025000Y-7579000D01*
X7975000Y-7529000D01*
X7925000Y-7579000D01*
X7975000Y-7629000D01*
X7975000Y-7883000D02*
X8025000Y-7833000D01*
X7975000Y-7783000D01*
X7925000Y-7833000D01*
X7975000Y-7883000D01*
X7975000Y-9700000D02*
X8025000Y-9650000D01*
X7975000Y-9600000D01*
X7925000Y-9650000D01*
X7975000Y-9700000D01*
X7975000Y-9954000D02*
X8025000Y-9904000D01*
X7975000Y-9854000D01*
X7925000Y-9904000D01*
X7975000Y-9954000D01*
X7975000Y-10208000D02*
X8025000Y-10158000D01*
X7975000Y-10108000D01*
X7925000Y-10158000D01*
X7975000Y-10208000D01*
X8229000Y-7375000D02*
X8279000Y-7325000D01*
X8229000Y-7275000D01*
X8179000Y-7325000D01*
X8229000Y-7375000D01*
X8229000Y-7629000D02*
X8279000Y-7579000D01*
X8229000Y-7529000D01*
X8179000Y-7579000D01*
X8229000Y-7629000D01*
X8229000Y-7883000D02*
X8279000Y-7833000D01*
X8229000Y-7783000D01*
X8179000Y-7833000D01*
X8229000Y-7883000D01*
X8229000Y-9700000D02*
X8279000Y-9650000D01*
X8229000Y-9600000D01*
X8179000Y-9650000D01*
X8229000Y-9700000D01*
X8229000Y-9954000D02*
X8279000Y-9904000D01*
X8229000Y-9854000D01*
X8179000Y-9904000D01*
X8229000Y-9954000D01*
X8229000Y-10208000D02*
X8279000Y-10158000D01*
X8229000Y-10108000D01*
X8179000Y-10158000D01*
X8229000Y-10208000D01*
X11050000Y-7250000D02*
X11100000Y-7200000D01*
X11050000Y-7150000D01*
X11000000Y-7200000D01*
X11050000Y-7250000D01*
X11050000Y-7504000D02*
X11100000Y-7454000D01*
X11050000Y-7404000D01*
X11000000Y-7454000D01*
X11050000Y-7504000D01*
X11050000Y-7758000D02*
X11100000Y-7708000D01*
X11050000Y-7658000D01*
X11000000Y-7708000D01*
X11050000Y-7758000D01*
X6585000Y-6135000D02*
X6715000Y-6265000D01*
X6715000Y-6135000D02*
X6585000Y-6265000D01*
X6715000Y-6200000D02*
G75*
G03*
X6715000Y-6200000I-65000J0D01*
G01*
X6585000Y-6635000D02*
X6715000Y-6765000D01*
X6715000Y-6635000D02*
X6585000Y-6765000D01*
X6715000Y-6700000D02*
G75*
G03*
X6715000Y-6700000I-65000J0D01*
G01*
D12*
X5683928Y-12068214D02*
X5683928Y-11768214D01*
X5755357Y-11768214D01*
X5798214Y-11782500D01*
X5826786Y-11811071D01*
X5841071Y-11839643D01*
X5855357Y-11896786D01*
X5855357Y-11939643D01*
X5841071Y-11996786D01*
X5826786Y-12025357D01*
X5798214Y-12053929D01*
X5755357Y-12068214D01*
X5683928Y-12068214D01*
X5983928Y-12068214D02*
X5983928Y-11868214D01*
X5983928Y-11925357D02*
X5998214Y-11896786D01*
X6012500Y-11882500D01*
X6041071Y-11868214D01*
X6069643Y-11868214D01*
X6169643Y-12068214D02*
X6169643Y-11868214D01*
X6169643Y-11768214D02*
X6155357Y-11782500D01*
X6169643Y-11796786D01*
X6183928Y-11782500D01*
X6169643Y-11768214D01*
X6169643Y-11796786D01*
X6355357Y-12068214D02*
X6326786Y-12053929D01*
X6312500Y-12025357D01*
X6312500Y-11768214D01*
X6512500Y-12068214D02*
X6483928Y-12053929D01*
X6469643Y-12025357D01*
X6469643Y-11768214D01*
X6855357Y-12068214D02*
X6855357Y-11768214D01*
X6955357Y-11982500D01*
X7055357Y-11768214D01*
X7055357Y-12068214D01*
X7326786Y-12068214D02*
X7326786Y-11911071D01*
X7312500Y-11882500D01*
X7283928Y-11868214D01*
X7226786Y-11868214D01*
X7198214Y-11882500D01*
X7326786Y-12053929D02*
X7298214Y-12068214D01*
X7226786Y-12068214D01*
X7198214Y-12053929D01*
X7183928Y-12025357D01*
X7183928Y-11996786D01*
X7198214Y-11968214D01*
X7226786Y-11953929D01*
X7298214Y-11953929D01*
X7326786Y-11939643D01*
X7469643Y-11868214D02*
X7469643Y-12168214D01*
X7469643Y-11882500D02*
X7498214Y-11868214D01*
X7555357Y-11868214D01*
X7583928Y-11882500D01*
X7598214Y-11896786D01*
X7612500Y-11925357D01*
X7612500Y-12011071D01*
X7598214Y-12039643D01*
X7583928Y-12053929D01*
X7555357Y-12068214D01*
X7498214Y-12068214D01*
X7469643Y-12053929D01*
X7741071Y-12039643D02*
X7755357Y-12053929D01*
X7741071Y-12068214D01*
X7726786Y-12053929D01*
X7741071Y-12039643D01*
X7741071Y-12068214D01*
X7741071Y-11882500D02*
X7755357Y-11896786D01*
X7741071Y-11911071D01*
X7726786Y-11896786D01*
X7741071Y-11882500D01*
X7741071Y-11911071D01*
X5367500Y-12547500D02*
X5397500Y-12577500D01*
X5397500Y-12547500D02*
X5367500Y-12577500D01*
X5741071Y-12398214D02*
X5769643Y-12398214D01*
X5798214Y-12412500D01*
X5812500Y-12426786D01*
X5826786Y-12455357D01*
X5841071Y-12512500D01*
X5841071Y-12583929D01*
X5826786Y-12641071D01*
X5812500Y-12669643D01*
X5798214Y-12683929D01*
X5769643Y-12698214D01*
X5741071Y-12698214D01*
X5712500Y-12683929D01*
X5698214Y-12669643D01*
X5683928Y-12641071D01*
X5669643Y-12583929D01*
X5669643Y-12512500D01*
X5683928Y-12455357D01*
X5698214Y-12426786D01*
X5712500Y-12412500D01*
X5741071Y-12398214D01*
X5969643Y-12669643D02*
X5983928Y-12683929D01*
X5969643Y-12698214D01*
X5955357Y-12683929D01*
X5969643Y-12669643D01*
X5969643Y-12698214D01*
X6083928Y-12398214D02*
X6269643Y-12398214D01*
X6169643Y-12512500D01*
X6212500Y-12512500D01*
X6241071Y-12526786D01*
X6255357Y-12541071D01*
X6269643Y-12569643D01*
X6269643Y-12641071D01*
X6255357Y-12669643D01*
X6241071Y-12683929D01*
X6212500Y-12698214D01*
X6126786Y-12698214D01*
X6098214Y-12683929D01*
X6083928Y-12669643D01*
X6455357Y-12398214D02*
X6483928Y-12398214D01*
X6512500Y-12412500D01*
X6526786Y-12426786D01*
X6541071Y-12455357D01*
X6555357Y-12512500D01*
X6555357Y-12583929D01*
X6541071Y-12641071D01*
X6526786Y-12669643D01*
X6512500Y-12683929D01*
X6483928Y-12698214D01*
X6455357Y-12698214D01*
X6426786Y-12683929D01*
X6412500Y-12669643D01*
X6398214Y-12641071D01*
X6383928Y-12583929D01*
X6383928Y-12512500D01*
X6398214Y-12455357D01*
X6412500Y-12426786D01*
X6426786Y-12412500D01*
X6455357Y-12398214D01*
X6683928Y-12698214D02*
X6683928Y-12498214D01*
X6683928Y-12526786D02*
X6698214Y-12512500D01*
X6726786Y-12498214D01*
X6769643Y-12498214D01*
X6798214Y-12512500D01*
X6812500Y-12541071D01*
X6812500Y-12698214D01*
X6812500Y-12541071D02*
X6826786Y-12512500D01*
X6855357Y-12498214D01*
X6898214Y-12498214D01*
X6926786Y-12512500D01*
X6941071Y-12541071D01*
X6941071Y-12698214D01*
X7083928Y-12698214D02*
X7083928Y-12498214D01*
X7083928Y-12526786D02*
X7098214Y-12512500D01*
X7126786Y-12498214D01*
X7169643Y-12498214D01*
X7198214Y-12512500D01*
X7212500Y-12541071D01*
X7212500Y-12698214D01*
X7212500Y-12541071D02*
X7226786Y-12512500D01*
X7255357Y-12498214D01*
X7298214Y-12498214D01*
X7326786Y-12512500D01*
X7341071Y-12541071D01*
X7341071Y-12698214D01*
X7926786Y-12383929D02*
X7669643Y-12769643D01*
X8312500Y-12398214D02*
X8341071Y-12398214D01*
X8369643Y-12412500D01*
X8383928Y-12426786D01*
X8398214Y-12455357D01*
X8412500Y-12512500D01*
X8412500Y-12583929D01*
X8398214Y-12641071D01*
X8383928Y-12669643D01*
X8369643Y-12683929D01*
X8341071Y-12698214D01*
X8312500Y-12698214D01*
X8283928Y-12683929D01*
X8269643Y-12669643D01*
X8255357Y-12641071D01*
X8241071Y-12583929D01*
X8241071Y-12512500D01*
X8255357Y-12455357D01*
X8269643Y-12426786D01*
X8283928Y-12412500D01*
X8312500Y-12398214D01*
X8541071Y-12669643D02*
X8555357Y-12683929D01*
X8541071Y-12698214D01*
X8526786Y-12683929D01*
X8541071Y-12669643D01*
X8541071Y-12698214D01*
X8741071Y-12398214D02*
X8769643Y-12398214D01*
X8798214Y-12412500D01*
X8812500Y-12426786D01*
X8826786Y-12455357D01*
X8841071Y-12512500D01*
X8841071Y-12583929D01*
X8826786Y-12641071D01*
X8812500Y-12669643D01*
X8798214Y-12683929D01*
X8769643Y-12698214D01*
X8741071Y-12698214D01*
X8712500Y-12683929D01*
X8698214Y-12669643D01*
X8683928Y-12641071D01*
X8669643Y-12583929D01*
X8669643Y-12512500D01*
X8683928Y-12455357D01*
X8698214Y-12426786D01*
X8712500Y-12412500D01*
X8741071Y-12398214D01*
X9126786Y-12698214D02*
X8955357Y-12698214D01*
X9041071Y-12698214D02*
X9041071Y-12398214D01*
X9012500Y-12441071D01*
X8983928Y-12469643D01*
X8955357Y-12483929D01*
X9241071Y-12426786D02*
X9255357Y-12412500D01*
X9283928Y-12398214D01*
X9355357Y-12398214D01*
X9383928Y-12412500D01*
X9398214Y-12426786D01*
X9412500Y-12455357D01*
X9412500Y-12483929D01*
X9398214Y-12526786D01*
X9226786Y-12698214D01*
X9412500Y-12698214D01*
X9526786Y-12398214D02*
X9526786Y-12455357D01*
X9641071Y-12398214D02*
X9641071Y-12455357D01*
X10083928Y-12812500D02*
X10069643Y-12798214D01*
X10041071Y-12755357D01*
X10026786Y-12726786D01*
X10012500Y-12683929D01*
X9998214Y-12612500D01*
X9998214Y-12555357D01*
X10012500Y-12483929D01*
X10026786Y-12441071D01*
X10041071Y-12412500D01*
X10069643Y-12369643D01*
X10083928Y-12355357D01*
X10355357Y-12698214D02*
X10183928Y-12698214D01*
X10269643Y-12698214D02*
X10269643Y-12398214D01*
X10241071Y-12441071D01*
X10212500Y-12469643D01*
X10183928Y-12483929D01*
X10469643Y-12426786D02*
X10483928Y-12412500D01*
X10512500Y-12398214D01*
X10583928Y-12398214D01*
X10612500Y-12412500D01*
X10626786Y-12426786D01*
X10641071Y-12455357D01*
X10641071Y-12483929D01*
X10626786Y-12526786D01*
X10455357Y-12698214D01*
X10641071Y-12698214D01*
X10998214Y-12698214D02*
X10998214Y-12398214D01*
X11126786Y-12698214D02*
X11126786Y-12541071D01*
X11112500Y-12512500D01*
X11083928Y-12498214D01*
X11041071Y-12498214D01*
X11012500Y-12512500D01*
X10998214Y-12526786D01*
X11312500Y-12698214D02*
X11283928Y-12683929D01*
X11269643Y-12669643D01*
X11255357Y-12641071D01*
X11255357Y-12555357D01*
X11269643Y-12526786D01*
X11283928Y-12512500D01*
X11312500Y-12498214D01*
X11355357Y-12498214D01*
X11383928Y-12512500D01*
X11398214Y-12526786D01*
X11412500Y-12555357D01*
X11412500Y-12641071D01*
X11398214Y-12669643D01*
X11383928Y-12683929D01*
X11355357Y-12698214D01*
X11312500Y-12698214D01*
X11583928Y-12698214D02*
X11555357Y-12683929D01*
X11541071Y-12655357D01*
X11541071Y-12398214D01*
X11812500Y-12683929D02*
X11783928Y-12698214D01*
X11726786Y-12698214D01*
X11698214Y-12683929D01*
X11683928Y-12655357D01*
X11683928Y-12541071D01*
X11698214Y-12512500D01*
X11726786Y-12498214D01*
X11783928Y-12498214D01*
X11812500Y-12512500D01*
X11826786Y-12541071D01*
X11826786Y-12569643D01*
X11683928Y-12598214D01*
X11941071Y-12683929D02*
X11969643Y-12698214D01*
X12026786Y-12698214D01*
X12055357Y-12683929D01*
X12069643Y-12655357D01*
X12069643Y-12641071D01*
X12055357Y-12612500D01*
X12026786Y-12598214D01*
X11983928Y-12598214D01*
X11955357Y-12583929D01*
X11941071Y-12555357D01*
X11941071Y-12541071D01*
X11955357Y-12512500D01*
X11983928Y-12498214D01*
X12026786Y-12498214D01*
X12055357Y-12512500D01*
X12169643Y-12812500D02*
X12183928Y-12798214D01*
X12212500Y-12755357D01*
X12226786Y-12726786D01*
X12241071Y-12683929D01*
X12255357Y-12612500D01*
X12255357Y-12555357D01*
X12241071Y-12483929D01*
X12226786Y-12441071D01*
X12212500Y-12412500D01*
X12183928Y-12369643D01*
X12169643Y-12355357D01*
X5397500Y-12958500D02*
G75*
G03*
X5397500Y-12958500I-15240J0D01*
G01*
X5741071Y-12794214D02*
X5769643Y-12794214D01*
X5798214Y-12808500D01*
X5812500Y-12822786D01*
X5826786Y-12851357D01*
X5841071Y-12908500D01*
X5841071Y-12979929D01*
X5826786Y-13037071D01*
X5812500Y-13065643D01*
X5798214Y-13079929D01*
X5769643Y-13094214D01*
X5741071Y-13094214D01*
X5712500Y-13079929D01*
X5698214Y-13065643D01*
X5683928Y-13037071D01*
X5669643Y-12979929D01*
X5669643Y-12908500D01*
X5683928Y-12851357D01*
X5698214Y-12822786D01*
X5712500Y-12808500D01*
X5741071Y-12794214D01*
X5969643Y-13065643D02*
X5983928Y-13079929D01*
X5969643Y-13094214D01*
X5955357Y-13079929D01*
X5969643Y-13065643D01*
X5969643Y-13094214D01*
X6083928Y-12794214D02*
X6269643Y-12794214D01*
X6169643Y-12908500D01*
X6212500Y-12908500D01*
X6241071Y-12922786D01*
X6255357Y-12937071D01*
X6269643Y-12965643D01*
X6269643Y-13037071D01*
X6255357Y-13065643D01*
X6241071Y-13079929D01*
X6212500Y-13094214D01*
X6126786Y-13094214D01*
X6098214Y-13079929D01*
X6083928Y-13065643D01*
X6455357Y-12794214D02*
X6483928Y-12794214D01*
X6512500Y-12808500D01*
X6526786Y-12822786D01*
X6541071Y-12851357D01*
X6555357Y-12908500D01*
X6555357Y-12979929D01*
X6541071Y-13037071D01*
X6526786Y-13065643D01*
X6512500Y-13079929D01*
X6483928Y-13094214D01*
X6455357Y-13094214D01*
X6426786Y-13079929D01*
X6412500Y-13065643D01*
X6398214Y-13037071D01*
X6383928Y-12979929D01*
X6383928Y-12908500D01*
X6398214Y-12851357D01*
X6412500Y-12822786D01*
X6426786Y-12808500D01*
X6455357Y-12794214D01*
X6683928Y-13094214D02*
X6683928Y-12894214D01*
X6683928Y-12922786D02*
X6698214Y-12908500D01*
X6726786Y-12894214D01*
X6769643Y-12894214D01*
X6798214Y-12908500D01*
X6812500Y-12937071D01*
X6812500Y-13094214D01*
X6812500Y-12937071D02*
X6826786Y-12908500D01*
X6855357Y-12894214D01*
X6898214Y-12894214D01*
X6926786Y-12908500D01*
X6941071Y-12937071D01*
X6941071Y-13094214D01*
X7083928Y-13094214D02*
X7083928Y-12894214D01*
X7083928Y-12922786D02*
X7098214Y-12908500D01*
X7126786Y-12894214D01*
X7169643Y-12894214D01*
X7198214Y-12908500D01*
X7212500Y-12937071D01*
X7212500Y-13094214D01*
X7212500Y-12937071D02*
X7226786Y-12908500D01*
X7255357Y-12894214D01*
X7298214Y-12894214D01*
X7326786Y-12908500D01*
X7341071Y-12937071D01*
X7341071Y-13094214D01*
X7926786Y-12779929D02*
X7669643Y-13165643D01*
X8312500Y-12794214D02*
X8341071Y-12794214D01*
X8369643Y-12808500D01*
X8383928Y-12822786D01*
X8398214Y-12851357D01*
X8412500Y-12908500D01*
X8412500Y-12979929D01*
X8398214Y-13037071D01*
X8383928Y-13065643D01*
X8369643Y-13079929D01*
X8341071Y-13094214D01*
X8312500Y-13094214D01*
X8283928Y-13079929D01*
X8269643Y-13065643D01*
X8255357Y-13037071D01*
X8241071Y-12979929D01*
X8241071Y-12908500D01*
X8255357Y-12851357D01*
X8269643Y-12822786D01*
X8283928Y-12808500D01*
X8312500Y-12794214D01*
X8541071Y-13065643D02*
X8555357Y-13079929D01*
X8541071Y-13094214D01*
X8526786Y-13079929D01*
X8541071Y-13065643D01*
X8541071Y-13094214D01*
X8741071Y-12794214D02*
X8769643Y-12794214D01*
X8798214Y-12808500D01*
X8812500Y-12822786D01*
X8826786Y-12851357D01*
X8841071Y-12908500D01*
X8841071Y-12979929D01*
X8826786Y-13037071D01*
X8812500Y-13065643D01*
X8798214Y-13079929D01*
X8769643Y-13094214D01*
X8741071Y-13094214D01*
X8712500Y-13079929D01*
X8698214Y-13065643D01*
X8683928Y-13037071D01*
X8669643Y-12979929D01*
X8669643Y-12908500D01*
X8683928Y-12851357D01*
X8698214Y-12822786D01*
X8712500Y-12808500D01*
X8741071Y-12794214D01*
X9126786Y-13094214D02*
X8955357Y-13094214D01*
X9041071Y-13094214D02*
X9041071Y-12794214D01*
X9012500Y-12837071D01*
X8983928Y-12865643D01*
X8955357Y-12879929D01*
X9241071Y-12822786D02*
X9255357Y-12808500D01*
X9283928Y-12794214D01*
X9355357Y-12794214D01*
X9383928Y-12808500D01*
X9398214Y-12822786D01*
X9412500Y-12851357D01*
X9412500Y-12879929D01*
X9398214Y-12922786D01*
X9226786Y-13094214D01*
X9412500Y-13094214D01*
X9526786Y-12794214D02*
X9526786Y-12851357D01*
X9641071Y-12794214D02*
X9641071Y-12851357D01*
X10083928Y-13208500D02*
X10069643Y-13194214D01*
X10041071Y-13151357D01*
X10026786Y-13122786D01*
X10012500Y-13079929D01*
X9998214Y-13008500D01*
X9998214Y-12951357D01*
X10012500Y-12879929D01*
X10026786Y-12837071D01*
X10041071Y-12808500D01*
X10069643Y-12765643D01*
X10083928Y-12751357D01*
X10169643Y-12794214D02*
X10355357Y-12794214D01*
X10255357Y-12908500D01*
X10298214Y-12908500D01*
X10326786Y-12922786D01*
X10341071Y-12937071D01*
X10355357Y-12965643D01*
X10355357Y-13037071D01*
X10341071Y-13065643D01*
X10326786Y-13079929D01*
X10298214Y-13094214D01*
X10212500Y-13094214D01*
X10183928Y-13079929D01*
X10169643Y-13065643D01*
X10712500Y-13094214D02*
X10712500Y-12794214D01*
X10841071Y-13094214D02*
X10841071Y-12937071D01*
X10826786Y-12908500D01*
X10798214Y-12894214D01*
X10755357Y-12894214D01*
X10726786Y-12908500D01*
X10712500Y-12922786D01*
X11026786Y-13094214D02*
X10998214Y-13079929D01*
X10983928Y-13065643D01*
X10969643Y-13037071D01*
X10969643Y-12951357D01*
X10983928Y-12922786D01*
X10998214Y-12908500D01*
X11026786Y-12894214D01*
X11069643Y-12894214D01*
X11098214Y-12908500D01*
X11112500Y-12922786D01*
X11126786Y-12951357D01*
X11126786Y-13037071D01*
X11112500Y-13065643D01*
X11098214Y-13079929D01*
X11069643Y-13094214D01*
X11026786Y-13094214D01*
X11298214Y-13094214D02*
X11269643Y-13079929D01*
X11255357Y-13051357D01*
X11255357Y-12794214D01*
X11526786Y-13079929D02*
X11498214Y-13094214D01*
X11441071Y-13094214D01*
X11412500Y-13079929D01*
X11398214Y-13051357D01*
X11398214Y-12937071D01*
X11412500Y-12908500D01*
X11441071Y-12894214D01*
X11498214Y-12894214D01*
X11526786Y-12908500D01*
X11541071Y-12937071D01*
X11541071Y-12965643D01*
X11398214Y-12994214D01*
X11655357Y-13079929D02*
X11683928Y-13094214D01*
X11741071Y-13094214D01*
X11769643Y-13079929D01*
X11783928Y-13051357D01*
X11783928Y-13037071D01*
X11769643Y-13008500D01*
X11741071Y-12994214D01*
X11698214Y-12994214D01*
X11669643Y-12979929D01*
X11655357Y-12951357D01*
X11655357Y-12937071D01*
X11669643Y-12908500D01*
X11698214Y-12894214D01*
X11741071Y-12894214D01*
X11769643Y-12908500D01*
X11883928Y-13208500D02*
X11898214Y-13194214D01*
X11926786Y-13151357D01*
X11941071Y-13122786D01*
X11955357Y-13079929D01*
X11969643Y-13008500D01*
X11969643Y-12951357D01*
X11955357Y-12879929D01*
X11941071Y-12837071D01*
X11926786Y-12808500D01*
X11898214Y-12765643D01*
X11883928Y-12751357D01*
X5357500Y-13314500D02*
X5357500Y-13394500D01*
X5317500Y-13354500D02*
X5397500Y-13354500D01*
X5741071Y-13190214D02*
X5769643Y-13190214D01*
X5798214Y-13204500D01*
X5812500Y-13218786D01*
X5826786Y-13247357D01*
X5841071Y-13304500D01*
X5841071Y-13375929D01*
X5826786Y-13433071D01*
X5812500Y-13461643D01*
X5798214Y-13475929D01*
X5769643Y-13490214D01*
X5741071Y-13490214D01*
X5712500Y-13475929D01*
X5698214Y-13461643D01*
X5683928Y-13433071D01*
X5669643Y-13375929D01*
X5669643Y-13304500D01*
X5683928Y-13247357D01*
X5698214Y-13218786D01*
X5712500Y-13204500D01*
X5741071Y-13190214D01*
X5969643Y-13461643D02*
X5983928Y-13475929D01*
X5969643Y-13490214D01*
X5955357Y-13475929D01*
X5969643Y-13461643D01*
X5969643Y-13490214D01*
X6155357Y-13318786D02*
X6126786Y-13304500D01*
X6112500Y-13290214D01*
X6098214Y-13261643D01*
X6098214Y-13247357D01*
X6112500Y-13218786D01*
X6126786Y-13204500D01*
X6155357Y-13190214D01*
X6212500Y-13190214D01*
X6241071Y-13204500D01*
X6255357Y-13218786D01*
X6269643Y-13247357D01*
X6269643Y-13261643D01*
X6255357Y-13290214D01*
X6241071Y-13304500D01*
X6212500Y-13318786D01*
X6155357Y-13318786D01*
X6126786Y-13333071D01*
X6112500Y-13347357D01*
X6098214Y-13375929D01*
X6098214Y-13433071D01*
X6112500Y-13461643D01*
X6126786Y-13475929D01*
X6155357Y-13490214D01*
X6212500Y-13490214D01*
X6241071Y-13475929D01*
X6255357Y-13461643D01*
X6269643Y-13433071D01*
X6269643Y-13375929D01*
X6255357Y-13347357D01*
X6241071Y-13333071D01*
X6212500Y-13318786D01*
X6455357Y-13190214D02*
X6483928Y-13190214D01*
X6512500Y-13204500D01*
X6526786Y-13218786D01*
X6541071Y-13247357D01*
X6555357Y-13304500D01*
X6555357Y-13375929D01*
X6541071Y-13433071D01*
X6526786Y-13461643D01*
X6512500Y-13475929D01*
X6483928Y-13490214D01*
X6455357Y-13490214D01*
X6426786Y-13475929D01*
X6412500Y-13461643D01*
X6398214Y-13433071D01*
X6383928Y-13375929D01*
X6383928Y-13304500D01*
X6398214Y-13247357D01*
X6412500Y-13218786D01*
X6426786Y-13204500D01*
X6455357Y-13190214D01*
X6683928Y-13490214D02*
X6683928Y-13290214D01*
X6683928Y-13318786D02*
X6698214Y-13304500D01*
X6726786Y-13290214D01*
X6769643Y-13290214D01*
X6798214Y-13304500D01*
X6812500Y-13333071D01*
X6812500Y-13490214D01*
X6812500Y-13333071D02*
X6826786Y-13304500D01*
X6855357Y-13290214D01*
X6898214Y-13290214D01*
X6926786Y-13304500D01*
X6941071Y-13333071D01*
X6941071Y-13490214D01*
X7083928Y-13490214D02*
X7083928Y-13290214D01*
X7083928Y-13318786D02*
X7098214Y-13304500D01*
X7126786Y-13290214D01*
X7169643Y-13290214D01*
X7198214Y-13304500D01*
X7212500Y-13333071D01*
X7212500Y-13490214D01*
X7212500Y-13333071D02*
X7226786Y-13304500D01*
X7255357Y-13290214D01*
X7298214Y-13290214D01*
X7326786Y-13304500D01*
X7341071Y-13333071D01*
X7341071Y-13490214D01*
X7926786Y-13175929D02*
X7669643Y-13561643D01*
X8312500Y-13190214D02*
X8341071Y-13190214D01*
X8369643Y-13204500D01*
X8383928Y-13218786D01*
X8398214Y-13247357D01*
X8412500Y-13304500D01*
X8412500Y-13375929D01*
X8398214Y-13433071D01*
X8383928Y-13461643D01*
X8369643Y-13475929D01*
X8341071Y-13490214D01*
X8312500Y-13490214D01*
X8283928Y-13475929D01*
X8269643Y-13461643D01*
X8255357Y-13433071D01*
X8241071Y-13375929D01*
X8241071Y-13304500D01*
X8255357Y-13247357D01*
X8269643Y-13218786D01*
X8283928Y-13204500D01*
X8312500Y-13190214D01*
X8541071Y-13461643D02*
X8555357Y-13475929D01*
X8541071Y-13490214D01*
X8526786Y-13475929D01*
X8541071Y-13461643D01*
X8541071Y-13490214D01*
X8741071Y-13190214D02*
X8769643Y-13190214D01*
X8798214Y-13204500D01*
X8812500Y-13218786D01*
X8826786Y-13247357D01*
X8841071Y-13304500D01*
X8841071Y-13375929D01*
X8826786Y-13433071D01*
X8812500Y-13461643D01*
X8798214Y-13475929D01*
X8769643Y-13490214D01*
X8741071Y-13490214D01*
X8712500Y-13475929D01*
X8698214Y-13461643D01*
X8683928Y-13433071D01*
X8669643Y-13375929D01*
X8669643Y-13304500D01*
X8683928Y-13247357D01*
X8698214Y-13218786D01*
X8712500Y-13204500D01*
X8741071Y-13190214D01*
X8941071Y-13190214D02*
X9126786Y-13190214D01*
X9026786Y-13304500D01*
X9069643Y-13304500D01*
X9098214Y-13318786D01*
X9112500Y-13333071D01*
X9126786Y-13361643D01*
X9126786Y-13433071D01*
X9112500Y-13461643D01*
X9098214Y-13475929D01*
X9069643Y-13490214D01*
X8983928Y-13490214D01*
X8955357Y-13475929D01*
X8941071Y-13461643D01*
X9412500Y-13490214D02*
X9241071Y-13490214D01*
X9326786Y-13490214D02*
X9326786Y-13190214D01*
X9298214Y-13233071D01*
X9269643Y-13261643D01*
X9241071Y-13275929D01*
X9526786Y-13190214D02*
X9526786Y-13247357D01*
X9641071Y-13190214D02*
X9641071Y-13247357D01*
X10083928Y-13604500D02*
X10069643Y-13590214D01*
X10041071Y-13547357D01*
X10026786Y-13518786D01*
X10012500Y-13475929D01*
X9998214Y-13404500D01*
X9998214Y-13347357D01*
X10012500Y-13275929D01*
X10026786Y-13233071D01*
X10041071Y-13204500D01*
X10069643Y-13161643D01*
X10083928Y-13147357D01*
X10169643Y-13190214D02*
X10355357Y-13190214D01*
X10255357Y-13304500D01*
X10298214Y-13304500D01*
X10326786Y-13318786D01*
X10341071Y-13333071D01*
X10355357Y-13361643D01*
X10355357Y-13433071D01*
X10341071Y-13461643D01*
X10326786Y-13475929D01*
X10298214Y-13490214D01*
X10212500Y-13490214D01*
X10183928Y-13475929D01*
X10169643Y-13461643D01*
X10469643Y-13218786D02*
X10483928Y-13204500D01*
X10512500Y-13190214D01*
X10583928Y-13190214D01*
X10612500Y-13204500D01*
X10626786Y-13218786D01*
X10641071Y-13247357D01*
X10641071Y-13275929D01*
X10626786Y-13318786D01*
X10455357Y-13490214D01*
X10641071Y-13490214D01*
X10998214Y-13490214D02*
X10998214Y-13190214D01*
X11126786Y-13490214D02*
X11126786Y-13333071D01*
X11112500Y-13304500D01*
X11083928Y-13290214D01*
X11041071Y-13290214D01*
X11012500Y-13304500D01*
X10998214Y-13318786D01*
X11312500Y-13490214D02*
X11283928Y-13475929D01*
X11269643Y-13461643D01*
X11255357Y-13433071D01*
X11255357Y-13347357D01*
X11269643Y-13318786D01*
X11283928Y-13304500D01*
X11312500Y-13290214D01*
X11355357Y-13290214D01*
X11383928Y-13304500D01*
X11398214Y-13318786D01*
X11412500Y-13347357D01*
X11412500Y-13433071D01*
X11398214Y-13461643D01*
X11383928Y-13475929D01*
X11355357Y-13490214D01*
X11312500Y-13490214D01*
X11583928Y-13490214D02*
X11555357Y-13475929D01*
X11541071Y-13447357D01*
X11541071Y-13190214D01*
X11812500Y-13475929D02*
X11783928Y-13490214D01*
X11726786Y-13490214D01*
X11698214Y-13475929D01*
X11683928Y-13447357D01*
X11683928Y-13333071D01*
X11698214Y-13304500D01*
X11726786Y-13290214D01*
X11783928Y-13290214D01*
X11812500Y-13304500D01*
X11826786Y-13333071D01*
X11826786Y-13361643D01*
X11683928Y-13390214D01*
X11941071Y-13475929D02*
X11969643Y-13490214D01*
X12026786Y-13490214D01*
X12055357Y-13475929D01*
X12069643Y-13447357D01*
X12069643Y-13433071D01*
X12055357Y-13404500D01*
X12026786Y-13390214D01*
X11983928Y-13390214D01*
X11955357Y-13375929D01*
X11941071Y-13347357D01*
X11941071Y-13333071D01*
X11955357Y-13304500D01*
X11983928Y-13290214D01*
X12026786Y-13290214D01*
X12055357Y-13304500D01*
X12169643Y-13604500D02*
X12183928Y-13590214D01*
X12212500Y-13547357D01*
X12226786Y-13518786D01*
X12241071Y-13475929D01*
X12255357Y-13404500D01*
X12255357Y-13347357D01*
X12241071Y-13275929D01*
X12226786Y-13233071D01*
X12212500Y-13204500D01*
X12183928Y-13161643D01*
X12169643Y-13147357D01*
X5383588Y-13784088D02*
X5383588Y-13716912D01*
X5316412Y-13716912D01*
X5316412Y-13784088D01*
X5383588Y-13784088D01*
X5741071Y-13586214D02*
X5769643Y-13586214D01*
X5798214Y-13600500D01*
X5812500Y-13614786D01*
X5826786Y-13643357D01*
X5841071Y-13700500D01*
X5841071Y-13771929D01*
X5826786Y-13829071D01*
X5812500Y-13857643D01*
X5798214Y-13871929D01*
X5769643Y-13886214D01*
X5741071Y-13886214D01*
X5712500Y-13871929D01*
X5698214Y-13857643D01*
X5683928Y-13829071D01*
X5669643Y-13771929D01*
X5669643Y-13700500D01*
X5683928Y-13643357D01*
X5698214Y-13614786D01*
X5712500Y-13600500D01*
X5741071Y-13586214D01*
X5969643Y-13857643D02*
X5983928Y-13871929D01*
X5969643Y-13886214D01*
X5955357Y-13871929D01*
X5969643Y-13857643D01*
X5969643Y-13886214D01*
X6126786Y-13886214D02*
X6183928Y-13886214D01*
X6212500Y-13871929D01*
X6226786Y-13857643D01*
X6255357Y-13814786D01*
X6269643Y-13757643D01*
X6269643Y-13643357D01*
X6255357Y-13614786D01*
X6241071Y-13600500D01*
X6212500Y-13586214D01*
X6155357Y-13586214D01*
X6126786Y-13600500D01*
X6112500Y-13614786D01*
X6098214Y-13643357D01*
X6098214Y-13714786D01*
X6112500Y-13743357D01*
X6126786Y-13757643D01*
X6155357Y-13771929D01*
X6212500Y-13771929D01*
X6241071Y-13757643D01*
X6255357Y-13743357D01*
X6269643Y-13714786D01*
X6541071Y-13586214D02*
X6398214Y-13586214D01*
X6383928Y-13729071D01*
X6398214Y-13714786D01*
X6426786Y-13700500D01*
X6498214Y-13700500D01*
X6526786Y-13714786D01*
X6541071Y-13729071D01*
X6555357Y-13757643D01*
X6555357Y-13829071D01*
X6541071Y-13857643D01*
X6526786Y-13871929D01*
X6498214Y-13886214D01*
X6426786Y-13886214D01*
X6398214Y-13871929D01*
X6383928Y-13857643D01*
X6683928Y-13886214D02*
X6683928Y-13686214D01*
X6683928Y-13714786D02*
X6698214Y-13700500D01*
X6726786Y-13686214D01*
X6769643Y-13686214D01*
X6798214Y-13700500D01*
X6812500Y-13729071D01*
X6812500Y-13886214D01*
X6812500Y-13729071D02*
X6826786Y-13700500D01*
X6855357Y-13686214D01*
X6898214Y-13686214D01*
X6926786Y-13700500D01*
X6941071Y-13729071D01*
X6941071Y-13886214D01*
X7083928Y-13886214D02*
X7083928Y-13686214D01*
X7083928Y-13714786D02*
X7098214Y-13700500D01*
X7126786Y-13686214D01*
X7169643Y-13686214D01*
X7198214Y-13700500D01*
X7212500Y-13729071D01*
X7212500Y-13886214D01*
X7212500Y-13729071D02*
X7226786Y-13700500D01*
X7255357Y-13686214D01*
X7298214Y-13686214D01*
X7326786Y-13700500D01*
X7341071Y-13729071D01*
X7341071Y-13886214D01*
X7926786Y-13571929D02*
X7669643Y-13957643D01*
X8312500Y-13586214D02*
X8341071Y-13586214D01*
X8369643Y-13600500D01*
X8383928Y-13614786D01*
X8398214Y-13643357D01*
X8412500Y-13700500D01*
X8412500Y-13771929D01*
X8398214Y-13829071D01*
X8383928Y-13857643D01*
X8369643Y-13871929D01*
X8341071Y-13886214D01*
X8312500Y-13886214D01*
X8283928Y-13871929D01*
X8269643Y-13857643D01*
X8255357Y-13829071D01*
X8241071Y-13771929D01*
X8241071Y-13700500D01*
X8255357Y-13643357D01*
X8269643Y-13614786D01*
X8283928Y-13600500D01*
X8312500Y-13586214D01*
X8541071Y-13857643D02*
X8555357Y-13871929D01*
X8541071Y-13886214D01*
X8526786Y-13871929D01*
X8541071Y-13857643D01*
X8541071Y-13886214D01*
X8741071Y-13586214D02*
X8769643Y-13586214D01*
X8798214Y-13600500D01*
X8812500Y-13614786D01*
X8826786Y-13643357D01*
X8841071Y-13700500D01*
X8841071Y-13771929D01*
X8826786Y-13829071D01*
X8812500Y-13857643D01*
X8798214Y-13871929D01*
X8769643Y-13886214D01*
X8741071Y-13886214D01*
X8712500Y-13871929D01*
X8698214Y-13857643D01*
X8683928Y-13829071D01*
X8669643Y-13771929D01*
X8669643Y-13700500D01*
X8683928Y-13643357D01*
X8698214Y-13614786D01*
X8712500Y-13600500D01*
X8741071Y-13586214D01*
X8941071Y-13586214D02*
X9126786Y-13586214D01*
X9026786Y-13700500D01*
X9069643Y-13700500D01*
X9098214Y-13714786D01*
X9112500Y-13729071D01*
X9126786Y-13757643D01*
X9126786Y-13829071D01*
X9112500Y-13857643D01*
X9098214Y-13871929D01*
X9069643Y-13886214D01*
X8983928Y-13886214D01*
X8955357Y-13871929D01*
X8941071Y-13857643D01*
X9226786Y-13586214D02*
X9426786Y-13586214D01*
X9298214Y-13886214D01*
X9526786Y-13586214D02*
X9526786Y-13643357D01*
X9641071Y-13586214D02*
X9641071Y-13643357D01*
X10083928Y-14000500D02*
X10069643Y-13986214D01*
X10041071Y-13943357D01*
X10026786Y-13914786D01*
X10012500Y-13871929D01*
X9998214Y-13800500D01*
X9998214Y-13743357D01*
X10012500Y-13671929D01*
X10026786Y-13629071D01*
X10041071Y-13600500D01*
X10069643Y-13557643D01*
X10083928Y-13543357D01*
X10169643Y-13586214D02*
X10355357Y-13586214D01*
X10255357Y-13700500D01*
X10298214Y-13700500D01*
X10326786Y-13714786D01*
X10341071Y-13729071D01*
X10355357Y-13757643D01*
X10355357Y-13829071D01*
X10341071Y-13857643D01*
X10326786Y-13871929D01*
X10298214Y-13886214D01*
X10212500Y-13886214D01*
X10183928Y-13871929D01*
X10169643Y-13857643D01*
X10541071Y-13586214D02*
X10569643Y-13586214D01*
X10598214Y-13600500D01*
X10612500Y-13614786D01*
X10626786Y-13643357D01*
X10641071Y-13700500D01*
X10641071Y-13771929D01*
X10626786Y-13829071D01*
X10612500Y-13857643D01*
X10598214Y-13871929D01*
X10569643Y-13886214D01*
X10541071Y-13886214D01*
X10512500Y-13871929D01*
X10498214Y-13857643D01*
X10483928Y-13829071D01*
X10469643Y-13771929D01*
X10469643Y-13700500D01*
X10483928Y-13643357D01*
X10498214Y-13614786D01*
X10512500Y-13600500D01*
X10541071Y-13586214D01*
X10998214Y-13886214D02*
X10998214Y-13586214D01*
X11126786Y-13886214D02*
X11126786Y-13729071D01*
X11112500Y-13700500D01*
X11083928Y-13686214D01*
X11041071Y-13686214D01*
X11012500Y-13700500D01*
X10998214Y-13714786D01*
X11312500Y-13886214D02*
X11283928Y-13871929D01*
X11269643Y-13857643D01*
X11255357Y-13829071D01*
X11255357Y-13743357D01*
X11269643Y-13714786D01*
X11283928Y-13700500D01*
X11312500Y-13686214D01*
X11355357Y-13686214D01*
X11383928Y-13700500D01*
X11398214Y-13714786D01*
X11412500Y-13743357D01*
X11412500Y-13829071D01*
X11398214Y-13857643D01*
X11383928Y-13871929D01*
X11355357Y-13886214D01*
X11312500Y-13886214D01*
X11583928Y-13886214D02*
X11555357Y-13871929D01*
X11541071Y-13843357D01*
X11541071Y-13586214D01*
X11812500Y-13871929D02*
X11783928Y-13886214D01*
X11726786Y-13886214D01*
X11698214Y-13871929D01*
X11683928Y-13843357D01*
X11683928Y-13729071D01*
X11698214Y-13700500D01*
X11726786Y-13686214D01*
X11783928Y-13686214D01*
X11812500Y-13700500D01*
X11826786Y-13729071D01*
X11826786Y-13757643D01*
X11683928Y-13786214D01*
X11941071Y-13871929D02*
X11969643Y-13886214D01*
X12026786Y-13886214D01*
X12055357Y-13871929D01*
X12069643Y-13843357D01*
X12069643Y-13829071D01*
X12055357Y-13800500D01*
X12026786Y-13786214D01*
X11983928Y-13786214D01*
X11955357Y-13771929D01*
X11941071Y-13743357D01*
X11941071Y-13729071D01*
X11955357Y-13700500D01*
X11983928Y-13686214D01*
X12026786Y-13686214D01*
X12055357Y-13700500D01*
X12169643Y-14000500D02*
X12183928Y-13986214D01*
X12212500Y-13943357D01*
X12226786Y-13914786D01*
X12241071Y-13871929D01*
X12255357Y-13800500D01*
X12255357Y-13743357D01*
X12241071Y-13671929D01*
X12226786Y-13629071D01*
X12212500Y-13600500D01*
X12183928Y-13557643D01*
X12169643Y-13543357D01*
X5347500Y-14196500D02*
X5397500Y-14146500D01*
X5347500Y-14096500D01*
X5297500Y-14146500D01*
X5347500Y-14196500D01*
X5841071Y-14282214D02*
X5669643Y-14282214D01*
X5755357Y-14282214D02*
X5755357Y-13982214D01*
X5726786Y-14025071D01*
X5698214Y-14053643D01*
X5669643Y-14067929D01*
X5969643Y-14253643D02*
X5983928Y-14267929D01*
X5969643Y-14282214D01*
X5955357Y-14267929D01*
X5969643Y-14253643D01*
X5969643Y-14282214D01*
X6169643Y-13982214D02*
X6198214Y-13982214D01*
X6226786Y-13996500D01*
X6241071Y-14010786D01*
X6255357Y-14039357D01*
X6269643Y-14096500D01*
X6269643Y-14167929D01*
X6255357Y-14225071D01*
X6241071Y-14253643D01*
X6226786Y-14267929D01*
X6198214Y-14282214D01*
X6169643Y-14282214D01*
X6141071Y-14267929D01*
X6126786Y-14253643D01*
X6112500Y-14225071D01*
X6098214Y-14167929D01*
X6098214Y-14096500D01*
X6112500Y-14039357D01*
X6126786Y-14010786D01*
X6141071Y-13996500D01*
X6169643Y-13982214D01*
X6455357Y-13982214D02*
X6483928Y-13982214D01*
X6512500Y-13996500D01*
X6526786Y-14010786D01*
X6541071Y-14039357D01*
X6555357Y-14096500D01*
X6555357Y-14167929D01*
X6541071Y-14225071D01*
X6526786Y-14253643D01*
X6512500Y-14267929D01*
X6483928Y-14282214D01*
X6455357Y-14282214D01*
X6426786Y-14267929D01*
X6412500Y-14253643D01*
X6398214Y-14225071D01*
X6383928Y-14167929D01*
X6383928Y-14096500D01*
X6398214Y-14039357D01*
X6412500Y-14010786D01*
X6426786Y-13996500D01*
X6455357Y-13982214D01*
X6683928Y-14282214D02*
X6683928Y-14082214D01*
X6683928Y-14110786D02*
X6698214Y-14096500D01*
X6726786Y-14082214D01*
X6769643Y-14082214D01*
X6798214Y-14096500D01*
X6812500Y-14125071D01*
X6812500Y-14282214D01*
X6812500Y-14125071D02*
X6826786Y-14096500D01*
X6855357Y-14082214D01*
X6898214Y-14082214D01*
X6926786Y-14096500D01*
X6941071Y-14125071D01*
X6941071Y-14282214D01*
X7083928Y-14282214D02*
X7083928Y-14082214D01*
X7083928Y-14110786D02*
X7098214Y-14096500D01*
X7126786Y-14082214D01*
X7169643Y-14082214D01*
X7198214Y-14096500D01*
X7212500Y-14125071D01*
X7212500Y-14282214D01*
X7212500Y-14125071D02*
X7226786Y-14096500D01*
X7255357Y-14082214D01*
X7298214Y-14082214D01*
X7326786Y-14096500D01*
X7341071Y-14125071D01*
X7341071Y-14282214D01*
X7926786Y-13967929D02*
X7669643Y-14353643D01*
X8312500Y-13982214D02*
X8341071Y-13982214D01*
X8369643Y-13996500D01*
X8383928Y-14010786D01*
X8398214Y-14039357D01*
X8412500Y-14096500D01*
X8412500Y-14167929D01*
X8398214Y-14225071D01*
X8383928Y-14253643D01*
X8369643Y-14267929D01*
X8341071Y-14282214D01*
X8312500Y-14282214D01*
X8283928Y-14267929D01*
X8269643Y-14253643D01*
X8255357Y-14225071D01*
X8241071Y-14167929D01*
X8241071Y-14096500D01*
X8255357Y-14039357D01*
X8269643Y-14010786D01*
X8283928Y-13996500D01*
X8312500Y-13982214D01*
X8541071Y-14253643D02*
X8555357Y-14267929D01*
X8541071Y-14282214D01*
X8526786Y-14267929D01*
X8541071Y-14253643D01*
X8541071Y-14282214D01*
X8741071Y-13982214D02*
X8769643Y-13982214D01*
X8798214Y-13996500D01*
X8812500Y-14010786D01*
X8826786Y-14039357D01*
X8841071Y-14096500D01*
X8841071Y-14167929D01*
X8826786Y-14225071D01*
X8812500Y-14253643D01*
X8798214Y-14267929D01*
X8769643Y-14282214D01*
X8741071Y-14282214D01*
X8712500Y-14267929D01*
X8698214Y-14253643D01*
X8683928Y-14225071D01*
X8669643Y-14167929D01*
X8669643Y-14096500D01*
X8683928Y-14039357D01*
X8698214Y-14010786D01*
X8712500Y-13996500D01*
X8741071Y-13982214D01*
X8941071Y-13982214D02*
X9126786Y-13982214D01*
X9026786Y-14096500D01*
X9069643Y-14096500D01*
X9098214Y-14110786D01*
X9112500Y-14125071D01*
X9126786Y-14153643D01*
X9126786Y-14225071D01*
X9112500Y-14253643D01*
X9098214Y-14267929D01*
X9069643Y-14282214D01*
X8983928Y-14282214D01*
X8955357Y-14267929D01*
X8941071Y-14253643D01*
X9269643Y-14282214D02*
X9326786Y-14282214D01*
X9355357Y-14267929D01*
X9369643Y-14253643D01*
X9398214Y-14210786D01*
X9412500Y-14153643D01*
X9412500Y-14039357D01*
X9398214Y-14010786D01*
X9383928Y-13996500D01*
X9355357Y-13982214D01*
X9298214Y-13982214D01*
X9269643Y-13996500D01*
X9255357Y-14010786D01*
X9241071Y-14039357D01*
X9241071Y-14110786D01*
X9255357Y-14139357D01*
X9269643Y-14153643D01*
X9298214Y-14167929D01*
X9355357Y-14167929D01*
X9383928Y-14153643D01*
X9398214Y-14139357D01*
X9412500Y-14110786D01*
X9526786Y-13982214D02*
X9526786Y-14039357D01*
X9641071Y-13982214D02*
X9641071Y-14039357D01*
X10083928Y-14396500D02*
X10069643Y-14382214D01*
X10041071Y-14339357D01*
X10026786Y-14310786D01*
X10012500Y-14267929D01*
X9998214Y-14196500D01*
X9998214Y-14139357D01*
X10012500Y-14067929D01*
X10026786Y-14025071D01*
X10041071Y-13996500D01*
X10069643Y-13953643D01*
X10083928Y-13939357D01*
X10355357Y-14282214D02*
X10183928Y-14282214D01*
X10269643Y-14282214D02*
X10269643Y-13982214D01*
X10241071Y-14025071D01*
X10212500Y-14053643D01*
X10183928Y-14067929D01*
X10626786Y-13982214D02*
X10483928Y-13982214D01*
X10469643Y-14125071D01*
X10483928Y-14110786D01*
X10512500Y-14096500D01*
X10583928Y-14096500D01*
X10612500Y-14110786D01*
X10626786Y-14125071D01*
X10641071Y-14153643D01*
X10641071Y-14225071D01*
X10626786Y-14253643D01*
X10612500Y-14267929D01*
X10583928Y-14282214D01*
X10512500Y-14282214D01*
X10483928Y-14267929D01*
X10469643Y-14253643D01*
X10998214Y-14282214D02*
X10998214Y-13982214D01*
X11126786Y-14282214D02*
X11126786Y-14125071D01*
X11112500Y-14096500D01*
X11083928Y-14082214D01*
X11041071Y-14082214D01*
X11012500Y-14096500D01*
X10998214Y-14110786D01*
X11312500Y-14282214D02*
X11283928Y-14267929D01*
X11269643Y-14253643D01*
X11255357Y-14225071D01*
X11255357Y-14139357D01*
X11269643Y-14110786D01*
X11283928Y-14096500D01*
X11312500Y-14082214D01*
X11355357Y-14082214D01*
X11383928Y-14096500D01*
X11398214Y-14110786D01*
X11412500Y-14139357D01*
X11412500Y-14225071D01*
X11398214Y-14253643D01*
X11383928Y-14267929D01*
X11355357Y-14282214D01*
X11312500Y-14282214D01*
X11583928Y-14282214D02*
X11555357Y-14267929D01*
X11541071Y-14239357D01*
X11541071Y-13982214D01*
X11812500Y-14267929D02*
X11783928Y-14282214D01*
X11726786Y-14282214D01*
X11698214Y-14267929D01*
X11683928Y-14239357D01*
X11683928Y-14125071D01*
X11698214Y-14096500D01*
X11726786Y-14082214D01*
X11783928Y-14082214D01*
X11812500Y-14096500D01*
X11826786Y-14125071D01*
X11826786Y-14153643D01*
X11683928Y-14182214D01*
X11941071Y-14267929D02*
X11969643Y-14282214D01*
X12026786Y-14282214D01*
X12055357Y-14267929D01*
X12069643Y-14239357D01*
X12069643Y-14225071D01*
X12055357Y-14196500D01*
X12026786Y-14182214D01*
X11983928Y-14182214D01*
X11955357Y-14167929D01*
X11941071Y-14139357D01*
X11941071Y-14125071D01*
X11955357Y-14096500D01*
X11983928Y-14082214D01*
X12026786Y-14082214D01*
X12055357Y-14096500D01*
X12169643Y-14396500D02*
X12183928Y-14382214D01*
X12212500Y-14339357D01*
X12226786Y-14310786D01*
X12241071Y-14267929D01*
X12255357Y-14196500D01*
X12255357Y-14139357D01*
X12241071Y-14067929D01*
X12226786Y-14025071D01*
X12212500Y-13996500D01*
X12183928Y-13953643D01*
X12169643Y-13939357D01*
X5267500Y-14477500D02*
X5397500Y-14607500D01*
X5397500Y-14477500D02*
X5267500Y-14607500D01*
X5397500Y-14542500D02*
G75*
G03*
X5397500Y-14542500I-65000J0D01*
G01*
X5841071Y-14678214D02*
X5669643Y-14678214D01*
X5755357Y-14678214D02*
X5755357Y-14378214D01*
X5726786Y-14421071D01*
X5698214Y-14449643D01*
X5669643Y-14463929D01*
X5969643Y-14649643D02*
X5983928Y-14663929D01*
X5969643Y-14678214D01*
X5955357Y-14663929D01*
X5969643Y-14649643D01*
X5969643Y-14678214D01*
X6083928Y-14378214D02*
X6269643Y-14378214D01*
X6169643Y-14492500D01*
X6212500Y-14492500D01*
X6241071Y-14506786D01*
X6255357Y-14521071D01*
X6269643Y-14549643D01*
X6269643Y-14621071D01*
X6255357Y-14649643D01*
X6241071Y-14663929D01*
X6212500Y-14678214D01*
X6126786Y-14678214D01*
X6098214Y-14663929D01*
X6083928Y-14649643D01*
X6455357Y-14378214D02*
X6483928Y-14378214D01*
X6512500Y-14392500D01*
X6526786Y-14406786D01*
X6541071Y-14435357D01*
X6555357Y-14492500D01*
X6555357Y-14563929D01*
X6541071Y-14621071D01*
X6526786Y-14649643D01*
X6512500Y-14663929D01*
X6483928Y-14678214D01*
X6455357Y-14678214D01*
X6426786Y-14663929D01*
X6412500Y-14649643D01*
X6398214Y-14621071D01*
X6383928Y-14563929D01*
X6383928Y-14492500D01*
X6398214Y-14435357D01*
X6412500Y-14406786D01*
X6426786Y-14392500D01*
X6455357Y-14378214D01*
X6683928Y-14678214D02*
X6683928Y-14478214D01*
X6683928Y-14506786D02*
X6698214Y-14492500D01*
X6726786Y-14478214D01*
X6769643Y-14478214D01*
X6798214Y-14492500D01*
X6812500Y-14521071D01*
X6812500Y-14678214D01*
X6812500Y-14521071D02*
X6826786Y-14492500D01*
X6855357Y-14478214D01*
X6898214Y-14478214D01*
X6926786Y-14492500D01*
X6941071Y-14521071D01*
X6941071Y-14678214D01*
X7083928Y-14678214D02*
X7083928Y-14478214D01*
X7083928Y-14506786D02*
X7098214Y-14492500D01*
X7126786Y-14478214D01*
X7169643Y-14478214D01*
X7198214Y-14492500D01*
X7212500Y-14521071D01*
X7212500Y-14678214D01*
X7212500Y-14521071D02*
X7226786Y-14492500D01*
X7255357Y-14478214D01*
X7298214Y-14478214D01*
X7326786Y-14492500D01*
X7341071Y-14521071D01*
X7341071Y-14678214D01*
X7926786Y-14363929D02*
X7669643Y-14749643D01*
X8312500Y-14378214D02*
X8341071Y-14378214D01*
X8369643Y-14392500D01*
X8383928Y-14406786D01*
X8398214Y-14435357D01*
X8412500Y-14492500D01*
X8412500Y-14563929D01*
X8398214Y-14621071D01*
X8383928Y-14649643D01*
X8369643Y-14663929D01*
X8341071Y-14678214D01*
X8312500Y-14678214D01*
X8283928Y-14663929D01*
X8269643Y-14649643D01*
X8255357Y-14621071D01*
X8241071Y-14563929D01*
X8241071Y-14492500D01*
X8255357Y-14435357D01*
X8269643Y-14406786D01*
X8283928Y-14392500D01*
X8312500Y-14378214D01*
X8541071Y-14649643D02*
X8555357Y-14663929D01*
X8541071Y-14678214D01*
X8526786Y-14663929D01*
X8541071Y-14649643D01*
X8541071Y-14678214D01*
X8741071Y-14378214D02*
X8769643Y-14378214D01*
X8798214Y-14392500D01*
X8812500Y-14406786D01*
X8826786Y-14435357D01*
X8841071Y-14492500D01*
X8841071Y-14563929D01*
X8826786Y-14621071D01*
X8812500Y-14649643D01*
X8798214Y-14663929D01*
X8769643Y-14678214D01*
X8741071Y-14678214D01*
X8712500Y-14663929D01*
X8698214Y-14649643D01*
X8683928Y-14621071D01*
X8669643Y-14563929D01*
X8669643Y-14492500D01*
X8683928Y-14435357D01*
X8698214Y-14406786D01*
X8712500Y-14392500D01*
X8741071Y-14378214D01*
X9112500Y-14378214D02*
X8969643Y-14378214D01*
X8955357Y-14521071D01*
X8969643Y-14506786D01*
X8998214Y-14492500D01*
X9069643Y-14492500D01*
X9098214Y-14506786D01*
X9112500Y-14521071D01*
X9126786Y-14549643D01*
X9126786Y-14621071D01*
X9112500Y-14649643D01*
X9098214Y-14663929D01*
X9069643Y-14678214D01*
X8998214Y-14678214D01*
X8969643Y-14663929D01*
X8955357Y-14649643D01*
X9412500Y-14678214D02*
X9241071Y-14678214D01*
X9326786Y-14678214D02*
X9326786Y-14378214D01*
X9298214Y-14421071D01*
X9269643Y-14449643D01*
X9241071Y-14463929D01*
X9526786Y-14378214D02*
X9526786Y-14435357D01*
X9641071Y-14378214D02*
X9641071Y-14435357D01*
X10083928Y-14792500D02*
X10069643Y-14778214D01*
X10041071Y-14735357D01*
X10026786Y-14706786D01*
X10012500Y-14663929D01*
X9998214Y-14592500D01*
X9998214Y-14535357D01*
X10012500Y-14463929D01*
X10026786Y-14421071D01*
X10041071Y-14392500D01*
X10069643Y-14349643D01*
X10083928Y-14335357D01*
X10183928Y-14406786D02*
X10198214Y-14392500D01*
X10226786Y-14378214D01*
X10298214Y-14378214D01*
X10326786Y-14392500D01*
X10341071Y-14406786D01*
X10355357Y-14435357D01*
X10355357Y-14463929D01*
X10341071Y-14506786D01*
X10169643Y-14678214D01*
X10355357Y-14678214D01*
X10712500Y-14678214D02*
X10712500Y-14378214D01*
X10841071Y-14678214D02*
X10841071Y-14521071D01*
X10826786Y-14492500D01*
X10798214Y-14478214D01*
X10755357Y-14478214D01*
X10726786Y-14492500D01*
X10712500Y-14506786D01*
X11026786Y-14678214D02*
X10998214Y-14663929D01*
X10983928Y-14649643D01*
X10969643Y-14621071D01*
X10969643Y-14535357D01*
X10983928Y-14506786D01*
X10998214Y-14492500D01*
X11026786Y-14478214D01*
X11069643Y-14478214D01*
X11098214Y-14492500D01*
X11112500Y-14506786D01*
X11126786Y-14535357D01*
X11126786Y-14621071D01*
X11112500Y-14649643D01*
X11098214Y-14663929D01*
X11069643Y-14678214D01*
X11026786Y-14678214D01*
X11298214Y-14678214D02*
X11269643Y-14663929D01*
X11255357Y-14635357D01*
X11255357Y-14378214D01*
X11526786Y-14663929D02*
X11498214Y-14678214D01*
X11441071Y-14678214D01*
X11412500Y-14663929D01*
X11398214Y-14635357D01*
X11398214Y-14521071D01*
X11412500Y-14492500D01*
X11441071Y-14478214D01*
X11498214Y-14478214D01*
X11526786Y-14492500D01*
X11541071Y-14521071D01*
X11541071Y-14549643D01*
X11398214Y-14578214D01*
X11655357Y-14663929D02*
X11683928Y-14678214D01*
X11741071Y-14678214D01*
X11769643Y-14663929D01*
X11783928Y-14635357D01*
X11783928Y-14621071D01*
X11769643Y-14592500D01*
X11741071Y-14578214D01*
X11698214Y-14578214D01*
X11669643Y-14563929D01*
X11655357Y-14535357D01*
X11655357Y-14521071D01*
X11669643Y-14492500D01*
X11698214Y-14478214D01*
X11741071Y-14478214D01*
X11769643Y-14492500D01*
X11883928Y-14792500D02*
X11898214Y-14778214D01*
X11926786Y-14735357D01*
X11941071Y-14706786D01*
X11955357Y-14663929D01*
X11969643Y-14592500D01*
X11969643Y-14535357D01*
X11955357Y-14463929D01*
X11941071Y-14421071D01*
X11926786Y-14392500D01*
X11898214Y-14349643D01*
X11883928Y-14335357D01*
M02*
