%TF.GenerationSoftware,KiCad,Pcbnew,6.0.7-f9a2dced07~116~ubuntu20.04.1*%
%TF.CreationDate,2022-08-24T01:16:21-05:00*%
%TF.ProjectId,MuscleRoller,4d757363-6c65-4526-9f6c-6c65722e6b69,rev?*%
%TF.SameCoordinates,Original*%
%TF.FileFunction,Drillmap*%
%TF.FilePolarity,Positive*%
%FSLAX45Y45*%
G04 Gerber Fmt 4.5, Leading zero omitted, Abs format (unit mm)*
G04 Created by KiCad (PCBNEW 6.0.7-f9a2dced07~116~ubuntu20.04.1) date 2022-08-24 01:16:21*
%MOMM*%
%LPD*%
G01*
G04 APERTURE LIST*
%ADD10C,0.050000*%
%ADD11C,0.200000*%
G04 APERTURE END LIST*
D10*
X11425000Y-14650000D02*
G75*
G03*
X11425000Y-14650000I-175000J0D01*
G01*
X17425000Y-14650000D02*
G75*
G03*
X17425000Y-14650000I-175000J0D01*
G01*
X10750000Y-15150000D02*
X17750000Y-15150000D01*
X17750000Y-8150000D02*
X17750000Y-15150000D01*
X17750000Y-8150000D02*
X10750000Y-8150000D01*
X10750000Y-8150000D02*
X10750000Y-15150000D01*
X17425000Y-8650000D02*
G75*
G03*
X17425000Y-8650000I-175000J0D01*
G01*
X11425000Y-8650000D02*
G75*
G03*
X11425000Y-8650000I-175000J0D01*
G01*
D11*
X11005119Y-15462976D02*
X11005119Y-15262976D01*
X11052738Y-15262976D01*
X11081310Y-15272500D01*
X11100357Y-15291548D01*
X11109881Y-15310595D01*
X11119405Y-15348690D01*
X11119405Y-15377262D01*
X11109881Y-15415357D01*
X11100357Y-15434405D01*
X11081310Y-15453452D01*
X11052738Y-15462976D01*
X11005119Y-15462976D01*
X11205119Y-15462976D02*
X11205119Y-15329643D01*
X11205119Y-15367738D02*
X11214643Y-15348690D01*
X11224167Y-15339167D01*
X11243214Y-15329643D01*
X11262262Y-15329643D01*
X11328928Y-15462976D02*
X11328928Y-15329643D01*
X11328928Y-15262976D02*
X11319405Y-15272500D01*
X11328928Y-15282024D01*
X11338452Y-15272500D01*
X11328928Y-15262976D01*
X11328928Y-15282024D01*
X11452738Y-15462976D02*
X11433690Y-15453452D01*
X11424167Y-15434405D01*
X11424167Y-15262976D01*
X11557500Y-15462976D02*
X11538452Y-15453452D01*
X11528928Y-15434405D01*
X11528928Y-15262976D01*
X11786071Y-15462976D02*
X11786071Y-15262976D01*
X11852738Y-15405833D01*
X11919405Y-15262976D01*
X11919405Y-15462976D01*
X12100357Y-15462976D02*
X12100357Y-15358214D01*
X12090833Y-15339167D01*
X12071786Y-15329643D01*
X12033690Y-15329643D01*
X12014643Y-15339167D01*
X12100357Y-15453452D02*
X12081309Y-15462976D01*
X12033690Y-15462976D01*
X12014643Y-15453452D01*
X12005119Y-15434405D01*
X12005119Y-15415357D01*
X12014643Y-15396309D01*
X12033690Y-15386786D01*
X12081309Y-15386786D01*
X12100357Y-15377262D01*
X12195595Y-15329643D02*
X12195595Y-15529643D01*
X12195595Y-15339167D02*
X12214643Y-15329643D01*
X12252738Y-15329643D01*
X12271786Y-15339167D01*
X12281309Y-15348690D01*
X12290833Y-15367738D01*
X12290833Y-15424881D01*
X12281309Y-15443928D01*
X12271786Y-15453452D01*
X12252738Y-15462976D01*
X12214643Y-15462976D01*
X12195595Y-15453452D01*
X12376548Y-15443928D02*
X12386071Y-15453452D01*
X12376548Y-15462976D01*
X12367024Y-15453452D01*
X12376548Y-15443928D01*
X12376548Y-15462976D01*
X12376548Y-15339167D02*
X12386071Y-15348690D01*
X12376548Y-15358214D01*
X12367024Y-15348690D01*
X12376548Y-15339167D01*
X12376548Y-15358214D01*
M02*
