G04 #@! TF.GenerationSoftware,KiCad,Pcbnew,(5.1.9)-1*
G04 #@! TF.CreationDate,2021-11-04T11:44:39-05:00*
G04 #@! TF.ProjectId,MuscleRoller,4d757363-6c65-4526-9f6c-6c65722e6b69,rev?*
G04 #@! TF.SameCoordinates,Original*
G04 #@! TF.FileFunction,Legend,Bot*
G04 #@! TF.FilePolarity,Positive*
%FSLAX46Y46*%
G04 Gerber Fmt 4.6, Leading zero omitted, Abs format (unit mm)*
G04 Created by KiCad (PCBNEW (5.1.9)-1) date 2021-11-04 11:44:39*
%MOMM*%
%LPD*%
G01*
G04 APERTURE LIST*
%ADD10O,1.950000X1.700000*%
%ADD11O,1.700000X1.950000*%
%ADD12O,1.700000X1.700000*%
%ADD13R,1.700000X1.700000*%
%ADD14C,2.600000*%
%ADD15R,2.600000X2.600000*%
%ADD16C,0.600000*%
%ADD17O,1.600000X1.600000*%
%ADD18R,1.600000X1.600000*%
G04 APERTURE END LIST*
%LPC*%
D10*
X109000000Y-98500000D03*
X109000000Y-96000000D03*
G36*
G01*
X108275000Y-92650000D02*
X109725000Y-92650000D01*
G75*
G02*
X109975000Y-92900000I0J-250000D01*
G01*
X109975000Y-94100000D01*
G75*
G02*
X109725000Y-94350000I-250000J0D01*
G01*
X108275000Y-94350000D01*
G75*
G02*
X108025000Y-94100000I0J250000D01*
G01*
X108025000Y-92900000D01*
G75*
G02*
X108275000Y-92650000I250000J0D01*
G01*
G37*
X109000000Y-110000000D03*
X109000000Y-107500000D03*
G36*
G01*
X108275000Y-104150000D02*
X109725000Y-104150000D01*
G75*
G02*
X109975000Y-104400000I0J-250000D01*
G01*
X109975000Y-105600000D01*
G75*
G02*
X109725000Y-105850000I-250000J0D01*
G01*
X108275000Y-105850000D01*
G75*
G02*
X108025000Y-105600000I0J250000D01*
G01*
X108025000Y-104400000D01*
G75*
G02*
X108275000Y-104150000I250000J0D01*
G01*
G37*
X59500000Y-77500000D03*
X59500000Y-80000000D03*
X59500000Y-82500000D03*
G36*
G01*
X60225000Y-85850000D02*
X58775000Y-85850000D01*
G75*
G02*
X58525000Y-85600000I0J250000D01*
G01*
X58525000Y-84400000D01*
G75*
G02*
X58775000Y-84150000I250000J0D01*
G01*
X60225000Y-84150000D01*
G75*
G02*
X60475000Y-84400000I0J-250000D01*
G01*
X60475000Y-85600000D01*
G75*
G02*
X60225000Y-85850000I-250000J0D01*
G01*
G37*
X59500000Y-95500000D03*
X59500000Y-98000000D03*
X59500000Y-100500000D03*
G36*
G01*
X60225000Y-103850000D02*
X58775000Y-103850000D01*
G75*
G02*
X58525000Y-103600000I0J250000D01*
G01*
X58525000Y-102400000D01*
G75*
G02*
X58775000Y-102150000I250000J0D01*
G01*
X60225000Y-102150000D01*
G75*
G02*
X60475000Y-102400000I0J-250000D01*
G01*
X60475000Y-103600000D01*
G75*
G02*
X60225000Y-103850000I-250000J0D01*
G01*
G37*
D11*
X94000000Y-97500000D03*
X96500000Y-97500000D03*
X99000000Y-97500000D03*
G36*
G01*
X102350000Y-96775000D02*
X102350000Y-98225000D01*
G75*
G02*
X102100000Y-98475000I-250000J0D01*
G01*
X100900000Y-98475000D01*
G75*
G02*
X100650000Y-98225000I0J250000D01*
G01*
X100650000Y-96775000D01*
G75*
G02*
X100900000Y-96525000I250000J0D01*
G01*
X102100000Y-96525000D01*
G75*
G02*
X102350000Y-96775000I0J-250000D01*
G01*
G37*
X94000000Y-105000000D03*
X96500000Y-105000000D03*
X99000000Y-105000000D03*
G36*
G01*
X102350000Y-104275000D02*
X102350000Y-105725000D01*
G75*
G02*
X102100000Y-105975000I-250000J0D01*
G01*
X100900000Y-105975000D01*
G75*
G02*
X100650000Y-105725000I0J250000D01*
G01*
X100650000Y-104275000D01*
G75*
G02*
X100900000Y-104025000I250000J0D01*
G01*
X102100000Y-104025000D01*
G75*
G02*
X102350000Y-104275000I0J-250000D01*
G01*
G37*
D12*
X82290000Y-78330000D03*
X79750000Y-78330000D03*
X82290000Y-75790000D03*
X79750000Y-75790000D03*
X82290000Y-73250000D03*
D13*
X79750000Y-73250000D03*
D12*
X82290000Y-101580000D03*
X79750000Y-101580000D03*
X82290000Y-99040000D03*
X79750000Y-99040000D03*
X82290000Y-96500000D03*
D13*
X79750000Y-96500000D03*
D14*
X66500000Y-67000000D03*
D15*
X66500000Y-62000000D03*
D12*
X110500000Y-77080000D03*
X110500000Y-74540000D03*
D13*
X110500000Y-72000000D03*
D16*
X98000000Y-75500000D03*
X98750000Y-74750000D03*
X98750000Y-73250000D03*
X95750000Y-73250000D03*
X95750000Y-74750000D03*
X96500000Y-75500000D03*
X97300000Y-74750000D03*
X96500000Y-74000000D03*
X97300000Y-73250000D03*
X98000000Y-74000000D03*
X98000000Y-72500000D03*
X96500000Y-72500000D03*
D10*
X67000000Y-77500000D03*
X67000000Y-80000000D03*
X67000000Y-82500000D03*
G36*
G01*
X67725000Y-85850000D02*
X66275000Y-85850000D01*
G75*
G02*
X66025000Y-85600000I0J250000D01*
G01*
X66025000Y-84400000D01*
G75*
G02*
X66275000Y-84150000I250000J0D01*
G01*
X67725000Y-84150000D01*
G75*
G02*
X67975000Y-84400000I0J-250000D01*
G01*
X67975000Y-85600000D01*
G75*
G02*
X67725000Y-85850000I-250000J0D01*
G01*
G37*
X67000000Y-95500000D03*
X67000000Y-98000000D03*
X67000000Y-100500000D03*
G36*
G01*
X67725000Y-103850000D02*
X66275000Y-103850000D01*
G75*
G02*
X66025000Y-103600000I0J250000D01*
G01*
X66025000Y-102400000D01*
G75*
G02*
X66275000Y-102150000I250000J0D01*
G01*
X67725000Y-102150000D01*
G75*
G02*
X67975000Y-102400000I0J-250000D01*
G01*
X67975000Y-103600000D01*
G75*
G02*
X67725000Y-103850000I-250000J0D01*
G01*
G37*
D17*
X86200000Y-72000000D03*
X73500000Y-89780000D03*
X86200000Y-74540000D03*
X73500000Y-87240000D03*
X86200000Y-77080000D03*
X73500000Y-84700000D03*
X86200000Y-79620000D03*
X73500000Y-82160000D03*
X86200000Y-82160000D03*
X73500000Y-79620000D03*
X86200000Y-84700000D03*
X73500000Y-77080000D03*
X86200000Y-87240000D03*
X73500000Y-74540000D03*
X86200000Y-89780000D03*
D18*
X73500000Y-72000000D03*
D17*
X86200000Y-95220000D03*
X73500000Y-113000000D03*
X86200000Y-97760000D03*
X73500000Y-110460000D03*
X86200000Y-100300000D03*
X73500000Y-107920000D03*
X86200000Y-102840000D03*
X73500000Y-105380000D03*
X86200000Y-105380000D03*
X73500000Y-102840000D03*
X86200000Y-107920000D03*
X73500000Y-100300000D03*
X86200000Y-110460000D03*
X73500000Y-97760000D03*
X86200000Y-113000000D03*
D18*
X73500000Y-95220000D03*
M02*
