G04 #@! TF.GenerationSoftware,KiCad,Pcbnew,(5.1.10)-1*
G04 #@! TF.CreationDate,2022-07-24T00:59:47-05:00*
G04 #@! TF.ProjectId,MuscleRoller,4d757363-6c65-4526-9f6c-6c65722e6b69,rev?*
G04 #@! TF.SameCoordinates,Original*
G04 #@! TF.FileFunction,Copper,L2,Bot*
G04 #@! TF.FilePolarity,Positive*
%FSLAX46Y46*%
G04 Gerber Fmt 4.6, Leading zero omitted, Abs format (unit mm)*
G04 Created by KiCad (PCBNEW (5.1.10)-1) date 2022-07-24 00:59:47*
%MOMM*%
%LPD*%
G01*
G04 APERTURE LIST*
G04 #@! TA.AperFunction,ComponentPad*
%ADD10O,1.700000X1.950000*%
G04 #@! TD*
G04 #@! TA.AperFunction,ComponentPad*
%ADD11C,2.600000*%
G04 #@! TD*
G04 #@! TA.AperFunction,ComponentPad*
%ADD12R,2.600000X2.600000*%
G04 #@! TD*
G04 #@! TA.AperFunction,ComponentPad*
%ADD13O,1.950000X1.700000*%
G04 #@! TD*
G04 #@! TA.AperFunction,ComponentPad*
%ADD14O,1.700000X1.700000*%
G04 #@! TD*
G04 #@! TA.AperFunction,ComponentPad*
%ADD15R,1.700000X1.700000*%
G04 #@! TD*
G04 #@! TA.AperFunction,ComponentPad*
%ADD16O,1.600000X1.600000*%
G04 #@! TD*
G04 #@! TA.AperFunction,ComponentPad*
%ADD17R,1.600000X1.600000*%
G04 #@! TD*
G04 #@! TA.AperFunction,ViaPad*
%ADD18C,0.609600*%
G04 #@! TD*
G04 #@! TA.AperFunction,Conductor*
%ADD19C,0.254000*%
G04 #@! TD*
G04 #@! TA.AperFunction,Conductor*
%ADD20C,0.762000*%
G04 #@! TD*
G04 #@! TA.AperFunction,Conductor*
%ADD21C,0.100000*%
G04 #@! TD*
G04 APERTURE END LIST*
D10*
X169500000Y-114500000D03*
X167000000Y-114500000D03*
G04 #@! TA.AperFunction,ComponentPad*
G36*
G01*
X163650000Y-115225000D02*
X163650000Y-113775000D01*
G75*
G02*
X163900000Y-113525000I250000J0D01*
G01*
X165100000Y-113525000D01*
G75*
G02*
X165350000Y-113775000I0J-250000D01*
G01*
X165350000Y-115225000D01*
G75*
G02*
X165100000Y-115475000I-250000J0D01*
G01*
X163900000Y-115475000D01*
G75*
G02*
X163650000Y-115225000I0J250000D01*
G01*
G37*
G04 #@! TD.AperFunction*
X169500000Y-107000000D03*
X167000000Y-107000000D03*
G04 #@! TA.AperFunction,ComponentPad*
G36*
G01*
X163650000Y-107725000D02*
X163650000Y-106275000D01*
G75*
G02*
X163900000Y-106025000I250000J0D01*
G01*
X165100000Y-106025000D01*
G75*
G02*
X165350000Y-106275000I0J-250000D01*
G01*
X165350000Y-107725000D01*
G75*
G02*
X165100000Y-107975000I-250000J0D01*
G01*
X163900000Y-107975000D01*
G75*
G02*
X163650000Y-107725000I0J250000D01*
G01*
G37*
G04 #@! TD.AperFunction*
D11*
X114000000Y-103124000D03*
D12*
X114000000Y-108124000D03*
D13*
X111500000Y-128500000D03*
X111500000Y-131000000D03*
X111500000Y-133500000D03*
G04 #@! TA.AperFunction,ComponentPad*
G36*
G01*
X112225000Y-136850000D02*
X110775000Y-136850000D01*
G75*
G02*
X110525000Y-136600000I0J250000D01*
G01*
X110525000Y-135400000D01*
G75*
G02*
X110775000Y-135150000I250000J0D01*
G01*
X112225000Y-135150000D01*
G75*
G02*
X112475000Y-135400000I0J-250000D01*
G01*
X112475000Y-136600000D01*
G75*
G02*
X112225000Y-136850000I-250000J0D01*
G01*
G37*
G04 #@! TD.AperFunction*
X111500000Y-114000000D03*
X111500000Y-116500000D03*
X111500000Y-119000000D03*
G04 #@! TA.AperFunction,ComponentPad*
G36*
G01*
X112225000Y-122350000D02*
X110775000Y-122350000D01*
G75*
G02*
X110525000Y-122100000I0J250000D01*
G01*
X110525000Y-120900000D01*
G75*
G02*
X110775000Y-120650000I250000J0D01*
G01*
X112225000Y-120650000D01*
G75*
G02*
X112475000Y-120900000I0J-250000D01*
G01*
X112475000Y-122100000D01*
G75*
G02*
X112225000Y-122350000I-250000J0D01*
G01*
G37*
G04 #@! TD.AperFunction*
D14*
X162500000Y-94420000D03*
X162500000Y-96960000D03*
D15*
X162500000Y-99500000D03*
D10*
X151500000Y-129000000D03*
X149000000Y-129000000D03*
X146500000Y-129000000D03*
G04 #@! TA.AperFunction,ComponentPad*
G36*
G01*
X143150000Y-129725000D02*
X143150000Y-128275000D01*
G75*
G02*
X143400000Y-128025000I250000J0D01*
G01*
X144600000Y-128025000D01*
G75*
G02*
X144850000Y-128275000I0J-250000D01*
G01*
X144850000Y-129725000D01*
G75*
G02*
X144600000Y-129975000I-250000J0D01*
G01*
X143400000Y-129975000D01*
G75*
G02*
X143150000Y-129725000I0J250000D01*
G01*
G37*
G04 #@! TD.AperFunction*
X151500000Y-122000000D03*
X149000000Y-122000000D03*
X146500000Y-122000000D03*
G04 #@! TA.AperFunction,ComponentPad*
G36*
G01*
X143150000Y-122725000D02*
X143150000Y-121275000D01*
G75*
G02*
X143400000Y-121025000I250000J0D01*
G01*
X144600000Y-121025000D01*
G75*
G02*
X144850000Y-121275000I0J-250000D01*
G01*
X144850000Y-122725000D01*
G75*
G02*
X144600000Y-122975000I-250000J0D01*
G01*
X143400000Y-122975000D01*
G75*
G02*
X143150000Y-122725000I0J250000D01*
G01*
G37*
G04 #@! TD.AperFunction*
D11*
X114000000Y-92964000D03*
D12*
X114000000Y-97964000D03*
D10*
X171500000Y-129000000D03*
X169000000Y-129000000D03*
X166500000Y-129000000D03*
X164000000Y-129000000D03*
X161500000Y-129000000D03*
G04 #@! TA.AperFunction,ComponentPad*
G36*
G01*
X158150000Y-129725000D02*
X158150000Y-128275000D01*
G75*
G02*
X158400000Y-128025000I250000J0D01*
G01*
X159600000Y-128025000D01*
G75*
G02*
X159850000Y-128275000I0J-250000D01*
G01*
X159850000Y-129725000D01*
G75*
G02*
X159600000Y-129975000I-250000J0D01*
G01*
X158400000Y-129975000D01*
G75*
G02*
X158150000Y-129725000I0J250000D01*
G01*
G37*
G04 #@! TD.AperFunction*
X171500000Y-122000000D03*
X169000000Y-122000000D03*
X166500000Y-122000000D03*
X164000000Y-122000000D03*
X161500000Y-122000000D03*
G04 #@! TA.AperFunction,ComponentPad*
G36*
G01*
X158150000Y-122725000D02*
X158150000Y-121275000D01*
G75*
G02*
X158400000Y-121025000I250000J0D01*
G01*
X159600000Y-121025000D01*
G75*
G02*
X159850000Y-121275000I0J-250000D01*
G01*
X159850000Y-122725000D01*
G75*
G02*
X159600000Y-122975000I-250000J0D01*
G01*
X158400000Y-122975000D01*
G75*
G02*
X158150000Y-122725000I0J250000D01*
G01*
G37*
G04 #@! TD.AperFunction*
D16*
X135700000Y-125000000D03*
X123000000Y-142780000D03*
X135700000Y-127540000D03*
X123000000Y-140240000D03*
X135700000Y-130080000D03*
X123000000Y-137700000D03*
X135700000Y-132620000D03*
X123000000Y-135160000D03*
X135700000Y-135160000D03*
X123000000Y-132620000D03*
X135700000Y-137700000D03*
X123000000Y-130080000D03*
X135700000Y-140240000D03*
X123000000Y-127540000D03*
X135700000Y-142780000D03*
D17*
X123000000Y-125000000D03*
D16*
X135700000Y-103720000D03*
X123000000Y-121500000D03*
X135700000Y-106260000D03*
X123000000Y-118960000D03*
X135700000Y-108800000D03*
X123000000Y-116420000D03*
X135700000Y-111340000D03*
X123000000Y-113880000D03*
X135700000Y-113880000D03*
X123000000Y-111340000D03*
X135700000Y-116420000D03*
X123000000Y-108800000D03*
X135700000Y-118960000D03*
X123000000Y-106260000D03*
X135700000Y-121500000D03*
D17*
X123000000Y-103720000D03*
D18*
X126619000Y-97663000D03*
X144018000Y-113919000D03*
X135636000Y-94361000D03*
X131699000Y-92202000D03*
X121412000Y-90805000D03*
X120269000Y-93599000D03*
X165862000Y-101473000D03*
X158623000Y-113284000D03*
X159639000Y-95885000D03*
X159639000Y-97155000D03*
X153924000Y-110871000D03*
D19*
X133477000Y-92202000D02*
X131699000Y-92202000D01*
X135636000Y-94361000D02*
X133477000Y-92202000D01*
X120269000Y-91948000D02*
X120269000Y-93599000D01*
X121412000Y-90805000D02*
X120269000Y-91948000D01*
X158623000Y-108712000D02*
X158623000Y-113284000D01*
X165862000Y-101473000D02*
X158623000Y-108712000D01*
X159639000Y-95885000D02*
X149987000Y-105537000D01*
X137517000Y-105537000D02*
X135700000Y-103720000D01*
X149987000Y-105537000D02*
X137517000Y-105537000D01*
X150534000Y-106260000D02*
X159639000Y-97155000D01*
X135700000Y-106260000D02*
X150534000Y-106260000D01*
D20*
X116580000Y-116420000D02*
X111500000Y-121500000D01*
X123000000Y-116420000D02*
X116580000Y-116420000D01*
X116620000Y-113880000D02*
X111500000Y-119000000D01*
X123000000Y-113880000D02*
X116620000Y-113880000D01*
X116660000Y-111340000D02*
X111500000Y-116500000D01*
X123000000Y-111340000D02*
X116660000Y-111340000D01*
X116700000Y-108800000D02*
X111500000Y-114000000D01*
X123000000Y-108800000D02*
X116700000Y-108800000D01*
X113200000Y-137700000D02*
X111500000Y-136000000D01*
X123000000Y-137700000D02*
X113200000Y-137700000D01*
X113160000Y-135160000D02*
X111500000Y-133500000D01*
X123000000Y-135160000D02*
X113160000Y-135160000D01*
X113120000Y-132620000D02*
X111500000Y-131000000D01*
X123000000Y-132620000D02*
X113120000Y-132620000D01*
X113080000Y-130080000D02*
X111500000Y-128500000D01*
X123000000Y-130080000D02*
X113080000Y-130080000D01*
D19*
X138709000Y-110871000D02*
X135700000Y-113880000D01*
X153924000Y-110871000D02*
X138709000Y-110871000D01*
X136754001Y-141725999D02*
X135700000Y-142780000D01*
X136754001Y-122554001D02*
X136754001Y-141725999D01*
X135700000Y-121500000D02*
X136754001Y-122554001D01*
X177094001Y-151094000D02*
X107906000Y-151094000D01*
X107906000Y-146286715D01*
X110334478Y-146286715D01*
X110334478Y-146713285D01*
X110417698Y-147131659D01*
X110580939Y-147525759D01*
X110817929Y-147880440D01*
X111119560Y-148182071D01*
X111474241Y-148419061D01*
X111868341Y-148582302D01*
X112286715Y-148665522D01*
X112713285Y-148665522D01*
X113131659Y-148582302D01*
X113525759Y-148419061D01*
X113880440Y-148182071D01*
X114182071Y-147880440D01*
X114419061Y-147525759D01*
X114582302Y-147131659D01*
X114665522Y-146713285D01*
X114665522Y-146286715D01*
X170334478Y-146286715D01*
X170334478Y-146713285D01*
X170417698Y-147131659D01*
X170580939Y-147525759D01*
X170817929Y-147880440D01*
X171119560Y-148182071D01*
X171474241Y-148419061D01*
X171868341Y-148582302D01*
X172286715Y-148665522D01*
X172713285Y-148665522D01*
X173131659Y-148582302D01*
X173525759Y-148419061D01*
X173880440Y-148182071D01*
X174182071Y-147880440D01*
X174419061Y-147525759D01*
X174582302Y-147131659D01*
X174665522Y-146713285D01*
X174665522Y-146286715D01*
X174582302Y-145868341D01*
X174419061Y-145474241D01*
X174182071Y-145119560D01*
X173880440Y-144817929D01*
X173525759Y-144580939D01*
X173131659Y-144417698D01*
X172713285Y-144334478D01*
X172286715Y-144334478D01*
X171868341Y-144417698D01*
X171474241Y-144580939D01*
X171119560Y-144817929D01*
X170817929Y-145119560D01*
X170580939Y-145474241D01*
X170417698Y-145868341D01*
X170334478Y-146286715D01*
X114665522Y-146286715D01*
X114582302Y-145868341D01*
X114419061Y-145474241D01*
X114182071Y-145119560D01*
X113880440Y-144817929D01*
X113525759Y-144580939D01*
X113131659Y-144417698D01*
X112713285Y-144334478D01*
X112286715Y-144334478D01*
X111868341Y-144417698D01*
X111474241Y-144580939D01*
X111119560Y-144817929D01*
X110817929Y-145119560D01*
X110580939Y-145474241D01*
X110417698Y-145868341D01*
X110334478Y-146286715D01*
X107906000Y-146286715D01*
X107906000Y-140589039D01*
X121608096Y-140589039D01*
X121648754Y-140723087D01*
X121768963Y-140977420D01*
X121936481Y-141203414D01*
X122144869Y-141392385D01*
X122386119Y-141537070D01*
X122650960Y-141631909D01*
X122872998Y-141510625D01*
X122872998Y-141601125D01*
X122655515Y-141644386D01*
X122440587Y-141733412D01*
X122247157Y-141862658D01*
X122082658Y-142027157D01*
X121953412Y-142220587D01*
X121864386Y-142435515D01*
X121819000Y-142663682D01*
X121819000Y-142896318D01*
X121864386Y-143124485D01*
X121953412Y-143339413D01*
X122082658Y-143532843D01*
X122247157Y-143697342D01*
X122440587Y-143826588D01*
X122655515Y-143915614D01*
X122883682Y-143961000D01*
X123116318Y-143961000D01*
X123344485Y-143915614D01*
X123559413Y-143826588D01*
X123752843Y-143697342D01*
X123917342Y-143532843D01*
X124046588Y-143339413D01*
X124135614Y-143124485D01*
X124181000Y-142896318D01*
X124181000Y-142663682D01*
X124135614Y-142435515D01*
X124046588Y-142220587D01*
X123917342Y-142027157D01*
X123752843Y-141862658D01*
X123559413Y-141733412D01*
X123344485Y-141644386D01*
X123127002Y-141601125D01*
X123127002Y-141510625D01*
X123349040Y-141631909D01*
X123613881Y-141537070D01*
X123855131Y-141392385D01*
X124063519Y-141203414D01*
X124231037Y-140977420D01*
X124351246Y-140723087D01*
X124391904Y-140589039D01*
X124269915Y-140367000D01*
X123127000Y-140367000D01*
X123127000Y-140387000D01*
X122873000Y-140387000D01*
X122873000Y-140367000D01*
X121730085Y-140367000D01*
X121608096Y-140589039D01*
X107906000Y-140589039D01*
X107906000Y-128500000D01*
X110138044Y-128500000D01*
X110161812Y-128741318D01*
X110232202Y-128973363D01*
X110346509Y-129187216D01*
X110500340Y-129374660D01*
X110687784Y-129528491D01*
X110901637Y-129642798D01*
X111133682Y-129713188D01*
X111314528Y-129731000D01*
X111653370Y-129731000D01*
X111692014Y-129769644D01*
X111685472Y-129769000D01*
X111314528Y-129769000D01*
X111133682Y-129786812D01*
X110901637Y-129857202D01*
X110687784Y-129971509D01*
X110500340Y-130125340D01*
X110346509Y-130312784D01*
X110232202Y-130526637D01*
X110161812Y-130758682D01*
X110138044Y-131000000D01*
X110161812Y-131241318D01*
X110232202Y-131473363D01*
X110346509Y-131687216D01*
X110500340Y-131874660D01*
X110687784Y-132028491D01*
X110901637Y-132142798D01*
X111133682Y-132213188D01*
X111314528Y-132231000D01*
X111653370Y-132231000D01*
X111692014Y-132269644D01*
X111685472Y-132269000D01*
X111314528Y-132269000D01*
X111133682Y-132286812D01*
X110901637Y-132357202D01*
X110687784Y-132471509D01*
X110500340Y-132625340D01*
X110346509Y-132812784D01*
X110232202Y-133026637D01*
X110161812Y-133258682D01*
X110138044Y-133500000D01*
X110161812Y-133741318D01*
X110232202Y-133973363D01*
X110346509Y-134187216D01*
X110500340Y-134374660D01*
X110687784Y-134528491D01*
X110901637Y-134642798D01*
X111133682Y-134713188D01*
X111314528Y-134731000D01*
X111653370Y-134731000D01*
X111689527Y-134767157D01*
X110775000Y-134767157D01*
X110651538Y-134779317D01*
X110532821Y-134815329D01*
X110423411Y-134873810D01*
X110327512Y-134952512D01*
X110248810Y-135048411D01*
X110190329Y-135157821D01*
X110154317Y-135276538D01*
X110142157Y-135400000D01*
X110142157Y-136600000D01*
X110154317Y-136723462D01*
X110190329Y-136842179D01*
X110248810Y-136951589D01*
X110327512Y-137047488D01*
X110423411Y-137126190D01*
X110532821Y-137184671D01*
X110651538Y-137220683D01*
X110775000Y-137232843D01*
X111655213Y-137232843D01*
X112634721Y-138212352D01*
X112658578Y-138241422D01*
X112774608Y-138336645D01*
X112906985Y-138407402D01*
X113050622Y-138450974D01*
X113162574Y-138462000D01*
X113162576Y-138462000D01*
X113199999Y-138465686D01*
X113237422Y-138462000D01*
X122091815Y-138462000D01*
X122247157Y-138617342D01*
X122440587Y-138746588D01*
X122655515Y-138835614D01*
X122872998Y-138878875D01*
X122872998Y-138969375D01*
X122650960Y-138848091D01*
X122386119Y-138942930D01*
X122144869Y-139087615D01*
X121936481Y-139276586D01*
X121768963Y-139502580D01*
X121648754Y-139756913D01*
X121608096Y-139890961D01*
X121730085Y-140113000D01*
X122873000Y-140113000D01*
X122873000Y-140093000D01*
X123127000Y-140093000D01*
X123127000Y-140113000D01*
X124269915Y-140113000D01*
X124391904Y-139890961D01*
X124351246Y-139756913D01*
X124231037Y-139502580D01*
X124063519Y-139276586D01*
X123855131Y-139087615D01*
X123613881Y-138942930D01*
X123349040Y-138848091D01*
X123127002Y-138969375D01*
X123127002Y-138878875D01*
X123344485Y-138835614D01*
X123559413Y-138746588D01*
X123752843Y-138617342D01*
X123917342Y-138452843D01*
X124046588Y-138259413D01*
X124135614Y-138044485D01*
X124181000Y-137816318D01*
X124181000Y-137583682D01*
X124135614Y-137355515D01*
X124046588Y-137140587D01*
X123917342Y-136947157D01*
X123752843Y-136782658D01*
X123559413Y-136653412D01*
X123344485Y-136564386D01*
X123116318Y-136519000D01*
X122883682Y-136519000D01*
X122655515Y-136564386D01*
X122440587Y-136653412D01*
X122247157Y-136782658D01*
X122091815Y-136938000D01*
X113515631Y-136938000D01*
X112857843Y-136280213D01*
X112857843Y-135862515D01*
X112866985Y-135867402D01*
X113010622Y-135910974D01*
X113122574Y-135922000D01*
X113122577Y-135922000D01*
X113160000Y-135925686D01*
X113197423Y-135922000D01*
X122091815Y-135922000D01*
X122247157Y-136077342D01*
X122440587Y-136206588D01*
X122655515Y-136295614D01*
X122883682Y-136341000D01*
X123116318Y-136341000D01*
X123344485Y-136295614D01*
X123559413Y-136206588D01*
X123752843Y-136077342D01*
X123917342Y-135912843D01*
X124046588Y-135719413D01*
X124135614Y-135504485D01*
X124181000Y-135276318D01*
X124181000Y-135043682D01*
X124135614Y-134815515D01*
X124046588Y-134600587D01*
X123917342Y-134407157D01*
X123752843Y-134242658D01*
X123559413Y-134113412D01*
X123344485Y-134024386D01*
X123116318Y-133979000D01*
X122883682Y-133979000D01*
X122655515Y-134024386D01*
X122440587Y-134113412D01*
X122247157Y-134242658D01*
X122091815Y-134398000D01*
X113475630Y-134398000D01*
X112833710Y-133756080D01*
X112838188Y-133741318D01*
X112861956Y-133500000D01*
X112845510Y-133333021D01*
X112970622Y-133370974D01*
X113082574Y-133382000D01*
X113082577Y-133382000D01*
X113120000Y-133385686D01*
X113157423Y-133382000D01*
X122091815Y-133382000D01*
X122247157Y-133537342D01*
X122440587Y-133666588D01*
X122655515Y-133755614D01*
X122883682Y-133801000D01*
X123116318Y-133801000D01*
X123344485Y-133755614D01*
X123559413Y-133666588D01*
X123752843Y-133537342D01*
X123917342Y-133372843D01*
X124046588Y-133179413D01*
X124135614Y-132964485D01*
X124181000Y-132736318D01*
X124181000Y-132503682D01*
X124135614Y-132275515D01*
X124046588Y-132060587D01*
X123917342Y-131867157D01*
X123752843Y-131702658D01*
X123559413Y-131573412D01*
X123344485Y-131484386D01*
X123116318Y-131439000D01*
X122883682Y-131439000D01*
X122655515Y-131484386D01*
X122440587Y-131573412D01*
X122247157Y-131702658D01*
X122091815Y-131858000D01*
X113435631Y-131858000D01*
X112833710Y-131256080D01*
X112838188Y-131241318D01*
X112861956Y-131000000D01*
X112842681Y-130804297D01*
X112930622Y-130830974D01*
X113042574Y-130842000D01*
X113042576Y-130842000D01*
X113079999Y-130845686D01*
X113117422Y-130842000D01*
X122091815Y-130842000D01*
X122247157Y-130997342D01*
X122440587Y-131126588D01*
X122655515Y-131215614D01*
X122883682Y-131261000D01*
X123116318Y-131261000D01*
X123344485Y-131215614D01*
X123559413Y-131126588D01*
X123752843Y-130997342D01*
X123917342Y-130832843D01*
X124046588Y-130639413D01*
X124135614Y-130424485D01*
X124181000Y-130196318D01*
X124181000Y-129963682D01*
X124135614Y-129735515D01*
X124046588Y-129520587D01*
X123917342Y-129327157D01*
X123752843Y-129162658D01*
X123559413Y-129033412D01*
X123344485Y-128944386D01*
X123116318Y-128899000D01*
X122883682Y-128899000D01*
X122655515Y-128944386D01*
X122440587Y-129033412D01*
X122247157Y-129162658D01*
X122091815Y-129318000D01*
X113395631Y-129318000D01*
X112833710Y-128756080D01*
X112838188Y-128741318D01*
X112861956Y-128500000D01*
X112838188Y-128258682D01*
X112767798Y-128026637D01*
X112653491Y-127812784D01*
X112499660Y-127625340D01*
X112312216Y-127471509D01*
X112098363Y-127357202D01*
X111866318Y-127286812D01*
X111685472Y-127269000D01*
X111314528Y-127269000D01*
X111133682Y-127286812D01*
X110901637Y-127357202D01*
X110687784Y-127471509D01*
X110500340Y-127625340D01*
X110346509Y-127812784D01*
X110232202Y-128026637D01*
X110161812Y-128258682D01*
X110138044Y-128500000D01*
X107906000Y-128500000D01*
X107906000Y-125800000D01*
X121561928Y-125800000D01*
X121574188Y-125924482D01*
X121610498Y-126044180D01*
X121669463Y-126154494D01*
X121748815Y-126251185D01*
X121845506Y-126330537D01*
X121955820Y-126389502D01*
X122075518Y-126425812D01*
X122200000Y-126438072D01*
X122579665Y-126435804D01*
X122440587Y-126493412D01*
X122247157Y-126622658D01*
X122082658Y-126787157D01*
X121953412Y-126980587D01*
X121864386Y-127195515D01*
X121819000Y-127423682D01*
X121819000Y-127656318D01*
X121864386Y-127884485D01*
X121953412Y-128099413D01*
X122082658Y-128292843D01*
X122247157Y-128457342D01*
X122440587Y-128586588D01*
X122655515Y-128675614D01*
X122883682Y-128721000D01*
X123116318Y-128721000D01*
X123344485Y-128675614D01*
X123559413Y-128586588D01*
X123752843Y-128457342D01*
X123917342Y-128292843D01*
X124046588Y-128099413D01*
X124135614Y-127884485D01*
X124181000Y-127656318D01*
X124181000Y-127423682D01*
X124135614Y-127195515D01*
X124046588Y-126980587D01*
X123917342Y-126787157D01*
X123752843Y-126622658D01*
X123559413Y-126493412D01*
X123420335Y-126435804D01*
X123800000Y-126438072D01*
X123924482Y-126425812D01*
X124044180Y-126389502D01*
X124154494Y-126330537D01*
X124251185Y-126251185D01*
X124330537Y-126154494D01*
X124389502Y-126044180D01*
X124425812Y-125924482D01*
X124438072Y-125800000D01*
X124435000Y-125285750D01*
X124276250Y-125127000D01*
X123127000Y-125127000D01*
X123127000Y-125147000D01*
X122873000Y-125147000D01*
X122873000Y-125127000D01*
X121723750Y-125127000D01*
X121565000Y-125285750D01*
X121561928Y-125800000D01*
X107906000Y-125800000D01*
X107906000Y-124200000D01*
X121561928Y-124200000D01*
X121565000Y-124714250D01*
X121723750Y-124873000D01*
X122873000Y-124873000D01*
X122873000Y-123723750D01*
X123127000Y-123723750D01*
X123127000Y-124873000D01*
X124276250Y-124873000D01*
X124435000Y-124714250D01*
X124438072Y-124200000D01*
X124425812Y-124075518D01*
X124389502Y-123955820D01*
X124330537Y-123845506D01*
X124251185Y-123748815D01*
X124154494Y-123669463D01*
X124044180Y-123610498D01*
X123924482Y-123574188D01*
X123800000Y-123561928D01*
X123285750Y-123565000D01*
X123127000Y-123723750D01*
X122873000Y-123723750D01*
X122714250Y-123565000D01*
X122200000Y-123561928D01*
X122075518Y-123574188D01*
X121955820Y-123610498D01*
X121845506Y-123669463D01*
X121748815Y-123748815D01*
X121669463Y-123845506D01*
X121610498Y-123955820D01*
X121574188Y-124075518D01*
X121561928Y-124200000D01*
X107906000Y-124200000D01*
X107906000Y-114000000D01*
X110138044Y-114000000D01*
X110161812Y-114241318D01*
X110232202Y-114473363D01*
X110346509Y-114687216D01*
X110500340Y-114874660D01*
X110687784Y-115028491D01*
X110901637Y-115142798D01*
X111133682Y-115213188D01*
X111314528Y-115231000D01*
X111685472Y-115231000D01*
X111692014Y-115230356D01*
X111653370Y-115269000D01*
X111314528Y-115269000D01*
X111133682Y-115286812D01*
X110901637Y-115357202D01*
X110687784Y-115471509D01*
X110500340Y-115625340D01*
X110346509Y-115812784D01*
X110232202Y-116026637D01*
X110161812Y-116258682D01*
X110138044Y-116500000D01*
X110161812Y-116741318D01*
X110232202Y-116973363D01*
X110346509Y-117187216D01*
X110500340Y-117374660D01*
X110687784Y-117528491D01*
X110901637Y-117642798D01*
X111133682Y-117713188D01*
X111314528Y-117731000D01*
X111685472Y-117731000D01*
X111692014Y-117730356D01*
X111653370Y-117769000D01*
X111314528Y-117769000D01*
X111133682Y-117786812D01*
X110901637Y-117857202D01*
X110687784Y-117971509D01*
X110500340Y-118125340D01*
X110346509Y-118312784D01*
X110232202Y-118526637D01*
X110161812Y-118758682D01*
X110138044Y-119000000D01*
X110161812Y-119241318D01*
X110232202Y-119473363D01*
X110346509Y-119687216D01*
X110500340Y-119874660D01*
X110687784Y-120028491D01*
X110901637Y-120142798D01*
X111133682Y-120213188D01*
X111314528Y-120231000D01*
X111685472Y-120231000D01*
X111692014Y-120230356D01*
X111655213Y-120267157D01*
X110775000Y-120267157D01*
X110651538Y-120279317D01*
X110532821Y-120315329D01*
X110423411Y-120373810D01*
X110327512Y-120452512D01*
X110248810Y-120548411D01*
X110190329Y-120657821D01*
X110154317Y-120776538D01*
X110142157Y-120900000D01*
X110142157Y-122100000D01*
X110154317Y-122223462D01*
X110190329Y-122342179D01*
X110248810Y-122451589D01*
X110327512Y-122547488D01*
X110423411Y-122626190D01*
X110532821Y-122684671D01*
X110651538Y-122720683D01*
X110775000Y-122732843D01*
X112225000Y-122732843D01*
X112348462Y-122720683D01*
X112467179Y-122684671D01*
X112576589Y-122626190D01*
X112672488Y-122547488D01*
X112751190Y-122451589D01*
X112809671Y-122342179D01*
X112845683Y-122223462D01*
X112857843Y-122100000D01*
X112857843Y-121219787D01*
X114768591Y-119309039D01*
X121608096Y-119309039D01*
X121648754Y-119443087D01*
X121768963Y-119697420D01*
X121936481Y-119923414D01*
X122144869Y-120112385D01*
X122386119Y-120257070D01*
X122650960Y-120351909D01*
X122872998Y-120230625D01*
X122872998Y-120321125D01*
X122655515Y-120364386D01*
X122440587Y-120453412D01*
X122247157Y-120582658D01*
X122082658Y-120747157D01*
X121953412Y-120940587D01*
X121864386Y-121155515D01*
X121819000Y-121383682D01*
X121819000Y-121616318D01*
X121864386Y-121844485D01*
X121953412Y-122059413D01*
X122082658Y-122252843D01*
X122247157Y-122417342D01*
X122440587Y-122546588D01*
X122655515Y-122635614D01*
X122883682Y-122681000D01*
X123116318Y-122681000D01*
X123344485Y-122635614D01*
X123559413Y-122546588D01*
X123752843Y-122417342D01*
X123917342Y-122252843D01*
X124046588Y-122059413D01*
X124135614Y-121844485D01*
X124181000Y-121616318D01*
X124181000Y-121383682D01*
X134519000Y-121383682D01*
X134519000Y-121616318D01*
X134564386Y-121844485D01*
X134653412Y-122059413D01*
X134782658Y-122252843D01*
X134947157Y-122417342D01*
X135140587Y-122546588D01*
X135355515Y-122635614D01*
X135583682Y-122681000D01*
X135816318Y-122681000D01*
X136044485Y-122635614D01*
X136095898Y-122614318D01*
X136246001Y-122764421D01*
X136246001Y-123947857D01*
X136044485Y-123864386D01*
X135816318Y-123819000D01*
X135583682Y-123819000D01*
X135355515Y-123864386D01*
X135140587Y-123953412D01*
X134947157Y-124082658D01*
X134782658Y-124247157D01*
X134653412Y-124440587D01*
X134564386Y-124655515D01*
X134519000Y-124883682D01*
X134519000Y-125116318D01*
X134564386Y-125344485D01*
X134653412Y-125559413D01*
X134782658Y-125752843D01*
X134947157Y-125917342D01*
X135140587Y-126046588D01*
X135355515Y-126135614D01*
X135583682Y-126181000D01*
X135816318Y-126181000D01*
X136044485Y-126135614D01*
X136246001Y-126052143D01*
X136246001Y-126487857D01*
X136044485Y-126404386D01*
X135816318Y-126359000D01*
X135583682Y-126359000D01*
X135355515Y-126404386D01*
X135140587Y-126493412D01*
X134947157Y-126622658D01*
X134782658Y-126787157D01*
X134653412Y-126980587D01*
X134564386Y-127195515D01*
X134519000Y-127423682D01*
X134519000Y-127656318D01*
X134564386Y-127884485D01*
X134653412Y-128099413D01*
X134782658Y-128292843D01*
X134947157Y-128457342D01*
X135140587Y-128586588D01*
X135355515Y-128675614D01*
X135583682Y-128721000D01*
X135816318Y-128721000D01*
X136044485Y-128675614D01*
X136246001Y-128592143D01*
X136246001Y-129027857D01*
X136044485Y-128944386D01*
X135816318Y-128899000D01*
X135583682Y-128899000D01*
X135355515Y-128944386D01*
X135140587Y-129033412D01*
X134947157Y-129162658D01*
X134782658Y-129327157D01*
X134653412Y-129520587D01*
X134564386Y-129735515D01*
X134519000Y-129963682D01*
X134519000Y-130196318D01*
X134564386Y-130424485D01*
X134653412Y-130639413D01*
X134782658Y-130832843D01*
X134947157Y-130997342D01*
X135140587Y-131126588D01*
X135355515Y-131215614D01*
X135583682Y-131261000D01*
X135816318Y-131261000D01*
X136044485Y-131215614D01*
X136246001Y-131132143D01*
X136246001Y-131567857D01*
X136044485Y-131484386D01*
X135816318Y-131439000D01*
X135583682Y-131439000D01*
X135355515Y-131484386D01*
X135140587Y-131573412D01*
X134947157Y-131702658D01*
X134782658Y-131867157D01*
X134653412Y-132060587D01*
X134564386Y-132275515D01*
X134519000Y-132503682D01*
X134519000Y-132736318D01*
X134564386Y-132964485D01*
X134653412Y-133179413D01*
X134782658Y-133372843D01*
X134947157Y-133537342D01*
X135140587Y-133666588D01*
X135355515Y-133755614D01*
X135583682Y-133801000D01*
X135816318Y-133801000D01*
X136044485Y-133755614D01*
X136246002Y-133672143D01*
X136246002Y-134107857D01*
X136044485Y-134024386D01*
X135816318Y-133979000D01*
X135583682Y-133979000D01*
X135355515Y-134024386D01*
X135140587Y-134113412D01*
X134947157Y-134242658D01*
X134782658Y-134407157D01*
X134653412Y-134600587D01*
X134564386Y-134815515D01*
X134519000Y-135043682D01*
X134519000Y-135276318D01*
X134564386Y-135504485D01*
X134653412Y-135719413D01*
X134782658Y-135912843D01*
X134947157Y-136077342D01*
X135140587Y-136206588D01*
X135355515Y-136295614D01*
X135583682Y-136341000D01*
X135816318Y-136341000D01*
X136044485Y-136295614D01*
X136246002Y-136212143D01*
X136246002Y-136647857D01*
X136044485Y-136564386D01*
X135816318Y-136519000D01*
X135583682Y-136519000D01*
X135355515Y-136564386D01*
X135140587Y-136653412D01*
X134947157Y-136782658D01*
X134782658Y-136947157D01*
X134653412Y-137140587D01*
X134564386Y-137355515D01*
X134519000Y-137583682D01*
X134519000Y-137816318D01*
X134564386Y-138044485D01*
X134653412Y-138259413D01*
X134782658Y-138452843D01*
X134947157Y-138617342D01*
X135140587Y-138746588D01*
X135355515Y-138835614D01*
X135583682Y-138881000D01*
X135816318Y-138881000D01*
X136044485Y-138835614D01*
X136246002Y-138752143D01*
X136246002Y-139187857D01*
X136044485Y-139104386D01*
X135816318Y-139059000D01*
X135583682Y-139059000D01*
X135355515Y-139104386D01*
X135140587Y-139193412D01*
X134947157Y-139322658D01*
X134782658Y-139487157D01*
X134653412Y-139680587D01*
X134564386Y-139895515D01*
X134519000Y-140123682D01*
X134519000Y-140356318D01*
X134564386Y-140584485D01*
X134653412Y-140799413D01*
X134782658Y-140992843D01*
X134947157Y-141157342D01*
X135140587Y-141286588D01*
X135355515Y-141375614D01*
X135583682Y-141421000D01*
X135816318Y-141421000D01*
X136044485Y-141375614D01*
X136246002Y-141292143D01*
X136246002Y-141515578D01*
X136095898Y-141665682D01*
X136044485Y-141644386D01*
X135816318Y-141599000D01*
X135583682Y-141599000D01*
X135355515Y-141644386D01*
X135140587Y-141733412D01*
X134947157Y-141862658D01*
X134782658Y-142027157D01*
X134653412Y-142220587D01*
X134564386Y-142435515D01*
X134519000Y-142663682D01*
X134519000Y-142896318D01*
X134564386Y-143124485D01*
X134653412Y-143339413D01*
X134782658Y-143532843D01*
X134947157Y-143697342D01*
X135140587Y-143826588D01*
X135355515Y-143915614D01*
X135583682Y-143961000D01*
X135816318Y-143961000D01*
X136044485Y-143915614D01*
X136259413Y-143826588D01*
X136452843Y-143697342D01*
X136617342Y-143532843D01*
X136746588Y-143339413D01*
X136835614Y-143124485D01*
X136881000Y-142896318D01*
X136881000Y-142663682D01*
X136835614Y-142435515D01*
X136814318Y-142384102D01*
X137095566Y-142102854D01*
X137114949Y-142086947D01*
X137178430Y-142009594D01*
X137225602Y-141921342D01*
X137254650Y-141825584D01*
X137262001Y-141750946D01*
X137262001Y-141750943D01*
X137264458Y-141725999D01*
X137262001Y-141701055D01*
X137262001Y-128275000D01*
X142767157Y-128275000D01*
X142767157Y-129725000D01*
X142779317Y-129848462D01*
X142815329Y-129967179D01*
X142873810Y-130076589D01*
X142952512Y-130172488D01*
X143048411Y-130251190D01*
X143157821Y-130309671D01*
X143276538Y-130345683D01*
X143400000Y-130357843D01*
X144600000Y-130357843D01*
X144723462Y-130345683D01*
X144842179Y-130309671D01*
X144951589Y-130251190D01*
X145047488Y-130172488D01*
X145126190Y-130076589D01*
X145184671Y-129967179D01*
X145216048Y-129863740D01*
X145234947Y-129902570D01*
X145410951Y-130134429D01*
X145628807Y-130327496D01*
X145880142Y-130474352D01*
X146143110Y-130566476D01*
X146373000Y-130445155D01*
X146373000Y-129127000D01*
X146353000Y-129127000D01*
X146353000Y-128873000D01*
X146373000Y-128873000D01*
X146373000Y-127554845D01*
X146627000Y-127554845D01*
X146627000Y-128873000D01*
X146647000Y-128873000D01*
X146647000Y-129127000D01*
X146627000Y-129127000D01*
X146627000Y-130445155D01*
X146856890Y-130566476D01*
X147119858Y-130474352D01*
X147371193Y-130327496D01*
X147589049Y-130134429D01*
X147765053Y-129902570D01*
X147886465Y-129653110D01*
X147971509Y-129812216D01*
X148125341Y-129999660D01*
X148312785Y-130153491D01*
X148526638Y-130267798D01*
X148758683Y-130338188D01*
X149000000Y-130361956D01*
X149241318Y-130338188D01*
X149473363Y-130267798D01*
X149687216Y-130153491D01*
X149874660Y-129999660D01*
X150028491Y-129812215D01*
X150142798Y-129598362D01*
X150213188Y-129366317D01*
X150231000Y-129185471D01*
X150231000Y-128814529D01*
X150269000Y-128814529D01*
X150269000Y-129185472D01*
X150286812Y-129366318D01*
X150357202Y-129598363D01*
X150471509Y-129812216D01*
X150625341Y-129999660D01*
X150812785Y-130153491D01*
X151026638Y-130267798D01*
X151258683Y-130338188D01*
X151500000Y-130361956D01*
X151741318Y-130338188D01*
X151973363Y-130267798D01*
X152187216Y-130153491D01*
X152374660Y-129999660D01*
X152528491Y-129812215D01*
X152642798Y-129598362D01*
X152713188Y-129366317D01*
X152731000Y-129185471D01*
X152731000Y-128814528D01*
X152713188Y-128633682D01*
X152642798Y-128401637D01*
X152575110Y-128275000D01*
X157767157Y-128275000D01*
X157767157Y-129725000D01*
X157779317Y-129848462D01*
X157815329Y-129967179D01*
X157873810Y-130076589D01*
X157952512Y-130172488D01*
X158048411Y-130251190D01*
X158157821Y-130309671D01*
X158276538Y-130345683D01*
X158400000Y-130357843D01*
X159600000Y-130357843D01*
X159723462Y-130345683D01*
X159842179Y-130309671D01*
X159951589Y-130251190D01*
X160047488Y-130172488D01*
X160126190Y-130076589D01*
X160184671Y-129967179D01*
X160216048Y-129863740D01*
X160234947Y-129902570D01*
X160410951Y-130134429D01*
X160628807Y-130327496D01*
X160880142Y-130474352D01*
X161143110Y-130566476D01*
X161373000Y-130445155D01*
X161373000Y-129127000D01*
X161353000Y-129127000D01*
X161353000Y-128873000D01*
X161373000Y-128873000D01*
X161373000Y-127554845D01*
X161627000Y-127554845D01*
X161627000Y-128873000D01*
X161647000Y-128873000D01*
X161647000Y-129127000D01*
X161627000Y-129127000D01*
X161627000Y-130445155D01*
X161856890Y-130566476D01*
X162119858Y-130474352D01*
X162371193Y-130327496D01*
X162589049Y-130134429D01*
X162765053Y-129902570D01*
X162886465Y-129653110D01*
X162971509Y-129812216D01*
X163125341Y-129999660D01*
X163312785Y-130153491D01*
X163526638Y-130267798D01*
X163758683Y-130338188D01*
X164000000Y-130361956D01*
X164241318Y-130338188D01*
X164473363Y-130267798D01*
X164687216Y-130153491D01*
X164874660Y-129999660D01*
X165028491Y-129812215D01*
X165142798Y-129598362D01*
X165213188Y-129366317D01*
X165231000Y-129185471D01*
X165231000Y-128814529D01*
X165269000Y-128814529D01*
X165269000Y-129185472D01*
X165286812Y-129366318D01*
X165357202Y-129598363D01*
X165471509Y-129812216D01*
X165625341Y-129999660D01*
X165812785Y-130153491D01*
X166026638Y-130267798D01*
X166258683Y-130338188D01*
X166500000Y-130361956D01*
X166741318Y-130338188D01*
X166973363Y-130267798D01*
X167187216Y-130153491D01*
X167374660Y-129999660D01*
X167528491Y-129812215D01*
X167642798Y-129598362D01*
X167713188Y-129366317D01*
X167731000Y-129185471D01*
X167731000Y-128814529D01*
X167769000Y-128814529D01*
X167769000Y-129185472D01*
X167786812Y-129366318D01*
X167857202Y-129598363D01*
X167971509Y-129812216D01*
X168125341Y-129999660D01*
X168312785Y-130153491D01*
X168526638Y-130267798D01*
X168758683Y-130338188D01*
X169000000Y-130361956D01*
X169241318Y-130338188D01*
X169473363Y-130267798D01*
X169687216Y-130153491D01*
X169874660Y-129999660D01*
X170028491Y-129812215D01*
X170142798Y-129598362D01*
X170213188Y-129366317D01*
X170231000Y-129185471D01*
X170231000Y-128814529D01*
X170269000Y-128814529D01*
X170269000Y-129185472D01*
X170286812Y-129366318D01*
X170357202Y-129598363D01*
X170471509Y-129812216D01*
X170625341Y-129999660D01*
X170812785Y-130153491D01*
X171026638Y-130267798D01*
X171258683Y-130338188D01*
X171500000Y-130361956D01*
X171741318Y-130338188D01*
X171973363Y-130267798D01*
X172187216Y-130153491D01*
X172374660Y-129999660D01*
X172528491Y-129812215D01*
X172642798Y-129598362D01*
X172713188Y-129366317D01*
X172731000Y-129185471D01*
X172731000Y-128814528D01*
X172713188Y-128633682D01*
X172642798Y-128401637D01*
X172528491Y-128187784D01*
X172374660Y-128000340D01*
X172187215Y-127846509D01*
X171973362Y-127732202D01*
X171741317Y-127661812D01*
X171500000Y-127638044D01*
X171258682Y-127661812D01*
X171026637Y-127732202D01*
X170812784Y-127846509D01*
X170625340Y-128000340D01*
X170471509Y-128187785D01*
X170357202Y-128401638D01*
X170286812Y-128633683D01*
X170269000Y-128814529D01*
X170231000Y-128814529D01*
X170231000Y-128814528D01*
X170213188Y-128633682D01*
X170142798Y-128401637D01*
X170028491Y-128187784D01*
X169874660Y-128000340D01*
X169687215Y-127846509D01*
X169473362Y-127732202D01*
X169241317Y-127661812D01*
X169000000Y-127638044D01*
X168758682Y-127661812D01*
X168526637Y-127732202D01*
X168312784Y-127846509D01*
X168125340Y-128000340D01*
X167971509Y-128187785D01*
X167857202Y-128401638D01*
X167786812Y-128633683D01*
X167769000Y-128814529D01*
X167731000Y-128814529D01*
X167731000Y-128814528D01*
X167713188Y-128633682D01*
X167642798Y-128401637D01*
X167528491Y-128187784D01*
X167374660Y-128000340D01*
X167187215Y-127846509D01*
X166973362Y-127732202D01*
X166741317Y-127661812D01*
X166500000Y-127638044D01*
X166258682Y-127661812D01*
X166026637Y-127732202D01*
X165812784Y-127846509D01*
X165625340Y-128000340D01*
X165471509Y-128187785D01*
X165357202Y-128401638D01*
X165286812Y-128633683D01*
X165269000Y-128814529D01*
X165231000Y-128814529D01*
X165231000Y-128814528D01*
X165213188Y-128633682D01*
X165142798Y-128401637D01*
X165028491Y-128187784D01*
X164874660Y-128000340D01*
X164687215Y-127846509D01*
X164473362Y-127732202D01*
X164241317Y-127661812D01*
X164000000Y-127638044D01*
X163758682Y-127661812D01*
X163526637Y-127732202D01*
X163312784Y-127846509D01*
X163125340Y-128000340D01*
X162971509Y-128187785D01*
X162886465Y-128346890D01*
X162765053Y-128097430D01*
X162589049Y-127865571D01*
X162371193Y-127672504D01*
X162119858Y-127525648D01*
X161856890Y-127433524D01*
X161627000Y-127554845D01*
X161373000Y-127554845D01*
X161143110Y-127433524D01*
X160880142Y-127525648D01*
X160628807Y-127672504D01*
X160410951Y-127865571D01*
X160234947Y-128097430D01*
X160216048Y-128136260D01*
X160184671Y-128032821D01*
X160126190Y-127923411D01*
X160047488Y-127827512D01*
X159951589Y-127748810D01*
X159842179Y-127690329D01*
X159723462Y-127654317D01*
X159600000Y-127642157D01*
X158400000Y-127642157D01*
X158276538Y-127654317D01*
X158157821Y-127690329D01*
X158048411Y-127748810D01*
X157952512Y-127827512D01*
X157873810Y-127923411D01*
X157815329Y-128032821D01*
X157779317Y-128151538D01*
X157767157Y-128275000D01*
X152575110Y-128275000D01*
X152528491Y-128187784D01*
X152374660Y-128000340D01*
X152187215Y-127846509D01*
X151973362Y-127732202D01*
X151741317Y-127661812D01*
X151500000Y-127638044D01*
X151258682Y-127661812D01*
X151026637Y-127732202D01*
X150812784Y-127846509D01*
X150625340Y-128000340D01*
X150471509Y-128187785D01*
X150357202Y-128401638D01*
X150286812Y-128633683D01*
X150269000Y-128814529D01*
X150231000Y-128814529D01*
X150231000Y-128814528D01*
X150213188Y-128633682D01*
X150142798Y-128401637D01*
X150028491Y-128187784D01*
X149874660Y-128000340D01*
X149687215Y-127846509D01*
X149473362Y-127732202D01*
X149241317Y-127661812D01*
X149000000Y-127638044D01*
X148758682Y-127661812D01*
X148526637Y-127732202D01*
X148312784Y-127846509D01*
X148125340Y-128000340D01*
X147971509Y-128187785D01*
X147886465Y-128346890D01*
X147765053Y-128097430D01*
X147589049Y-127865571D01*
X147371193Y-127672504D01*
X147119858Y-127525648D01*
X146856890Y-127433524D01*
X146627000Y-127554845D01*
X146373000Y-127554845D01*
X146143110Y-127433524D01*
X145880142Y-127525648D01*
X145628807Y-127672504D01*
X145410951Y-127865571D01*
X145234947Y-128097430D01*
X145216048Y-128136260D01*
X145184671Y-128032821D01*
X145126190Y-127923411D01*
X145047488Y-127827512D01*
X144951589Y-127748810D01*
X144842179Y-127690329D01*
X144723462Y-127654317D01*
X144600000Y-127642157D01*
X143400000Y-127642157D01*
X143276538Y-127654317D01*
X143157821Y-127690329D01*
X143048411Y-127748810D01*
X142952512Y-127827512D01*
X142873810Y-127923411D01*
X142815329Y-128032821D01*
X142779317Y-128151538D01*
X142767157Y-128275000D01*
X137262001Y-128275000D01*
X137262001Y-122578945D01*
X137264458Y-122554001D01*
X137262001Y-122529054D01*
X137254650Y-122454416D01*
X137225602Y-122358658D01*
X137178430Y-122270406D01*
X137114949Y-122193053D01*
X137095566Y-122177146D01*
X136814318Y-121895898D01*
X136835614Y-121844485D01*
X136881000Y-121616318D01*
X136881000Y-121383682D01*
X136859382Y-121275000D01*
X142767157Y-121275000D01*
X142767157Y-122725000D01*
X142779317Y-122848462D01*
X142815329Y-122967179D01*
X142873810Y-123076589D01*
X142952512Y-123172488D01*
X143048411Y-123251190D01*
X143157821Y-123309671D01*
X143276538Y-123345683D01*
X143400000Y-123357843D01*
X144600000Y-123357843D01*
X144723462Y-123345683D01*
X144842179Y-123309671D01*
X144951589Y-123251190D01*
X145047488Y-123172488D01*
X145126190Y-123076589D01*
X145184671Y-122967179D01*
X145216048Y-122863740D01*
X145234947Y-122902570D01*
X145410951Y-123134429D01*
X145628807Y-123327496D01*
X145880142Y-123474352D01*
X146143110Y-123566476D01*
X146373000Y-123445155D01*
X146373000Y-122127000D01*
X146353000Y-122127000D01*
X146353000Y-121873000D01*
X146373000Y-121873000D01*
X146373000Y-120554845D01*
X146627000Y-120554845D01*
X146627000Y-121873000D01*
X146647000Y-121873000D01*
X146647000Y-122127000D01*
X146627000Y-122127000D01*
X146627000Y-123445155D01*
X146856890Y-123566476D01*
X147119858Y-123474352D01*
X147371193Y-123327496D01*
X147589049Y-123134429D01*
X147765053Y-122902570D01*
X147886465Y-122653110D01*
X147971509Y-122812216D01*
X148125341Y-122999660D01*
X148312785Y-123153491D01*
X148526638Y-123267798D01*
X148758683Y-123338188D01*
X149000000Y-123361956D01*
X149241318Y-123338188D01*
X149473363Y-123267798D01*
X149687216Y-123153491D01*
X149874660Y-122999660D01*
X150028491Y-122812215D01*
X150142798Y-122598362D01*
X150213188Y-122366317D01*
X150231000Y-122185471D01*
X150231000Y-121814529D01*
X150269000Y-121814529D01*
X150269000Y-122185472D01*
X150286812Y-122366318D01*
X150357202Y-122598363D01*
X150471509Y-122812216D01*
X150625341Y-122999660D01*
X150812785Y-123153491D01*
X151026638Y-123267798D01*
X151258683Y-123338188D01*
X151500000Y-123361956D01*
X151741318Y-123338188D01*
X151973363Y-123267798D01*
X152187216Y-123153491D01*
X152374660Y-122999660D01*
X152528491Y-122812215D01*
X152642798Y-122598362D01*
X152713188Y-122366317D01*
X152731000Y-122185471D01*
X152731000Y-121814528D01*
X152713188Y-121633682D01*
X152642798Y-121401637D01*
X152575110Y-121275000D01*
X157767157Y-121275000D01*
X157767157Y-122725000D01*
X157779317Y-122848462D01*
X157815329Y-122967179D01*
X157873810Y-123076589D01*
X157952512Y-123172488D01*
X158048411Y-123251190D01*
X158157821Y-123309671D01*
X158276538Y-123345683D01*
X158400000Y-123357843D01*
X159600000Y-123357843D01*
X159723462Y-123345683D01*
X159842179Y-123309671D01*
X159951589Y-123251190D01*
X160047488Y-123172488D01*
X160126190Y-123076589D01*
X160184671Y-122967179D01*
X160216048Y-122863740D01*
X160234947Y-122902570D01*
X160410951Y-123134429D01*
X160628807Y-123327496D01*
X160880142Y-123474352D01*
X161143110Y-123566476D01*
X161373000Y-123445155D01*
X161373000Y-122127000D01*
X161353000Y-122127000D01*
X161353000Y-121873000D01*
X161373000Y-121873000D01*
X161373000Y-120554845D01*
X161627000Y-120554845D01*
X161627000Y-121873000D01*
X161647000Y-121873000D01*
X161647000Y-122127000D01*
X161627000Y-122127000D01*
X161627000Y-123445155D01*
X161856890Y-123566476D01*
X162119858Y-123474352D01*
X162371193Y-123327496D01*
X162589049Y-123134429D01*
X162765053Y-122902570D01*
X162886465Y-122653110D01*
X162971509Y-122812216D01*
X163125341Y-122999660D01*
X163312785Y-123153491D01*
X163526638Y-123267798D01*
X163758683Y-123338188D01*
X164000000Y-123361956D01*
X164241318Y-123338188D01*
X164473363Y-123267798D01*
X164687216Y-123153491D01*
X164874660Y-122999660D01*
X165028491Y-122812215D01*
X165142798Y-122598362D01*
X165213188Y-122366317D01*
X165231000Y-122185471D01*
X165231000Y-121814529D01*
X165269000Y-121814529D01*
X165269000Y-122185472D01*
X165286812Y-122366318D01*
X165357202Y-122598363D01*
X165471509Y-122812216D01*
X165625341Y-122999660D01*
X165812785Y-123153491D01*
X166026638Y-123267798D01*
X166258683Y-123338188D01*
X166500000Y-123361956D01*
X166741318Y-123338188D01*
X166973363Y-123267798D01*
X167187216Y-123153491D01*
X167374660Y-122999660D01*
X167528491Y-122812215D01*
X167642798Y-122598362D01*
X167713188Y-122366317D01*
X167731000Y-122185471D01*
X167731000Y-121814529D01*
X167769000Y-121814529D01*
X167769000Y-122185472D01*
X167786812Y-122366318D01*
X167857202Y-122598363D01*
X167971509Y-122812216D01*
X168125341Y-122999660D01*
X168312785Y-123153491D01*
X168526638Y-123267798D01*
X168758683Y-123338188D01*
X169000000Y-123361956D01*
X169241318Y-123338188D01*
X169473363Y-123267798D01*
X169687216Y-123153491D01*
X169874660Y-122999660D01*
X170028491Y-122812215D01*
X170142798Y-122598362D01*
X170213188Y-122366317D01*
X170231000Y-122185471D01*
X170231000Y-121814529D01*
X170269000Y-121814529D01*
X170269000Y-122185472D01*
X170286812Y-122366318D01*
X170357202Y-122598363D01*
X170471509Y-122812216D01*
X170625341Y-122999660D01*
X170812785Y-123153491D01*
X171026638Y-123267798D01*
X171258683Y-123338188D01*
X171500000Y-123361956D01*
X171741318Y-123338188D01*
X171973363Y-123267798D01*
X172187216Y-123153491D01*
X172374660Y-122999660D01*
X172528491Y-122812215D01*
X172642798Y-122598362D01*
X172713188Y-122366317D01*
X172731000Y-122185471D01*
X172731000Y-121814528D01*
X172713188Y-121633682D01*
X172642798Y-121401637D01*
X172528491Y-121187784D01*
X172374660Y-121000340D01*
X172187215Y-120846509D01*
X171973362Y-120732202D01*
X171741317Y-120661812D01*
X171500000Y-120638044D01*
X171258682Y-120661812D01*
X171026637Y-120732202D01*
X170812784Y-120846509D01*
X170625340Y-121000340D01*
X170471509Y-121187785D01*
X170357202Y-121401638D01*
X170286812Y-121633683D01*
X170269000Y-121814529D01*
X170231000Y-121814529D01*
X170231000Y-121814528D01*
X170213188Y-121633682D01*
X170142798Y-121401637D01*
X170028491Y-121187784D01*
X169874660Y-121000340D01*
X169687215Y-120846509D01*
X169473362Y-120732202D01*
X169241317Y-120661812D01*
X169000000Y-120638044D01*
X168758682Y-120661812D01*
X168526637Y-120732202D01*
X168312784Y-120846509D01*
X168125340Y-121000340D01*
X167971509Y-121187785D01*
X167857202Y-121401638D01*
X167786812Y-121633683D01*
X167769000Y-121814529D01*
X167731000Y-121814529D01*
X167731000Y-121814528D01*
X167713188Y-121633682D01*
X167642798Y-121401637D01*
X167528491Y-121187784D01*
X167374660Y-121000340D01*
X167187215Y-120846509D01*
X166973362Y-120732202D01*
X166741317Y-120661812D01*
X166500000Y-120638044D01*
X166258682Y-120661812D01*
X166026637Y-120732202D01*
X165812784Y-120846509D01*
X165625340Y-121000340D01*
X165471509Y-121187785D01*
X165357202Y-121401638D01*
X165286812Y-121633683D01*
X165269000Y-121814529D01*
X165231000Y-121814529D01*
X165231000Y-121814528D01*
X165213188Y-121633682D01*
X165142798Y-121401637D01*
X165028491Y-121187784D01*
X164874660Y-121000340D01*
X164687215Y-120846509D01*
X164473362Y-120732202D01*
X164241317Y-120661812D01*
X164000000Y-120638044D01*
X163758682Y-120661812D01*
X163526637Y-120732202D01*
X163312784Y-120846509D01*
X163125340Y-121000340D01*
X162971509Y-121187785D01*
X162886465Y-121346890D01*
X162765053Y-121097430D01*
X162589049Y-120865571D01*
X162371193Y-120672504D01*
X162119858Y-120525648D01*
X161856890Y-120433524D01*
X161627000Y-120554845D01*
X161373000Y-120554845D01*
X161143110Y-120433524D01*
X160880142Y-120525648D01*
X160628807Y-120672504D01*
X160410951Y-120865571D01*
X160234947Y-121097430D01*
X160216048Y-121136260D01*
X160184671Y-121032821D01*
X160126190Y-120923411D01*
X160047488Y-120827512D01*
X159951589Y-120748810D01*
X159842179Y-120690329D01*
X159723462Y-120654317D01*
X159600000Y-120642157D01*
X158400000Y-120642157D01*
X158276538Y-120654317D01*
X158157821Y-120690329D01*
X158048411Y-120748810D01*
X157952512Y-120827512D01*
X157873810Y-120923411D01*
X157815329Y-121032821D01*
X157779317Y-121151538D01*
X157767157Y-121275000D01*
X152575110Y-121275000D01*
X152528491Y-121187784D01*
X152374660Y-121000340D01*
X152187215Y-120846509D01*
X151973362Y-120732202D01*
X151741317Y-120661812D01*
X151500000Y-120638044D01*
X151258682Y-120661812D01*
X151026637Y-120732202D01*
X150812784Y-120846509D01*
X150625340Y-121000340D01*
X150471509Y-121187785D01*
X150357202Y-121401638D01*
X150286812Y-121633683D01*
X150269000Y-121814529D01*
X150231000Y-121814529D01*
X150231000Y-121814528D01*
X150213188Y-121633682D01*
X150142798Y-121401637D01*
X150028491Y-121187784D01*
X149874660Y-121000340D01*
X149687215Y-120846509D01*
X149473362Y-120732202D01*
X149241317Y-120661812D01*
X149000000Y-120638044D01*
X148758682Y-120661812D01*
X148526637Y-120732202D01*
X148312784Y-120846509D01*
X148125340Y-121000340D01*
X147971509Y-121187785D01*
X147886465Y-121346890D01*
X147765053Y-121097430D01*
X147589049Y-120865571D01*
X147371193Y-120672504D01*
X147119858Y-120525648D01*
X146856890Y-120433524D01*
X146627000Y-120554845D01*
X146373000Y-120554845D01*
X146143110Y-120433524D01*
X145880142Y-120525648D01*
X145628807Y-120672504D01*
X145410951Y-120865571D01*
X145234947Y-121097430D01*
X145216048Y-121136260D01*
X145184671Y-121032821D01*
X145126190Y-120923411D01*
X145047488Y-120827512D01*
X144951589Y-120748810D01*
X144842179Y-120690329D01*
X144723462Y-120654317D01*
X144600000Y-120642157D01*
X143400000Y-120642157D01*
X143276538Y-120654317D01*
X143157821Y-120690329D01*
X143048411Y-120748810D01*
X142952512Y-120827512D01*
X142873810Y-120923411D01*
X142815329Y-121032821D01*
X142779317Y-121151538D01*
X142767157Y-121275000D01*
X136859382Y-121275000D01*
X136835614Y-121155515D01*
X136746588Y-120940587D01*
X136617342Y-120747157D01*
X136452843Y-120582658D01*
X136259413Y-120453412D01*
X136044485Y-120364386D01*
X135816318Y-120319000D01*
X135583682Y-120319000D01*
X135355515Y-120364386D01*
X135140587Y-120453412D01*
X134947157Y-120582658D01*
X134782658Y-120747157D01*
X134653412Y-120940587D01*
X134564386Y-121155515D01*
X134519000Y-121383682D01*
X124181000Y-121383682D01*
X124135614Y-121155515D01*
X124046588Y-120940587D01*
X123917342Y-120747157D01*
X123752843Y-120582658D01*
X123559413Y-120453412D01*
X123344485Y-120364386D01*
X123127002Y-120321125D01*
X123127002Y-120230625D01*
X123349040Y-120351909D01*
X123613881Y-120257070D01*
X123855131Y-120112385D01*
X124063519Y-119923414D01*
X124231037Y-119697420D01*
X124351246Y-119443087D01*
X124391904Y-119309039D01*
X124269915Y-119087000D01*
X123127000Y-119087000D01*
X123127000Y-119107000D01*
X122873000Y-119107000D01*
X122873000Y-119087000D01*
X121730085Y-119087000D01*
X121608096Y-119309039D01*
X114768591Y-119309039D01*
X115233948Y-118843682D01*
X134519000Y-118843682D01*
X134519000Y-119076318D01*
X134564386Y-119304485D01*
X134653412Y-119519413D01*
X134782658Y-119712843D01*
X134947157Y-119877342D01*
X135140587Y-120006588D01*
X135355515Y-120095614D01*
X135583682Y-120141000D01*
X135816318Y-120141000D01*
X136044485Y-120095614D01*
X136259413Y-120006588D01*
X136452843Y-119877342D01*
X136617342Y-119712843D01*
X136746588Y-119519413D01*
X136835614Y-119304485D01*
X136881000Y-119076318D01*
X136881000Y-118843682D01*
X136835614Y-118615515D01*
X136746588Y-118400587D01*
X136617342Y-118207157D01*
X136452843Y-118042658D01*
X136259413Y-117913412D01*
X136044485Y-117824386D01*
X135816318Y-117779000D01*
X135583682Y-117779000D01*
X135355515Y-117824386D01*
X135140587Y-117913412D01*
X134947157Y-118042658D01*
X134782658Y-118207157D01*
X134653412Y-118400587D01*
X134564386Y-118615515D01*
X134519000Y-118843682D01*
X115233948Y-118843682D01*
X116895631Y-117182000D01*
X122091815Y-117182000D01*
X122247157Y-117337342D01*
X122440587Y-117466588D01*
X122655515Y-117555614D01*
X122872998Y-117598875D01*
X122872998Y-117689375D01*
X122650960Y-117568091D01*
X122386119Y-117662930D01*
X122144869Y-117807615D01*
X121936481Y-117996586D01*
X121768963Y-118222580D01*
X121648754Y-118476913D01*
X121608096Y-118610961D01*
X121730085Y-118833000D01*
X122873000Y-118833000D01*
X122873000Y-118813000D01*
X123127000Y-118813000D01*
X123127000Y-118833000D01*
X124269915Y-118833000D01*
X124391904Y-118610961D01*
X124351246Y-118476913D01*
X124231037Y-118222580D01*
X124063519Y-117996586D01*
X123855131Y-117807615D01*
X123613881Y-117662930D01*
X123349040Y-117568091D01*
X123127002Y-117689375D01*
X123127002Y-117598875D01*
X123344485Y-117555614D01*
X123559413Y-117466588D01*
X123752843Y-117337342D01*
X123917342Y-117172843D01*
X124046588Y-116979413D01*
X124135614Y-116764485D01*
X124181000Y-116536318D01*
X124181000Y-116303682D01*
X134519000Y-116303682D01*
X134519000Y-116536318D01*
X134564386Y-116764485D01*
X134653412Y-116979413D01*
X134782658Y-117172843D01*
X134947157Y-117337342D01*
X135140587Y-117466588D01*
X135355515Y-117555614D01*
X135583682Y-117601000D01*
X135816318Y-117601000D01*
X136044485Y-117555614D01*
X136259413Y-117466588D01*
X136452843Y-117337342D01*
X136617342Y-117172843D01*
X136746588Y-116979413D01*
X136835614Y-116764485D01*
X136881000Y-116536318D01*
X136881000Y-116303682D01*
X136835614Y-116075515D01*
X136746588Y-115860587D01*
X136617342Y-115667157D01*
X136452843Y-115502658D01*
X136259413Y-115373412D01*
X136044485Y-115284386D01*
X135816318Y-115239000D01*
X135583682Y-115239000D01*
X135355515Y-115284386D01*
X135140587Y-115373412D01*
X134947157Y-115502658D01*
X134782658Y-115667157D01*
X134653412Y-115860587D01*
X134564386Y-116075515D01*
X134519000Y-116303682D01*
X124181000Y-116303682D01*
X124135614Y-116075515D01*
X124046588Y-115860587D01*
X123917342Y-115667157D01*
X123752843Y-115502658D01*
X123559413Y-115373412D01*
X123344485Y-115284386D01*
X123116318Y-115239000D01*
X122883682Y-115239000D01*
X122655515Y-115284386D01*
X122440587Y-115373412D01*
X122247157Y-115502658D01*
X122091815Y-115658000D01*
X116617423Y-115658000D01*
X116580000Y-115654314D01*
X116542577Y-115658000D01*
X116542574Y-115658000D01*
X116430622Y-115669026D01*
X116286985Y-115712598D01*
X116225364Y-115745535D01*
X116154607Y-115783355D01*
X116078661Y-115845683D01*
X116038578Y-115878578D01*
X116014721Y-115907648D01*
X112855356Y-119067014D01*
X112861956Y-119000000D01*
X112838188Y-118758682D01*
X112833710Y-118743920D01*
X116935631Y-114642000D01*
X122091815Y-114642000D01*
X122247157Y-114797342D01*
X122440587Y-114926588D01*
X122655515Y-115015614D01*
X122883682Y-115061000D01*
X123116318Y-115061000D01*
X123344485Y-115015614D01*
X123559413Y-114926588D01*
X123752843Y-114797342D01*
X123917342Y-114632843D01*
X124046588Y-114439413D01*
X124135614Y-114224485D01*
X124181000Y-113996318D01*
X124181000Y-113763682D01*
X134519000Y-113763682D01*
X134519000Y-113996318D01*
X134564386Y-114224485D01*
X134653412Y-114439413D01*
X134782658Y-114632843D01*
X134947157Y-114797342D01*
X135140587Y-114926588D01*
X135355515Y-115015614D01*
X135583682Y-115061000D01*
X135816318Y-115061000D01*
X136044485Y-115015614D01*
X136259413Y-114926588D01*
X136452843Y-114797342D01*
X136617342Y-114632843D01*
X136746588Y-114439413D01*
X136835614Y-114224485D01*
X136881000Y-113996318D01*
X136881000Y-113763682D01*
X136835614Y-113535515D01*
X136814318Y-113484102D01*
X137081965Y-113216455D01*
X157937200Y-113216455D01*
X157937200Y-113351545D01*
X157963555Y-113484040D01*
X158015252Y-113608848D01*
X158090305Y-113721172D01*
X158185828Y-113816695D01*
X158298152Y-113891748D01*
X158422960Y-113943445D01*
X158555455Y-113969800D01*
X158690545Y-113969800D01*
X158823040Y-113943445D01*
X158947848Y-113891748D01*
X159060172Y-113816695D01*
X159101867Y-113775000D01*
X163267157Y-113775000D01*
X163267157Y-115225000D01*
X163279317Y-115348462D01*
X163315329Y-115467179D01*
X163373810Y-115576589D01*
X163452512Y-115672488D01*
X163548411Y-115751190D01*
X163657821Y-115809671D01*
X163776538Y-115845683D01*
X163900000Y-115857843D01*
X165100000Y-115857843D01*
X165223462Y-115845683D01*
X165342179Y-115809671D01*
X165451589Y-115751190D01*
X165547488Y-115672488D01*
X165626190Y-115576589D01*
X165684671Y-115467179D01*
X165716048Y-115363740D01*
X165734947Y-115402570D01*
X165910951Y-115634429D01*
X166128807Y-115827496D01*
X166380142Y-115974352D01*
X166643110Y-116066476D01*
X166873000Y-115945155D01*
X166873000Y-114627000D01*
X166853000Y-114627000D01*
X166853000Y-114373000D01*
X166873000Y-114373000D01*
X166873000Y-113054845D01*
X167127000Y-113054845D01*
X167127000Y-114373000D01*
X167147000Y-114373000D01*
X167147000Y-114627000D01*
X167127000Y-114627000D01*
X167127000Y-115945155D01*
X167356890Y-116066476D01*
X167619858Y-115974352D01*
X167871193Y-115827496D01*
X168089049Y-115634429D01*
X168265053Y-115402570D01*
X168386465Y-115153110D01*
X168471509Y-115312216D01*
X168625341Y-115499660D01*
X168812785Y-115653491D01*
X169026638Y-115767798D01*
X169258683Y-115838188D01*
X169500000Y-115861956D01*
X169741318Y-115838188D01*
X169973363Y-115767798D01*
X170187216Y-115653491D01*
X170374660Y-115499660D01*
X170528491Y-115312215D01*
X170642798Y-115098362D01*
X170713188Y-114866317D01*
X170731000Y-114685471D01*
X170731000Y-114314528D01*
X170713188Y-114133682D01*
X170642798Y-113901637D01*
X170528491Y-113687784D01*
X170374660Y-113500340D01*
X170187215Y-113346509D01*
X169973362Y-113232202D01*
X169741317Y-113161812D01*
X169500000Y-113138044D01*
X169258682Y-113161812D01*
X169026637Y-113232202D01*
X168812784Y-113346509D01*
X168625340Y-113500340D01*
X168471509Y-113687785D01*
X168386465Y-113846890D01*
X168265053Y-113597430D01*
X168089049Y-113365571D01*
X167871193Y-113172504D01*
X167619858Y-113025648D01*
X167356890Y-112933524D01*
X167127000Y-113054845D01*
X166873000Y-113054845D01*
X166643110Y-112933524D01*
X166380142Y-113025648D01*
X166128807Y-113172504D01*
X165910951Y-113365571D01*
X165734947Y-113597430D01*
X165716048Y-113636260D01*
X165684671Y-113532821D01*
X165626190Y-113423411D01*
X165547488Y-113327512D01*
X165451589Y-113248810D01*
X165342179Y-113190329D01*
X165223462Y-113154317D01*
X165100000Y-113142157D01*
X163900000Y-113142157D01*
X163776538Y-113154317D01*
X163657821Y-113190329D01*
X163548411Y-113248810D01*
X163452512Y-113327512D01*
X163373810Y-113423411D01*
X163315329Y-113532821D01*
X163279317Y-113651538D01*
X163267157Y-113775000D01*
X159101867Y-113775000D01*
X159155695Y-113721172D01*
X159230748Y-113608848D01*
X159282445Y-113484040D01*
X159308800Y-113351545D01*
X159308800Y-113216455D01*
X159282445Y-113083960D01*
X159230748Y-112959152D01*
X159155695Y-112846828D01*
X159131000Y-112822133D01*
X159131000Y-108922420D01*
X161778420Y-106275000D01*
X163267157Y-106275000D01*
X163267157Y-107725000D01*
X163279317Y-107848462D01*
X163315329Y-107967179D01*
X163373810Y-108076589D01*
X163452512Y-108172488D01*
X163548411Y-108251190D01*
X163657821Y-108309671D01*
X163776538Y-108345683D01*
X163900000Y-108357843D01*
X165100000Y-108357843D01*
X165223462Y-108345683D01*
X165342179Y-108309671D01*
X165451589Y-108251190D01*
X165547488Y-108172488D01*
X165626190Y-108076589D01*
X165684671Y-107967179D01*
X165716048Y-107863740D01*
X165734947Y-107902570D01*
X165910951Y-108134429D01*
X166128807Y-108327496D01*
X166380142Y-108474352D01*
X166643110Y-108566476D01*
X166873000Y-108445155D01*
X166873000Y-107127000D01*
X166853000Y-107127000D01*
X166853000Y-106873000D01*
X166873000Y-106873000D01*
X166873000Y-105554845D01*
X167127000Y-105554845D01*
X167127000Y-106873000D01*
X167147000Y-106873000D01*
X167147000Y-107127000D01*
X167127000Y-107127000D01*
X167127000Y-108445155D01*
X167356890Y-108566476D01*
X167619858Y-108474352D01*
X167871193Y-108327496D01*
X168089049Y-108134429D01*
X168265053Y-107902570D01*
X168386465Y-107653110D01*
X168471509Y-107812216D01*
X168625341Y-107999660D01*
X168812785Y-108153491D01*
X169026638Y-108267798D01*
X169258683Y-108338188D01*
X169500000Y-108361956D01*
X169741318Y-108338188D01*
X169973363Y-108267798D01*
X170187216Y-108153491D01*
X170374660Y-107999660D01*
X170528491Y-107812215D01*
X170642798Y-107598362D01*
X170713188Y-107366317D01*
X170731000Y-107185471D01*
X170731000Y-106814528D01*
X170713188Y-106633682D01*
X170642798Y-106401637D01*
X170528491Y-106187784D01*
X170374660Y-106000340D01*
X170187215Y-105846509D01*
X169973362Y-105732202D01*
X169741317Y-105661812D01*
X169500000Y-105638044D01*
X169258682Y-105661812D01*
X169026637Y-105732202D01*
X168812784Y-105846509D01*
X168625340Y-106000340D01*
X168471509Y-106187785D01*
X168386465Y-106346890D01*
X168265053Y-106097430D01*
X168089049Y-105865571D01*
X167871193Y-105672504D01*
X167619858Y-105525648D01*
X167356890Y-105433524D01*
X167127000Y-105554845D01*
X166873000Y-105554845D01*
X166643110Y-105433524D01*
X166380142Y-105525648D01*
X166128807Y-105672504D01*
X165910951Y-105865571D01*
X165734947Y-106097430D01*
X165716048Y-106136260D01*
X165684671Y-106032821D01*
X165626190Y-105923411D01*
X165547488Y-105827512D01*
X165451589Y-105748810D01*
X165342179Y-105690329D01*
X165223462Y-105654317D01*
X165100000Y-105642157D01*
X163900000Y-105642157D01*
X163776538Y-105654317D01*
X163657821Y-105690329D01*
X163548411Y-105748810D01*
X163452512Y-105827512D01*
X163373810Y-105923411D01*
X163315329Y-106032821D01*
X163279317Y-106151538D01*
X163267157Y-106275000D01*
X161778420Y-106275000D01*
X165894621Y-102158800D01*
X165929545Y-102158800D01*
X166062040Y-102132445D01*
X166186848Y-102080748D01*
X166299172Y-102005695D01*
X166394695Y-101910172D01*
X166469748Y-101797848D01*
X166521445Y-101673040D01*
X166547800Y-101540545D01*
X166547800Y-101405455D01*
X166521445Y-101272960D01*
X166469748Y-101148152D01*
X166394695Y-101035828D01*
X166299172Y-100940305D01*
X166186848Y-100865252D01*
X166062040Y-100813555D01*
X165929545Y-100787200D01*
X165794455Y-100787200D01*
X165661960Y-100813555D01*
X165537152Y-100865252D01*
X165424828Y-100940305D01*
X165329305Y-101035828D01*
X165254252Y-101148152D01*
X165202555Y-101272960D01*
X165176200Y-101405455D01*
X165176200Y-101440379D01*
X158281435Y-108335145D01*
X158262052Y-108351052D01*
X158198571Y-108428405D01*
X158151399Y-108516658D01*
X158122351Y-108612416D01*
X158115332Y-108683682D01*
X158112543Y-108712000D01*
X158115000Y-108736944D01*
X158115001Y-112822132D01*
X158090305Y-112846828D01*
X158015252Y-112959152D01*
X157963555Y-113083960D01*
X157937200Y-113216455D01*
X137081965Y-113216455D01*
X138919420Y-111379000D01*
X153462133Y-111379000D01*
X153486828Y-111403695D01*
X153599152Y-111478748D01*
X153723960Y-111530445D01*
X153856455Y-111556800D01*
X153991545Y-111556800D01*
X154124040Y-111530445D01*
X154248848Y-111478748D01*
X154361172Y-111403695D01*
X154456695Y-111308172D01*
X154531748Y-111195848D01*
X154583445Y-111071040D01*
X154609800Y-110938545D01*
X154609800Y-110803455D01*
X154583445Y-110670960D01*
X154531748Y-110546152D01*
X154456695Y-110433828D01*
X154361172Y-110338305D01*
X154248848Y-110263252D01*
X154124040Y-110211555D01*
X153991545Y-110185200D01*
X153856455Y-110185200D01*
X153723960Y-110211555D01*
X153599152Y-110263252D01*
X153486828Y-110338305D01*
X153462133Y-110363000D01*
X138733944Y-110363000D01*
X138709000Y-110360543D01*
X138684056Y-110363000D01*
X138684053Y-110363000D01*
X138609415Y-110370351D01*
X138513657Y-110399399D01*
X138425405Y-110446571D01*
X138348052Y-110510052D01*
X138332145Y-110529435D01*
X136095898Y-112765682D01*
X136044485Y-112744386D01*
X135816318Y-112699000D01*
X135583682Y-112699000D01*
X135355515Y-112744386D01*
X135140587Y-112833412D01*
X134947157Y-112962658D01*
X134782658Y-113127157D01*
X134653412Y-113320587D01*
X134564386Y-113535515D01*
X134519000Y-113763682D01*
X124181000Y-113763682D01*
X124135614Y-113535515D01*
X124046588Y-113320587D01*
X123917342Y-113127157D01*
X123752843Y-112962658D01*
X123559413Y-112833412D01*
X123344485Y-112744386D01*
X123116318Y-112699000D01*
X122883682Y-112699000D01*
X122655515Y-112744386D01*
X122440587Y-112833412D01*
X122247157Y-112962658D01*
X122091815Y-113118000D01*
X116657422Y-113118000D01*
X116619999Y-113114314D01*
X116582576Y-113118000D01*
X116582574Y-113118000D01*
X116470622Y-113129026D01*
X116326985Y-113172598D01*
X116194608Y-113243355D01*
X116078578Y-113338578D01*
X116054721Y-113367648D01*
X112855356Y-116567014D01*
X112861956Y-116500000D01*
X112838188Y-116258682D01*
X112833710Y-116243920D01*
X116975631Y-112102000D01*
X122091815Y-112102000D01*
X122247157Y-112257342D01*
X122440587Y-112386588D01*
X122655515Y-112475614D01*
X122883682Y-112521000D01*
X123116318Y-112521000D01*
X123344485Y-112475614D01*
X123559413Y-112386588D01*
X123752843Y-112257342D01*
X123917342Y-112092843D01*
X124046588Y-111899413D01*
X124135614Y-111684485D01*
X124181000Y-111456318D01*
X124181000Y-111223682D01*
X134519000Y-111223682D01*
X134519000Y-111456318D01*
X134564386Y-111684485D01*
X134653412Y-111899413D01*
X134782658Y-112092843D01*
X134947157Y-112257342D01*
X135140587Y-112386588D01*
X135355515Y-112475614D01*
X135583682Y-112521000D01*
X135816318Y-112521000D01*
X136044485Y-112475614D01*
X136259413Y-112386588D01*
X136452843Y-112257342D01*
X136617342Y-112092843D01*
X136746588Y-111899413D01*
X136835614Y-111684485D01*
X136881000Y-111456318D01*
X136881000Y-111223682D01*
X136835614Y-110995515D01*
X136746588Y-110780587D01*
X136617342Y-110587157D01*
X136452843Y-110422658D01*
X136259413Y-110293412D01*
X136044485Y-110204386D01*
X135816318Y-110159000D01*
X135583682Y-110159000D01*
X135355515Y-110204386D01*
X135140587Y-110293412D01*
X134947157Y-110422658D01*
X134782658Y-110587157D01*
X134653412Y-110780587D01*
X134564386Y-110995515D01*
X134519000Y-111223682D01*
X124181000Y-111223682D01*
X124135614Y-110995515D01*
X124046588Y-110780587D01*
X123917342Y-110587157D01*
X123752843Y-110422658D01*
X123559413Y-110293412D01*
X123344485Y-110204386D01*
X123116318Y-110159000D01*
X122883682Y-110159000D01*
X122655515Y-110204386D01*
X122440587Y-110293412D01*
X122247157Y-110422658D01*
X122091815Y-110578000D01*
X116697423Y-110578000D01*
X116660000Y-110574314D01*
X116622577Y-110578000D01*
X116622574Y-110578000D01*
X116510622Y-110589026D01*
X116366985Y-110632598D01*
X116305364Y-110665535D01*
X116234607Y-110703355D01*
X116151904Y-110771228D01*
X116118578Y-110798578D01*
X116094721Y-110827648D01*
X112855356Y-114067014D01*
X112861956Y-114000000D01*
X112838188Y-113758682D01*
X112833710Y-113743920D01*
X117015630Y-109562000D01*
X122091815Y-109562000D01*
X122247157Y-109717342D01*
X122440587Y-109846588D01*
X122655515Y-109935614D01*
X122883682Y-109981000D01*
X123116318Y-109981000D01*
X123344485Y-109935614D01*
X123559413Y-109846588D01*
X123752843Y-109717342D01*
X123917342Y-109552843D01*
X124046588Y-109359413D01*
X124135614Y-109144485D01*
X124181000Y-108916318D01*
X124181000Y-108683682D01*
X134519000Y-108683682D01*
X134519000Y-108916318D01*
X134564386Y-109144485D01*
X134653412Y-109359413D01*
X134782658Y-109552843D01*
X134947157Y-109717342D01*
X135140587Y-109846588D01*
X135355515Y-109935614D01*
X135583682Y-109981000D01*
X135816318Y-109981000D01*
X136044485Y-109935614D01*
X136259413Y-109846588D01*
X136452843Y-109717342D01*
X136617342Y-109552843D01*
X136746588Y-109359413D01*
X136835614Y-109144485D01*
X136881000Y-108916318D01*
X136881000Y-108683682D01*
X136835614Y-108455515D01*
X136746588Y-108240587D01*
X136617342Y-108047157D01*
X136452843Y-107882658D01*
X136259413Y-107753412D01*
X136044485Y-107664386D01*
X135816318Y-107619000D01*
X135583682Y-107619000D01*
X135355515Y-107664386D01*
X135140587Y-107753412D01*
X134947157Y-107882658D01*
X134782658Y-108047157D01*
X134653412Y-108240587D01*
X134564386Y-108455515D01*
X134519000Y-108683682D01*
X124181000Y-108683682D01*
X124135614Y-108455515D01*
X124046588Y-108240587D01*
X123917342Y-108047157D01*
X123752843Y-107882658D01*
X123559413Y-107753412D01*
X123344485Y-107664386D01*
X123116318Y-107619000D01*
X122883682Y-107619000D01*
X122655515Y-107664386D01*
X122440587Y-107753412D01*
X122247157Y-107882658D01*
X122091815Y-108038000D01*
X116737423Y-108038000D01*
X116700000Y-108034314D01*
X116662577Y-108038000D01*
X116662574Y-108038000D01*
X116550622Y-108049026D01*
X116406985Y-108092598D01*
X116345364Y-108125535D01*
X116274607Y-108163355D01*
X116263479Y-108172488D01*
X116158578Y-108258578D01*
X116134716Y-108287654D01*
X115682843Y-108739527D01*
X115682843Y-106824000D01*
X115675487Y-106749311D01*
X115653701Y-106677492D01*
X115618322Y-106611304D01*
X115570711Y-106553289D01*
X115512696Y-106505678D01*
X115446508Y-106470299D01*
X115374689Y-106448513D01*
X115300000Y-106441157D01*
X112700000Y-106441157D01*
X112625311Y-106448513D01*
X112553492Y-106470299D01*
X112487304Y-106505678D01*
X112429289Y-106553289D01*
X112381678Y-106611304D01*
X112346299Y-106677492D01*
X112324513Y-106749311D01*
X112317157Y-106824000D01*
X112317157Y-109424000D01*
X112324513Y-109498689D01*
X112346299Y-109570508D01*
X112381678Y-109636696D01*
X112429289Y-109694711D01*
X112487304Y-109742322D01*
X112553492Y-109777701D01*
X112625311Y-109799487D01*
X112700000Y-109806843D01*
X114615527Y-109806843D01*
X111653370Y-112769000D01*
X111314528Y-112769000D01*
X111133682Y-112786812D01*
X110901637Y-112857202D01*
X110687784Y-112971509D01*
X110500340Y-113125340D01*
X110346509Y-113312784D01*
X110232202Y-113526637D01*
X110161812Y-113758682D01*
X110138044Y-114000000D01*
X107906000Y-114000000D01*
X107906000Y-102958436D01*
X112319000Y-102958436D01*
X112319000Y-103289564D01*
X112383600Y-103614330D01*
X112510317Y-103920252D01*
X112694282Y-104195575D01*
X112928425Y-104429718D01*
X113203748Y-104613683D01*
X113509670Y-104740400D01*
X113834436Y-104805000D01*
X114165564Y-104805000D01*
X114490330Y-104740400D01*
X114796252Y-104613683D01*
X114936458Y-104520000D01*
X121561928Y-104520000D01*
X121574188Y-104644482D01*
X121610498Y-104764180D01*
X121669463Y-104874494D01*
X121748815Y-104971185D01*
X121845506Y-105050537D01*
X121955820Y-105109502D01*
X122075518Y-105145812D01*
X122200000Y-105158072D01*
X122579665Y-105155804D01*
X122440587Y-105213412D01*
X122247157Y-105342658D01*
X122082658Y-105507157D01*
X121953412Y-105700587D01*
X121864386Y-105915515D01*
X121819000Y-106143682D01*
X121819000Y-106376318D01*
X121864386Y-106604485D01*
X121953412Y-106819413D01*
X122082658Y-107012843D01*
X122247157Y-107177342D01*
X122440587Y-107306588D01*
X122655515Y-107395614D01*
X122883682Y-107441000D01*
X123116318Y-107441000D01*
X123344485Y-107395614D01*
X123559413Y-107306588D01*
X123752843Y-107177342D01*
X123917342Y-107012843D01*
X124046588Y-106819413D01*
X124135614Y-106604485D01*
X124181000Y-106376318D01*
X124181000Y-106143682D01*
X124135614Y-105915515D01*
X124046588Y-105700587D01*
X123917342Y-105507157D01*
X123752843Y-105342658D01*
X123559413Y-105213412D01*
X123420335Y-105155804D01*
X123800000Y-105158072D01*
X123924482Y-105145812D01*
X124044180Y-105109502D01*
X124154494Y-105050537D01*
X124251185Y-104971185D01*
X124330537Y-104874494D01*
X124389502Y-104764180D01*
X124425812Y-104644482D01*
X124438072Y-104520000D01*
X124435000Y-104005750D01*
X124276250Y-103847000D01*
X123127000Y-103847000D01*
X123127000Y-103867000D01*
X122873000Y-103867000D01*
X122873000Y-103847000D01*
X121723750Y-103847000D01*
X121565000Y-104005750D01*
X121561928Y-104520000D01*
X114936458Y-104520000D01*
X115071575Y-104429718D01*
X115305718Y-104195575D01*
X115489683Y-103920252D01*
X115616400Y-103614330D01*
X115618518Y-103603682D01*
X134519000Y-103603682D01*
X134519000Y-103836318D01*
X134564386Y-104064485D01*
X134653412Y-104279413D01*
X134782658Y-104472843D01*
X134947157Y-104637342D01*
X135140587Y-104766588D01*
X135355515Y-104855614D01*
X135583682Y-104901000D01*
X135816318Y-104901000D01*
X136044485Y-104855614D01*
X136095898Y-104834318D01*
X137013579Y-105752000D01*
X136767884Y-105752000D01*
X136746588Y-105700587D01*
X136617342Y-105507157D01*
X136452843Y-105342658D01*
X136259413Y-105213412D01*
X136044485Y-105124386D01*
X135816318Y-105079000D01*
X135583682Y-105079000D01*
X135355515Y-105124386D01*
X135140587Y-105213412D01*
X134947157Y-105342658D01*
X134782658Y-105507157D01*
X134653412Y-105700587D01*
X134564386Y-105915515D01*
X134519000Y-106143682D01*
X134519000Y-106376318D01*
X134564386Y-106604485D01*
X134653412Y-106819413D01*
X134782658Y-107012843D01*
X134947157Y-107177342D01*
X135140587Y-107306588D01*
X135355515Y-107395614D01*
X135583682Y-107441000D01*
X135816318Y-107441000D01*
X136044485Y-107395614D01*
X136259413Y-107306588D01*
X136452843Y-107177342D01*
X136617342Y-107012843D01*
X136746588Y-106819413D01*
X136767884Y-106768000D01*
X150509056Y-106768000D01*
X150534000Y-106770457D01*
X150558944Y-106768000D01*
X150558947Y-106768000D01*
X150633585Y-106760649D01*
X150729343Y-106731601D01*
X150817595Y-106684429D01*
X150894948Y-106620948D01*
X150910855Y-106601565D01*
X158862420Y-98650000D01*
X161267157Y-98650000D01*
X161267157Y-100350000D01*
X161274513Y-100424689D01*
X161296299Y-100496508D01*
X161331678Y-100562696D01*
X161379289Y-100620711D01*
X161437304Y-100668322D01*
X161503492Y-100703701D01*
X161575311Y-100725487D01*
X161650000Y-100732843D01*
X163350000Y-100732843D01*
X163424689Y-100725487D01*
X163496508Y-100703701D01*
X163562696Y-100668322D01*
X163620711Y-100620711D01*
X163668322Y-100562696D01*
X163703701Y-100496508D01*
X163725487Y-100424689D01*
X163732843Y-100350000D01*
X163732843Y-98650000D01*
X163725487Y-98575311D01*
X163703701Y-98503492D01*
X163668322Y-98437304D01*
X163620711Y-98379289D01*
X163562696Y-98331678D01*
X163496508Y-98296299D01*
X163424689Y-98274513D01*
X163350000Y-98267157D01*
X161650000Y-98267157D01*
X161575311Y-98274513D01*
X161503492Y-98296299D01*
X161437304Y-98331678D01*
X161379289Y-98379289D01*
X161331678Y-98437304D01*
X161296299Y-98503492D01*
X161274513Y-98575311D01*
X161267157Y-98650000D01*
X158862420Y-98650000D01*
X159671621Y-97840800D01*
X159706545Y-97840800D01*
X159839040Y-97814445D01*
X159963848Y-97762748D01*
X160076172Y-97687695D01*
X160171695Y-97592172D01*
X160246748Y-97479848D01*
X160298445Y-97355040D01*
X160324800Y-97222545D01*
X160324800Y-97087455D01*
X160298445Y-96954960D01*
X160246748Y-96830152D01*
X160171695Y-96717828D01*
X160076172Y-96622305D01*
X159963848Y-96547252D01*
X159898056Y-96520000D01*
X159963848Y-96492748D01*
X160076172Y-96417695D01*
X160171695Y-96322172D01*
X160246748Y-96209848D01*
X160298445Y-96085040D01*
X160324800Y-95952545D01*
X160324800Y-95817455D01*
X160298445Y-95684960D01*
X160246748Y-95560152D01*
X160171695Y-95447828D01*
X160076172Y-95352305D01*
X159963848Y-95277252D01*
X159839040Y-95225555D01*
X159706545Y-95199200D01*
X159571455Y-95199200D01*
X159438960Y-95225555D01*
X159314152Y-95277252D01*
X159201828Y-95352305D01*
X159106305Y-95447828D01*
X159031252Y-95560152D01*
X158979555Y-95684960D01*
X158953200Y-95817455D01*
X158953200Y-95852379D01*
X149776580Y-105029000D01*
X137727421Y-105029000D01*
X136814318Y-104115898D01*
X136835614Y-104064485D01*
X136881000Y-103836318D01*
X136881000Y-103603682D01*
X136835614Y-103375515D01*
X136746588Y-103160587D01*
X136617342Y-102967157D01*
X136452843Y-102802658D01*
X136259413Y-102673412D01*
X136044485Y-102584386D01*
X135816318Y-102539000D01*
X135583682Y-102539000D01*
X135355515Y-102584386D01*
X135140587Y-102673412D01*
X134947157Y-102802658D01*
X134782658Y-102967157D01*
X134653412Y-103160587D01*
X134564386Y-103375515D01*
X134519000Y-103603682D01*
X115618518Y-103603682D01*
X115681000Y-103289564D01*
X115681000Y-102958436D01*
X115673355Y-102920000D01*
X121561928Y-102920000D01*
X121565000Y-103434250D01*
X121723750Y-103593000D01*
X122873000Y-103593000D01*
X122873000Y-102443750D01*
X123127000Y-102443750D01*
X123127000Y-103593000D01*
X124276250Y-103593000D01*
X124435000Y-103434250D01*
X124438072Y-102920000D01*
X124425812Y-102795518D01*
X124389502Y-102675820D01*
X124330537Y-102565506D01*
X124251185Y-102468815D01*
X124154494Y-102389463D01*
X124044180Y-102330498D01*
X123924482Y-102294188D01*
X123800000Y-102281928D01*
X123285750Y-102285000D01*
X123127000Y-102443750D01*
X122873000Y-102443750D01*
X122714250Y-102285000D01*
X122200000Y-102281928D01*
X122075518Y-102294188D01*
X121955820Y-102330498D01*
X121845506Y-102389463D01*
X121748815Y-102468815D01*
X121669463Y-102565506D01*
X121610498Y-102675820D01*
X121574188Y-102795518D01*
X121561928Y-102920000D01*
X115673355Y-102920000D01*
X115616400Y-102633670D01*
X115489683Y-102327748D01*
X115305718Y-102052425D01*
X115071575Y-101818282D01*
X114796252Y-101634317D01*
X114490330Y-101507600D01*
X114165564Y-101443000D01*
X113834436Y-101443000D01*
X113509670Y-101507600D01*
X113203748Y-101634317D01*
X112928425Y-101818282D01*
X112694282Y-102052425D01*
X112510317Y-102327748D01*
X112383600Y-102633670D01*
X112319000Y-102958436D01*
X107906000Y-102958436D01*
X107906000Y-96664000D01*
X112317157Y-96664000D01*
X112317157Y-99264000D01*
X112324513Y-99338689D01*
X112346299Y-99410508D01*
X112381678Y-99476696D01*
X112429289Y-99534711D01*
X112487304Y-99582322D01*
X112553492Y-99617701D01*
X112625311Y-99639487D01*
X112700000Y-99646843D01*
X115300000Y-99646843D01*
X115374689Y-99639487D01*
X115446508Y-99617701D01*
X115512696Y-99582322D01*
X115570711Y-99534711D01*
X115618322Y-99476696D01*
X115653701Y-99410508D01*
X115675487Y-99338689D01*
X115682843Y-99264000D01*
X115682843Y-96664000D01*
X115675487Y-96589311D01*
X115653701Y-96517492D01*
X115618322Y-96451304D01*
X115570711Y-96393289D01*
X115512696Y-96345678D01*
X115446508Y-96310299D01*
X115374689Y-96288513D01*
X115300000Y-96281157D01*
X112700000Y-96281157D01*
X112625311Y-96288513D01*
X112553492Y-96310299D01*
X112487304Y-96345678D01*
X112429289Y-96393289D01*
X112381678Y-96451304D01*
X112346299Y-96517492D01*
X112324513Y-96589311D01*
X112317157Y-96664000D01*
X107906000Y-96664000D01*
X107906000Y-94313224D01*
X112830381Y-94313224D01*
X112962317Y-94608312D01*
X113303045Y-94779159D01*
X113670557Y-94880250D01*
X114050729Y-94907701D01*
X114428951Y-94860457D01*
X114790690Y-94740333D01*
X115037683Y-94608312D01*
X115169619Y-94313224D01*
X114000000Y-93143605D01*
X112830381Y-94313224D01*
X107906000Y-94313224D01*
X107906000Y-93014729D01*
X112056299Y-93014729D01*
X112103543Y-93392951D01*
X112223667Y-93754690D01*
X112355688Y-94001683D01*
X112650776Y-94133619D01*
X113820395Y-92964000D01*
X114179605Y-92964000D01*
X115349224Y-94133619D01*
X115644312Y-94001683D01*
X115815159Y-93660955D01*
X115850780Y-93531455D01*
X119583200Y-93531455D01*
X119583200Y-93666545D01*
X119609555Y-93799040D01*
X119661252Y-93923848D01*
X119736305Y-94036172D01*
X119831828Y-94131695D01*
X119944152Y-94206748D01*
X120068960Y-94258445D01*
X120201455Y-94284800D01*
X120336545Y-94284800D01*
X120469040Y-94258445D01*
X120593848Y-94206748D01*
X120706172Y-94131695D01*
X120801695Y-94036172D01*
X120876748Y-93923848D01*
X120928445Y-93799040D01*
X120954800Y-93666545D01*
X120954800Y-93531455D01*
X120928445Y-93398960D01*
X120876748Y-93274152D01*
X120801695Y-93161828D01*
X120777000Y-93137133D01*
X120777000Y-92158420D01*
X120800965Y-92134455D01*
X131013200Y-92134455D01*
X131013200Y-92269545D01*
X131039555Y-92402040D01*
X131091252Y-92526848D01*
X131166305Y-92639172D01*
X131261828Y-92734695D01*
X131374152Y-92809748D01*
X131498960Y-92861445D01*
X131631455Y-92887800D01*
X131766545Y-92887800D01*
X131899040Y-92861445D01*
X132023848Y-92809748D01*
X132136172Y-92734695D01*
X132160867Y-92710000D01*
X133266580Y-92710000D01*
X134950200Y-94393621D01*
X134950200Y-94428545D01*
X134976555Y-94561040D01*
X135028252Y-94685848D01*
X135103305Y-94798172D01*
X135198828Y-94893695D01*
X135311152Y-94968748D01*
X135435960Y-95020445D01*
X135568455Y-95046800D01*
X135703545Y-95046800D01*
X135836040Y-95020445D01*
X135960848Y-94968748D01*
X136073172Y-94893695D01*
X136168695Y-94798172D01*
X136182915Y-94776890D01*
X161058524Y-94776890D01*
X161103175Y-94924099D01*
X161228359Y-95186920D01*
X161402412Y-95420269D01*
X161618645Y-95615178D01*
X161868748Y-95764157D01*
X162031168Y-95821772D01*
X161916903Y-95869102D01*
X161715283Y-96003820D01*
X161543820Y-96175283D01*
X161409102Y-96376903D01*
X161316307Y-96600931D01*
X161269000Y-96838757D01*
X161269000Y-97081243D01*
X161316307Y-97319069D01*
X161409102Y-97543097D01*
X161543820Y-97744717D01*
X161715283Y-97916180D01*
X161916903Y-98050898D01*
X162140931Y-98143693D01*
X162378757Y-98191000D01*
X162621243Y-98191000D01*
X162859069Y-98143693D01*
X163083097Y-98050898D01*
X163284717Y-97916180D01*
X163456180Y-97744717D01*
X163590898Y-97543097D01*
X163683693Y-97319069D01*
X163731000Y-97081243D01*
X163731000Y-96838757D01*
X163683693Y-96600931D01*
X163590898Y-96376903D01*
X163456180Y-96175283D01*
X163284717Y-96003820D01*
X163083097Y-95869102D01*
X162968832Y-95821772D01*
X163131252Y-95764157D01*
X163381355Y-95615178D01*
X163597588Y-95420269D01*
X163771641Y-95186920D01*
X163896825Y-94924099D01*
X163941476Y-94776890D01*
X163820155Y-94547000D01*
X162627000Y-94547000D01*
X162627000Y-94567000D01*
X162373000Y-94567000D01*
X162373000Y-94547000D01*
X161179845Y-94547000D01*
X161058524Y-94776890D01*
X136182915Y-94776890D01*
X136243748Y-94685848D01*
X136295445Y-94561040D01*
X136321800Y-94428545D01*
X136321800Y-94293455D01*
X136295445Y-94160960D01*
X136254915Y-94063110D01*
X161058524Y-94063110D01*
X161179845Y-94293000D01*
X162373000Y-94293000D01*
X162373000Y-93099186D01*
X162627000Y-93099186D01*
X162627000Y-94293000D01*
X163820155Y-94293000D01*
X163941476Y-94063110D01*
X163896825Y-93915901D01*
X163771641Y-93653080D01*
X163597588Y-93419731D01*
X163381355Y-93224822D01*
X163131252Y-93075843D01*
X162856891Y-92978519D01*
X162627000Y-93099186D01*
X162373000Y-93099186D01*
X162143109Y-92978519D01*
X161868748Y-93075843D01*
X161618645Y-93224822D01*
X161402412Y-93419731D01*
X161228359Y-93653080D01*
X161103175Y-93915901D01*
X161058524Y-94063110D01*
X136254915Y-94063110D01*
X136243748Y-94036152D01*
X136168695Y-93923828D01*
X136073172Y-93828305D01*
X135960848Y-93753252D01*
X135836040Y-93701555D01*
X135703545Y-93675200D01*
X135668621Y-93675200D01*
X133853855Y-91860435D01*
X133837948Y-91841052D01*
X133760595Y-91777571D01*
X133672343Y-91730399D01*
X133576585Y-91701351D01*
X133501947Y-91694000D01*
X133501944Y-91694000D01*
X133477000Y-91691543D01*
X133452056Y-91694000D01*
X132160867Y-91694000D01*
X132136172Y-91669305D01*
X132023848Y-91594252D01*
X131899040Y-91542555D01*
X131766545Y-91516200D01*
X131631455Y-91516200D01*
X131498960Y-91542555D01*
X131374152Y-91594252D01*
X131261828Y-91669305D01*
X131166305Y-91764828D01*
X131091252Y-91877152D01*
X131039555Y-92001960D01*
X131013200Y-92134455D01*
X120800965Y-92134455D01*
X121444621Y-91490800D01*
X121479545Y-91490800D01*
X121612040Y-91464445D01*
X121736848Y-91412748D01*
X121849172Y-91337695D01*
X121944695Y-91242172D01*
X122019748Y-91129848D01*
X122071445Y-91005040D01*
X122097800Y-90872545D01*
X122097800Y-90737455D01*
X122071445Y-90604960D01*
X122019748Y-90480152D01*
X121944695Y-90367828D01*
X121849172Y-90272305D01*
X121736848Y-90197252D01*
X121612040Y-90145555D01*
X121479545Y-90119200D01*
X121344455Y-90119200D01*
X121211960Y-90145555D01*
X121087152Y-90197252D01*
X120974828Y-90272305D01*
X120879305Y-90367828D01*
X120804252Y-90480152D01*
X120752555Y-90604960D01*
X120726200Y-90737455D01*
X120726200Y-90772379D01*
X119927435Y-91571145D01*
X119908052Y-91587052D01*
X119844571Y-91664405D01*
X119797399Y-91752658D01*
X119768351Y-91848416D01*
X119761458Y-91918405D01*
X119758543Y-91948000D01*
X119761000Y-91972945D01*
X119761001Y-93137132D01*
X119736305Y-93161828D01*
X119661252Y-93274152D01*
X119609555Y-93398960D01*
X119583200Y-93531455D01*
X115850780Y-93531455D01*
X115916250Y-93293443D01*
X115943701Y-92913271D01*
X115896457Y-92535049D01*
X115776333Y-92173310D01*
X115644312Y-91926317D01*
X115349224Y-91794381D01*
X114179605Y-92964000D01*
X113820395Y-92964000D01*
X112650776Y-91794381D01*
X112355688Y-91926317D01*
X112184841Y-92267045D01*
X112083750Y-92634557D01*
X112056299Y-93014729D01*
X107906000Y-93014729D01*
X107906000Y-91614776D01*
X112830381Y-91614776D01*
X114000000Y-92784395D01*
X115169619Y-91614776D01*
X115037683Y-91319688D01*
X114696955Y-91148841D01*
X114329443Y-91047750D01*
X113949271Y-91020299D01*
X113571049Y-91067543D01*
X113209310Y-91187667D01*
X112962317Y-91319688D01*
X112830381Y-91614776D01*
X107906000Y-91614776D01*
X107906000Y-86286715D01*
X110334478Y-86286715D01*
X110334478Y-86713285D01*
X110417698Y-87131659D01*
X110580939Y-87525759D01*
X110817929Y-87880440D01*
X111119560Y-88182071D01*
X111474241Y-88419061D01*
X111868341Y-88582302D01*
X112286715Y-88665522D01*
X112713285Y-88665522D01*
X113131659Y-88582302D01*
X113525759Y-88419061D01*
X113880440Y-88182071D01*
X114182071Y-87880440D01*
X114419061Y-87525759D01*
X114582302Y-87131659D01*
X114665522Y-86713285D01*
X114665522Y-86286715D01*
X170334478Y-86286715D01*
X170334478Y-86713285D01*
X170417698Y-87131659D01*
X170580939Y-87525759D01*
X170817929Y-87880440D01*
X171119560Y-88182071D01*
X171474241Y-88419061D01*
X171868341Y-88582302D01*
X172286715Y-88665522D01*
X172713285Y-88665522D01*
X173131659Y-88582302D01*
X173525759Y-88419061D01*
X173880440Y-88182071D01*
X174182071Y-87880440D01*
X174419061Y-87525759D01*
X174582302Y-87131659D01*
X174665522Y-86713285D01*
X174665522Y-86286715D01*
X174582302Y-85868341D01*
X174419061Y-85474241D01*
X174182071Y-85119560D01*
X173880440Y-84817929D01*
X173525759Y-84580939D01*
X173131659Y-84417698D01*
X172713285Y-84334478D01*
X172286715Y-84334478D01*
X171868341Y-84417698D01*
X171474241Y-84580939D01*
X171119560Y-84817929D01*
X170817929Y-85119560D01*
X170580939Y-85474241D01*
X170417698Y-85868341D01*
X170334478Y-86286715D01*
X114665522Y-86286715D01*
X114582302Y-85868341D01*
X114419061Y-85474241D01*
X114182071Y-85119560D01*
X113880440Y-84817929D01*
X113525759Y-84580939D01*
X113131659Y-84417698D01*
X112713285Y-84334478D01*
X112286715Y-84334478D01*
X111868341Y-84417698D01*
X111474241Y-84580939D01*
X111119560Y-84817929D01*
X110817929Y-85119560D01*
X110580939Y-85474241D01*
X110417698Y-85868341D01*
X110334478Y-86286715D01*
X107906000Y-86286715D01*
X107906000Y-81906000D01*
X177094000Y-81906000D01*
X177094001Y-151094000D01*
G04 #@! TA.AperFunction,Conductor*
D21*
G36*
X177094001Y-151094000D02*
G01*
X107906000Y-151094000D01*
X107906000Y-146286715D01*
X110334478Y-146286715D01*
X110334478Y-146713285D01*
X110417698Y-147131659D01*
X110580939Y-147525759D01*
X110817929Y-147880440D01*
X111119560Y-148182071D01*
X111474241Y-148419061D01*
X111868341Y-148582302D01*
X112286715Y-148665522D01*
X112713285Y-148665522D01*
X113131659Y-148582302D01*
X113525759Y-148419061D01*
X113880440Y-148182071D01*
X114182071Y-147880440D01*
X114419061Y-147525759D01*
X114582302Y-147131659D01*
X114665522Y-146713285D01*
X114665522Y-146286715D01*
X170334478Y-146286715D01*
X170334478Y-146713285D01*
X170417698Y-147131659D01*
X170580939Y-147525759D01*
X170817929Y-147880440D01*
X171119560Y-148182071D01*
X171474241Y-148419061D01*
X171868341Y-148582302D01*
X172286715Y-148665522D01*
X172713285Y-148665522D01*
X173131659Y-148582302D01*
X173525759Y-148419061D01*
X173880440Y-148182071D01*
X174182071Y-147880440D01*
X174419061Y-147525759D01*
X174582302Y-147131659D01*
X174665522Y-146713285D01*
X174665522Y-146286715D01*
X174582302Y-145868341D01*
X174419061Y-145474241D01*
X174182071Y-145119560D01*
X173880440Y-144817929D01*
X173525759Y-144580939D01*
X173131659Y-144417698D01*
X172713285Y-144334478D01*
X172286715Y-144334478D01*
X171868341Y-144417698D01*
X171474241Y-144580939D01*
X171119560Y-144817929D01*
X170817929Y-145119560D01*
X170580939Y-145474241D01*
X170417698Y-145868341D01*
X170334478Y-146286715D01*
X114665522Y-146286715D01*
X114582302Y-145868341D01*
X114419061Y-145474241D01*
X114182071Y-145119560D01*
X113880440Y-144817929D01*
X113525759Y-144580939D01*
X113131659Y-144417698D01*
X112713285Y-144334478D01*
X112286715Y-144334478D01*
X111868341Y-144417698D01*
X111474241Y-144580939D01*
X111119560Y-144817929D01*
X110817929Y-145119560D01*
X110580939Y-145474241D01*
X110417698Y-145868341D01*
X110334478Y-146286715D01*
X107906000Y-146286715D01*
X107906000Y-140589039D01*
X121608096Y-140589039D01*
X121648754Y-140723087D01*
X121768963Y-140977420D01*
X121936481Y-141203414D01*
X122144869Y-141392385D01*
X122386119Y-141537070D01*
X122650960Y-141631909D01*
X122872998Y-141510625D01*
X122872998Y-141601125D01*
X122655515Y-141644386D01*
X122440587Y-141733412D01*
X122247157Y-141862658D01*
X122082658Y-142027157D01*
X121953412Y-142220587D01*
X121864386Y-142435515D01*
X121819000Y-142663682D01*
X121819000Y-142896318D01*
X121864386Y-143124485D01*
X121953412Y-143339413D01*
X122082658Y-143532843D01*
X122247157Y-143697342D01*
X122440587Y-143826588D01*
X122655515Y-143915614D01*
X122883682Y-143961000D01*
X123116318Y-143961000D01*
X123344485Y-143915614D01*
X123559413Y-143826588D01*
X123752843Y-143697342D01*
X123917342Y-143532843D01*
X124046588Y-143339413D01*
X124135614Y-143124485D01*
X124181000Y-142896318D01*
X124181000Y-142663682D01*
X124135614Y-142435515D01*
X124046588Y-142220587D01*
X123917342Y-142027157D01*
X123752843Y-141862658D01*
X123559413Y-141733412D01*
X123344485Y-141644386D01*
X123127002Y-141601125D01*
X123127002Y-141510625D01*
X123349040Y-141631909D01*
X123613881Y-141537070D01*
X123855131Y-141392385D01*
X124063519Y-141203414D01*
X124231037Y-140977420D01*
X124351246Y-140723087D01*
X124391904Y-140589039D01*
X124269915Y-140367000D01*
X123127000Y-140367000D01*
X123127000Y-140387000D01*
X122873000Y-140387000D01*
X122873000Y-140367000D01*
X121730085Y-140367000D01*
X121608096Y-140589039D01*
X107906000Y-140589039D01*
X107906000Y-128500000D01*
X110138044Y-128500000D01*
X110161812Y-128741318D01*
X110232202Y-128973363D01*
X110346509Y-129187216D01*
X110500340Y-129374660D01*
X110687784Y-129528491D01*
X110901637Y-129642798D01*
X111133682Y-129713188D01*
X111314528Y-129731000D01*
X111653370Y-129731000D01*
X111692014Y-129769644D01*
X111685472Y-129769000D01*
X111314528Y-129769000D01*
X111133682Y-129786812D01*
X110901637Y-129857202D01*
X110687784Y-129971509D01*
X110500340Y-130125340D01*
X110346509Y-130312784D01*
X110232202Y-130526637D01*
X110161812Y-130758682D01*
X110138044Y-131000000D01*
X110161812Y-131241318D01*
X110232202Y-131473363D01*
X110346509Y-131687216D01*
X110500340Y-131874660D01*
X110687784Y-132028491D01*
X110901637Y-132142798D01*
X111133682Y-132213188D01*
X111314528Y-132231000D01*
X111653370Y-132231000D01*
X111692014Y-132269644D01*
X111685472Y-132269000D01*
X111314528Y-132269000D01*
X111133682Y-132286812D01*
X110901637Y-132357202D01*
X110687784Y-132471509D01*
X110500340Y-132625340D01*
X110346509Y-132812784D01*
X110232202Y-133026637D01*
X110161812Y-133258682D01*
X110138044Y-133500000D01*
X110161812Y-133741318D01*
X110232202Y-133973363D01*
X110346509Y-134187216D01*
X110500340Y-134374660D01*
X110687784Y-134528491D01*
X110901637Y-134642798D01*
X111133682Y-134713188D01*
X111314528Y-134731000D01*
X111653370Y-134731000D01*
X111689527Y-134767157D01*
X110775000Y-134767157D01*
X110651538Y-134779317D01*
X110532821Y-134815329D01*
X110423411Y-134873810D01*
X110327512Y-134952512D01*
X110248810Y-135048411D01*
X110190329Y-135157821D01*
X110154317Y-135276538D01*
X110142157Y-135400000D01*
X110142157Y-136600000D01*
X110154317Y-136723462D01*
X110190329Y-136842179D01*
X110248810Y-136951589D01*
X110327512Y-137047488D01*
X110423411Y-137126190D01*
X110532821Y-137184671D01*
X110651538Y-137220683D01*
X110775000Y-137232843D01*
X111655213Y-137232843D01*
X112634721Y-138212352D01*
X112658578Y-138241422D01*
X112774608Y-138336645D01*
X112906985Y-138407402D01*
X113050622Y-138450974D01*
X113162574Y-138462000D01*
X113162576Y-138462000D01*
X113199999Y-138465686D01*
X113237422Y-138462000D01*
X122091815Y-138462000D01*
X122247157Y-138617342D01*
X122440587Y-138746588D01*
X122655515Y-138835614D01*
X122872998Y-138878875D01*
X122872998Y-138969375D01*
X122650960Y-138848091D01*
X122386119Y-138942930D01*
X122144869Y-139087615D01*
X121936481Y-139276586D01*
X121768963Y-139502580D01*
X121648754Y-139756913D01*
X121608096Y-139890961D01*
X121730085Y-140113000D01*
X122873000Y-140113000D01*
X122873000Y-140093000D01*
X123127000Y-140093000D01*
X123127000Y-140113000D01*
X124269915Y-140113000D01*
X124391904Y-139890961D01*
X124351246Y-139756913D01*
X124231037Y-139502580D01*
X124063519Y-139276586D01*
X123855131Y-139087615D01*
X123613881Y-138942930D01*
X123349040Y-138848091D01*
X123127002Y-138969375D01*
X123127002Y-138878875D01*
X123344485Y-138835614D01*
X123559413Y-138746588D01*
X123752843Y-138617342D01*
X123917342Y-138452843D01*
X124046588Y-138259413D01*
X124135614Y-138044485D01*
X124181000Y-137816318D01*
X124181000Y-137583682D01*
X124135614Y-137355515D01*
X124046588Y-137140587D01*
X123917342Y-136947157D01*
X123752843Y-136782658D01*
X123559413Y-136653412D01*
X123344485Y-136564386D01*
X123116318Y-136519000D01*
X122883682Y-136519000D01*
X122655515Y-136564386D01*
X122440587Y-136653412D01*
X122247157Y-136782658D01*
X122091815Y-136938000D01*
X113515631Y-136938000D01*
X112857843Y-136280213D01*
X112857843Y-135862515D01*
X112866985Y-135867402D01*
X113010622Y-135910974D01*
X113122574Y-135922000D01*
X113122577Y-135922000D01*
X113160000Y-135925686D01*
X113197423Y-135922000D01*
X122091815Y-135922000D01*
X122247157Y-136077342D01*
X122440587Y-136206588D01*
X122655515Y-136295614D01*
X122883682Y-136341000D01*
X123116318Y-136341000D01*
X123344485Y-136295614D01*
X123559413Y-136206588D01*
X123752843Y-136077342D01*
X123917342Y-135912843D01*
X124046588Y-135719413D01*
X124135614Y-135504485D01*
X124181000Y-135276318D01*
X124181000Y-135043682D01*
X124135614Y-134815515D01*
X124046588Y-134600587D01*
X123917342Y-134407157D01*
X123752843Y-134242658D01*
X123559413Y-134113412D01*
X123344485Y-134024386D01*
X123116318Y-133979000D01*
X122883682Y-133979000D01*
X122655515Y-134024386D01*
X122440587Y-134113412D01*
X122247157Y-134242658D01*
X122091815Y-134398000D01*
X113475630Y-134398000D01*
X112833710Y-133756080D01*
X112838188Y-133741318D01*
X112861956Y-133500000D01*
X112845510Y-133333021D01*
X112970622Y-133370974D01*
X113082574Y-133382000D01*
X113082577Y-133382000D01*
X113120000Y-133385686D01*
X113157423Y-133382000D01*
X122091815Y-133382000D01*
X122247157Y-133537342D01*
X122440587Y-133666588D01*
X122655515Y-133755614D01*
X122883682Y-133801000D01*
X123116318Y-133801000D01*
X123344485Y-133755614D01*
X123559413Y-133666588D01*
X123752843Y-133537342D01*
X123917342Y-133372843D01*
X124046588Y-133179413D01*
X124135614Y-132964485D01*
X124181000Y-132736318D01*
X124181000Y-132503682D01*
X124135614Y-132275515D01*
X124046588Y-132060587D01*
X123917342Y-131867157D01*
X123752843Y-131702658D01*
X123559413Y-131573412D01*
X123344485Y-131484386D01*
X123116318Y-131439000D01*
X122883682Y-131439000D01*
X122655515Y-131484386D01*
X122440587Y-131573412D01*
X122247157Y-131702658D01*
X122091815Y-131858000D01*
X113435631Y-131858000D01*
X112833710Y-131256080D01*
X112838188Y-131241318D01*
X112861956Y-131000000D01*
X112842681Y-130804297D01*
X112930622Y-130830974D01*
X113042574Y-130842000D01*
X113042576Y-130842000D01*
X113079999Y-130845686D01*
X113117422Y-130842000D01*
X122091815Y-130842000D01*
X122247157Y-130997342D01*
X122440587Y-131126588D01*
X122655515Y-131215614D01*
X122883682Y-131261000D01*
X123116318Y-131261000D01*
X123344485Y-131215614D01*
X123559413Y-131126588D01*
X123752843Y-130997342D01*
X123917342Y-130832843D01*
X124046588Y-130639413D01*
X124135614Y-130424485D01*
X124181000Y-130196318D01*
X124181000Y-129963682D01*
X124135614Y-129735515D01*
X124046588Y-129520587D01*
X123917342Y-129327157D01*
X123752843Y-129162658D01*
X123559413Y-129033412D01*
X123344485Y-128944386D01*
X123116318Y-128899000D01*
X122883682Y-128899000D01*
X122655515Y-128944386D01*
X122440587Y-129033412D01*
X122247157Y-129162658D01*
X122091815Y-129318000D01*
X113395631Y-129318000D01*
X112833710Y-128756080D01*
X112838188Y-128741318D01*
X112861956Y-128500000D01*
X112838188Y-128258682D01*
X112767798Y-128026637D01*
X112653491Y-127812784D01*
X112499660Y-127625340D01*
X112312216Y-127471509D01*
X112098363Y-127357202D01*
X111866318Y-127286812D01*
X111685472Y-127269000D01*
X111314528Y-127269000D01*
X111133682Y-127286812D01*
X110901637Y-127357202D01*
X110687784Y-127471509D01*
X110500340Y-127625340D01*
X110346509Y-127812784D01*
X110232202Y-128026637D01*
X110161812Y-128258682D01*
X110138044Y-128500000D01*
X107906000Y-128500000D01*
X107906000Y-125800000D01*
X121561928Y-125800000D01*
X121574188Y-125924482D01*
X121610498Y-126044180D01*
X121669463Y-126154494D01*
X121748815Y-126251185D01*
X121845506Y-126330537D01*
X121955820Y-126389502D01*
X122075518Y-126425812D01*
X122200000Y-126438072D01*
X122579665Y-126435804D01*
X122440587Y-126493412D01*
X122247157Y-126622658D01*
X122082658Y-126787157D01*
X121953412Y-126980587D01*
X121864386Y-127195515D01*
X121819000Y-127423682D01*
X121819000Y-127656318D01*
X121864386Y-127884485D01*
X121953412Y-128099413D01*
X122082658Y-128292843D01*
X122247157Y-128457342D01*
X122440587Y-128586588D01*
X122655515Y-128675614D01*
X122883682Y-128721000D01*
X123116318Y-128721000D01*
X123344485Y-128675614D01*
X123559413Y-128586588D01*
X123752843Y-128457342D01*
X123917342Y-128292843D01*
X124046588Y-128099413D01*
X124135614Y-127884485D01*
X124181000Y-127656318D01*
X124181000Y-127423682D01*
X124135614Y-127195515D01*
X124046588Y-126980587D01*
X123917342Y-126787157D01*
X123752843Y-126622658D01*
X123559413Y-126493412D01*
X123420335Y-126435804D01*
X123800000Y-126438072D01*
X123924482Y-126425812D01*
X124044180Y-126389502D01*
X124154494Y-126330537D01*
X124251185Y-126251185D01*
X124330537Y-126154494D01*
X124389502Y-126044180D01*
X124425812Y-125924482D01*
X124438072Y-125800000D01*
X124435000Y-125285750D01*
X124276250Y-125127000D01*
X123127000Y-125127000D01*
X123127000Y-125147000D01*
X122873000Y-125147000D01*
X122873000Y-125127000D01*
X121723750Y-125127000D01*
X121565000Y-125285750D01*
X121561928Y-125800000D01*
X107906000Y-125800000D01*
X107906000Y-124200000D01*
X121561928Y-124200000D01*
X121565000Y-124714250D01*
X121723750Y-124873000D01*
X122873000Y-124873000D01*
X122873000Y-123723750D01*
X123127000Y-123723750D01*
X123127000Y-124873000D01*
X124276250Y-124873000D01*
X124435000Y-124714250D01*
X124438072Y-124200000D01*
X124425812Y-124075518D01*
X124389502Y-123955820D01*
X124330537Y-123845506D01*
X124251185Y-123748815D01*
X124154494Y-123669463D01*
X124044180Y-123610498D01*
X123924482Y-123574188D01*
X123800000Y-123561928D01*
X123285750Y-123565000D01*
X123127000Y-123723750D01*
X122873000Y-123723750D01*
X122714250Y-123565000D01*
X122200000Y-123561928D01*
X122075518Y-123574188D01*
X121955820Y-123610498D01*
X121845506Y-123669463D01*
X121748815Y-123748815D01*
X121669463Y-123845506D01*
X121610498Y-123955820D01*
X121574188Y-124075518D01*
X121561928Y-124200000D01*
X107906000Y-124200000D01*
X107906000Y-114000000D01*
X110138044Y-114000000D01*
X110161812Y-114241318D01*
X110232202Y-114473363D01*
X110346509Y-114687216D01*
X110500340Y-114874660D01*
X110687784Y-115028491D01*
X110901637Y-115142798D01*
X111133682Y-115213188D01*
X111314528Y-115231000D01*
X111685472Y-115231000D01*
X111692014Y-115230356D01*
X111653370Y-115269000D01*
X111314528Y-115269000D01*
X111133682Y-115286812D01*
X110901637Y-115357202D01*
X110687784Y-115471509D01*
X110500340Y-115625340D01*
X110346509Y-115812784D01*
X110232202Y-116026637D01*
X110161812Y-116258682D01*
X110138044Y-116500000D01*
X110161812Y-116741318D01*
X110232202Y-116973363D01*
X110346509Y-117187216D01*
X110500340Y-117374660D01*
X110687784Y-117528491D01*
X110901637Y-117642798D01*
X111133682Y-117713188D01*
X111314528Y-117731000D01*
X111685472Y-117731000D01*
X111692014Y-117730356D01*
X111653370Y-117769000D01*
X111314528Y-117769000D01*
X111133682Y-117786812D01*
X110901637Y-117857202D01*
X110687784Y-117971509D01*
X110500340Y-118125340D01*
X110346509Y-118312784D01*
X110232202Y-118526637D01*
X110161812Y-118758682D01*
X110138044Y-119000000D01*
X110161812Y-119241318D01*
X110232202Y-119473363D01*
X110346509Y-119687216D01*
X110500340Y-119874660D01*
X110687784Y-120028491D01*
X110901637Y-120142798D01*
X111133682Y-120213188D01*
X111314528Y-120231000D01*
X111685472Y-120231000D01*
X111692014Y-120230356D01*
X111655213Y-120267157D01*
X110775000Y-120267157D01*
X110651538Y-120279317D01*
X110532821Y-120315329D01*
X110423411Y-120373810D01*
X110327512Y-120452512D01*
X110248810Y-120548411D01*
X110190329Y-120657821D01*
X110154317Y-120776538D01*
X110142157Y-120900000D01*
X110142157Y-122100000D01*
X110154317Y-122223462D01*
X110190329Y-122342179D01*
X110248810Y-122451589D01*
X110327512Y-122547488D01*
X110423411Y-122626190D01*
X110532821Y-122684671D01*
X110651538Y-122720683D01*
X110775000Y-122732843D01*
X112225000Y-122732843D01*
X112348462Y-122720683D01*
X112467179Y-122684671D01*
X112576589Y-122626190D01*
X112672488Y-122547488D01*
X112751190Y-122451589D01*
X112809671Y-122342179D01*
X112845683Y-122223462D01*
X112857843Y-122100000D01*
X112857843Y-121219787D01*
X114768591Y-119309039D01*
X121608096Y-119309039D01*
X121648754Y-119443087D01*
X121768963Y-119697420D01*
X121936481Y-119923414D01*
X122144869Y-120112385D01*
X122386119Y-120257070D01*
X122650960Y-120351909D01*
X122872998Y-120230625D01*
X122872998Y-120321125D01*
X122655515Y-120364386D01*
X122440587Y-120453412D01*
X122247157Y-120582658D01*
X122082658Y-120747157D01*
X121953412Y-120940587D01*
X121864386Y-121155515D01*
X121819000Y-121383682D01*
X121819000Y-121616318D01*
X121864386Y-121844485D01*
X121953412Y-122059413D01*
X122082658Y-122252843D01*
X122247157Y-122417342D01*
X122440587Y-122546588D01*
X122655515Y-122635614D01*
X122883682Y-122681000D01*
X123116318Y-122681000D01*
X123344485Y-122635614D01*
X123559413Y-122546588D01*
X123752843Y-122417342D01*
X123917342Y-122252843D01*
X124046588Y-122059413D01*
X124135614Y-121844485D01*
X124181000Y-121616318D01*
X124181000Y-121383682D01*
X134519000Y-121383682D01*
X134519000Y-121616318D01*
X134564386Y-121844485D01*
X134653412Y-122059413D01*
X134782658Y-122252843D01*
X134947157Y-122417342D01*
X135140587Y-122546588D01*
X135355515Y-122635614D01*
X135583682Y-122681000D01*
X135816318Y-122681000D01*
X136044485Y-122635614D01*
X136095898Y-122614318D01*
X136246001Y-122764421D01*
X136246001Y-123947857D01*
X136044485Y-123864386D01*
X135816318Y-123819000D01*
X135583682Y-123819000D01*
X135355515Y-123864386D01*
X135140587Y-123953412D01*
X134947157Y-124082658D01*
X134782658Y-124247157D01*
X134653412Y-124440587D01*
X134564386Y-124655515D01*
X134519000Y-124883682D01*
X134519000Y-125116318D01*
X134564386Y-125344485D01*
X134653412Y-125559413D01*
X134782658Y-125752843D01*
X134947157Y-125917342D01*
X135140587Y-126046588D01*
X135355515Y-126135614D01*
X135583682Y-126181000D01*
X135816318Y-126181000D01*
X136044485Y-126135614D01*
X136246001Y-126052143D01*
X136246001Y-126487857D01*
X136044485Y-126404386D01*
X135816318Y-126359000D01*
X135583682Y-126359000D01*
X135355515Y-126404386D01*
X135140587Y-126493412D01*
X134947157Y-126622658D01*
X134782658Y-126787157D01*
X134653412Y-126980587D01*
X134564386Y-127195515D01*
X134519000Y-127423682D01*
X134519000Y-127656318D01*
X134564386Y-127884485D01*
X134653412Y-128099413D01*
X134782658Y-128292843D01*
X134947157Y-128457342D01*
X135140587Y-128586588D01*
X135355515Y-128675614D01*
X135583682Y-128721000D01*
X135816318Y-128721000D01*
X136044485Y-128675614D01*
X136246001Y-128592143D01*
X136246001Y-129027857D01*
X136044485Y-128944386D01*
X135816318Y-128899000D01*
X135583682Y-128899000D01*
X135355515Y-128944386D01*
X135140587Y-129033412D01*
X134947157Y-129162658D01*
X134782658Y-129327157D01*
X134653412Y-129520587D01*
X134564386Y-129735515D01*
X134519000Y-129963682D01*
X134519000Y-130196318D01*
X134564386Y-130424485D01*
X134653412Y-130639413D01*
X134782658Y-130832843D01*
X134947157Y-130997342D01*
X135140587Y-131126588D01*
X135355515Y-131215614D01*
X135583682Y-131261000D01*
X135816318Y-131261000D01*
X136044485Y-131215614D01*
X136246001Y-131132143D01*
X136246001Y-131567857D01*
X136044485Y-131484386D01*
X135816318Y-131439000D01*
X135583682Y-131439000D01*
X135355515Y-131484386D01*
X135140587Y-131573412D01*
X134947157Y-131702658D01*
X134782658Y-131867157D01*
X134653412Y-132060587D01*
X134564386Y-132275515D01*
X134519000Y-132503682D01*
X134519000Y-132736318D01*
X134564386Y-132964485D01*
X134653412Y-133179413D01*
X134782658Y-133372843D01*
X134947157Y-133537342D01*
X135140587Y-133666588D01*
X135355515Y-133755614D01*
X135583682Y-133801000D01*
X135816318Y-133801000D01*
X136044485Y-133755614D01*
X136246002Y-133672143D01*
X136246002Y-134107857D01*
X136044485Y-134024386D01*
X135816318Y-133979000D01*
X135583682Y-133979000D01*
X135355515Y-134024386D01*
X135140587Y-134113412D01*
X134947157Y-134242658D01*
X134782658Y-134407157D01*
X134653412Y-134600587D01*
X134564386Y-134815515D01*
X134519000Y-135043682D01*
X134519000Y-135276318D01*
X134564386Y-135504485D01*
X134653412Y-135719413D01*
X134782658Y-135912843D01*
X134947157Y-136077342D01*
X135140587Y-136206588D01*
X135355515Y-136295614D01*
X135583682Y-136341000D01*
X135816318Y-136341000D01*
X136044485Y-136295614D01*
X136246002Y-136212143D01*
X136246002Y-136647857D01*
X136044485Y-136564386D01*
X135816318Y-136519000D01*
X135583682Y-136519000D01*
X135355515Y-136564386D01*
X135140587Y-136653412D01*
X134947157Y-136782658D01*
X134782658Y-136947157D01*
X134653412Y-137140587D01*
X134564386Y-137355515D01*
X134519000Y-137583682D01*
X134519000Y-137816318D01*
X134564386Y-138044485D01*
X134653412Y-138259413D01*
X134782658Y-138452843D01*
X134947157Y-138617342D01*
X135140587Y-138746588D01*
X135355515Y-138835614D01*
X135583682Y-138881000D01*
X135816318Y-138881000D01*
X136044485Y-138835614D01*
X136246002Y-138752143D01*
X136246002Y-139187857D01*
X136044485Y-139104386D01*
X135816318Y-139059000D01*
X135583682Y-139059000D01*
X135355515Y-139104386D01*
X135140587Y-139193412D01*
X134947157Y-139322658D01*
X134782658Y-139487157D01*
X134653412Y-139680587D01*
X134564386Y-139895515D01*
X134519000Y-140123682D01*
X134519000Y-140356318D01*
X134564386Y-140584485D01*
X134653412Y-140799413D01*
X134782658Y-140992843D01*
X134947157Y-141157342D01*
X135140587Y-141286588D01*
X135355515Y-141375614D01*
X135583682Y-141421000D01*
X135816318Y-141421000D01*
X136044485Y-141375614D01*
X136246002Y-141292143D01*
X136246002Y-141515578D01*
X136095898Y-141665682D01*
X136044485Y-141644386D01*
X135816318Y-141599000D01*
X135583682Y-141599000D01*
X135355515Y-141644386D01*
X135140587Y-141733412D01*
X134947157Y-141862658D01*
X134782658Y-142027157D01*
X134653412Y-142220587D01*
X134564386Y-142435515D01*
X134519000Y-142663682D01*
X134519000Y-142896318D01*
X134564386Y-143124485D01*
X134653412Y-143339413D01*
X134782658Y-143532843D01*
X134947157Y-143697342D01*
X135140587Y-143826588D01*
X135355515Y-143915614D01*
X135583682Y-143961000D01*
X135816318Y-143961000D01*
X136044485Y-143915614D01*
X136259413Y-143826588D01*
X136452843Y-143697342D01*
X136617342Y-143532843D01*
X136746588Y-143339413D01*
X136835614Y-143124485D01*
X136881000Y-142896318D01*
X136881000Y-142663682D01*
X136835614Y-142435515D01*
X136814318Y-142384102D01*
X137095566Y-142102854D01*
X137114949Y-142086947D01*
X137178430Y-142009594D01*
X137225602Y-141921342D01*
X137254650Y-141825584D01*
X137262001Y-141750946D01*
X137262001Y-141750943D01*
X137264458Y-141725999D01*
X137262001Y-141701055D01*
X137262001Y-128275000D01*
X142767157Y-128275000D01*
X142767157Y-129725000D01*
X142779317Y-129848462D01*
X142815329Y-129967179D01*
X142873810Y-130076589D01*
X142952512Y-130172488D01*
X143048411Y-130251190D01*
X143157821Y-130309671D01*
X143276538Y-130345683D01*
X143400000Y-130357843D01*
X144600000Y-130357843D01*
X144723462Y-130345683D01*
X144842179Y-130309671D01*
X144951589Y-130251190D01*
X145047488Y-130172488D01*
X145126190Y-130076589D01*
X145184671Y-129967179D01*
X145216048Y-129863740D01*
X145234947Y-129902570D01*
X145410951Y-130134429D01*
X145628807Y-130327496D01*
X145880142Y-130474352D01*
X146143110Y-130566476D01*
X146373000Y-130445155D01*
X146373000Y-129127000D01*
X146353000Y-129127000D01*
X146353000Y-128873000D01*
X146373000Y-128873000D01*
X146373000Y-127554845D01*
X146627000Y-127554845D01*
X146627000Y-128873000D01*
X146647000Y-128873000D01*
X146647000Y-129127000D01*
X146627000Y-129127000D01*
X146627000Y-130445155D01*
X146856890Y-130566476D01*
X147119858Y-130474352D01*
X147371193Y-130327496D01*
X147589049Y-130134429D01*
X147765053Y-129902570D01*
X147886465Y-129653110D01*
X147971509Y-129812216D01*
X148125341Y-129999660D01*
X148312785Y-130153491D01*
X148526638Y-130267798D01*
X148758683Y-130338188D01*
X149000000Y-130361956D01*
X149241318Y-130338188D01*
X149473363Y-130267798D01*
X149687216Y-130153491D01*
X149874660Y-129999660D01*
X150028491Y-129812215D01*
X150142798Y-129598362D01*
X150213188Y-129366317D01*
X150231000Y-129185471D01*
X150231000Y-128814529D01*
X150269000Y-128814529D01*
X150269000Y-129185472D01*
X150286812Y-129366318D01*
X150357202Y-129598363D01*
X150471509Y-129812216D01*
X150625341Y-129999660D01*
X150812785Y-130153491D01*
X151026638Y-130267798D01*
X151258683Y-130338188D01*
X151500000Y-130361956D01*
X151741318Y-130338188D01*
X151973363Y-130267798D01*
X152187216Y-130153491D01*
X152374660Y-129999660D01*
X152528491Y-129812215D01*
X152642798Y-129598362D01*
X152713188Y-129366317D01*
X152731000Y-129185471D01*
X152731000Y-128814528D01*
X152713188Y-128633682D01*
X152642798Y-128401637D01*
X152575110Y-128275000D01*
X157767157Y-128275000D01*
X157767157Y-129725000D01*
X157779317Y-129848462D01*
X157815329Y-129967179D01*
X157873810Y-130076589D01*
X157952512Y-130172488D01*
X158048411Y-130251190D01*
X158157821Y-130309671D01*
X158276538Y-130345683D01*
X158400000Y-130357843D01*
X159600000Y-130357843D01*
X159723462Y-130345683D01*
X159842179Y-130309671D01*
X159951589Y-130251190D01*
X160047488Y-130172488D01*
X160126190Y-130076589D01*
X160184671Y-129967179D01*
X160216048Y-129863740D01*
X160234947Y-129902570D01*
X160410951Y-130134429D01*
X160628807Y-130327496D01*
X160880142Y-130474352D01*
X161143110Y-130566476D01*
X161373000Y-130445155D01*
X161373000Y-129127000D01*
X161353000Y-129127000D01*
X161353000Y-128873000D01*
X161373000Y-128873000D01*
X161373000Y-127554845D01*
X161627000Y-127554845D01*
X161627000Y-128873000D01*
X161647000Y-128873000D01*
X161647000Y-129127000D01*
X161627000Y-129127000D01*
X161627000Y-130445155D01*
X161856890Y-130566476D01*
X162119858Y-130474352D01*
X162371193Y-130327496D01*
X162589049Y-130134429D01*
X162765053Y-129902570D01*
X162886465Y-129653110D01*
X162971509Y-129812216D01*
X163125341Y-129999660D01*
X163312785Y-130153491D01*
X163526638Y-130267798D01*
X163758683Y-130338188D01*
X164000000Y-130361956D01*
X164241318Y-130338188D01*
X164473363Y-130267798D01*
X164687216Y-130153491D01*
X164874660Y-129999660D01*
X165028491Y-129812215D01*
X165142798Y-129598362D01*
X165213188Y-129366317D01*
X165231000Y-129185471D01*
X165231000Y-128814529D01*
X165269000Y-128814529D01*
X165269000Y-129185472D01*
X165286812Y-129366318D01*
X165357202Y-129598363D01*
X165471509Y-129812216D01*
X165625341Y-129999660D01*
X165812785Y-130153491D01*
X166026638Y-130267798D01*
X166258683Y-130338188D01*
X166500000Y-130361956D01*
X166741318Y-130338188D01*
X166973363Y-130267798D01*
X167187216Y-130153491D01*
X167374660Y-129999660D01*
X167528491Y-129812215D01*
X167642798Y-129598362D01*
X167713188Y-129366317D01*
X167731000Y-129185471D01*
X167731000Y-128814529D01*
X167769000Y-128814529D01*
X167769000Y-129185472D01*
X167786812Y-129366318D01*
X167857202Y-129598363D01*
X167971509Y-129812216D01*
X168125341Y-129999660D01*
X168312785Y-130153491D01*
X168526638Y-130267798D01*
X168758683Y-130338188D01*
X169000000Y-130361956D01*
X169241318Y-130338188D01*
X169473363Y-130267798D01*
X169687216Y-130153491D01*
X169874660Y-129999660D01*
X170028491Y-129812215D01*
X170142798Y-129598362D01*
X170213188Y-129366317D01*
X170231000Y-129185471D01*
X170231000Y-128814529D01*
X170269000Y-128814529D01*
X170269000Y-129185472D01*
X170286812Y-129366318D01*
X170357202Y-129598363D01*
X170471509Y-129812216D01*
X170625341Y-129999660D01*
X170812785Y-130153491D01*
X171026638Y-130267798D01*
X171258683Y-130338188D01*
X171500000Y-130361956D01*
X171741318Y-130338188D01*
X171973363Y-130267798D01*
X172187216Y-130153491D01*
X172374660Y-129999660D01*
X172528491Y-129812215D01*
X172642798Y-129598362D01*
X172713188Y-129366317D01*
X172731000Y-129185471D01*
X172731000Y-128814528D01*
X172713188Y-128633682D01*
X172642798Y-128401637D01*
X172528491Y-128187784D01*
X172374660Y-128000340D01*
X172187215Y-127846509D01*
X171973362Y-127732202D01*
X171741317Y-127661812D01*
X171500000Y-127638044D01*
X171258682Y-127661812D01*
X171026637Y-127732202D01*
X170812784Y-127846509D01*
X170625340Y-128000340D01*
X170471509Y-128187785D01*
X170357202Y-128401638D01*
X170286812Y-128633683D01*
X170269000Y-128814529D01*
X170231000Y-128814529D01*
X170231000Y-128814528D01*
X170213188Y-128633682D01*
X170142798Y-128401637D01*
X170028491Y-128187784D01*
X169874660Y-128000340D01*
X169687215Y-127846509D01*
X169473362Y-127732202D01*
X169241317Y-127661812D01*
X169000000Y-127638044D01*
X168758682Y-127661812D01*
X168526637Y-127732202D01*
X168312784Y-127846509D01*
X168125340Y-128000340D01*
X167971509Y-128187785D01*
X167857202Y-128401638D01*
X167786812Y-128633683D01*
X167769000Y-128814529D01*
X167731000Y-128814529D01*
X167731000Y-128814528D01*
X167713188Y-128633682D01*
X167642798Y-128401637D01*
X167528491Y-128187784D01*
X167374660Y-128000340D01*
X167187215Y-127846509D01*
X166973362Y-127732202D01*
X166741317Y-127661812D01*
X166500000Y-127638044D01*
X166258682Y-127661812D01*
X166026637Y-127732202D01*
X165812784Y-127846509D01*
X165625340Y-128000340D01*
X165471509Y-128187785D01*
X165357202Y-128401638D01*
X165286812Y-128633683D01*
X165269000Y-128814529D01*
X165231000Y-128814529D01*
X165231000Y-128814528D01*
X165213188Y-128633682D01*
X165142798Y-128401637D01*
X165028491Y-128187784D01*
X164874660Y-128000340D01*
X164687215Y-127846509D01*
X164473362Y-127732202D01*
X164241317Y-127661812D01*
X164000000Y-127638044D01*
X163758682Y-127661812D01*
X163526637Y-127732202D01*
X163312784Y-127846509D01*
X163125340Y-128000340D01*
X162971509Y-128187785D01*
X162886465Y-128346890D01*
X162765053Y-128097430D01*
X162589049Y-127865571D01*
X162371193Y-127672504D01*
X162119858Y-127525648D01*
X161856890Y-127433524D01*
X161627000Y-127554845D01*
X161373000Y-127554845D01*
X161143110Y-127433524D01*
X160880142Y-127525648D01*
X160628807Y-127672504D01*
X160410951Y-127865571D01*
X160234947Y-128097430D01*
X160216048Y-128136260D01*
X160184671Y-128032821D01*
X160126190Y-127923411D01*
X160047488Y-127827512D01*
X159951589Y-127748810D01*
X159842179Y-127690329D01*
X159723462Y-127654317D01*
X159600000Y-127642157D01*
X158400000Y-127642157D01*
X158276538Y-127654317D01*
X158157821Y-127690329D01*
X158048411Y-127748810D01*
X157952512Y-127827512D01*
X157873810Y-127923411D01*
X157815329Y-128032821D01*
X157779317Y-128151538D01*
X157767157Y-128275000D01*
X152575110Y-128275000D01*
X152528491Y-128187784D01*
X152374660Y-128000340D01*
X152187215Y-127846509D01*
X151973362Y-127732202D01*
X151741317Y-127661812D01*
X151500000Y-127638044D01*
X151258682Y-127661812D01*
X151026637Y-127732202D01*
X150812784Y-127846509D01*
X150625340Y-128000340D01*
X150471509Y-128187785D01*
X150357202Y-128401638D01*
X150286812Y-128633683D01*
X150269000Y-128814529D01*
X150231000Y-128814529D01*
X150231000Y-128814528D01*
X150213188Y-128633682D01*
X150142798Y-128401637D01*
X150028491Y-128187784D01*
X149874660Y-128000340D01*
X149687215Y-127846509D01*
X149473362Y-127732202D01*
X149241317Y-127661812D01*
X149000000Y-127638044D01*
X148758682Y-127661812D01*
X148526637Y-127732202D01*
X148312784Y-127846509D01*
X148125340Y-128000340D01*
X147971509Y-128187785D01*
X147886465Y-128346890D01*
X147765053Y-128097430D01*
X147589049Y-127865571D01*
X147371193Y-127672504D01*
X147119858Y-127525648D01*
X146856890Y-127433524D01*
X146627000Y-127554845D01*
X146373000Y-127554845D01*
X146143110Y-127433524D01*
X145880142Y-127525648D01*
X145628807Y-127672504D01*
X145410951Y-127865571D01*
X145234947Y-128097430D01*
X145216048Y-128136260D01*
X145184671Y-128032821D01*
X145126190Y-127923411D01*
X145047488Y-127827512D01*
X144951589Y-127748810D01*
X144842179Y-127690329D01*
X144723462Y-127654317D01*
X144600000Y-127642157D01*
X143400000Y-127642157D01*
X143276538Y-127654317D01*
X143157821Y-127690329D01*
X143048411Y-127748810D01*
X142952512Y-127827512D01*
X142873810Y-127923411D01*
X142815329Y-128032821D01*
X142779317Y-128151538D01*
X142767157Y-128275000D01*
X137262001Y-128275000D01*
X137262001Y-122578945D01*
X137264458Y-122554001D01*
X137262001Y-122529054D01*
X137254650Y-122454416D01*
X137225602Y-122358658D01*
X137178430Y-122270406D01*
X137114949Y-122193053D01*
X137095566Y-122177146D01*
X136814318Y-121895898D01*
X136835614Y-121844485D01*
X136881000Y-121616318D01*
X136881000Y-121383682D01*
X136859382Y-121275000D01*
X142767157Y-121275000D01*
X142767157Y-122725000D01*
X142779317Y-122848462D01*
X142815329Y-122967179D01*
X142873810Y-123076589D01*
X142952512Y-123172488D01*
X143048411Y-123251190D01*
X143157821Y-123309671D01*
X143276538Y-123345683D01*
X143400000Y-123357843D01*
X144600000Y-123357843D01*
X144723462Y-123345683D01*
X144842179Y-123309671D01*
X144951589Y-123251190D01*
X145047488Y-123172488D01*
X145126190Y-123076589D01*
X145184671Y-122967179D01*
X145216048Y-122863740D01*
X145234947Y-122902570D01*
X145410951Y-123134429D01*
X145628807Y-123327496D01*
X145880142Y-123474352D01*
X146143110Y-123566476D01*
X146373000Y-123445155D01*
X146373000Y-122127000D01*
X146353000Y-122127000D01*
X146353000Y-121873000D01*
X146373000Y-121873000D01*
X146373000Y-120554845D01*
X146627000Y-120554845D01*
X146627000Y-121873000D01*
X146647000Y-121873000D01*
X146647000Y-122127000D01*
X146627000Y-122127000D01*
X146627000Y-123445155D01*
X146856890Y-123566476D01*
X147119858Y-123474352D01*
X147371193Y-123327496D01*
X147589049Y-123134429D01*
X147765053Y-122902570D01*
X147886465Y-122653110D01*
X147971509Y-122812216D01*
X148125341Y-122999660D01*
X148312785Y-123153491D01*
X148526638Y-123267798D01*
X148758683Y-123338188D01*
X149000000Y-123361956D01*
X149241318Y-123338188D01*
X149473363Y-123267798D01*
X149687216Y-123153491D01*
X149874660Y-122999660D01*
X150028491Y-122812215D01*
X150142798Y-122598362D01*
X150213188Y-122366317D01*
X150231000Y-122185471D01*
X150231000Y-121814529D01*
X150269000Y-121814529D01*
X150269000Y-122185472D01*
X150286812Y-122366318D01*
X150357202Y-122598363D01*
X150471509Y-122812216D01*
X150625341Y-122999660D01*
X150812785Y-123153491D01*
X151026638Y-123267798D01*
X151258683Y-123338188D01*
X151500000Y-123361956D01*
X151741318Y-123338188D01*
X151973363Y-123267798D01*
X152187216Y-123153491D01*
X152374660Y-122999660D01*
X152528491Y-122812215D01*
X152642798Y-122598362D01*
X152713188Y-122366317D01*
X152731000Y-122185471D01*
X152731000Y-121814528D01*
X152713188Y-121633682D01*
X152642798Y-121401637D01*
X152575110Y-121275000D01*
X157767157Y-121275000D01*
X157767157Y-122725000D01*
X157779317Y-122848462D01*
X157815329Y-122967179D01*
X157873810Y-123076589D01*
X157952512Y-123172488D01*
X158048411Y-123251190D01*
X158157821Y-123309671D01*
X158276538Y-123345683D01*
X158400000Y-123357843D01*
X159600000Y-123357843D01*
X159723462Y-123345683D01*
X159842179Y-123309671D01*
X159951589Y-123251190D01*
X160047488Y-123172488D01*
X160126190Y-123076589D01*
X160184671Y-122967179D01*
X160216048Y-122863740D01*
X160234947Y-122902570D01*
X160410951Y-123134429D01*
X160628807Y-123327496D01*
X160880142Y-123474352D01*
X161143110Y-123566476D01*
X161373000Y-123445155D01*
X161373000Y-122127000D01*
X161353000Y-122127000D01*
X161353000Y-121873000D01*
X161373000Y-121873000D01*
X161373000Y-120554845D01*
X161627000Y-120554845D01*
X161627000Y-121873000D01*
X161647000Y-121873000D01*
X161647000Y-122127000D01*
X161627000Y-122127000D01*
X161627000Y-123445155D01*
X161856890Y-123566476D01*
X162119858Y-123474352D01*
X162371193Y-123327496D01*
X162589049Y-123134429D01*
X162765053Y-122902570D01*
X162886465Y-122653110D01*
X162971509Y-122812216D01*
X163125341Y-122999660D01*
X163312785Y-123153491D01*
X163526638Y-123267798D01*
X163758683Y-123338188D01*
X164000000Y-123361956D01*
X164241318Y-123338188D01*
X164473363Y-123267798D01*
X164687216Y-123153491D01*
X164874660Y-122999660D01*
X165028491Y-122812215D01*
X165142798Y-122598362D01*
X165213188Y-122366317D01*
X165231000Y-122185471D01*
X165231000Y-121814529D01*
X165269000Y-121814529D01*
X165269000Y-122185472D01*
X165286812Y-122366318D01*
X165357202Y-122598363D01*
X165471509Y-122812216D01*
X165625341Y-122999660D01*
X165812785Y-123153491D01*
X166026638Y-123267798D01*
X166258683Y-123338188D01*
X166500000Y-123361956D01*
X166741318Y-123338188D01*
X166973363Y-123267798D01*
X167187216Y-123153491D01*
X167374660Y-122999660D01*
X167528491Y-122812215D01*
X167642798Y-122598362D01*
X167713188Y-122366317D01*
X167731000Y-122185471D01*
X167731000Y-121814529D01*
X167769000Y-121814529D01*
X167769000Y-122185472D01*
X167786812Y-122366318D01*
X167857202Y-122598363D01*
X167971509Y-122812216D01*
X168125341Y-122999660D01*
X168312785Y-123153491D01*
X168526638Y-123267798D01*
X168758683Y-123338188D01*
X169000000Y-123361956D01*
X169241318Y-123338188D01*
X169473363Y-123267798D01*
X169687216Y-123153491D01*
X169874660Y-122999660D01*
X170028491Y-122812215D01*
X170142798Y-122598362D01*
X170213188Y-122366317D01*
X170231000Y-122185471D01*
X170231000Y-121814529D01*
X170269000Y-121814529D01*
X170269000Y-122185472D01*
X170286812Y-122366318D01*
X170357202Y-122598363D01*
X170471509Y-122812216D01*
X170625341Y-122999660D01*
X170812785Y-123153491D01*
X171026638Y-123267798D01*
X171258683Y-123338188D01*
X171500000Y-123361956D01*
X171741318Y-123338188D01*
X171973363Y-123267798D01*
X172187216Y-123153491D01*
X172374660Y-122999660D01*
X172528491Y-122812215D01*
X172642798Y-122598362D01*
X172713188Y-122366317D01*
X172731000Y-122185471D01*
X172731000Y-121814528D01*
X172713188Y-121633682D01*
X172642798Y-121401637D01*
X172528491Y-121187784D01*
X172374660Y-121000340D01*
X172187215Y-120846509D01*
X171973362Y-120732202D01*
X171741317Y-120661812D01*
X171500000Y-120638044D01*
X171258682Y-120661812D01*
X171026637Y-120732202D01*
X170812784Y-120846509D01*
X170625340Y-121000340D01*
X170471509Y-121187785D01*
X170357202Y-121401638D01*
X170286812Y-121633683D01*
X170269000Y-121814529D01*
X170231000Y-121814529D01*
X170231000Y-121814528D01*
X170213188Y-121633682D01*
X170142798Y-121401637D01*
X170028491Y-121187784D01*
X169874660Y-121000340D01*
X169687215Y-120846509D01*
X169473362Y-120732202D01*
X169241317Y-120661812D01*
X169000000Y-120638044D01*
X168758682Y-120661812D01*
X168526637Y-120732202D01*
X168312784Y-120846509D01*
X168125340Y-121000340D01*
X167971509Y-121187785D01*
X167857202Y-121401638D01*
X167786812Y-121633683D01*
X167769000Y-121814529D01*
X167731000Y-121814529D01*
X167731000Y-121814528D01*
X167713188Y-121633682D01*
X167642798Y-121401637D01*
X167528491Y-121187784D01*
X167374660Y-121000340D01*
X167187215Y-120846509D01*
X166973362Y-120732202D01*
X166741317Y-120661812D01*
X166500000Y-120638044D01*
X166258682Y-120661812D01*
X166026637Y-120732202D01*
X165812784Y-120846509D01*
X165625340Y-121000340D01*
X165471509Y-121187785D01*
X165357202Y-121401638D01*
X165286812Y-121633683D01*
X165269000Y-121814529D01*
X165231000Y-121814529D01*
X165231000Y-121814528D01*
X165213188Y-121633682D01*
X165142798Y-121401637D01*
X165028491Y-121187784D01*
X164874660Y-121000340D01*
X164687215Y-120846509D01*
X164473362Y-120732202D01*
X164241317Y-120661812D01*
X164000000Y-120638044D01*
X163758682Y-120661812D01*
X163526637Y-120732202D01*
X163312784Y-120846509D01*
X163125340Y-121000340D01*
X162971509Y-121187785D01*
X162886465Y-121346890D01*
X162765053Y-121097430D01*
X162589049Y-120865571D01*
X162371193Y-120672504D01*
X162119858Y-120525648D01*
X161856890Y-120433524D01*
X161627000Y-120554845D01*
X161373000Y-120554845D01*
X161143110Y-120433524D01*
X160880142Y-120525648D01*
X160628807Y-120672504D01*
X160410951Y-120865571D01*
X160234947Y-121097430D01*
X160216048Y-121136260D01*
X160184671Y-121032821D01*
X160126190Y-120923411D01*
X160047488Y-120827512D01*
X159951589Y-120748810D01*
X159842179Y-120690329D01*
X159723462Y-120654317D01*
X159600000Y-120642157D01*
X158400000Y-120642157D01*
X158276538Y-120654317D01*
X158157821Y-120690329D01*
X158048411Y-120748810D01*
X157952512Y-120827512D01*
X157873810Y-120923411D01*
X157815329Y-121032821D01*
X157779317Y-121151538D01*
X157767157Y-121275000D01*
X152575110Y-121275000D01*
X152528491Y-121187784D01*
X152374660Y-121000340D01*
X152187215Y-120846509D01*
X151973362Y-120732202D01*
X151741317Y-120661812D01*
X151500000Y-120638044D01*
X151258682Y-120661812D01*
X151026637Y-120732202D01*
X150812784Y-120846509D01*
X150625340Y-121000340D01*
X150471509Y-121187785D01*
X150357202Y-121401638D01*
X150286812Y-121633683D01*
X150269000Y-121814529D01*
X150231000Y-121814529D01*
X150231000Y-121814528D01*
X150213188Y-121633682D01*
X150142798Y-121401637D01*
X150028491Y-121187784D01*
X149874660Y-121000340D01*
X149687215Y-120846509D01*
X149473362Y-120732202D01*
X149241317Y-120661812D01*
X149000000Y-120638044D01*
X148758682Y-120661812D01*
X148526637Y-120732202D01*
X148312784Y-120846509D01*
X148125340Y-121000340D01*
X147971509Y-121187785D01*
X147886465Y-121346890D01*
X147765053Y-121097430D01*
X147589049Y-120865571D01*
X147371193Y-120672504D01*
X147119858Y-120525648D01*
X146856890Y-120433524D01*
X146627000Y-120554845D01*
X146373000Y-120554845D01*
X146143110Y-120433524D01*
X145880142Y-120525648D01*
X145628807Y-120672504D01*
X145410951Y-120865571D01*
X145234947Y-121097430D01*
X145216048Y-121136260D01*
X145184671Y-121032821D01*
X145126190Y-120923411D01*
X145047488Y-120827512D01*
X144951589Y-120748810D01*
X144842179Y-120690329D01*
X144723462Y-120654317D01*
X144600000Y-120642157D01*
X143400000Y-120642157D01*
X143276538Y-120654317D01*
X143157821Y-120690329D01*
X143048411Y-120748810D01*
X142952512Y-120827512D01*
X142873810Y-120923411D01*
X142815329Y-121032821D01*
X142779317Y-121151538D01*
X142767157Y-121275000D01*
X136859382Y-121275000D01*
X136835614Y-121155515D01*
X136746588Y-120940587D01*
X136617342Y-120747157D01*
X136452843Y-120582658D01*
X136259413Y-120453412D01*
X136044485Y-120364386D01*
X135816318Y-120319000D01*
X135583682Y-120319000D01*
X135355515Y-120364386D01*
X135140587Y-120453412D01*
X134947157Y-120582658D01*
X134782658Y-120747157D01*
X134653412Y-120940587D01*
X134564386Y-121155515D01*
X134519000Y-121383682D01*
X124181000Y-121383682D01*
X124135614Y-121155515D01*
X124046588Y-120940587D01*
X123917342Y-120747157D01*
X123752843Y-120582658D01*
X123559413Y-120453412D01*
X123344485Y-120364386D01*
X123127002Y-120321125D01*
X123127002Y-120230625D01*
X123349040Y-120351909D01*
X123613881Y-120257070D01*
X123855131Y-120112385D01*
X124063519Y-119923414D01*
X124231037Y-119697420D01*
X124351246Y-119443087D01*
X124391904Y-119309039D01*
X124269915Y-119087000D01*
X123127000Y-119087000D01*
X123127000Y-119107000D01*
X122873000Y-119107000D01*
X122873000Y-119087000D01*
X121730085Y-119087000D01*
X121608096Y-119309039D01*
X114768591Y-119309039D01*
X115233948Y-118843682D01*
X134519000Y-118843682D01*
X134519000Y-119076318D01*
X134564386Y-119304485D01*
X134653412Y-119519413D01*
X134782658Y-119712843D01*
X134947157Y-119877342D01*
X135140587Y-120006588D01*
X135355515Y-120095614D01*
X135583682Y-120141000D01*
X135816318Y-120141000D01*
X136044485Y-120095614D01*
X136259413Y-120006588D01*
X136452843Y-119877342D01*
X136617342Y-119712843D01*
X136746588Y-119519413D01*
X136835614Y-119304485D01*
X136881000Y-119076318D01*
X136881000Y-118843682D01*
X136835614Y-118615515D01*
X136746588Y-118400587D01*
X136617342Y-118207157D01*
X136452843Y-118042658D01*
X136259413Y-117913412D01*
X136044485Y-117824386D01*
X135816318Y-117779000D01*
X135583682Y-117779000D01*
X135355515Y-117824386D01*
X135140587Y-117913412D01*
X134947157Y-118042658D01*
X134782658Y-118207157D01*
X134653412Y-118400587D01*
X134564386Y-118615515D01*
X134519000Y-118843682D01*
X115233948Y-118843682D01*
X116895631Y-117182000D01*
X122091815Y-117182000D01*
X122247157Y-117337342D01*
X122440587Y-117466588D01*
X122655515Y-117555614D01*
X122872998Y-117598875D01*
X122872998Y-117689375D01*
X122650960Y-117568091D01*
X122386119Y-117662930D01*
X122144869Y-117807615D01*
X121936481Y-117996586D01*
X121768963Y-118222580D01*
X121648754Y-118476913D01*
X121608096Y-118610961D01*
X121730085Y-118833000D01*
X122873000Y-118833000D01*
X122873000Y-118813000D01*
X123127000Y-118813000D01*
X123127000Y-118833000D01*
X124269915Y-118833000D01*
X124391904Y-118610961D01*
X124351246Y-118476913D01*
X124231037Y-118222580D01*
X124063519Y-117996586D01*
X123855131Y-117807615D01*
X123613881Y-117662930D01*
X123349040Y-117568091D01*
X123127002Y-117689375D01*
X123127002Y-117598875D01*
X123344485Y-117555614D01*
X123559413Y-117466588D01*
X123752843Y-117337342D01*
X123917342Y-117172843D01*
X124046588Y-116979413D01*
X124135614Y-116764485D01*
X124181000Y-116536318D01*
X124181000Y-116303682D01*
X134519000Y-116303682D01*
X134519000Y-116536318D01*
X134564386Y-116764485D01*
X134653412Y-116979413D01*
X134782658Y-117172843D01*
X134947157Y-117337342D01*
X135140587Y-117466588D01*
X135355515Y-117555614D01*
X135583682Y-117601000D01*
X135816318Y-117601000D01*
X136044485Y-117555614D01*
X136259413Y-117466588D01*
X136452843Y-117337342D01*
X136617342Y-117172843D01*
X136746588Y-116979413D01*
X136835614Y-116764485D01*
X136881000Y-116536318D01*
X136881000Y-116303682D01*
X136835614Y-116075515D01*
X136746588Y-115860587D01*
X136617342Y-115667157D01*
X136452843Y-115502658D01*
X136259413Y-115373412D01*
X136044485Y-115284386D01*
X135816318Y-115239000D01*
X135583682Y-115239000D01*
X135355515Y-115284386D01*
X135140587Y-115373412D01*
X134947157Y-115502658D01*
X134782658Y-115667157D01*
X134653412Y-115860587D01*
X134564386Y-116075515D01*
X134519000Y-116303682D01*
X124181000Y-116303682D01*
X124135614Y-116075515D01*
X124046588Y-115860587D01*
X123917342Y-115667157D01*
X123752843Y-115502658D01*
X123559413Y-115373412D01*
X123344485Y-115284386D01*
X123116318Y-115239000D01*
X122883682Y-115239000D01*
X122655515Y-115284386D01*
X122440587Y-115373412D01*
X122247157Y-115502658D01*
X122091815Y-115658000D01*
X116617423Y-115658000D01*
X116580000Y-115654314D01*
X116542577Y-115658000D01*
X116542574Y-115658000D01*
X116430622Y-115669026D01*
X116286985Y-115712598D01*
X116225364Y-115745535D01*
X116154607Y-115783355D01*
X116078661Y-115845683D01*
X116038578Y-115878578D01*
X116014721Y-115907648D01*
X112855356Y-119067014D01*
X112861956Y-119000000D01*
X112838188Y-118758682D01*
X112833710Y-118743920D01*
X116935631Y-114642000D01*
X122091815Y-114642000D01*
X122247157Y-114797342D01*
X122440587Y-114926588D01*
X122655515Y-115015614D01*
X122883682Y-115061000D01*
X123116318Y-115061000D01*
X123344485Y-115015614D01*
X123559413Y-114926588D01*
X123752843Y-114797342D01*
X123917342Y-114632843D01*
X124046588Y-114439413D01*
X124135614Y-114224485D01*
X124181000Y-113996318D01*
X124181000Y-113763682D01*
X134519000Y-113763682D01*
X134519000Y-113996318D01*
X134564386Y-114224485D01*
X134653412Y-114439413D01*
X134782658Y-114632843D01*
X134947157Y-114797342D01*
X135140587Y-114926588D01*
X135355515Y-115015614D01*
X135583682Y-115061000D01*
X135816318Y-115061000D01*
X136044485Y-115015614D01*
X136259413Y-114926588D01*
X136452843Y-114797342D01*
X136617342Y-114632843D01*
X136746588Y-114439413D01*
X136835614Y-114224485D01*
X136881000Y-113996318D01*
X136881000Y-113763682D01*
X136835614Y-113535515D01*
X136814318Y-113484102D01*
X137081965Y-113216455D01*
X157937200Y-113216455D01*
X157937200Y-113351545D01*
X157963555Y-113484040D01*
X158015252Y-113608848D01*
X158090305Y-113721172D01*
X158185828Y-113816695D01*
X158298152Y-113891748D01*
X158422960Y-113943445D01*
X158555455Y-113969800D01*
X158690545Y-113969800D01*
X158823040Y-113943445D01*
X158947848Y-113891748D01*
X159060172Y-113816695D01*
X159101867Y-113775000D01*
X163267157Y-113775000D01*
X163267157Y-115225000D01*
X163279317Y-115348462D01*
X163315329Y-115467179D01*
X163373810Y-115576589D01*
X163452512Y-115672488D01*
X163548411Y-115751190D01*
X163657821Y-115809671D01*
X163776538Y-115845683D01*
X163900000Y-115857843D01*
X165100000Y-115857843D01*
X165223462Y-115845683D01*
X165342179Y-115809671D01*
X165451589Y-115751190D01*
X165547488Y-115672488D01*
X165626190Y-115576589D01*
X165684671Y-115467179D01*
X165716048Y-115363740D01*
X165734947Y-115402570D01*
X165910951Y-115634429D01*
X166128807Y-115827496D01*
X166380142Y-115974352D01*
X166643110Y-116066476D01*
X166873000Y-115945155D01*
X166873000Y-114627000D01*
X166853000Y-114627000D01*
X166853000Y-114373000D01*
X166873000Y-114373000D01*
X166873000Y-113054845D01*
X167127000Y-113054845D01*
X167127000Y-114373000D01*
X167147000Y-114373000D01*
X167147000Y-114627000D01*
X167127000Y-114627000D01*
X167127000Y-115945155D01*
X167356890Y-116066476D01*
X167619858Y-115974352D01*
X167871193Y-115827496D01*
X168089049Y-115634429D01*
X168265053Y-115402570D01*
X168386465Y-115153110D01*
X168471509Y-115312216D01*
X168625341Y-115499660D01*
X168812785Y-115653491D01*
X169026638Y-115767798D01*
X169258683Y-115838188D01*
X169500000Y-115861956D01*
X169741318Y-115838188D01*
X169973363Y-115767798D01*
X170187216Y-115653491D01*
X170374660Y-115499660D01*
X170528491Y-115312215D01*
X170642798Y-115098362D01*
X170713188Y-114866317D01*
X170731000Y-114685471D01*
X170731000Y-114314528D01*
X170713188Y-114133682D01*
X170642798Y-113901637D01*
X170528491Y-113687784D01*
X170374660Y-113500340D01*
X170187215Y-113346509D01*
X169973362Y-113232202D01*
X169741317Y-113161812D01*
X169500000Y-113138044D01*
X169258682Y-113161812D01*
X169026637Y-113232202D01*
X168812784Y-113346509D01*
X168625340Y-113500340D01*
X168471509Y-113687785D01*
X168386465Y-113846890D01*
X168265053Y-113597430D01*
X168089049Y-113365571D01*
X167871193Y-113172504D01*
X167619858Y-113025648D01*
X167356890Y-112933524D01*
X167127000Y-113054845D01*
X166873000Y-113054845D01*
X166643110Y-112933524D01*
X166380142Y-113025648D01*
X166128807Y-113172504D01*
X165910951Y-113365571D01*
X165734947Y-113597430D01*
X165716048Y-113636260D01*
X165684671Y-113532821D01*
X165626190Y-113423411D01*
X165547488Y-113327512D01*
X165451589Y-113248810D01*
X165342179Y-113190329D01*
X165223462Y-113154317D01*
X165100000Y-113142157D01*
X163900000Y-113142157D01*
X163776538Y-113154317D01*
X163657821Y-113190329D01*
X163548411Y-113248810D01*
X163452512Y-113327512D01*
X163373810Y-113423411D01*
X163315329Y-113532821D01*
X163279317Y-113651538D01*
X163267157Y-113775000D01*
X159101867Y-113775000D01*
X159155695Y-113721172D01*
X159230748Y-113608848D01*
X159282445Y-113484040D01*
X159308800Y-113351545D01*
X159308800Y-113216455D01*
X159282445Y-113083960D01*
X159230748Y-112959152D01*
X159155695Y-112846828D01*
X159131000Y-112822133D01*
X159131000Y-108922420D01*
X161778420Y-106275000D01*
X163267157Y-106275000D01*
X163267157Y-107725000D01*
X163279317Y-107848462D01*
X163315329Y-107967179D01*
X163373810Y-108076589D01*
X163452512Y-108172488D01*
X163548411Y-108251190D01*
X163657821Y-108309671D01*
X163776538Y-108345683D01*
X163900000Y-108357843D01*
X165100000Y-108357843D01*
X165223462Y-108345683D01*
X165342179Y-108309671D01*
X165451589Y-108251190D01*
X165547488Y-108172488D01*
X165626190Y-108076589D01*
X165684671Y-107967179D01*
X165716048Y-107863740D01*
X165734947Y-107902570D01*
X165910951Y-108134429D01*
X166128807Y-108327496D01*
X166380142Y-108474352D01*
X166643110Y-108566476D01*
X166873000Y-108445155D01*
X166873000Y-107127000D01*
X166853000Y-107127000D01*
X166853000Y-106873000D01*
X166873000Y-106873000D01*
X166873000Y-105554845D01*
X167127000Y-105554845D01*
X167127000Y-106873000D01*
X167147000Y-106873000D01*
X167147000Y-107127000D01*
X167127000Y-107127000D01*
X167127000Y-108445155D01*
X167356890Y-108566476D01*
X167619858Y-108474352D01*
X167871193Y-108327496D01*
X168089049Y-108134429D01*
X168265053Y-107902570D01*
X168386465Y-107653110D01*
X168471509Y-107812216D01*
X168625341Y-107999660D01*
X168812785Y-108153491D01*
X169026638Y-108267798D01*
X169258683Y-108338188D01*
X169500000Y-108361956D01*
X169741318Y-108338188D01*
X169973363Y-108267798D01*
X170187216Y-108153491D01*
X170374660Y-107999660D01*
X170528491Y-107812215D01*
X170642798Y-107598362D01*
X170713188Y-107366317D01*
X170731000Y-107185471D01*
X170731000Y-106814528D01*
X170713188Y-106633682D01*
X170642798Y-106401637D01*
X170528491Y-106187784D01*
X170374660Y-106000340D01*
X170187215Y-105846509D01*
X169973362Y-105732202D01*
X169741317Y-105661812D01*
X169500000Y-105638044D01*
X169258682Y-105661812D01*
X169026637Y-105732202D01*
X168812784Y-105846509D01*
X168625340Y-106000340D01*
X168471509Y-106187785D01*
X168386465Y-106346890D01*
X168265053Y-106097430D01*
X168089049Y-105865571D01*
X167871193Y-105672504D01*
X167619858Y-105525648D01*
X167356890Y-105433524D01*
X167127000Y-105554845D01*
X166873000Y-105554845D01*
X166643110Y-105433524D01*
X166380142Y-105525648D01*
X166128807Y-105672504D01*
X165910951Y-105865571D01*
X165734947Y-106097430D01*
X165716048Y-106136260D01*
X165684671Y-106032821D01*
X165626190Y-105923411D01*
X165547488Y-105827512D01*
X165451589Y-105748810D01*
X165342179Y-105690329D01*
X165223462Y-105654317D01*
X165100000Y-105642157D01*
X163900000Y-105642157D01*
X163776538Y-105654317D01*
X163657821Y-105690329D01*
X163548411Y-105748810D01*
X163452512Y-105827512D01*
X163373810Y-105923411D01*
X163315329Y-106032821D01*
X163279317Y-106151538D01*
X163267157Y-106275000D01*
X161778420Y-106275000D01*
X165894621Y-102158800D01*
X165929545Y-102158800D01*
X166062040Y-102132445D01*
X166186848Y-102080748D01*
X166299172Y-102005695D01*
X166394695Y-101910172D01*
X166469748Y-101797848D01*
X166521445Y-101673040D01*
X166547800Y-101540545D01*
X166547800Y-101405455D01*
X166521445Y-101272960D01*
X166469748Y-101148152D01*
X166394695Y-101035828D01*
X166299172Y-100940305D01*
X166186848Y-100865252D01*
X166062040Y-100813555D01*
X165929545Y-100787200D01*
X165794455Y-100787200D01*
X165661960Y-100813555D01*
X165537152Y-100865252D01*
X165424828Y-100940305D01*
X165329305Y-101035828D01*
X165254252Y-101148152D01*
X165202555Y-101272960D01*
X165176200Y-101405455D01*
X165176200Y-101440379D01*
X158281435Y-108335145D01*
X158262052Y-108351052D01*
X158198571Y-108428405D01*
X158151399Y-108516658D01*
X158122351Y-108612416D01*
X158115332Y-108683682D01*
X158112543Y-108712000D01*
X158115000Y-108736944D01*
X158115001Y-112822132D01*
X158090305Y-112846828D01*
X158015252Y-112959152D01*
X157963555Y-113083960D01*
X157937200Y-113216455D01*
X137081965Y-113216455D01*
X138919420Y-111379000D01*
X153462133Y-111379000D01*
X153486828Y-111403695D01*
X153599152Y-111478748D01*
X153723960Y-111530445D01*
X153856455Y-111556800D01*
X153991545Y-111556800D01*
X154124040Y-111530445D01*
X154248848Y-111478748D01*
X154361172Y-111403695D01*
X154456695Y-111308172D01*
X154531748Y-111195848D01*
X154583445Y-111071040D01*
X154609800Y-110938545D01*
X154609800Y-110803455D01*
X154583445Y-110670960D01*
X154531748Y-110546152D01*
X154456695Y-110433828D01*
X154361172Y-110338305D01*
X154248848Y-110263252D01*
X154124040Y-110211555D01*
X153991545Y-110185200D01*
X153856455Y-110185200D01*
X153723960Y-110211555D01*
X153599152Y-110263252D01*
X153486828Y-110338305D01*
X153462133Y-110363000D01*
X138733944Y-110363000D01*
X138709000Y-110360543D01*
X138684056Y-110363000D01*
X138684053Y-110363000D01*
X138609415Y-110370351D01*
X138513657Y-110399399D01*
X138425405Y-110446571D01*
X138348052Y-110510052D01*
X138332145Y-110529435D01*
X136095898Y-112765682D01*
X136044485Y-112744386D01*
X135816318Y-112699000D01*
X135583682Y-112699000D01*
X135355515Y-112744386D01*
X135140587Y-112833412D01*
X134947157Y-112962658D01*
X134782658Y-113127157D01*
X134653412Y-113320587D01*
X134564386Y-113535515D01*
X134519000Y-113763682D01*
X124181000Y-113763682D01*
X124135614Y-113535515D01*
X124046588Y-113320587D01*
X123917342Y-113127157D01*
X123752843Y-112962658D01*
X123559413Y-112833412D01*
X123344485Y-112744386D01*
X123116318Y-112699000D01*
X122883682Y-112699000D01*
X122655515Y-112744386D01*
X122440587Y-112833412D01*
X122247157Y-112962658D01*
X122091815Y-113118000D01*
X116657422Y-113118000D01*
X116619999Y-113114314D01*
X116582576Y-113118000D01*
X116582574Y-113118000D01*
X116470622Y-113129026D01*
X116326985Y-113172598D01*
X116194608Y-113243355D01*
X116078578Y-113338578D01*
X116054721Y-113367648D01*
X112855356Y-116567014D01*
X112861956Y-116500000D01*
X112838188Y-116258682D01*
X112833710Y-116243920D01*
X116975631Y-112102000D01*
X122091815Y-112102000D01*
X122247157Y-112257342D01*
X122440587Y-112386588D01*
X122655515Y-112475614D01*
X122883682Y-112521000D01*
X123116318Y-112521000D01*
X123344485Y-112475614D01*
X123559413Y-112386588D01*
X123752843Y-112257342D01*
X123917342Y-112092843D01*
X124046588Y-111899413D01*
X124135614Y-111684485D01*
X124181000Y-111456318D01*
X124181000Y-111223682D01*
X134519000Y-111223682D01*
X134519000Y-111456318D01*
X134564386Y-111684485D01*
X134653412Y-111899413D01*
X134782658Y-112092843D01*
X134947157Y-112257342D01*
X135140587Y-112386588D01*
X135355515Y-112475614D01*
X135583682Y-112521000D01*
X135816318Y-112521000D01*
X136044485Y-112475614D01*
X136259413Y-112386588D01*
X136452843Y-112257342D01*
X136617342Y-112092843D01*
X136746588Y-111899413D01*
X136835614Y-111684485D01*
X136881000Y-111456318D01*
X136881000Y-111223682D01*
X136835614Y-110995515D01*
X136746588Y-110780587D01*
X136617342Y-110587157D01*
X136452843Y-110422658D01*
X136259413Y-110293412D01*
X136044485Y-110204386D01*
X135816318Y-110159000D01*
X135583682Y-110159000D01*
X135355515Y-110204386D01*
X135140587Y-110293412D01*
X134947157Y-110422658D01*
X134782658Y-110587157D01*
X134653412Y-110780587D01*
X134564386Y-110995515D01*
X134519000Y-111223682D01*
X124181000Y-111223682D01*
X124135614Y-110995515D01*
X124046588Y-110780587D01*
X123917342Y-110587157D01*
X123752843Y-110422658D01*
X123559413Y-110293412D01*
X123344485Y-110204386D01*
X123116318Y-110159000D01*
X122883682Y-110159000D01*
X122655515Y-110204386D01*
X122440587Y-110293412D01*
X122247157Y-110422658D01*
X122091815Y-110578000D01*
X116697423Y-110578000D01*
X116660000Y-110574314D01*
X116622577Y-110578000D01*
X116622574Y-110578000D01*
X116510622Y-110589026D01*
X116366985Y-110632598D01*
X116305364Y-110665535D01*
X116234607Y-110703355D01*
X116151904Y-110771228D01*
X116118578Y-110798578D01*
X116094721Y-110827648D01*
X112855356Y-114067014D01*
X112861956Y-114000000D01*
X112838188Y-113758682D01*
X112833710Y-113743920D01*
X117015630Y-109562000D01*
X122091815Y-109562000D01*
X122247157Y-109717342D01*
X122440587Y-109846588D01*
X122655515Y-109935614D01*
X122883682Y-109981000D01*
X123116318Y-109981000D01*
X123344485Y-109935614D01*
X123559413Y-109846588D01*
X123752843Y-109717342D01*
X123917342Y-109552843D01*
X124046588Y-109359413D01*
X124135614Y-109144485D01*
X124181000Y-108916318D01*
X124181000Y-108683682D01*
X134519000Y-108683682D01*
X134519000Y-108916318D01*
X134564386Y-109144485D01*
X134653412Y-109359413D01*
X134782658Y-109552843D01*
X134947157Y-109717342D01*
X135140587Y-109846588D01*
X135355515Y-109935614D01*
X135583682Y-109981000D01*
X135816318Y-109981000D01*
X136044485Y-109935614D01*
X136259413Y-109846588D01*
X136452843Y-109717342D01*
X136617342Y-109552843D01*
X136746588Y-109359413D01*
X136835614Y-109144485D01*
X136881000Y-108916318D01*
X136881000Y-108683682D01*
X136835614Y-108455515D01*
X136746588Y-108240587D01*
X136617342Y-108047157D01*
X136452843Y-107882658D01*
X136259413Y-107753412D01*
X136044485Y-107664386D01*
X135816318Y-107619000D01*
X135583682Y-107619000D01*
X135355515Y-107664386D01*
X135140587Y-107753412D01*
X134947157Y-107882658D01*
X134782658Y-108047157D01*
X134653412Y-108240587D01*
X134564386Y-108455515D01*
X134519000Y-108683682D01*
X124181000Y-108683682D01*
X124135614Y-108455515D01*
X124046588Y-108240587D01*
X123917342Y-108047157D01*
X123752843Y-107882658D01*
X123559413Y-107753412D01*
X123344485Y-107664386D01*
X123116318Y-107619000D01*
X122883682Y-107619000D01*
X122655515Y-107664386D01*
X122440587Y-107753412D01*
X122247157Y-107882658D01*
X122091815Y-108038000D01*
X116737423Y-108038000D01*
X116700000Y-108034314D01*
X116662577Y-108038000D01*
X116662574Y-108038000D01*
X116550622Y-108049026D01*
X116406985Y-108092598D01*
X116345364Y-108125535D01*
X116274607Y-108163355D01*
X116263479Y-108172488D01*
X116158578Y-108258578D01*
X116134716Y-108287654D01*
X115682843Y-108739527D01*
X115682843Y-106824000D01*
X115675487Y-106749311D01*
X115653701Y-106677492D01*
X115618322Y-106611304D01*
X115570711Y-106553289D01*
X115512696Y-106505678D01*
X115446508Y-106470299D01*
X115374689Y-106448513D01*
X115300000Y-106441157D01*
X112700000Y-106441157D01*
X112625311Y-106448513D01*
X112553492Y-106470299D01*
X112487304Y-106505678D01*
X112429289Y-106553289D01*
X112381678Y-106611304D01*
X112346299Y-106677492D01*
X112324513Y-106749311D01*
X112317157Y-106824000D01*
X112317157Y-109424000D01*
X112324513Y-109498689D01*
X112346299Y-109570508D01*
X112381678Y-109636696D01*
X112429289Y-109694711D01*
X112487304Y-109742322D01*
X112553492Y-109777701D01*
X112625311Y-109799487D01*
X112700000Y-109806843D01*
X114615527Y-109806843D01*
X111653370Y-112769000D01*
X111314528Y-112769000D01*
X111133682Y-112786812D01*
X110901637Y-112857202D01*
X110687784Y-112971509D01*
X110500340Y-113125340D01*
X110346509Y-113312784D01*
X110232202Y-113526637D01*
X110161812Y-113758682D01*
X110138044Y-114000000D01*
X107906000Y-114000000D01*
X107906000Y-102958436D01*
X112319000Y-102958436D01*
X112319000Y-103289564D01*
X112383600Y-103614330D01*
X112510317Y-103920252D01*
X112694282Y-104195575D01*
X112928425Y-104429718D01*
X113203748Y-104613683D01*
X113509670Y-104740400D01*
X113834436Y-104805000D01*
X114165564Y-104805000D01*
X114490330Y-104740400D01*
X114796252Y-104613683D01*
X114936458Y-104520000D01*
X121561928Y-104520000D01*
X121574188Y-104644482D01*
X121610498Y-104764180D01*
X121669463Y-104874494D01*
X121748815Y-104971185D01*
X121845506Y-105050537D01*
X121955820Y-105109502D01*
X122075518Y-105145812D01*
X122200000Y-105158072D01*
X122579665Y-105155804D01*
X122440587Y-105213412D01*
X122247157Y-105342658D01*
X122082658Y-105507157D01*
X121953412Y-105700587D01*
X121864386Y-105915515D01*
X121819000Y-106143682D01*
X121819000Y-106376318D01*
X121864386Y-106604485D01*
X121953412Y-106819413D01*
X122082658Y-107012843D01*
X122247157Y-107177342D01*
X122440587Y-107306588D01*
X122655515Y-107395614D01*
X122883682Y-107441000D01*
X123116318Y-107441000D01*
X123344485Y-107395614D01*
X123559413Y-107306588D01*
X123752843Y-107177342D01*
X123917342Y-107012843D01*
X124046588Y-106819413D01*
X124135614Y-106604485D01*
X124181000Y-106376318D01*
X124181000Y-106143682D01*
X124135614Y-105915515D01*
X124046588Y-105700587D01*
X123917342Y-105507157D01*
X123752843Y-105342658D01*
X123559413Y-105213412D01*
X123420335Y-105155804D01*
X123800000Y-105158072D01*
X123924482Y-105145812D01*
X124044180Y-105109502D01*
X124154494Y-105050537D01*
X124251185Y-104971185D01*
X124330537Y-104874494D01*
X124389502Y-104764180D01*
X124425812Y-104644482D01*
X124438072Y-104520000D01*
X124435000Y-104005750D01*
X124276250Y-103847000D01*
X123127000Y-103847000D01*
X123127000Y-103867000D01*
X122873000Y-103867000D01*
X122873000Y-103847000D01*
X121723750Y-103847000D01*
X121565000Y-104005750D01*
X121561928Y-104520000D01*
X114936458Y-104520000D01*
X115071575Y-104429718D01*
X115305718Y-104195575D01*
X115489683Y-103920252D01*
X115616400Y-103614330D01*
X115618518Y-103603682D01*
X134519000Y-103603682D01*
X134519000Y-103836318D01*
X134564386Y-104064485D01*
X134653412Y-104279413D01*
X134782658Y-104472843D01*
X134947157Y-104637342D01*
X135140587Y-104766588D01*
X135355515Y-104855614D01*
X135583682Y-104901000D01*
X135816318Y-104901000D01*
X136044485Y-104855614D01*
X136095898Y-104834318D01*
X137013579Y-105752000D01*
X136767884Y-105752000D01*
X136746588Y-105700587D01*
X136617342Y-105507157D01*
X136452843Y-105342658D01*
X136259413Y-105213412D01*
X136044485Y-105124386D01*
X135816318Y-105079000D01*
X135583682Y-105079000D01*
X135355515Y-105124386D01*
X135140587Y-105213412D01*
X134947157Y-105342658D01*
X134782658Y-105507157D01*
X134653412Y-105700587D01*
X134564386Y-105915515D01*
X134519000Y-106143682D01*
X134519000Y-106376318D01*
X134564386Y-106604485D01*
X134653412Y-106819413D01*
X134782658Y-107012843D01*
X134947157Y-107177342D01*
X135140587Y-107306588D01*
X135355515Y-107395614D01*
X135583682Y-107441000D01*
X135816318Y-107441000D01*
X136044485Y-107395614D01*
X136259413Y-107306588D01*
X136452843Y-107177342D01*
X136617342Y-107012843D01*
X136746588Y-106819413D01*
X136767884Y-106768000D01*
X150509056Y-106768000D01*
X150534000Y-106770457D01*
X150558944Y-106768000D01*
X150558947Y-106768000D01*
X150633585Y-106760649D01*
X150729343Y-106731601D01*
X150817595Y-106684429D01*
X150894948Y-106620948D01*
X150910855Y-106601565D01*
X158862420Y-98650000D01*
X161267157Y-98650000D01*
X161267157Y-100350000D01*
X161274513Y-100424689D01*
X161296299Y-100496508D01*
X161331678Y-100562696D01*
X161379289Y-100620711D01*
X161437304Y-100668322D01*
X161503492Y-100703701D01*
X161575311Y-100725487D01*
X161650000Y-100732843D01*
X163350000Y-100732843D01*
X163424689Y-100725487D01*
X163496508Y-100703701D01*
X163562696Y-100668322D01*
X163620711Y-100620711D01*
X163668322Y-100562696D01*
X163703701Y-100496508D01*
X163725487Y-100424689D01*
X163732843Y-100350000D01*
X163732843Y-98650000D01*
X163725487Y-98575311D01*
X163703701Y-98503492D01*
X163668322Y-98437304D01*
X163620711Y-98379289D01*
X163562696Y-98331678D01*
X163496508Y-98296299D01*
X163424689Y-98274513D01*
X163350000Y-98267157D01*
X161650000Y-98267157D01*
X161575311Y-98274513D01*
X161503492Y-98296299D01*
X161437304Y-98331678D01*
X161379289Y-98379289D01*
X161331678Y-98437304D01*
X161296299Y-98503492D01*
X161274513Y-98575311D01*
X161267157Y-98650000D01*
X158862420Y-98650000D01*
X159671621Y-97840800D01*
X159706545Y-97840800D01*
X159839040Y-97814445D01*
X159963848Y-97762748D01*
X160076172Y-97687695D01*
X160171695Y-97592172D01*
X160246748Y-97479848D01*
X160298445Y-97355040D01*
X160324800Y-97222545D01*
X160324800Y-97087455D01*
X160298445Y-96954960D01*
X160246748Y-96830152D01*
X160171695Y-96717828D01*
X160076172Y-96622305D01*
X159963848Y-96547252D01*
X159898056Y-96520000D01*
X159963848Y-96492748D01*
X160076172Y-96417695D01*
X160171695Y-96322172D01*
X160246748Y-96209848D01*
X160298445Y-96085040D01*
X160324800Y-95952545D01*
X160324800Y-95817455D01*
X160298445Y-95684960D01*
X160246748Y-95560152D01*
X160171695Y-95447828D01*
X160076172Y-95352305D01*
X159963848Y-95277252D01*
X159839040Y-95225555D01*
X159706545Y-95199200D01*
X159571455Y-95199200D01*
X159438960Y-95225555D01*
X159314152Y-95277252D01*
X159201828Y-95352305D01*
X159106305Y-95447828D01*
X159031252Y-95560152D01*
X158979555Y-95684960D01*
X158953200Y-95817455D01*
X158953200Y-95852379D01*
X149776580Y-105029000D01*
X137727421Y-105029000D01*
X136814318Y-104115898D01*
X136835614Y-104064485D01*
X136881000Y-103836318D01*
X136881000Y-103603682D01*
X136835614Y-103375515D01*
X136746588Y-103160587D01*
X136617342Y-102967157D01*
X136452843Y-102802658D01*
X136259413Y-102673412D01*
X136044485Y-102584386D01*
X135816318Y-102539000D01*
X135583682Y-102539000D01*
X135355515Y-102584386D01*
X135140587Y-102673412D01*
X134947157Y-102802658D01*
X134782658Y-102967157D01*
X134653412Y-103160587D01*
X134564386Y-103375515D01*
X134519000Y-103603682D01*
X115618518Y-103603682D01*
X115681000Y-103289564D01*
X115681000Y-102958436D01*
X115673355Y-102920000D01*
X121561928Y-102920000D01*
X121565000Y-103434250D01*
X121723750Y-103593000D01*
X122873000Y-103593000D01*
X122873000Y-102443750D01*
X123127000Y-102443750D01*
X123127000Y-103593000D01*
X124276250Y-103593000D01*
X124435000Y-103434250D01*
X124438072Y-102920000D01*
X124425812Y-102795518D01*
X124389502Y-102675820D01*
X124330537Y-102565506D01*
X124251185Y-102468815D01*
X124154494Y-102389463D01*
X124044180Y-102330498D01*
X123924482Y-102294188D01*
X123800000Y-102281928D01*
X123285750Y-102285000D01*
X123127000Y-102443750D01*
X122873000Y-102443750D01*
X122714250Y-102285000D01*
X122200000Y-102281928D01*
X122075518Y-102294188D01*
X121955820Y-102330498D01*
X121845506Y-102389463D01*
X121748815Y-102468815D01*
X121669463Y-102565506D01*
X121610498Y-102675820D01*
X121574188Y-102795518D01*
X121561928Y-102920000D01*
X115673355Y-102920000D01*
X115616400Y-102633670D01*
X115489683Y-102327748D01*
X115305718Y-102052425D01*
X115071575Y-101818282D01*
X114796252Y-101634317D01*
X114490330Y-101507600D01*
X114165564Y-101443000D01*
X113834436Y-101443000D01*
X113509670Y-101507600D01*
X113203748Y-101634317D01*
X112928425Y-101818282D01*
X112694282Y-102052425D01*
X112510317Y-102327748D01*
X112383600Y-102633670D01*
X112319000Y-102958436D01*
X107906000Y-102958436D01*
X107906000Y-96664000D01*
X112317157Y-96664000D01*
X112317157Y-99264000D01*
X112324513Y-99338689D01*
X112346299Y-99410508D01*
X112381678Y-99476696D01*
X112429289Y-99534711D01*
X112487304Y-99582322D01*
X112553492Y-99617701D01*
X112625311Y-99639487D01*
X112700000Y-99646843D01*
X115300000Y-99646843D01*
X115374689Y-99639487D01*
X115446508Y-99617701D01*
X115512696Y-99582322D01*
X115570711Y-99534711D01*
X115618322Y-99476696D01*
X115653701Y-99410508D01*
X115675487Y-99338689D01*
X115682843Y-99264000D01*
X115682843Y-96664000D01*
X115675487Y-96589311D01*
X115653701Y-96517492D01*
X115618322Y-96451304D01*
X115570711Y-96393289D01*
X115512696Y-96345678D01*
X115446508Y-96310299D01*
X115374689Y-96288513D01*
X115300000Y-96281157D01*
X112700000Y-96281157D01*
X112625311Y-96288513D01*
X112553492Y-96310299D01*
X112487304Y-96345678D01*
X112429289Y-96393289D01*
X112381678Y-96451304D01*
X112346299Y-96517492D01*
X112324513Y-96589311D01*
X112317157Y-96664000D01*
X107906000Y-96664000D01*
X107906000Y-94313224D01*
X112830381Y-94313224D01*
X112962317Y-94608312D01*
X113303045Y-94779159D01*
X113670557Y-94880250D01*
X114050729Y-94907701D01*
X114428951Y-94860457D01*
X114790690Y-94740333D01*
X115037683Y-94608312D01*
X115169619Y-94313224D01*
X114000000Y-93143605D01*
X112830381Y-94313224D01*
X107906000Y-94313224D01*
X107906000Y-93014729D01*
X112056299Y-93014729D01*
X112103543Y-93392951D01*
X112223667Y-93754690D01*
X112355688Y-94001683D01*
X112650776Y-94133619D01*
X113820395Y-92964000D01*
X114179605Y-92964000D01*
X115349224Y-94133619D01*
X115644312Y-94001683D01*
X115815159Y-93660955D01*
X115850780Y-93531455D01*
X119583200Y-93531455D01*
X119583200Y-93666545D01*
X119609555Y-93799040D01*
X119661252Y-93923848D01*
X119736305Y-94036172D01*
X119831828Y-94131695D01*
X119944152Y-94206748D01*
X120068960Y-94258445D01*
X120201455Y-94284800D01*
X120336545Y-94284800D01*
X120469040Y-94258445D01*
X120593848Y-94206748D01*
X120706172Y-94131695D01*
X120801695Y-94036172D01*
X120876748Y-93923848D01*
X120928445Y-93799040D01*
X120954800Y-93666545D01*
X120954800Y-93531455D01*
X120928445Y-93398960D01*
X120876748Y-93274152D01*
X120801695Y-93161828D01*
X120777000Y-93137133D01*
X120777000Y-92158420D01*
X120800965Y-92134455D01*
X131013200Y-92134455D01*
X131013200Y-92269545D01*
X131039555Y-92402040D01*
X131091252Y-92526848D01*
X131166305Y-92639172D01*
X131261828Y-92734695D01*
X131374152Y-92809748D01*
X131498960Y-92861445D01*
X131631455Y-92887800D01*
X131766545Y-92887800D01*
X131899040Y-92861445D01*
X132023848Y-92809748D01*
X132136172Y-92734695D01*
X132160867Y-92710000D01*
X133266580Y-92710000D01*
X134950200Y-94393621D01*
X134950200Y-94428545D01*
X134976555Y-94561040D01*
X135028252Y-94685848D01*
X135103305Y-94798172D01*
X135198828Y-94893695D01*
X135311152Y-94968748D01*
X135435960Y-95020445D01*
X135568455Y-95046800D01*
X135703545Y-95046800D01*
X135836040Y-95020445D01*
X135960848Y-94968748D01*
X136073172Y-94893695D01*
X136168695Y-94798172D01*
X136182915Y-94776890D01*
X161058524Y-94776890D01*
X161103175Y-94924099D01*
X161228359Y-95186920D01*
X161402412Y-95420269D01*
X161618645Y-95615178D01*
X161868748Y-95764157D01*
X162031168Y-95821772D01*
X161916903Y-95869102D01*
X161715283Y-96003820D01*
X161543820Y-96175283D01*
X161409102Y-96376903D01*
X161316307Y-96600931D01*
X161269000Y-96838757D01*
X161269000Y-97081243D01*
X161316307Y-97319069D01*
X161409102Y-97543097D01*
X161543820Y-97744717D01*
X161715283Y-97916180D01*
X161916903Y-98050898D01*
X162140931Y-98143693D01*
X162378757Y-98191000D01*
X162621243Y-98191000D01*
X162859069Y-98143693D01*
X163083097Y-98050898D01*
X163284717Y-97916180D01*
X163456180Y-97744717D01*
X163590898Y-97543097D01*
X163683693Y-97319069D01*
X163731000Y-97081243D01*
X163731000Y-96838757D01*
X163683693Y-96600931D01*
X163590898Y-96376903D01*
X163456180Y-96175283D01*
X163284717Y-96003820D01*
X163083097Y-95869102D01*
X162968832Y-95821772D01*
X163131252Y-95764157D01*
X163381355Y-95615178D01*
X163597588Y-95420269D01*
X163771641Y-95186920D01*
X163896825Y-94924099D01*
X163941476Y-94776890D01*
X163820155Y-94547000D01*
X162627000Y-94547000D01*
X162627000Y-94567000D01*
X162373000Y-94567000D01*
X162373000Y-94547000D01*
X161179845Y-94547000D01*
X161058524Y-94776890D01*
X136182915Y-94776890D01*
X136243748Y-94685848D01*
X136295445Y-94561040D01*
X136321800Y-94428545D01*
X136321800Y-94293455D01*
X136295445Y-94160960D01*
X136254915Y-94063110D01*
X161058524Y-94063110D01*
X161179845Y-94293000D01*
X162373000Y-94293000D01*
X162373000Y-93099186D01*
X162627000Y-93099186D01*
X162627000Y-94293000D01*
X163820155Y-94293000D01*
X163941476Y-94063110D01*
X163896825Y-93915901D01*
X163771641Y-93653080D01*
X163597588Y-93419731D01*
X163381355Y-93224822D01*
X163131252Y-93075843D01*
X162856891Y-92978519D01*
X162627000Y-93099186D01*
X162373000Y-93099186D01*
X162143109Y-92978519D01*
X161868748Y-93075843D01*
X161618645Y-93224822D01*
X161402412Y-93419731D01*
X161228359Y-93653080D01*
X161103175Y-93915901D01*
X161058524Y-94063110D01*
X136254915Y-94063110D01*
X136243748Y-94036152D01*
X136168695Y-93923828D01*
X136073172Y-93828305D01*
X135960848Y-93753252D01*
X135836040Y-93701555D01*
X135703545Y-93675200D01*
X135668621Y-93675200D01*
X133853855Y-91860435D01*
X133837948Y-91841052D01*
X133760595Y-91777571D01*
X133672343Y-91730399D01*
X133576585Y-91701351D01*
X133501947Y-91694000D01*
X133501944Y-91694000D01*
X133477000Y-91691543D01*
X133452056Y-91694000D01*
X132160867Y-91694000D01*
X132136172Y-91669305D01*
X132023848Y-91594252D01*
X131899040Y-91542555D01*
X131766545Y-91516200D01*
X131631455Y-91516200D01*
X131498960Y-91542555D01*
X131374152Y-91594252D01*
X131261828Y-91669305D01*
X131166305Y-91764828D01*
X131091252Y-91877152D01*
X131039555Y-92001960D01*
X131013200Y-92134455D01*
X120800965Y-92134455D01*
X121444621Y-91490800D01*
X121479545Y-91490800D01*
X121612040Y-91464445D01*
X121736848Y-91412748D01*
X121849172Y-91337695D01*
X121944695Y-91242172D01*
X122019748Y-91129848D01*
X122071445Y-91005040D01*
X122097800Y-90872545D01*
X122097800Y-90737455D01*
X122071445Y-90604960D01*
X122019748Y-90480152D01*
X121944695Y-90367828D01*
X121849172Y-90272305D01*
X121736848Y-90197252D01*
X121612040Y-90145555D01*
X121479545Y-90119200D01*
X121344455Y-90119200D01*
X121211960Y-90145555D01*
X121087152Y-90197252D01*
X120974828Y-90272305D01*
X120879305Y-90367828D01*
X120804252Y-90480152D01*
X120752555Y-90604960D01*
X120726200Y-90737455D01*
X120726200Y-90772379D01*
X119927435Y-91571145D01*
X119908052Y-91587052D01*
X119844571Y-91664405D01*
X119797399Y-91752658D01*
X119768351Y-91848416D01*
X119761458Y-91918405D01*
X119758543Y-91948000D01*
X119761000Y-91972945D01*
X119761001Y-93137132D01*
X119736305Y-93161828D01*
X119661252Y-93274152D01*
X119609555Y-93398960D01*
X119583200Y-93531455D01*
X115850780Y-93531455D01*
X115916250Y-93293443D01*
X115943701Y-92913271D01*
X115896457Y-92535049D01*
X115776333Y-92173310D01*
X115644312Y-91926317D01*
X115349224Y-91794381D01*
X114179605Y-92964000D01*
X113820395Y-92964000D01*
X112650776Y-91794381D01*
X112355688Y-91926317D01*
X112184841Y-92267045D01*
X112083750Y-92634557D01*
X112056299Y-93014729D01*
X107906000Y-93014729D01*
X107906000Y-91614776D01*
X112830381Y-91614776D01*
X114000000Y-92784395D01*
X115169619Y-91614776D01*
X115037683Y-91319688D01*
X114696955Y-91148841D01*
X114329443Y-91047750D01*
X113949271Y-91020299D01*
X113571049Y-91067543D01*
X113209310Y-91187667D01*
X112962317Y-91319688D01*
X112830381Y-91614776D01*
X107906000Y-91614776D01*
X107906000Y-86286715D01*
X110334478Y-86286715D01*
X110334478Y-86713285D01*
X110417698Y-87131659D01*
X110580939Y-87525759D01*
X110817929Y-87880440D01*
X111119560Y-88182071D01*
X111474241Y-88419061D01*
X111868341Y-88582302D01*
X112286715Y-88665522D01*
X112713285Y-88665522D01*
X113131659Y-88582302D01*
X113525759Y-88419061D01*
X113880440Y-88182071D01*
X114182071Y-87880440D01*
X114419061Y-87525759D01*
X114582302Y-87131659D01*
X114665522Y-86713285D01*
X114665522Y-86286715D01*
X170334478Y-86286715D01*
X170334478Y-86713285D01*
X170417698Y-87131659D01*
X170580939Y-87525759D01*
X170817929Y-87880440D01*
X171119560Y-88182071D01*
X171474241Y-88419061D01*
X171868341Y-88582302D01*
X172286715Y-88665522D01*
X172713285Y-88665522D01*
X173131659Y-88582302D01*
X173525759Y-88419061D01*
X173880440Y-88182071D01*
X174182071Y-87880440D01*
X174419061Y-87525759D01*
X174582302Y-87131659D01*
X174665522Y-86713285D01*
X174665522Y-86286715D01*
X174582302Y-85868341D01*
X174419061Y-85474241D01*
X174182071Y-85119560D01*
X173880440Y-84817929D01*
X173525759Y-84580939D01*
X173131659Y-84417698D01*
X172713285Y-84334478D01*
X172286715Y-84334478D01*
X171868341Y-84417698D01*
X171474241Y-84580939D01*
X171119560Y-84817929D01*
X170817929Y-85119560D01*
X170580939Y-85474241D01*
X170417698Y-85868341D01*
X170334478Y-86286715D01*
X114665522Y-86286715D01*
X114582302Y-85868341D01*
X114419061Y-85474241D01*
X114182071Y-85119560D01*
X113880440Y-84817929D01*
X113525759Y-84580939D01*
X113131659Y-84417698D01*
X112713285Y-84334478D01*
X112286715Y-84334478D01*
X111868341Y-84417698D01*
X111474241Y-84580939D01*
X111119560Y-84817929D01*
X110817929Y-85119560D01*
X110580939Y-85474241D01*
X110417698Y-85868341D01*
X110334478Y-86286715D01*
X107906000Y-86286715D01*
X107906000Y-81906000D01*
X177094000Y-81906000D01*
X177094001Y-151094000D01*
G37*
G04 #@! TD.AperFunction*
M02*
