%TF.GenerationSoftware,KiCad,Pcbnew,6.0.7-f9a2dced07~116~ubuntu20.04.1*%
%TF.CreationDate,2022-08-24T01:16:21-05:00*%
%TF.ProjectId,MuscleRoller,4d757363-6c65-4526-9f6c-6c65722e6b69,rev?*%
%TF.SameCoordinates,Original*%
%TF.FileFunction,Drillmap*%
%TF.FilePolarity,Positive*%
%FSLAX45Y45*%
G04 Gerber Fmt 4.5, Leading zero omitted, Abs format (unit mm)*
G04 Created by KiCad (PCBNEW 6.0.7-f9a2dced07~116~ubuntu20.04.1) date 2022-08-24 01:16:21*
%MOMM*%
%LPD*%
G01*
G04 APERTURE LIST*
%ADD10C,0.050000*%
%ADD11C,0.200000*%
%ADD12C,0.030480*%
%ADD13C,0.080000*%
%ADD14C,0.095000*%
%ADD15C,0.100000*%
%ADD16C,0.130000*%
G04 APERTURE END LIST*
D10*
X11425000Y-14650000D02*
G75*
G03*
X11425000Y-14650000I-175000J0D01*
G01*
X17425000Y-14650000D02*
G75*
G03*
X17425000Y-14650000I-175000J0D01*
G01*
X10750000Y-15150000D02*
X17750000Y-15150000D01*
X17750000Y-8150000D02*
X17750000Y-15150000D01*
X17750000Y-8150000D02*
X10750000Y-8150000D01*
X10750000Y-8150000D02*
X10750000Y-15150000D01*
X17425000Y-8650000D02*
G75*
G03*
X17425000Y-8650000I-175000J0D01*
G01*
X11425000Y-8650000D02*
G75*
G03*
X11425000Y-8650000I-175000J0D01*
G01*
D11*
D12*
X12011660Y-9344660D02*
X12042140Y-9375140D01*
X12042140Y-9344660D02*
X12011660Y-9375140D01*
X12125960Y-9065260D02*
X12156440Y-9095740D01*
X12156440Y-9065260D02*
X12125960Y-9095740D01*
X12646660Y-9751060D02*
X12677140Y-9781540D01*
X12677140Y-9751060D02*
X12646660Y-9781540D01*
X13154660Y-9204960D02*
X13185140Y-9235440D01*
X13185140Y-9204960D02*
X13154660Y-9235440D01*
X13548360Y-9420860D02*
X13578840Y-9451340D01*
X13578840Y-9420860D02*
X13548360Y-9451340D01*
X13754760Y-9114760D02*
X13785240Y-9145240D01*
X13785240Y-9114760D02*
X13754760Y-9145240D01*
X13754760Y-9214760D02*
X13785240Y-9245240D01*
X13785240Y-9214760D02*
X13754760Y-9245240D01*
X13916660Y-9966960D02*
X13947140Y-9997440D01*
X13947140Y-9966960D02*
X13916660Y-9997440D01*
X14386560Y-11376660D02*
X14417040Y-11407140D01*
X14417040Y-11376660D02*
X14386560Y-11407140D01*
X15377160Y-11071860D02*
X15407640Y-11102340D01*
X15407640Y-11071860D02*
X15377160Y-11102340D01*
X15847060Y-11313160D02*
X15877540Y-11343640D01*
X15877540Y-11313160D02*
X15847060Y-11343640D01*
X15948660Y-9573260D02*
X15979140Y-9603740D01*
X15979140Y-9573260D02*
X15948660Y-9603740D01*
X15948660Y-9700260D02*
X15979140Y-9730740D01*
X15979140Y-9700260D02*
X15948660Y-9730740D01*
X16570960Y-10132060D02*
X16601440Y-10162540D01*
X16601440Y-10132060D02*
X16570960Y-10162540D01*
D13*
X12340000Y-10372000D02*
G75*
G03*
X12340000Y-10372000I-40000J0D01*
G01*
X12340000Y-10626000D02*
G75*
G03*
X12340000Y-10626000I-40000J0D01*
G01*
X12340000Y-10880000D02*
G75*
G03*
X12340000Y-10880000I-40000J0D01*
G01*
X12340000Y-11134000D02*
G75*
G03*
X12340000Y-11134000I-40000J0D01*
G01*
X12340000Y-11388000D02*
G75*
G03*
X12340000Y-11388000I-40000J0D01*
G01*
X12340000Y-11642000D02*
G75*
G03*
X12340000Y-11642000I-40000J0D01*
G01*
X12340000Y-11896000D02*
G75*
G03*
X12340000Y-11896000I-40000J0D01*
G01*
X12340000Y-12150000D02*
G75*
G03*
X12340000Y-12150000I-40000J0D01*
G01*
X12340000Y-12500000D02*
G75*
G03*
X12340000Y-12500000I-40000J0D01*
G01*
X12340000Y-12754000D02*
G75*
G03*
X12340000Y-12754000I-40000J0D01*
G01*
X12340000Y-13008000D02*
G75*
G03*
X12340000Y-13008000I-40000J0D01*
G01*
X12340000Y-13262000D02*
G75*
G03*
X12340000Y-13262000I-40000J0D01*
G01*
X12340000Y-13516000D02*
G75*
G03*
X12340000Y-13516000I-40000J0D01*
G01*
X12340000Y-13770000D02*
G75*
G03*
X12340000Y-13770000I-40000J0D01*
G01*
X12340000Y-14024000D02*
G75*
G03*
X12340000Y-14024000I-40000J0D01*
G01*
X12340000Y-14278000D02*
G75*
G03*
X12340000Y-14278000I-40000J0D01*
G01*
X13610000Y-10372000D02*
G75*
G03*
X13610000Y-10372000I-40000J0D01*
G01*
X13610000Y-10626000D02*
G75*
G03*
X13610000Y-10626000I-40000J0D01*
G01*
X13610000Y-10880000D02*
G75*
G03*
X13610000Y-10880000I-40000J0D01*
G01*
X13610000Y-11134000D02*
G75*
G03*
X13610000Y-11134000I-40000J0D01*
G01*
X13610000Y-11388000D02*
G75*
G03*
X13610000Y-11388000I-40000J0D01*
G01*
X13610000Y-11642000D02*
G75*
G03*
X13610000Y-11642000I-40000J0D01*
G01*
X13610000Y-11896000D02*
G75*
G03*
X13610000Y-11896000I-40000J0D01*
G01*
X13610000Y-12150000D02*
G75*
G03*
X13610000Y-12150000I-40000J0D01*
G01*
X13610000Y-12500000D02*
G75*
G03*
X13610000Y-12500000I-40000J0D01*
G01*
X13610000Y-12754000D02*
G75*
G03*
X13610000Y-12754000I-40000J0D01*
G01*
X13610000Y-13008000D02*
G75*
G03*
X13610000Y-13008000I-40000J0D01*
G01*
X13610000Y-13262000D02*
G75*
G03*
X13610000Y-13262000I-40000J0D01*
G01*
X13610000Y-13516000D02*
G75*
G03*
X13610000Y-13516000I-40000J0D01*
G01*
X13610000Y-13770000D02*
G75*
G03*
X13610000Y-13770000I-40000J0D01*
G01*
X13610000Y-14024000D02*
G75*
G03*
X13610000Y-14024000I-40000J0D01*
G01*
X13610000Y-14278000D02*
G75*
G03*
X13610000Y-14278000I-40000J0D01*
G01*
D14*
X11150000Y-11352500D02*
X11150000Y-11447500D01*
X11102500Y-11400000D02*
X11197500Y-11400000D01*
X11150000Y-11602500D02*
X11150000Y-11697500D01*
X11102500Y-11650000D02*
X11197500Y-11650000D01*
X11150000Y-11852500D02*
X11150000Y-11947500D01*
X11102500Y-11900000D02*
X11197500Y-11900000D01*
X11150000Y-12102500D02*
X11150000Y-12197500D01*
X11102500Y-12150000D02*
X11197500Y-12150000D01*
X11150000Y-12802500D02*
X11150000Y-12897500D01*
X11102500Y-12850000D02*
X11197500Y-12850000D01*
X11150000Y-13052500D02*
X11150000Y-13147500D01*
X11102500Y-13100000D02*
X11197500Y-13100000D01*
X11150000Y-13302500D02*
X11150000Y-13397500D01*
X11102500Y-13350000D02*
X11197500Y-13350000D01*
X11150000Y-13552500D02*
X11150000Y-13647500D01*
X11102500Y-13600000D02*
X11197500Y-13600000D01*
X14400000Y-12152500D02*
X14400000Y-12247500D01*
X14352500Y-12200000D02*
X14447500Y-12200000D01*
X14400000Y-12852500D02*
X14400000Y-12947500D01*
X14352500Y-12900000D02*
X14447500Y-12900000D01*
X14650000Y-12152500D02*
X14650000Y-12247500D01*
X14602500Y-12200000D02*
X14697500Y-12200000D01*
X14650000Y-12852500D02*
X14650000Y-12947500D01*
X14602500Y-12900000D02*
X14697500Y-12900000D01*
X14900000Y-12152500D02*
X14900000Y-12247500D01*
X14852500Y-12200000D02*
X14947500Y-12200000D01*
X14900000Y-12852500D02*
X14900000Y-12947500D01*
X14852500Y-12900000D02*
X14947500Y-12900000D01*
X15150000Y-12152500D02*
X15150000Y-12247500D01*
X15102500Y-12200000D02*
X15197500Y-12200000D01*
X15150000Y-12852500D02*
X15150000Y-12947500D01*
X15102500Y-12900000D02*
X15197500Y-12900000D01*
X15900000Y-12152500D02*
X15900000Y-12247500D01*
X15852500Y-12200000D02*
X15947500Y-12200000D01*
X15900000Y-12852500D02*
X15900000Y-12947500D01*
X15852500Y-12900000D02*
X15947500Y-12900000D01*
X16150000Y-12152500D02*
X16150000Y-12247500D01*
X16102500Y-12200000D02*
X16197500Y-12200000D01*
X16150000Y-12852500D02*
X16150000Y-12947500D01*
X16102500Y-12900000D02*
X16197500Y-12900000D01*
X16400000Y-12152500D02*
X16400000Y-12247500D01*
X16352500Y-12200000D02*
X16447500Y-12200000D01*
X16400000Y-12852500D02*
X16400000Y-12947500D01*
X16352500Y-12900000D02*
X16447500Y-12900000D01*
X16450000Y-10652500D02*
X16450000Y-10747500D01*
X16402500Y-10700000D02*
X16497500Y-10700000D01*
X16450000Y-11402500D02*
X16450000Y-11497500D01*
X16402500Y-11450000D02*
X16497500Y-11450000D01*
X16650000Y-12152500D02*
X16650000Y-12247500D01*
X16602500Y-12200000D02*
X16697500Y-12200000D01*
X16650000Y-12852500D02*
X16650000Y-12947500D01*
X16602500Y-12900000D02*
X16697500Y-12900000D01*
X16700000Y-10652500D02*
X16700000Y-10747500D01*
X16652500Y-10700000D02*
X16747500Y-10700000D01*
X16700000Y-11402500D02*
X16700000Y-11497500D01*
X16652500Y-11450000D02*
X16747500Y-11450000D01*
X16900000Y-12152500D02*
X16900000Y-12247500D01*
X16852500Y-12200000D02*
X16947500Y-12200000D01*
X16900000Y-12852500D02*
X16900000Y-12947500D01*
X16852500Y-12900000D02*
X16947500Y-12900000D01*
X16950000Y-10652500D02*
X16950000Y-10747500D01*
X16902500Y-10700000D02*
X16997500Y-10700000D01*
X16950000Y-11402500D02*
X16950000Y-11497500D01*
X16902500Y-11450000D02*
X16997500Y-11450000D01*
X17150000Y-12152500D02*
X17150000Y-12247500D01*
X17102500Y-12200000D02*
X17197500Y-12200000D01*
X17150000Y-12852500D02*
X17150000Y-12947500D01*
X17102500Y-12900000D02*
X17197500Y-12900000D01*
D15*
X16285356Y-9477356D02*
X16285356Y-9406644D01*
X16214644Y-9406644D01*
X16214644Y-9477356D01*
X16285356Y-9477356D01*
X16285356Y-9731356D02*
X16285356Y-9660644D01*
X16214644Y-9660644D01*
X16214644Y-9731356D01*
X16285356Y-9731356D01*
X16285356Y-9985356D02*
X16285356Y-9914644D01*
X16214644Y-9914644D01*
X16214644Y-9985356D01*
X16285356Y-9985356D01*
D16*
X11400000Y-9361400D02*
X11465000Y-9296400D01*
X11400000Y-9231400D01*
X11335000Y-9296400D01*
X11400000Y-9361400D01*
X11400000Y-9861400D02*
X11465000Y-9796400D01*
X11400000Y-9731400D01*
X11335000Y-9796400D01*
X11400000Y-9861400D01*
X11400000Y-10377400D02*
X11465000Y-10312400D01*
X11400000Y-10247400D01*
X11335000Y-10312400D01*
X11400000Y-10377400D01*
X11400000Y-10877400D02*
X11465000Y-10812400D01*
X11400000Y-10747400D01*
X11335000Y-10812400D01*
X11400000Y-10877400D01*
D11*
X11005119Y-15462976D02*
X11005119Y-15262976D01*
X11052738Y-15262976D01*
X11081310Y-15272500D01*
X11100357Y-15291548D01*
X11109881Y-15310595D01*
X11119405Y-15348690D01*
X11119405Y-15377262D01*
X11109881Y-15415357D01*
X11100357Y-15434405D01*
X11081310Y-15453452D01*
X11052738Y-15462976D01*
X11005119Y-15462976D01*
X11205119Y-15462976D02*
X11205119Y-15329643D01*
X11205119Y-15367738D02*
X11214643Y-15348690D01*
X11224167Y-15339167D01*
X11243214Y-15329643D01*
X11262262Y-15329643D01*
X11328928Y-15462976D02*
X11328928Y-15329643D01*
X11328928Y-15262976D02*
X11319405Y-15272500D01*
X11328928Y-15282024D01*
X11338452Y-15272500D01*
X11328928Y-15262976D01*
X11328928Y-15282024D01*
X11452738Y-15462976D02*
X11433690Y-15453452D01*
X11424167Y-15434405D01*
X11424167Y-15262976D01*
X11557500Y-15462976D02*
X11538452Y-15453452D01*
X11528928Y-15434405D01*
X11528928Y-15262976D01*
X11786071Y-15462976D02*
X11786071Y-15262976D01*
X11852738Y-15405833D01*
X11919405Y-15262976D01*
X11919405Y-15462976D01*
X12100357Y-15462976D02*
X12100357Y-15358214D01*
X12090833Y-15339167D01*
X12071786Y-15329643D01*
X12033690Y-15329643D01*
X12014643Y-15339167D01*
X12100357Y-15453452D02*
X12081309Y-15462976D01*
X12033690Y-15462976D01*
X12014643Y-15453452D01*
X12005119Y-15434405D01*
X12005119Y-15415357D01*
X12014643Y-15396309D01*
X12033690Y-15386786D01*
X12081309Y-15386786D01*
X12100357Y-15377262D01*
X12195595Y-15329643D02*
X12195595Y-15529643D01*
X12195595Y-15339167D02*
X12214643Y-15329643D01*
X12252738Y-15329643D01*
X12271786Y-15339167D01*
X12281309Y-15348690D01*
X12290833Y-15367738D01*
X12290833Y-15424881D01*
X12281309Y-15443928D01*
X12271786Y-15453452D01*
X12252738Y-15462976D01*
X12214643Y-15462976D01*
X12195595Y-15453452D01*
X12376548Y-15443928D02*
X12386071Y-15453452D01*
X12376548Y-15462976D01*
X12367024Y-15453452D01*
X12376548Y-15443928D01*
X12376548Y-15462976D01*
X12376548Y-15339167D02*
X12386071Y-15348690D01*
X12376548Y-15358214D01*
X12367024Y-15348690D01*
X12376548Y-15339167D01*
X12376548Y-15358214D01*
D12*
X10717020Y-15777260D02*
X10747500Y-15807740D01*
X10747500Y-15777260D02*
X10717020Y-15807740D01*
D11*
X11043214Y-15682976D02*
X11062262Y-15682976D01*
X11081310Y-15692500D01*
X11090833Y-15702024D01*
X11100357Y-15721071D01*
X11109881Y-15759167D01*
X11109881Y-15806786D01*
X11100357Y-15844881D01*
X11090833Y-15863928D01*
X11081310Y-15873452D01*
X11062262Y-15882976D01*
X11043214Y-15882976D01*
X11024167Y-15873452D01*
X11014643Y-15863928D01*
X11005119Y-15844881D01*
X10995595Y-15806786D01*
X10995595Y-15759167D01*
X11005119Y-15721071D01*
X11014643Y-15702024D01*
X11024167Y-15692500D01*
X11043214Y-15682976D01*
X11195595Y-15863928D02*
X11205119Y-15873452D01*
X11195595Y-15882976D01*
X11186071Y-15873452D01*
X11195595Y-15863928D01*
X11195595Y-15882976D01*
X11271786Y-15682976D02*
X11395595Y-15682976D01*
X11328928Y-15759167D01*
X11357500Y-15759167D01*
X11376548Y-15768690D01*
X11386071Y-15778214D01*
X11395595Y-15797262D01*
X11395595Y-15844881D01*
X11386071Y-15863928D01*
X11376548Y-15873452D01*
X11357500Y-15882976D01*
X11300357Y-15882976D01*
X11281309Y-15873452D01*
X11271786Y-15863928D01*
X11519405Y-15682976D02*
X11538452Y-15682976D01*
X11557500Y-15692500D01*
X11567024Y-15702024D01*
X11576548Y-15721071D01*
X11586071Y-15759167D01*
X11586071Y-15806786D01*
X11576548Y-15844881D01*
X11567024Y-15863928D01*
X11557500Y-15873452D01*
X11538452Y-15882976D01*
X11519405Y-15882976D01*
X11500357Y-15873452D01*
X11490833Y-15863928D01*
X11481309Y-15844881D01*
X11471786Y-15806786D01*
X11471786Y-15759167D01*
X11481309Y-15721071D01*
X11490833Y-15702024D01*
X11500357Y-15692500D01*
X11519405Y-15682976D01*
X11767024Y-15682976D02*
X11671786Y-15682976D01*
X11662262Y-15778214D01*
X11671786Y-15768690D01*
X11690833Y-15759167D01*
X11738452Y-15759167D01*
X11757500Y-15768690D01*
X11767024Y-15778214D01*
X11776548Y-15797262D01*
X11776548Y-15844881D01*
X11767024Y-15863928D01*
X11757500Y-15873452D01*
X11738452Y-15882976D01*
X11690833Y-15882976D01*
X11671786Y-15873452D01*
X11662262Y-15863928D01*
X11862262Y-15882976D02*
X11862262Y-15749643D01*
X11862262Y-15768690D02*
X11871786Y-15759167D01*
X11890833Y-15749643D01*
X11919405Y-15749643D01*
X11938452Y-15759167D01*
X11947976Y-15778214D01*
X11947976Y-15882976D01*
X11947976Y-15778214D02*
X11957500Y-15759167D01*
X11976548Y-15749643D01*
X12005119Y-15749643D01*
X12024167Y-15759167D01*
X12033690Y-15778214D01*
X12033690Y-15882976D01*
X12128928Y-15882976D02*
X12128928Y-15749643D01*
X12128928Y-15768690D02*
X12138452Y-15759167D01*
X12157500Y-15749643D01*
X12186071Y-15749643D01*
X12205119Y-15759167D01*
X12214643Y-15778214D01*
X12214643Y-15882976D01*
X12214643Y-15778214D02*
X12224167Y-15759167D01*
X12243214Y-15749643D01*
X12271786Y-15749643D01*
X12290833Y-15759167D01*
X12300357Y-15778214D01*
X12300357Y-15882976D01*
X12690833Y-15673452D02*
X12519405Y-15930595D01*
X12947976Y-15682976D02*
X12967024Y-15682976D01*
X12986071Y-15692500D01*
X12995595Y-15702024D01*
X13005119Y-15721071D01*
X13014643Y-15759167D01*
X13014643Y-15806786D01*
X13005119Y-15844881D01*
X12995595Y-15863928D01*
X12986071Y-15873452D01*
X12967024Y-15882976D01*
X12947976Y-15882976D01*
X12928928Y-15873452D01*
X12919405Y-15863928D01*
X12909881Y-15844881D01*
X12900357Y-15806786D01*
X12900357Y-15759167D01*
X12909881Y-15721071D01*
X12919405Y-15702024D01*
X12928928Y-15692500D01*
X12947976Y-15682976D01*
X13100357Y-15863928D02*
X13109881Y-15873452D01*
X13100357Y-15882976D01*
X13090833Y-15873452D01*
X13100357Y-15863928D01*
X13100357Y-15882976D01*
X13233690Y-15682976D02*
X13252738Y-15682976D01*
X13271786Y-15692500D01*
X13281309Y-15702024D01*
X13290833Y-15721071D01*
X13300357Y-15759167D01*
X13300357Y-15806786D01*
X13290833Y-15844881D01*
X13281309Y-15863928D01*
X13271786Y-15873452D01*
X13252738Y-15882976D01*
X13233690Y-15882976D01*
X13214643Y-15873452D01*
X13205119Y-15863928D01*
X13195595Y-15844881D01*
X13186071Y-15806786D01*
X13186071Y-15759167D01*
X13195595Y-15721071D01*
X13205119Y-15702024D01*
X13214643Y-15692500D01*
X13233690Y-15682976D01*
X13490833Y-15882976D02*
X13376548Y-15882976D01*
X13433690Y-15882976D02*
X13433690Y-15682976D01*
X13414643Y-15711548D01*
X13395595Y-15730595D01*
X13376548Y-15740119D01*
X13567024Y-15702024D02*
X13576548Y-15692500D01*
X13595595Y-15682976D01*
X13643214Y-15682976D01*
X13662262Y-15692500D01*
X13671786Y-15702024D01*
X13681309Y-15721071D01*
X13681309Y-15740119D01*
X13671786Y-15768690D01*
X13557500Y-15882976D01*
X13681309Y-15882976D01*
X13805119Y-15682976D02*
X13824167Y-15682976D01*
X13843214Y-15692500D01*
X13852738Y-15702024D01*
X13862262Y-15721071D01*
X13871786Y-15759167D01*
X13871786Y-15806786D01*
X13862262Y-15844881D01*
X13852738Y-15863928D01*
X13843214Y-15873452D01*
X13824167Y-15882976D01*
X13805119Y-15882976D01*
X13786071Y-15873452D01*
X13776548Y-15863928D01*
X13767024Y-15844881D01*
X13757500Y-15806786D01*
X13757500Y-15759167D01*
X13767024Y-15721071D01*
X13776548Y-15702024D01*
X13786071Y-15692500D01*
X13805119Y-15682976D01*
X13947976Y-15682976D02*
X13947976Y-15721071D01*
X14024167Y-15682976D02*
X14024167Y-15721071D01*
X14319405Y-15959167D02*
X14309881Y-15949643D01*
X14290833Y-15921071D01*
X14281309Y-15902024D01*
X14271786Y-15873452D01*
X14262262Y-15825833D01*
X14262262Y-15787738D01*
X14271786Y-15740119D01*
X14281309Y-15711548D01*
X14290833Y-15692500D01*
X14309881Y-15663928D01*
X14319405Y-15654405D01*
X14500357Y-15882976D02*
X14386071Y-15882976D01*
X14443214Y-15882976D02*
X14443214Y-15682976D01*
X14424167Y-15711548D01*
X14405119Y-15730595D01*
X14386071Y-15740119D01*
X14671786Y-15749643D02*
X14671786Y-15882976D01*
X14624167Y-15673452D02*
X14576548Y-15816309D01*
X14700357Y-15816309D01*
X14928928Y-15882976D02*
X14928928Y-15682976D01*
X15014643Y-15882976D02*
X15014643Y-15778214D01*
X15005119Y-15759167D01*
X14986071Y-15749643D01*
X14957500Y-15749643D01*
X14938452Y-15759167D01*
X14928928Y-15768690D01*
X15138452Y-15882976D02*
X15119405Y-15873452D01*
X15109881Y-15863928D01*
X15100357Y-15844881D01*
X15100357Y-15787738D01*
X15109881Y-15768690D01*
X15119405Y-15759167D01*
X15138452Y-15749643D01*
X15167024Y-15749643D01*
X15186071Y-15759167D01*
X15195595Y-15768690D01*
X15205119Y-15787738D01*
X15205119Y-15844881D01*
X15195595Y-15863928D01*
X15186071Y-15873452D01*
X15167024Y-15882976D01*
X15138452Y-15882976D01*
X15319405Y-15882976D02*
X15300357Y-15873452D01*
X15290833Y-15854405D01*
X15290833Y-15682976D01*
X15471786Y-15873452D02*
X15452738Y-15882976D01*
X15414643Y-15882976D01*
X15395595Y-15873452D01*
X15386071Y-15854405D01*
X15386071Y-15778214D01*
X15395595Y-15759167D01*
X15414643Y-15749643D01*
X15452738Y-15749643D01*
X15471786Y-15759167D01*
X15481309Y-15778214D01*
X15481309Y-15797262D01*
X15386071Y-15816309D01*
X15557500Y-15873452D02*
X15576548Y-15882976D01*
X15614643Y-15882976D01*
X15633690Y-15873452D01*
X15643214Y-15854405D01*
X15643214Y-15844881D01*
X15633690Y-15825833D01*
X15614643Y-15816309D01*
X15586071Y-15816309D01*
X15567024Y-15806786D01*
X15557500Y-15787738D01*
X15557500Y-15778214D01*
X15567024Y-15759167D01*
X15586071Y-15749643D01*
X15614643Y-15749643D01*
X15633690Y-15759167D01*
X15709881Y-15959167D02*
X15719405Y-15949643D01*
X15738452Y-15921071D01*
X15747976Y-15902024D01*
X15757500Y-15873452D01*
X15767024Y-15825833D01*
X15767024Y-15787738D01*
X15757500Y-15740119D01*
X15747976Y-15711548D01*
X15738452Y-15692500D01*
X15719405Y-15663928D01*
X15709881Y-15654405D01*
D13*
X10747500Y-16056500D02*
G75*
G03*
X10747500Y-16056500I-40000J0D01*
G01*
D11*
X11043214Y-15946976D02*
X11062262Y-15946976D01*
X11081310Y-15956500D01*
X11090833Y-15966024D01*
X11100357Y-15985071D01*
X11109881Y-16023167D01*
X11109881Y-16070786D01*
X11100357Y-16108881D01*
X11090833Y-16127928D01*
X11081310Y-16137452D01*
X11062262Y-16146976D01*
X11043214Y-16146976D01*
X11024167Y-16137452D01*
X11014643Y-16127928D01*
X11005119Y-16108881D01*
X10995595Y-16070786D01*
X10995595Y-16023167D01*
X11005119Y-15985071D01*
X11014643Y-15966024D01*
X11024167Y-15956500D01*
X11043214Y-15946976D01*
X11195595Y-16127928D02*
X11205119Y-16137452D01*
X11195595Y-16146976D01*
X11186071Y-16137452D01*
X11195595Y-16127928D01*
X11195595Y-16146976D01*
X11319405Y-16032690D02*
X11300357Y-16023167D01*
X11290833Y-16013643D01*
X11281309Y-15994595D01*
X11281309Y-15985071D01*
X11290833Y-15966024D01*
X11300357Y-15956500D01*
X11319405Y-15946976D01*
X11357500Y-15946976D01*
X11376548Y-15956500D01*
X11386071Y-15966024D01*
X11395595Y-15985071D01*
X11395595Y-15994595D01*
X11386071Y-16013643D01*
X11376548Y-16023167D01*
X11357500Y-16032690D01*
X11319405Y-16032690D01*
X11300357Y-16042214D01*
X11290833Y-16051738D01*
X11281309Y-16070786D01*
X11281309Y-16108881D01*
X11290833Y-16127928D01*
X11300357Y-16137452D01*
X11319405Y-16146976D01*
X11357500Y-16146976D01*
X11376548Y-16137452D01*
X11386071Y-16127928D01*
X11395595Y-16108881D01*
X11395595Y-16070786D01*
X11386071Y-16051738D01*
X11376548Y-16042214D01*
X11357500Y-16032690D01*
X11519405Y-15946976D02*
X11538452Y-15946976D01*
X11557500Y-15956500D01*
X11567024Y-15966024D01*
X11576548Y-15985071D01*
X11586071Y-16023167D01*
X11586071Y-16070786D01*
X11576548Y-16108881D01*
X11567024Y-16127928D01*
X11557500Y-16137452D01*
X11538452Y-16146976D01*
X11519405Y-16146976D01*
X11500357Y-16137452D01*
X11490833Y-16127928D01*
X11481309Y-16108881D01*
X11471786Y-16070786D01*
X11471786Y-16023167D01*
X11481309Y-15985071D01*
X11490833Y-15966024D01*
X11500357Y-15956500D01*
X11519405Y-15946976D01*
X11709881Y-15946976D02*
X11728928Y-15946976D01*
X11747976Y-15956500D01*
X11757500Y-15966024D01*
X11767024Y-15985071D01*
X11776548Y-16023167D01*
X11776548Y-16070786D01*
X11767024Y-16108881D01*
X11757500Y-16127928D01*
X11747976Y-16137452D01*
X11728928Y-16146976D01*
X11709881Y-16146976D01*
X11690833Y-16137452D01*
X11681309Y-16127928D01*
X11671786Y-16108881D01*
X11662262Y-16070786D01*
X11662262Y-16023167D01*
X11671786Y-15985071D01*
X11681309Y-15966024D01*
X11690833Y-15956500D01*
X11709881Y-15946976D01*
X11862262Y-16146976D02*
X11862262Y-16013643D01*
X11862262Y-16032690D02*
X11871786Y-16023167D01*
X11890833Y-16013643D01*
X11919405Y-16013643D01*
X11938452Y-16023167D01*
X11947976Y-16042214D01*
X11947976Y-16146976D01*
X11947976Y-16042214D02*
X11957500Y-16023167D01*
X11976548Y-16013643D01*
X12005119Y-16013643D01*
X12024167Y-16023167D01*
X12033690Y-16042214D01*
X12033690Y-16146976D01*
X12128928Y-16146976D02*
X12128928Y-16013643D01*
X12128928Y-16032690D02*
X12138452Y-16023167D01*
X12157500Y-16013643D01*
X12186071Y-16013643D01*
X12205119Y-16023167D01*
X12214643Y-16042214D01*
X12214643Y-16146976D01*
X12214643Y-16042214D02*
X12224167Y-16023167D01*
X12243214Y-16013643D01*
X12271786Y-16013643D01*
X12290833Y-16023167D01*
X12300357Y-16042214D01*
X12300357Y-16146976D01*
X12690833Y-15937452D02*
X12519405Y-16194595D01*
X12947976Y-15946976D02*
X12967024Y-15946976D01*
X12986071Y-15956500D01*
X12995595Y-15966024D01*
X13005119Y-15985071D01*
X13014643Y-16023167D01*
X13014643Y-16070786D01*
X13005119Y-16108881D01*
X12995595Y-16127928D01*
X12986071Y-16137452D01*
X12967024Y-16146976D01*
X12947976Y-16146976D01*
X12928928Y-16137452D01*
X12919405Y-16127928D01*
X12909881Y-16108881D01*
X12900357Y-16070786D01*
X12900357Y-16023167D01*
X12909881Y-15985071D01*
X12919405Y-15966024D01*
X12928928Y-15956500D01*
X12947976Y-15946976D01*
X13100357Y-16127928D02*
X13109881Y-16137452D01*
X13100357Y-16146976D01*
X13090833Y-16137452D01*
X13100357Y-16127928D01*
X13100357Y-16146976D01*
X13233690Y-15946976D02*
X13252738Y-15946976D01*
X13271786Y-15956500D01*
X13281309Y-15966024D01*
X13290833Y-15985071D01*
X13300357Y-16023167D01*
X13300357Y-16070786D01*
X13290833Y-16108881D01*
X13281309Y-16127928D01*
X13271786Y-16137452D01*
X13252738Y-16146976D01*
X13233690Y-16146976D01*
X13214643Y-16137452D01*
X13205119Y-16127928D01*
X13195595Y-16108881D01*
X13186071Y-16070786D01*
X13186071Y-16023167D01*
X13195595Y-15985071D01*
X13205119Y-15966024D01*
X13214643Y-15956500D01*
X13233690Y-15946976D01*
X13367024Y-15946976D02*
X13490833Y-15946976D01*
X13424167Y-16023167D01*
X13452738Y-16023167D01*
X13471786Y-16032690D01*
X13481309Y-16042214D01*
X13490833Y-16061262D01*
X13490833Y-16108881D01*
X13481309Y-16127928D01*
X13471786Y-16137452D01*
X13452738Y-16146976D01*
X13395595Y-16146976D01*
X13376548Y-16137452D01*
X13367024Y-16127928D01*
X13681309Y-16146976D02*
X13567024Y-16146976D01*
X13624167Y-16146976D02*
X13624167Y-15946976D01*
X13605119Y-15975548D01*
X13586071Y-15994595D01*
X13567024Y-16004119D01*
X13862262Y-15946976D02*
X13767024Y-15946976D01*
X13757500Y-16042214D01*
X13767024Y-16032690D01*
X13786071Y-16023167D01*
X13833690Y-16023167D01*
X13852738Y-16032690D01*
X13862262Y-16042214D01*
X13871786Y-16061262D01*
X13871786Y-16108881D01*
X13862262Y-16127928D01*
X13852738Y-16137452D01*
X13833690Y-16146976D01*
X13786071Y-16146976D01*
X13767024Y-16137452D01*
X13757500Y-16127928D01*
X13947976Y-15946976D02*
X13947976Y-15985071D01*
X14024167Y-15946976D02*
X14024167Y-15985071D01*
X14319405Y-16223167D02*
X14309881Y-16213643D01*
X14290833Y-16185071D01*
X14281309Y-16166024D01*
X14271786Y-16137452D01*
X14262262Y-16089833D01*
X14262262Y-16051738D01*
X14271786Y-16004119D01*
X14281309Y-15975548D01*
X14290833Y-15956500D01*
X14309881Y-15927928D01*
X14319405Y-15918405D01*
X14376548Y-15946976D02*
X14500357Y-15946976D01*
X14433690Y-16023167D01*
X14462262Y-16023167D01*
X14481309Y-16032690D01*
X14490833Y-16042214D01*
X14500357Y-16061262D01*
X14500357Y-16108881D01*
X14490833Y-16127928D01*
X14481309Y-16137452D01*
X14462262Y-16146976D01*
X14405119Y-16146976D01*
X14386071Y-16137452D01*
X14376548Y-16127928D01*
X14576548Y-15966024D02*
X14586071Y-15956500D01*
X14605119Y-15946976D01*
X14652738Y-15946976D01*
X14671786Y-15956500D01*
X14681309Y-15966024D01*
X14690833Y-15985071D01*
X14690833Y-16004119D01*
X14681309Y-16032690D01*
X14567024Y-16146976D01*
X14690833Y-16146976D01*
X14928928Y-16146976D02*
X14928928Y-15946976D01*
X15014643Y-16146976D02*
X15014643Y-16042214D01*
X15005119Y-16023167D01*
X14986071Y-16013643D01*
X14957500Y-16013643D01*
X14938452Y-16023167D01*
X14928928Y-16032690D01*
X15138452Y-16146976D02*
X15119405Y-16137452D01*
X15109881Y-16127928D01*
X15100357Y-16108881D01*
X15100357Y-16051738D01*
X15109881Y-16032690D01*
X15119405Y-16023167D01*
X15138452Y-16013643D01*
X15167024Y-16013643D01*
X15186071Y-16023167D01*
X15195595Y-16032690D01*
X15205119Y-16051738D01*
X15205119Y-16108881D01*
X15195595Y-16127928D01*
X15186071Y-16137452D01*
X15167024Y-16146976D01*
X15138452Y-16146976D01*
X15319405Y-16146976D02*
X15300357Y-16137452D01*
X15290833Y-16118405D01*
X15290833Y-15946976D01*
X15471786Y-16137452D02*
X15452738Y-16146976D01*
X15414643Y-16146976D01*
X15395595Y-16137452D01*
X15386071Y-16118405D01*
X15386071Y-16042214D01*
X15395595Y-16023167D01*
X15414643Y-16013643D01*
X15452738Y-16013643D01*
X15471786Y-16023167D01*
X15481309Y-16042214D01*
X15481309Y-16061262D01*
X15386071Y-16080309D01*
X15557500Y-16137452D02*
X15576548Y-16146976D01*
X15614643Y-16146976D01*
X15633690Y-16137452D01*
X15643214Y-16118405D01*
X15643214Y-16108881D01*
X15633690Y-16089833D01*
X15614643Y-16080309D01*
X15586071Y-16080309D01*
X15567024Y-16070786D01*
X15557500Y-16051738D01*
X15557500Y-16042214D01*
X15567024Y-16023167D01*
X15586071Y-16013643D01*
X15614643Y-16013643D01*
X15633690Y-16023167D01*
X15709881Y-16223167D02*
X15719405Y-16213643D01*
X15738452Y-16185071D01*
X15747976Y-16166024D01*
X15757500Y-16137452D01*
X15767024Y-16089833D01*
X15767024Y-16051738D01*
X15757500Y-16004119D01*
X15747976Y-15975548D01*
X15738452Y-15956500D01*
X15719405Y-15927928D01*
X15709881Y-15918405D01*
D14*
X10700000Y-16273000D02*
X10700000Y-16368000D01*
X10652500Y-16320500D02*
X10747500Y-16320500D01*
D11*
X11043214Y-16210976D02*
X11062262Y-16210976D01*
X11081310Y-16220500D01*
X11090833Y-16230024D01*
X11100357Y-16249071D01*
X11109881Y-16287167D01*
X11109881Y-16334786D01*
X11100357Y-16372881D01*
X11090833Y-16391928D01*
X11081310Y-16401452D01*
X11062262Y-16410976D01*
X11043214Y-16410976D01*
X11024167Y-16401452D01*
X11014643Y-16391928D01*
X11005119Y-16372881D01*
X10995595Y-16334786D01*
X10995595Y-16287167D01*
X11005119Y-16249071D01*
X11014643Y-16230024D01*
X11024167Y-16220500D01*
X11043214Y-16210976D01*
X11195595Y-16391928D02*
X11205119Y-16401452D01*
X11195595Y-16410976D01*
X11186071Y-16401452D01*
X11195595Y-16391928D01*
X11195595Y-16410976D01*
X11300357Y-16410976D02*
X11338452Y-16410976D01*
X11357500Y-16401452D01*
X11367024Y-16391928D01*
X11386071Y-16363357D01*
X11395595Y-16325262D01*
X11395595Y-16249071D01*
X11386071Y-16230024D01*
X11376548Y-16220500D01*
X11357500Y-16210976D01*
X11319405Y-16210976D01*
X11300357Y-16220500D01*
X11290833Y-16230024D01*
X11281309Y-16249071D01*
X11281309Y-16296690D01*
X11290833Y-16315738D01*
X11300357Y-16325262D01*
X11319405Y-16334786D01*
X11357500Y-16334786D01*
X11376548Y-16325262D01*
X11386071Y-16315738D01*
X11395595Y-16296690D01*
X11576548Y-16210976D02*
X11481309Y-16210976D01*
X11471786Y-16306214D01*
X11481309Y-16296690D01*
X11500357Y-16287167D01*
X11547976Y-16287167D01*
X11567024Y-16296690D01*
X11576548Y-16306214D01*
X11586071Y-16325262D01*
X11586071Y-16372881D01*
X11576548Y-16391928D01*
X11567024Y-16401452D01*
X11547976Y-16410976D01*
X11500357Y-16410976D01*
X11481309Y-16401452D01*
X11471786Y-16391928D01*
X11709881Y-16210976D02*
X11728928Y-16210976D01*
X11747976Y-16220500D01*
X11757500Y-16230024D01*
X11767024Y-16249071D01*
X11776548Y-16287167D01*
X11776548Y-16334786D01*
X11767024Y-16372881D01*
X11757500Y-16391928D01*
X11747976Y-16401452D01*
X11728928Y-16410976D01*
X11709881Y-16410976D01*
X11690833Y-16401452D01*
X11681309Y-16391928D01*
X11671786Y-16372881D01*
X11662262Y-16334786D01*
X11662262Y-16287167D01*
X11671786Y-16249071D01*
X11681309Y-16230024D01*
X11690833Y-16220500D01*
X11709881Y-16210976D01*
X11862262Y-16410976D02*
X11862262Y-16277643D01*
X11862262Y-16296690D02*
X11871786Y-16287167D01*
X11890833Y-16277643D01*
X11919405Y-16277643D01*
X11938452Y-16287167D01*
X11947976Y-16306214D01*
X11947976Y-16410976D01*
X11947976Y-16306214D02*
X11957500Y-16287167D01*
X11976548Y-16277643D01*
X12005119Y-16277643D01*
X12024167Y-16287167D01*
X12033690Y-16306214D01*
X12033690Y-16410976D01*
X12128928Y-16410976D02*
X12128928Y-16277643D01*
X12128928Y-16296690D02*
X12138452Y-16287167D01*
X12157500Y-16277643D01*
X12186071Y-16277643D01*
X12205119Y-16287167D01*
X12214643Y-16306214D01*
X12214643Y-16410976D01*
X12214643Y-16306214D02*
X12224167Y-16287167D01*
X12243214Y-16277643D01*
X12271786Y-16277643D01*
X12290833Y-16287167D01*
X12300357Y-16306214D01*
X12300357Y-16410976D01*
X12690833Y-16201452D02*
X12519405Y-16458595D01*
X12947976Y-16210976D02*
X12967024Y-16210976D01*
X12986071Y-16220500D01*
X12995595Y-16230024D01*
X13005119Y-16249071D01*
X13014643Y-16287167D01*
X13014643Y-16334786D01*
X13005119Y-16372881D01*
X12995595Y-16391928D01*
X12986071Y-16401452D01*
X12967024Y-16410976D01*
X12947976Y-16410976D01*
X12928928Y-16401452D01*
X12919405Y-16391928D01*
X12909881Y-16372881D01*
X12900357Y-16334786D01*
X12900357Y-16287167D01*
X12909881Y-16249071D01*
X12919405Y-16230024D01*
X12928928Y-16220500D01*
X12947976Y-16210976D01*
X13100357Y-16391928D02*
X13109881Y-16401452D01*
X13100357Y-16410976D01*
X13090833Y-16401452D01*
X13100357Y-16391928D01*
X13100357Y-16410976D01*
X13233690Y-16210976D02*
X13252738Y-16210976D01*
X13271786Y-16220500D01*
X13281309Y-16230024D01*
X13290833Y-16249071D01*
X13300357Y-16287167D01*
X13300357Y-16334786D01*
X13290833Y-16372881D01*
X13281309Y-16391928D01*
X13271786Y-16401452D01*
X13252738Y-16410976D01*
X13233690Y-16410976D01*
X13214643Y-16401452D01*
X13205119Y-16391928D01*
X13195595Y-16372881D01*
X13186071Y-16334786D01*
X13186071Y-16287167D01*
X13195595Y-16249071D01*
X13205119Y-16230024D01*
X13214643Y-16220500D01*
X13233690Y-16210976D01*
X13367024Y-16210976D02*
X13490833Y-16210976D01*
X13424167Y-16287167D01*
X13452738Y-16287167D01*
X13471786Y-16296690D01*
X13481309Y-16306214D01*
X13490833Y-16325262D01*
X13490833Y-16372881D01*
X13481309Y-16391928D01*
X13471786Y-16401452D01*
X13452738Y-16410976D01*
X13395595Y-16410976D01*
X13376548Y-16401452D01*
X13367024Y-16391928D01*
X13557500Y-16210976D02*
X13690833Y-16210976D01*
X13605119Y-16410976D01*
X13852738Y-16277643D02*
X13852738Y-16410976D01*
X13805119Y-16201452D02*
X13757500Y-16344309D01*
X13881309Y-16344309D01*
X13947976Y-16210976D02*
X13947976Y-16249071D01*
X14024167Y-16210976D02*
X14024167Y-16249071D01*
X14319405Y-16487167D02*
X14309881Y-16477643D01*
X14290833Y-16449071D01*
X14281309Y-16430024D01*
X14271786Y-16401452D01*
X14262262Y-16353833D01*
X14262262Y-16315738D01*
X14271786Y-16268119D01*
X14281309Y-16239548D01*
X14290833Y-16220500D01*
X14309881Y-16191928D01*
X14319405Y-16182405D01*
X14376548Y-16210976D02*
X14500357Y-16210976D01*
X14433690Y-16287167D01*
X14462262Y-16287167D01*
X14481309Y-16296690D01*
X14490833Y-16306214D01*
X14500357Y-16325262D01*
X14500357Y-16372881D01*
X14490833Y-16391928D01*
X14481309Y-16401452D01*
X14462262Y-16410976D01*
X14405119Y-16410976D01*
X14386071Y-16401452D01*
X14376548Y-16391928D01*
X14671786Y-16277643D02*
X14671786Y-16410976D01*
X14624167Y-16201452D02*
X14576548Y-16344309D01*
X14700357Y-16344309D01*
X14928928Y-16410976D02*
X14928928Y-16210976D01*
X15014643Y-16410976D02*
X15014643Y-16306214D01*
X15005119Y-16287167D01*
X14986071Y-16277643D01*
X14957500Y-16277643D01*
X14938452Y-16287167D01*
X14928928Y-16296690D01*
X15138452Y-16410976D02*
X15119405Y-16401452D01*
X15109881Y-16391928D01*
X15100357Y-16372881D01*
X15100357Y-16315738D01*
X15109881Y-16296690D01*
X15119405Y-16287167D01*
X15138452Y-16277643D01*
X15167024Y-16277643D01*
X15186071Y-16287167D01*
X15195595Y-16296690D01*
X15205119Y-16315738D01*
X15205119Y-16372881D01*
X15195595Y-16391928D01*
X15186071Y-16401452D01*
X15167024Y-16410976D01*
X15138452Y-16410976D01*
X15319405Y-16410976D02*
X15300357Y-16401452D01*
X15290833Y-16382405D01*
X15290833Y-16210976D01*
X15471786Y-16401452D02*
X15452738Y-16410976D01*
X15414643Y-16410976D01*
X15395595Y-16401452D01*
X15386071Y-16382405D01*
X15386071Y-16306214D01*
X15395595Y-16287167D01*
X15414643Y-16277643D01*
X15452738Y-16277643D01*
X15471786Y-16287167D01*
X15481309Y-16306214D01*
X15481309Y-16325262D01*
X15386071Y-16344309D01*
X15557500Y-16401452D02*
X15576548Y-16410976D01*
X15614643Y-16410976D01*
X15633690Y-16401452D01*
X15643214Y-16382405D01*
X15643214Y-16372881D01*
X15633690Y-16353833D01*
X15614643Y-16344309D01*
X15586071Y-16344309D01*
X15567024Y-16334786D01*
X15557500Y-16315738D01*
X15557500Y-16306214D01*
X15567024Y-16287167D01*
X15586071Y-16277643D01*
X15614643Y-16277643D01*
X15633690Y-16287167D01*
X15709881Y-16487167D02*
X15719405Y-16477643D01*
X15738452Y-16449071D01*
X15747976Y-16430024D01*
X15757500Y-16401452D01*
X15767024Y-16353833D01*
X15767024Y-16315738D01*
X15757500Y-16268119D01*
X15747976Y-16239548D01*
X15738452Y-16220500D01*
X15719405Y-16191928D01*
X15709881Y-16182405D01*
D15*
X10732856Y-16619856D02*
X10732856Y-16549144D01*
X10662144Y-16549144D01*
X10662144Y-16619856D01*
X10732856Y-16619856D01*
D11*
X11109881Y-16674976D02*
X10995595Y-16674976D01*
X11052738Y-16674976D02*
X11052738Y-16474976D01*
X11033690Y-16503548D01*
X11014643Y-16522595D01*
X10995595Y-16532119D01*
X11195595Y-16655928D02*
X11205119Y-16665452D01*
X11195595Y-16674976D01*
X11186071Y-16665452D01*
X11195595Y-16655928D01*
X11195595Y-16674976D01*
X11328928Y-16474976D02*
X11347976Y-16474976D01*
X11367024Y-16484500D01*
X11376548Y-16494024D01*
X11386071Y-16513071D01*
X11395595Y-16551167D01*
X11395595Y-16598786D01*
X11386071Y-16636881D01*
X11376548Y-16655928D01*
X11367024Y-16665452D01*
X11347976Y-16674976D01*
X11328928Y-16674976D01*
X11309881Y-16665452D01*
X11300357Y-16655928D01*
X11290833Y-16636881D01*
X11281309Y-16598786D01*
X11281309Y-16551167D01*
X11290833Y-16513071D01*
X11300357Y-16494024D01*
X11309881Y-16484500D01*
X11328928Y-16474976D01*
X11519405Y-16474976D02*
X11538452Y-16474976D01*
X11557500Y-16484500D01*
X11567024Y-16494024D01*
X11576548Y-16513071D01*
X11586071Y-16551167D01*
X11586071Y-16598786D01*
X11576548Y-16636881D01*
X11567024Y-16655928D01*
X11557500Y-16665452D01*
X11538452Y-16674976D01*
X11519405Y-16674976D01*
X11500357Y-16665452D01*
X11490833Y-16655928D01*
X11481309Y-16636881D01*
X11471786Y-16598786D01*
X11471786Y-16551167D01*
X11481309Y-16513071D01*
X11490833Y-16494024D01*
X11500357Y-16484500D01*
X11519405Y-16474976D01*
X11709881Y-16474976D02*
X11728928Y-16474976D01*
X11747976Y-16484500D01*
X11757500Y-16494024D01*
X11767024Y-16513071D01*
X11776548Y-16551167D01*
X11776548Y-16598786D01*
X11767024Y-16636881D01*
X11757500Y-16655928D01*
X11747976Y-16665452D01*
X11728928Y-16674976D01*
X11709881Y-16674976D01*
X11690833Y-16665452D01*
X11681309Y-16655928D01*
X11671786Y-16636881D01*
X11662262Y-16598786D01*
X11662262Y-16551167D01*
X11671786Y-16513071D01*
X11681309Y-16494024D01*
X11690833Y-16484500D01*
X11709881Y-16474976D01*
X11862262Y-16674976D02*
X11862262Y-16541643D01*
X11862262Y-16560690D02*
X11871786Y-16551167D01*
X11890833Y-16541643D01*
X11919405Y-16541643D01*
X11938452Y-16551167D01*
X11947976Y-16570214D01*
X11947976Y-16674976D01*
X11947976Y-16570214D02*
X11957500Y-16551167D01*
X11976548Y-16541643D01*
X12005119Y-16541643D01*
X12024167Y-16551167D01*
X12033690Y-16570214D01*
X12033690Y-16674976D01*
X12128928Y-16674976D02*
X12128928Y-16541643D01*
X12128928Y-16560690D02*
X12138452Y-16551167D01*
X12157500Y-16541643D01*
X12186071Y-16541643D01*
X12205119Y-16551167D01*
X12214643Y-16570214D01*
X12214643Y-16674976D01*
X12214643Y-16570214D02*
X12224167Y-16551167D01*
X12243214Y-16541643D01*
X12271786Y-16541643D01*
X12290833Y-16551167D01*
X12300357Y-16570214D01*
X12300357Y-16674976D01*
X12690833Y-16465452D02*
X12519405Y-16722595D01*
X12947976Y-16474976D02*
X12967024Y-16474976D01*
X12986071Y-16484500D01*
X12995595Y-16494024D01*
X13005119Y-16513071D01*
X13014643Y-16551167D01*
X13014643Y-16598786D01*
X13005119Y-16636881D01*
X12995595Y-16655928D01*
X12986071Y-16665452D01*
X12967024Y-16674976D01*
X12947976Y-16674976D01*
X12928928Y-16665452D01*
X12919405Y-16655928D01*
X12909881Y-16636881D01*
X12900357Y-16598786D01*
X12900357Y-16551167D01*
X12909881Y-16513071D01*
X12919405Y-16494024D01*
X12928928Y-16484500D01*
X12947976Y-16474976D01*
X13100357Y-16655928D02*
X13109881Y-16665452D01*
X13100357Y-16674976D01*
X13090833Y-16665452D01*
X13100357Y-16655928D01*
X13100357Y-16674976D01*
X13233690Y-16474976D02*
X13252738Y-16474976D01*
X13271786Y-16484500D01*
X13281309Y-16494024D01*
X13290833Y-16513071D01*
X13300357Y-16551167D01*
X13300357Y-16598786D01*
X13290833Y-16636881D01*
X13281309Y-16655928D01*
X13271786Y-16665452D01*
X13252738Y-16674976D01*
X13233690Y-16674976D01*
X13214643Y-16665452D01*
X13205119Y-16655928D01*
X13195595Y-16636881D01*
X13186071Y-16598786D01*
X13186071Y-16551167D01*
X13195595Y-16513071D01*
X13205119Y-16494024D01*
X13214643Y-16484500D01*
X13233690Y-16474976D01*
X13367024Y-16474976D02*
X13490833Y-16474976D01*
X13424167Y-16551167D01*
X13452738Y-16551167D01*
X13471786Y-16560690D01*
X13481309Y-16570214D01*
X13490833Y-16589262D01*
X13490833Y-16636881D01*
X13481309Y-16655928D01*
X13471786Y-16665452D01*
X13452738Y-16674976D01*
X13395595Y-16674976D01*
X13376548Y-16665452D01*
X13367024Y-16655928D01*
X13586071Y-16674976D02*
X13624167Y-16674976D01*
X13643214Y-16665452D01*
X13652738Y-16655928D01*
X13671786Y-16627357D01*
X13681309Y-16589262D01*
X13681309Y-16513071D01*
X13671786Y-16494024D01*
X13662262Y-16484500D01*
X13643214Y-16474976D01*
X13605119Y-16474976D01*
X13586071Y-16484500D01*
X13576548Y-16494024D01*
X13567024Y-16513071D01*
X13567024Y-16560690D01*
X13576548Y-16579738D01*
X13586071Y-16589262D01*
X13605119Y-16598786D01*
X13643214Y-16598786D01*
X13662262Y-16589262D01*
X13671786Y-16579738D01*
X13681309Y-16560690D01*
X13852738Y-16541643D02*
X13852738Y-16674976D01*
X13805119Y-16465452D02*
X13757500Y-16608309D01*
X13881309Y-16608309D01*
X13947976Y-16474976D02*
X13947976Y-16513071D01*
X14024167Y-16474976D02*
X14024167Y-16513071D01*
X14319405Y-16751167D02*
X14309881Y-16741643D01*
X14290833Y-16713071D01*
X14281309Y-16694024D01*
X14271786Y-16665452D01*
X14262262Y-16617833D01*
X14262262Y-16579738D01*
X14271786Y-16532119D01*
X14281309Y-16503548D01*
X14290833Y-16484500D01*
X14309881Y-16455928D01*
X14319405Y-16446405D01*
X14376548Y-16474976D02*
X14500357Y-16474976D01*
X14433690Y-16551167D01*
X14462262Y-16551167D01*
X14481309Y-16560690D01*
X14490833Y-16570214D01*
X14500357Y-16589262D01*
X14500357Y-16636881D01*
X14490833Y-16655928D01*
X14481309Y-16665452D01*
X14462262Y-16674976D01*
X14405119Y-16674976D01*
X14386071Y-16665452D01*
X14376548Y-16655928D01*
X14738452Y-16674976D02*
X14738452Y-16474976D01*
X14824167Y-16674976D02*
X14824167Y-16570214D01*
X14814643Y-16551167D01*
X14795595Y-16541643D01*
X14767024Y-16541643D01*
X14747976Y-16551167D01*
X14738452Y-16560690D01*
X14947976Y-16674976D02*
X14928928Y-16665452D01*
X14919405Y-16655928D01*
X14909881Y-16636881D01*
X14909881Y-16579738D01*
X14919405Y-16560690D01*
X14928928Y-16551167D01*
X14947976Y-16541643D01*
X14976548Y-16541643D01*
X14995595Y-16551167D01*
X15005119Y-16560690D01*
X15014643Y-16579738D01*
X15014643Y-16636881D01*
X15005119Y-16655928D01*
X14995595Y-16665452D01*
X14976548Y-16674976D01*
X14947976Y-16674976D01*
X15128928Y-16674976D02*
X15109881Y-16665452D01*
X15100357Y-16646405D01*
X15100357Y-16474976D01*
X15281309Y-16665452D02*
X15262262Y-16674976D01*
X15224167Y-16674976D01*
X15205119Y-16665452D01*
X15195595Y-16646405D01*
X15195595Y-16570214D01*
X15205119Y-16551167D01*
X15224167Y-16541643D01*
X15262262Y-16541643D01*
X15281309Y-16551167D01*
X15290833Y-16570214D01*
X15290833Y-16589262D01*
X15195595Y-16608309D01*
X15367024Y-16665452D02*
X15386071Y-16674976D01*
X15424167Y-16674976D01*
X15443214Y-16665452D01*
X15452738Y-16646405D01*
X15452738Y-16636881D01*
X15443214Y-16617833D01*
X15424167Y-16608309D01*
X15395595Y-16608309D01*
X15376548Y-16598786D01*
X15367024Y-16579738D01*
X15367024Y-16570214D01*
X15376548Y-16551167D01*
X15395595Y-16541643D01*
X15424167Y-16541643D01*
X15443214Y-16551167D01*
X15519405Y-16751167D02*
X15528928Y-16741643D01*
X15547976Y-16713071D01*
X15557500Y-16694024D01*
X15567024Y-16665452D01*
X15576548Y-16617833D01*
X15576548Y-16579738D01*
X15567024Y-16532119D01*
X15557500Y-16503548D01*
X15547976Y-16484500D01*
X15528928Y-16455928D01*
X15519405Y-16446405D01*
D16*
X10682500Y-16913500D02*
X10747500Y-16848500D01*
X10682500Y-16783500D01*
X10617500Y-16848500D01*
X10682500Y-16913500D01*
D11*
X11109881Y-16938976D02*
X10995595Y-16938976D01*
X11052738Y-16938976D02*
X11052738Y-16738976D01*
X11033690Y-16767548D01*
X11014643Y-16786595D01*
X10995595Y-16796119D01*
X11195595Y-16919929D02*
X11205119Y-16929452D01*
X11195595Y-16938976D01*
X11186071Y-16929452D01*
X11195595Y-16919929D01*
X11195595Y-16938976D01*
X11271786Y-16738976D02*
X11395595Y-16738976D01*
X11328928Y-16815167D01*
X11357500Y-16815167D01*
X11376548Y-16824690D01*
X11386071Y-16834214D01*
X11395595Y-16853262D01*
X11395595Y-16900881D01*
X11386071Y-16919929D01*
X11376548Y-16929452D01*
X11357500Y-16938976D01*
X11300357Y-16938976D01*
X11281309Y-16929452D01*
X11271786Y-16919929D01*
X11519405Y-16738976D02*
X11538452Y-16738976D01*
X11557500Y-16748500D01*
X11567024Y-16758024D01*
X11576548Y-16777071D01*
X11586071Y-16815167D01*
X11586071Y-16862786D01*
X11576548Y-16900881D01*
X11567024Y-16919929D01*
X11557500Y-16929452D01*
X11538452Y-16938976D01*
X11519405Y-16938976D01*
X11500357Y-16929452D01*
X11490833Y-16919929D01*
X11481309Y-16900881D01*
X11471786Y-16862786D01*
X11471786Y-16815167D01*
X11481309Y-16777071D01*
X11490833Y-16758024D01*
X11500357Y-16748500D01*
X11519405Y-16738976D01*
X11709881Y-16738976D02*
X11728928Y-16738976D01*
X11747976Y-16748500D01*
X11757500Y-16758024D01*
X11767024Y-16777071D01*
X11776548Y-16815167D01*
X11776548Y-16862786D01*
X11767024Y-16900881D01*
X11757500Y-16919929D01*
X11747976Y-16929452D01*
X11728928Y-16938976D01*
X11709881Y-16938976D01*
X11690833Y-16929452D01*
X11681309Y-16919929D01*
X11671786Y-16900881D01*
X11662262Y-16862786D01*
X11662262Y-16815167D01*
X11671786Y-16777071D01*
X11681309Y-16758024D01*
X11690833Y-16748500D01*
X11709881Y-16738976D01*
X11862262Y-16938976D02*
X11862262Y-16805643D01*
X11862262Y-16824690D02*
X11871786Y-16815167D01*
X11890833Y-16805643D01*
X11919405Y-16805643D01*
X11938452Y-16815167D01*
X11947976Y-16834214D01*
X11947976Y-16938976D01*
X11947976Y-16834214D02*
X11957500Y-16815167D01*
X11976548Y-16805643D01*
X12005119Y-16805643D01*
X12024167Y-16815167D01*
X12033690Y-16834214D01*
X12033690Y-16938976D01*
X12128928Y-16938976D02*
X12128928Y-16805643D01*
X12128928Y-16824690D02*
X12138452Y-16815167D01*
X12157500Y-16805643D01*
X12186071Y-16805643D01*
X12205119Y-16815167D01*
X12214643Y-16834214D01*
X12214643Y-16938976D01*
X12214643Y-16834214D02*
X12224167Y-16815167D01*
X12243214Y-16805643D01*
X12271786Y-16805643D01*
X12290833Y-16815167D01*
X12300357Y-16834214D01*
X12300357Y-16938976D01*
X12690833Y-16729452D02*
X12519405Y-16986595D01*
X12947976Y-16738976D02*
X12967024Y-16738976D01*
X12986071Y-16748500D01*
X12995595Y-16758024D01*
X13005119Y-16777071D01*
X13014643Y-16815167D01*
X13014643Y-16862786D01*
X13005119Y-16900881D01*
X12995595Y-16919929D01*
X12986071Y-16929452D01*
X12967024Y-16938976D01*
X12947976Y-16938976D01*
X12928928Y-16929452D01*
X12919405Y-16919929D01*
X12909881Y-16900881D01*
X12900357Y-16862786D01*
X12900357Y-16815167D01*
X12909881Y-16777071D01*
X12919405Y-16758024D01*
X12928928Y-16748500D01*
X12947976Y-16738976D01*
X13100357Y-16919929D02*
X13109881Y-16929452D01*
X13100357Y-16938976D01*
X13090833Y-16929452D01*
X13100357Y-16919929D01*
X13100357Y-16938976D01*
X13233690Y-16738976D02*
X13252738Y-16738976D01*
X13271786Y-16748500D01*
X13281309Y-16758024D01*
X13290833Y-16777071D01*
X13300357Y-16815167D01*
X13300357Y-16862786D01*
X13290833Y-16900881D01*
X13281309Y-16919929D01*
X13271786Y-16929452D01*
X13252738Y-16938976D01*
X13233690Y-16938976D01*
X13214643Y-16929452D01*
X13205119Y-16919929D01*
X13195595Y-16900881D01*
X13186071Y-16862786D01*
X13186071Y-16815167D01*
X13195595Y-16777071D01*
X13205119Y-16758024D01*
X13214643Y-16748500D01*
X13233690Y-16738976D01*
X13481309Y-16738976D02*
X13386071Y-16738976D01*
X13376548Y-16834214D01*
X13386071Y-16824690D01*
X13405119Y-16815167D01*
X13452738Y-16815167D01*
X13471786Y-16824690D01*
X13481309Y-16834214D01*
X13490833Y-16853262D01*
X13490833Y-16900881D01*
X13481309Y-16919929D01*
X13471786Y-16929452D01*
X13452738Y-16938976D01*
X13405119Y-16938976D01*
X13386071Y-16929452D01*
X13376548Y-16919929D01*
X13681309Y-16938976D02*
X13567024Y-16938976D01*
X13624167Y-16938976D02*
X13624167Y-16738976D01*
X13605119Y-16767548D01*
X13586071Y-16786595D01*
X13567024Y-16796119D01*
X13757500Y-16758024D02*
X13767024Y-16748500D01*
X13786071Y-16738976D01*
X13833690Y-16738976D01*
X13852738Y-16748500D01*
X13862262Y-16758024D01*
X13871786Y-16777071D01*
X13871786Y-16796119D01*
X13862262Y-16824690D01*
X13747976Y-16938976D01*
X13871786Y-16938976D01*
X13947976Y-16738976D02*
X13947976Y-16777071D01*
X14024167Y-16738976D02*
X14024167Y-16777071D01*
X14319405Y-17015167D02*
X14309881Y-17005643D01*
X14290833Y-16977071D01*
X14281309Y-16958024D01*
X14271786Y-16929452D01*
X14262262Y-16881833D01*
X14262262Y-16843738D01*
X14271786Y-16796119D01*
X14281309Y-16767548D01*
X14290833Y-16748500D01*
X14309881Y-16719928D01*
X14319405Y-16710405D01*
X14481309Y-16805643D02*
X14481309Y-16938976D01*
X14433690Y-16729452D02*
X14386071Y-16872310D01*
X14509881Y-16872310D01*
X14738452Y-16938976D02*
X14738452Y-16738976D01*
X14824167Y-16938976D02*
X14824167Y-16834214D01*
X14814643Y-16815167D01*
X14795595Y-16805643D01*
X14767024Y-16805643D01*
X14747976Y-16815167D01*
X14738452Y-16824690D01*
X14947976Y-16938976D02*
X14928928Y-16929452D01*
X14919405Y-16919929D01*
X14909881Y-16900881D01*
X14909881Y-16843738D01*
X14919405Y-16824690D01*
X14928928Y-16815167D01*
X14947976Y-16805643D01*
X14976548Y-16805643D01*
X14995595Y-16815167D01*
X15005119Y-16824690D01*
X15014643Y-16843738D01*
X15014643Y-16900881D01*
X15005119Y-16919929D01*
X14995595Y-16929452D01*
X14976548Y-16938976D01*
X14947976Y-16938976D01*
X15128928Y-16938976D02*
X15109881Y-16929452D01*
X15100357Y-16910405D01*
X15100357Y-16738976D01*
X15281309Y-16929452D02*
X15262262Y-16938976D01*
X15224167Y-16938976D01*
X15205119Y-16929452D01*
X15195595Y-16910405D01*
X15195595Y-16834214D01*
X15205119Y-16815167D01*
X15224167Y-16805643D01*
X15262262Y-16805643D01*
X15281309Y-16815167D01*
X15290833Y-16834214D01*
X15290833Y-16853262D01*
X15195595Y-16872310D01*
X15367024Y-16929452D02*
X15386071Y-16938976D01*
X15424167Y-16938976D01*
X15443214Y-16929452D01*
X15452738Y-16910405D01*
X15452738Y-16900881D01*
X15443214Y-16881833D01*
X15424167Y-16872310D01*
X15395595Y-16872310D01*
X15376548Y-16862786D01*
X15367024Y-16843738D01*
X15367024Y-16834214D01*
X15376548Y-16815167D01*
X15395595Y-16805643D01*
X15424167Y-16805643D01*
X15443214Y-16815167D01*
X15519405Y-17015167D02*
X15528928Y-17005643D01*
X15547976Y-16977071D01*
X15557500Y-16958024D01*
X15567024Y-16929452D01*
X15576548Y-16881833D01*
X15576548Y-16843738D01*
X15567024Y-16796119D01*
X15557500Y-16767548D01*
X15547976Y-16748500D01*
X15528928Y-16719928D01*
X15519405Y-16710405D01*
M02*
