%FSLAX45Y45*%
G04 Gerber Fmt 4.5, Leading zero omitted, Abs format (unit mm)*
G04 Created by KiCad (PCBNEW (5.1.9)-1) date 2022-01-22 14:39:25*
%MOMM*%
%LPD*%
G01*
G04 APERTURE LIST*
%TA.AperFunction,Profile*%
%ADD10C,0.050000*%
%TD*%
%ADD11C,0.200000*%
%ADD12C,0.300000*%
G04 APERTURE END LIST*
D10*
X10750000Y-15150000D02*
X17750000Y-15150000D01*
X10750000Y-8150000D02*
X10750000Y-15150000D01*
X17750000Y-8150000D02*
X10750000Y-8150000D01*
X17750000Y-8150000D02*
X17750000Y-15150000D01*
X17425000Y-14650000D02*
G75*
G03*
X17425000Y-14650000I-175000J0D01*
G01*
X11425000Y-14650000D02*
G75*
G03*
X11425000Y-14650000I-175000J0D01*
G01*
X11425000Y-8650000D02*
G75*
G03*
X11425000Y-8650000I-175000J0D01*
G01*
X17425000Y-8650000D02*
G75*
G03*
X17425000Y-8650000I-175000J0D01*
G01*
D11*
X12011660Y-9344660D02*
X12042140Y-9375140D01*
X12042140Y-9344660D02*
X12011660Y-9375140D01*
X12125960Y-9065260D02*
X12156440Y-9095740D01*
X12156440Y-9065260D02*
X12125960Y-9095740D01*
X12646660Y-9751060D02*
X12677140Y-9781540D01*
X12677140Y-9751060D02*
X12646660Y-9781540D01*
X13154660Y-9204960D02*
X13185140Y-9235440D01*
X13185140Y-9204960D02*
X13154660Y-9235440D01*
X13548360Y-9420860D02*
X13578840Y-9451340D01*
X13578840Y-9420860D02*
X13548360Y-9451340D01*
X14386560Y-11376660D02*
X14417040Y-11407140D01*
X14417040Y-11376660D02*
X14386560Y-11407140D01*
X15847060Y-11313160D02*
X15877540Y-11343640D01*
X15877540Y-11313160D02*
X15847060Y-11343640D01*
X16570960Y-10132060D02*
X16601440Y-10162540D01*
X16601440Y-10132060D02*
X16570960Y-10162540D01*
X12340000Y-10372000D02*
G75*
G03*
X12340000Y-10372000I-40000J0D01*
G01*
X12340000Y-10626000D02*
G75*
G03*
X12340000Y-10626000I-40000J0D01*
G01*
X12340000Y-10880000D02*
G75*
G03*
X12340000Y-10880000I-40000J0D01*
G01*
X12340000Y-11134000D02*
G75*
G03*
X12340000Y-11134000I-40000J0D01*
G01*
X12340000Y-11388000D02*
G75*
G03*
X12340000Y-11388000I-40000J0D01*
G01*
X12340000Y-11642000D02*
G75*
G03*
X12340000Y-11642000I-40000J0D01*
G01*
X12340000Y-11896000D02*
G75*
G03*
X12340000Y-11896000I-40000J0D01*
G01*
X12340000Y-12150000D02*
G75*
G03*
X12340000Y-12150000I-40000J0D01*
G01*
X12340000Y-12500000D02*
G75*
G03*
X12340000Y-12500000I-40000J0D01*
G01*
X12340000Y-12754000D02*
G75*
G03*
X12340000Y-12754000I-40000J0D01*
G01*
X12340000Y-13008000D02*
G75*
G03*
X12340000Y-13008000I-40000J0D01*
G01*
X12340000Y-13262000D02*
G75*
G03*
X12340000Y-13262000I-40000J0D01*
G01*
X12340000Y-13516000D02*
G75*
G03*
X12340000Y-13516000I-40000J0D01*
G01*
X12340000Y-13770000D02*
G75*
G03*
X12340000Y-13770000I-40000J0D01*
G01*
X12340000Y-14024000D02*
G75*
G03*
X12340000Y-14024000I-40000J0D01*
G01*
X12340000Y-14278000D02*
G75*
G03*
X12340000Y-14278000I-40000J0D01*
G01*
X13610000Y-10372000D02*
G75*
G03*
X13610000Y-10372000I-40000J0D01*
G01*
X13610000Y-10626000D02*
G75*
G03*
X13610000Y-10626000I-40000J0D01*
G01*
X13610000Y-10880000D02*
G75*
G03*
X13610000Y-10880000I-40000J0D01*
G01*
X13610000Y-11134000D02*
G75*
G03*
X13610000Y-11134000I-40000J0D01*
G01*
X13610000Y-11388000D02*
G75*
G03*
X13610000Y-11388000I-40000J0D01*
G01*
X13610000Y-11642000D02*
G75*
G03*
X13610000Y-11642000I-40000J0D01*
G01*
X13610000Y-11896000D02*
G75*
G03*
X13610000Y-11896000I-40000J0D01*
G01*
X13610000Y-12150000D02*
G75*
G03*
X13610000Y-12150000I-40000J0D01*
G01*
X13610000Y-12500000D02*
G75*
G03*
X13610000Y-12500000I-40000J0D01*
G01*
X13610000Y-12754000D02*
G75*
G03*
X13610000Y-12754000I-40000J0D01*
G01*
X13610000Y-13008000D02*
G75*
G03*
X13610000Y-13008000I-40000J0D01*
G01*
X13610000Y-13262000D02*
G75*
G03*
X13610000Y-13262000I-40000J0D01*
G01*
X13610000Y-13516000D02*
G75*
G03*
X13610000Y-13516000I-40000J0D01*
G01*
X13610000Y-13770000D02*
G75*
G03*
X13610000Y-13770000I-40000J0D01*
G01*
X13610000Y-14024000D02*
G75*
G03*
X13610000Y-14024000I-40000J0D01*
G01*
X13610000Y-14278000D02*
G75*
G03*
X13610000Y-14278000I-40000J0D01*
G01*
X11150000Y-11352500D02*
X11150000Y-11447500D01*
X11102500Y-11400000D02*
X11197500Y-11400000D01*
X11150000Y-11602500D02*
X11150000Y-11697500D01*
X11102500Y-11650000D02*
X11197500Y-11650000D01*
X11150000Y-11852500D02*
X11150000Y-11947500D01*
X11102500Y-11900000D02*
X11197500Y-11900000D01*
X11150000Y-12102500D02*
X11150000Y-12197500D01*
X11102500Y-12150000D02*
X11197500Y-12150000D01*
X11150000Y-12802500D02*
X11150000Y-12897500D01*
X11102500Y-12850000D02*
X11197500Y-12850000D01*
X11150000Y-13052500D02*
X11150000Y-13147500D01*
X11102500Y-13100000D02*
X11197500Y-13100000D01*
X11150000Y-13302500D02*
X11150000Y-13397500D01*
X11102500Y-13350000D02*
X11197500Y-13350000D01*
X11150000Y-13552500D02*
X11150000Y-13647500D01*
X11102500Y-13600000D02*
X11197500Y-13600000D01*
X14400000Y-12152500D02*
X14400000Y-12247500D01*
X14352500Y-12200000D02*
X14447500Y-12200000D01*
X14400000Y-12852500D02*
X14400000Y-12947500D01*
X14352500Y-12900000D02*
X14447500Y-12900000D01*
X14650000Y-12152500D02*
X14650000Y-12247500D01*
X14602500Y-12200000D02*
X14697500Y-12200000D01*
X14650000Y-12852500D02*
X14650000Y-12947500D01*
X14602500Y-12900000D02*
X14697500Y-12900000D01*
X14900000Y-12152500D02*
X14900000Y-12247500D01*
X14852500Y-12200000D02*
X14947500Y-12200000D01*
X14900000Y-12852500D02*
X14900000Y-12947500D01*
X14852500Y-12900000D02*
X14947500Y-12900000D01*
X15150000Y-12152500D02*
X15150000Y-12247500D01*
X15102500Y-12200000D02*
X15197500Y-12200000D01*
X15150000Y-12852500D02*
X15150000Y-12947500D01*
X15102500Y-12900000D02*
X15197500Y-12900000D01*
X15900000Y-12152500D02*
X15900000Y-12247500D01*
X15852500Y-12200000D02*
X15947500Y-12200000D01*
X15900000Y-12852500D02*
X15900000Y-12947500D01*
X15852500Y-12900000D02*
X15947500Y-12900000D01*
X16150000Y-12152500D02*
X16150000Y-12247500D01*
X16102500Y-12200000D02*
X16197500Y-12200000D01*
X16150000Y-12852500D02*
X16150000Y-12947500D01*
X16102500Y-12900000D02*
X16197500Y-12900000D01*
X16400000Y-12152500D02*
X16400000Y-12247500D01*
X16352500Y-12200000D02*
X16447500Y-12200000D01*
X16400000Y-12852500D02*
X16400000Y-12947500D01*
X16352500Y-12900000D02*
X16447500Y-12900000D01*
X16450000Y-10652500D02*
X16450000Y-10747500D01*
X16402500Y-10700000D02*
X16497500Y-10700000D01*
X16450000Y-11402500D02*
X16450000Y-11497500D01*
X16402500Y-11450000D02*
X16497500Y-11450000D01*
X16650000Y-12152500D02*
X16650000Y-12247500D01*
X16602500Y-12200000D02*
X16697500Y-12200000D01*
X16650000Y-12852500D02*
X16650000Y-12947500D01*
X16602500Y-12900000D02*
X16697500Y-12900000D01*
X16700000Y-10652500D02*
X16700000Y-10747500D01*
X16652500Y-10700000D02*
X16747500Y-10700000D01*
X16700000Y-11402500D02*
X16700000Y-11497500D01*
X16652500Y-11450000D02*
X16747500Y-11450000D01*
X16900000Y-12152500D02*
X16900000Y-12247500D01*
X16852500Y-12200000D02*
X16947500Y-12200000D01*
X16900000Y-12852500D02*
X16900000Y-12947500D01*
X16852500Y-12900000D02*
X16947500Y-12900000D01*
X16950000Y-10652500D02*
X16950000Y-10747500D01*
X16902500Y-10700000D02*
X16997500Y-10700000D01*
X16950000Y-11402500D02*
X16950000Y-11497500D01*
X16902500Y-11450000D02*
X16997500Y-11450000D01*
X17150000Y-12152500D02*
X17150000Y-12247500D01*
X17102500Y-12200000D02*
X17197500Y-12200000D01*
X17150000Y-12852500D02*
X17150000Y-12947500D01*
X17102500Y-12900000D02*
X17197500Y-12900000D01*
X16285356Y-9477356D02*
X16285356Y-9406644D01*
X16214644Y-9406644D01*
X16214644Y-9477356D01*
X16285356Y-9477356D01*
X16285356Y-9731356D02*
X16285356Y-9660644D01*
X16214644Y-9660644D01*
X16214644Y-9731356D01*
X16285356Y-9731356D01*
X16285356Y-9985356D02*
X16285356Y-9914644D01*
X16214644Y-9914644D01*
X16214644Y-9985356D01*
X16285356Y-9985356D01*
X11400000Y-9361400D02*
X11465000Y-9296400D01*
X11400000Y-9231400D01*
X11335000Y-9296400D01*
X11400000Y-9361400D01*
X11400000Y-9861400D02*
X11465000Y-9796400D01*
X11400000Y-9731400D01*
X11335000Y-9796400D01*
X11400000Y-9861400D01*
X11400000Y-10377400D02*
X11465000Y-10312400D01*
X11400000Y-10247400D01*
X11335000Y-10312400D01*
X11400000Y-10377400D01*
X11400000Y-10877400D02*
X11465000Y-10812400D01*
X11400000Y-10747400D01*
X11335000Y-10812400D01*
X11400000Y-10877400D01*
D12*
X11033928Y-15618214D02*
X11033928Y-15318214D01*
X11105357Y-15318214D01*
X11148214Y-15332500D01*
X11176786Y-15361071D01*
X11191071Y-15389643D01*
X11205357Y-15446786D01*
X11205357Y-15489643D01*
X11191071Y-15546786D01*
X11176786Y-15575357D01*
X11148214Y-15603929D01*
X11105357Y-15618214D01*
X11033928Y-15618214D01*
X11333928Y-15618214D02*
X11333928Y-15418214D01*
X11333928Y-15475357D02*
X11348214Y-15446786D01*
X11362500Y-15432500D01*
X11391071Y-15418214D01*
X11419643Y-15418214D01*
X11519643Y-15618214D02*
X11519643Y-15418214D01*
X11519643Y-15318214D02*
X11505357Y-15332500D01*
X11519643Y-15346786D01*
X11533928Y-15332500D01*
X11519643Y-15318214D01*
X11519643Y-15346786D01*
X11705357Y-15618214D02*
X11676786Y-15603929D01*
X11662500Y-15575357D01*
X11662500Y-15318214D01*
X11862500Y-15618214D02*
X11833928Y-15603929D01*
X11819643Y-15575357D01*
X11819643Y-15318214D01*
X12205357Y-15618214D02*
X12205357Y-15318214D01*
X12305357Y-15532500D01*
X12405357Y-15318214D01*
X12405357Y-15618214D01*
X12676786Y-15618214D02*
X12676786Y-15461071D01*
X12662500Y-15432500D01*
X12633928Y-15418214D01*
X12576786Y-15418214D01*
X12548214Y-15432500D01*
X12676786Y-15603929D02*
X12648214Y-15618214D01*
X12576786Y-15618214D01*
X12548214Y-15603929D01*
X12533928Y-15575357D01*
X12533928Y-15546786D01*
X12548214Y-15518214D01*
X12576786Y-15503929D01*
X12648214Y-15503929D01*
X12676786Y-15489643D01*
X12819643Y-15418214D02*
X12819643Y-15718214D01*
X12819643Y-15432500D02*
X12848214Y-15418214D01*
X12905357Y-15418214D01*
X12933928Y-15432500D01*
X12948214Y-15446786D01*
X12962500Y-15475357D01*
X12962500Y-15561071D01*
X12948214Y-15589643D01*
X12933928Y-15603929D01*
X12905357Y-15618214D01*
X12848214Y-15618214D01*
X12819643Y-15603929D01*
X13091071Y-15589643D02*
X13105357Y-15603929D01*
X13091071Y-15618214D01*
X13076786Y-15603929D01*
X13091071Y-15589643D01*
X13091071Y-15618214D01*
X13091071Y-15432500D02*
X13105357Y-15446786D01*
X13091071Y-15461071D01*
X13076786Y-15446786D01*
X13091071Y-15432500D01*
X13091071Y-15461071D01*
X10717020Y-16097260D02*
X10747500Y-16127740D01*
X10747500Y-16097260D02*
X10717020Y-16127740D01*
X11091071Y-15948214D02*
X11119643Y-15948214D01*
X11148214Y-15962500D01*
X11162500Y-15976786D01*
X11176786Y-16005357D01*
X11191071Y-16062500D01*
X11191071Y-16133929D01*
X11176786Y-16191071D01*
X11162500Y-16219643D01*
X11148214Y-16233929D01*
X11119643Y-16248214D01*
X11091071Y-16248214D01*
X11062500Y-16233929D01*
X11048214Y-16219643D01*
X11033928Y-16191071D01*
X11019643Y-16133929D01*
X11019643Y-16062500D01*
X11033928Y-16005357D01*
X11048214Y-15976786D01*
X11062500Y-15962500D01*
X11091071Y-15948214D01*
X11319643Y-16219643D02*
X11333928Y-16233929D01*
X11319643Y-16248214D01*
X11305357Y-16233929D01*
X11319643Y-16219643D01*
X11319643Y-16248214D01*
X11433928Y-15948214D02*
X11619643Y-15948214D01*
X11519643Y-16062500D01*
X11562500Y-16062500D01*
X11591071Y-16076786D01*
X11605357Y-16091071D01*
X11619643Y-16119643D01*
X11619643Y-16191071D01*
X11605357Y-16219643D01*
X11591071Y-16233929D01*
X11562500Y-16248214D01*
X11476786Y-16248214D01*
X11448214Y-16233929D01*
X11433928Y-16219643D01*
X11805357Y-15948214D02*
X11833928Y-15948214D01*
X11862500Y-15962500D01*
X11876786Y-15976786D01*
X11891071Y-16005357D01*
X11905357Y-16062500D01*
X11905357Y-16133929D01*
X11891071Y-16191071D01*
X11876786Y-16219643D01*
X11862500Y-16233929D01*
X11833928Y-16248214D01*
X11805357Y-16248214D01*
X11776786Y-16233929D01*
X11762500Y-16219643D01*
X11748214Y-16191071D01*
X11733928Y-16133929D01*
X11733928Y-16062500D01*
X11748214Y-16005357D01*
X11762500Y-15976786D01*
X11776786Y-15962500D01*
X11805357Y-15948214D01*
X12033928Y-16248214D02*
X12033928Y-16048214D01*
X12033928Y-16076786D02*
X12048214Y-16062500D01*
X12076786Y-16048214D01*
X12119643Y-16048214D01*
X12148214Y-16062500D01*
X12162500Y-16091071D01*
X12162500Y-16248214D01*
X12162500Y-16091071D02*
X12176786Y-16062500D01*
X12205357Y-16048214D01*
X12248214Y-16048214D01*
X12276786Y-16062500D01*
X12291071Y-16091071D01*
X12291071Y-16248214D01*
X12433928Y-16248214D02*
X12433928Y-16048214D01*
X12433928Y-16076786D02*
X12448214Y-16062500D01*
X12476786Y-16048214D01*
X12519643Y-16048214D01*
X12548214Y-16062500D01*
X12562500Y-16091071D01*
X12562500Y-16248214D01*
X12562500Y-16091071D02*
X12576786Y-16062500D01*
X12605357Y-16048214D01*
X12648214Y-16048214D01*
X12676786Y-16062500D01*
X12691071Y-16091071D01*
X12691071Y-16248214D01*
X13276786Y-15933929D02*
X13019643Y-16319643D01*
X13662500Y-15948214D02*
X13691071Y-15948214D01*
X13719643Y-15962500D01*
X13733928Y-15976786D01*
X13748214Y-16005357D01*
X13762500Y-16062500D01*
X13762500Y-16133929D01*
X13748214Y-16191071D01*
X13733928Y-16219643D01*
X13719643Y-16233929D01*
X13691071Y-16248214D01*
X13662500Y-16248214D01*
X13633928Y-16233929D01*
X13619643Y-16219643D01*
X13605357Y-16191071D01*
X13591071Y-16133929D01*
X13591071Y-16062500D01*
X13605357Y-16005357D01*
X13619643Y-15976786D01*
X13633928Y-15962500D01*
X13662500Y-15948214D01*
X13891071Y-16219643D02*
X13905357Y-16233929D01*
X13891071Y-16248214D01*
X13876786Y-16233929D01*
X13891071Y-16219643D01*
X13891071Y-16248214D01*
X14091071Y-15948214D02*
X14119643Y-15948214D01*
X14148214Y-15962500D01*
X14162500Y-15976786D01*
X14176786Y-16005357D01*
X14191071Y-16062500D01*
X14191071Y-16133929D01*
X14176786Y-16191071D01*
X14162500Y-16219643D01*
X14148214Y-16233929D01*
X14119643Y-16248214D01*
X14091071Y-16248214D01*
X14062500Y-16233929D01*
X14048214Y-16219643D01*
X14033928Y-16191071D01*
X14019643Y-16133929D01*
X14019643Y-16062500D01*
X14033928Y-16005357D01*
X14048214Y-15976786D01*
X14062500Y-15962500D01*
X14091071Y-15948214D01*
X14476786Y-16248214D02*
X14305357Y-16248214D01*
X14391071Y-16248214D02*
X14391071Y-15948214D01*
X14362500Y-15991071D01*
X14333928Y-16019643D01*
X14305357Y-16033929D01*
X14591071Y-15976786D02*
X14605357Y-15962500D01*
X14633928Y-15948214D01*
X14705357Y-15948214D01*
X14733928Y-15962500D01*
X14748214Y-15976786D01*
X14762500Y-16005357D01*
X14762500Y-16033929D01*
X14748214Y-16076786D01*
X14576786Y-16248214D01*
X14762500Y-16248214D01*
X14876786Y-15948214D02*
X14876786Y-16005357D01*
X14991071Y-15948214D02*
X14991071Y-16005357D01*
X15433928Y-16362500D02*
X15419643Y-16348214D01*
X15391071Y-16305357D01*
X15376786Y-16276786D01*
X15362500Y-16233929D01*
X15348214Y-16162500D01*
X15348214Y-16105357D01*
X15362500Y-16033929D01*
X15376786Y-15991071D01*
X15391071Y-15962500D01*
X15419643Y-15919643D01*
X15433928Y-15905357D01*
X15591071Y-16076786D02*
X15562500Y-16062500D01*
X15548214Y-16048214D01*
X15533928Y-16019643D01*
X15533928Y-16005357D01*
X15548214Y-15976786D01*
X15562500Y-15962500D01*
X15591071Y-15948214D01*
X15648214Y-15948214D01*
X15676786Y-15962500D01*
X15691071Y-15976786D01*
X15705357Y-16005357D01*
X15705357Y-16019643D01*
X15691071Y-16048214D01*
X15676786Y-16062500D01*
X15648214Y-16076786D01*
X15591071Y-16076786D01*
X15562500Y-16091071D01*
X15548214Y-16105357D01*
X15533928Y-16133929D01*
X15533928Y-16191071D01*
X15548214Y-16219643D01*
X15562500Y-16233929D01*
X15591071Y-16248214D01*
X15648214Y-16248214D01*
X15676786Y-16233929D01*
X15691071Y-16219643D01*
X15705357Y-16191071D01*
X15705357Y-16133929D01*
X15691071Y-16105357D01*
X15676786Y-16091071D01*
X15648214Y-16076786D01*
X16062500Y-16248214D02*
X16062500Y-15948214D01*
X16191071Y-16248214D02*
X16191071Y-16091071D01*
X16176786Y-16062500D01*
X16148214Y-16048214D01*
X16105357Y-16048214D01*
X16076786Y-16062500D01*
X16062500Y-16076786D01*
X16376786Y-16248214D02*
X16348214Y-16233929D01*
X16333928Y-16219643D01*
X16319643Y-16191071D01*
X16319643Y-16105357D01*
X16333928Y-16076786D01*
X16348214Y-16062500D01*
X16376786Y-16048214D01*
X16419643Y-16048214D01*
X16448214Y-16062500D01*
X16462500Y-16076786D01*
X16476786Y-16105357D01*
X16476786Y-16191071D01*
X16462500Y-16219643D01*
X16448214Y-16233929D01*
X16419643Y-16248214D01*
X16376786Y-16248214D01*
X16648214Y-16248214D02*
X16619643Y-16233929D01*
X16605357Y-16205357D01*
X16605357Y-15948214D01*
X16876786Y-16233929D02*
X16848214Y-16248214D01*
X16791071Y-16248214D01*
X16762500Y-16233929D01*
X16748214Y-16205357D01*
X16748214Y-16091071D01*
X16762500Y-16062500D01*
X16791071Y-16048214D01*
X16848214Y-16048214D01*
X16876786Y-16062500D01*
X16891071Y-16091071D01*
X16891071Y-16119643D01*
X16748214Y-16148214D01*
X17005357Y-16233929D02*
X17033928Y-16248214D01*
X17091071Y-16248214D01*
X17119643Y-16233929D01*
X17133928Y-16205357D01*
X17133928Y-16191071D01*
X17119643Y-16162500D01*
X17091071Y-16148214D01*
X17048214Y-16148214D01*
X17019643Y-16133929D01*
X17005357Y-16105357D01*
X17005357Y-16091071D01*
X17019643Y-16062500D01*
X17048214Y-16048214D01*
X17091071Y-16048214D01*
X17119643Y-16062500D01*
X17233928Y-16362500D02*
X17248214Y-16348214D01*
X17276786Y-16305357D01*
X17291071Y-16276786D01*
X17305357Y-16233929D01*
X17319643Y-16162500D01*
X17319643Y-16105357D01*
X17305357Y-16033929D01*
X17291071Y-15991071D01*
X17276786Y-15962500D01*
X17248214Y-15919643D01*
X17233928Y-15905357D01*
X10747500Y-16508500D02*
G75*
G03*
X10747500Y-16508500I-40000J0D01*
G01*
X11091071Y-16344214D02*
X11119643Y-16344214D01*
X11148214Y-16358500D01*
X11162500Y-16372786D01*
X11176786Y-16401357D01*
X11191071Y-16458500D01*
X11191071Y-16529929D01*
X11176786Y-16587071D01*
X11162500Y-16615643D01*
X11148214Y-16629929D01*
X11119643Y-16644214D01*
X11091071Y-16644214D01*
X11062500Y-16629929D01*
X11048214Y-16615643D01*
X11033928Y-16587071D01*
X11019643Y-16529929D01*
X11019643Y-16458500D01*
X11033928Y-16401357D01*
X11048214Y-16372786D01*
X11062500Y-16358500D01*
X11091071Y-16344214D01*
X11319643Y-16615643D02*
X11333928Y-16629929D01*
X11319643Y-16644214D01*
X11305357Y-16629929D01*
X11319643Y-16615643D01*
X11319643Y-16644214D01*
X11505357Y-16472786D02*
X11476786Y-16458500D01*
X11462500Y-16444214D01*
X11448214Y-16415643D01*
X11448214Y-16401357D01*
X11462500Y-16372786D01*
X11476786Y-16358500D01*
X11505357Y-16344214D01*
X11562500Y-16344214D01*
X11591071Y-16358500D01*
X11605357Y-16372786D01*
X11619643Y-16401357D01*
X11619643Y-16415643D01*
X11605357Y-16444214D01*
X11591071Y-16458500D01*
X11562500Y-16472786D01*
X11505357Y-16472786D01*
X11476786Y-16487071D01*
X11462500Y-16501357D01*
X11448214Y-16529929D01*
X11448214Y-16587071D01*
X11462500Y-16615643D01*
X11476786Y-16629929D01*
X11505357Y-16644214D01*
X11562500Y-16644214D01*
X11591071Y-16629929D01*
X11605357Y-16615643D01*
X11619643Y-16587071D01*
X11619643Y-16529929D01*
X11605357Y-16501357D01*
X11591071Y-16487071D01*
X11562500Y-16472786D01*
X11805357Y-16344214D02*
X11833928Y-16344214D01*
X11862500Y-16358500D01*
X11876786Y-16372786D01*
X11891071Y-16401357D01*
X11905357Y-16458500D01*
X11905357Y-16529929D01*
X11891071Y-16587071D01*
X11876786Y-16615643D01*
X11862500Y-16629929D01*
X11833928Y-16644214D01*
X11805357Y-16644214D01*
X11776786Y-16629929D01*
X11762500Y-16615643D01*
X11748214Y-16587071D01*
X11733928Y-16529929D01*
X11733928Y-16458500D01*
X11748214Y-16401357D01*
X11762500Y-16372786D01*
X11776786Y-16358500D01*
X11805357Y-16344214D01*
X12033928Y-16644214D02*
X12033928Y-16444214D01*
X12033928Y-16472786D02*
X12048214Y-16458500D01*
X12076786Y-16444214D01*
X12119643Y-16444214D01*
X12148214Y-16458500D01*
X12162500Y-16487071D01*
X12162500Y-16644214D01*
X12162500Y-16487071D02*
X12176786Y-16458500D01*
X12205357Y-16444214D01*
X12248214Y-16444214D01*
X12276786Y-16458500D01*
X12291071Y-16487071D01*
X12291071Y-16644214D01*
X12433928Y-16644214D02*
X12433928Y-16444214D01*
X12433928Y-16472786D02*
X12448214Y-16458500D01*
X12476786Y-16444214D01*
X12519643Y-16444214D01*
X12548214Y-16458500D01*
X12562500Y-16487071D01*
X12562500Y-16644214D01*
X12562500Y-16487071D02*
X12576786Y-16458500D01*
X12605357Y-16444214D01*
X12648214Y-16444214D01*
X12676786Y-16458500D01*
X12691071Y-16487071D01*
X12691071Y-16644214D01*
X13276786Y-16329929D02*
X13019643Y-16715643D01*
X13662500Y-16344214D02*
X13691071Y-16344214D01*
X13719643Y-16358500D01*
X13733928Y-16372786D01*
X13748214Y-16401357D01*
X13762500Y-16458500D01*
X13762500Y-16529929D01*
X13748214Y-16587071D01*
X13733928Y-16615643D01*
X13719643Y-16629929D01*
X13691071Y-16644214D01*
X13662500Y-16644214D01*
X13633928Y-16629929D01*
X13619643Y-16615643D01*
X13605357Y-16587071D01*
X13591071Y-16529929D01*
X13591071Y-16458500D01*
X13605357Y-16401357D01*
X13619643Y-16372786D01*
X13633928Y-16358500D01*
X13662500Y-16344214D01*
X13891071Y-16615643D02*
X13905357Y-16629929D01*
X13891071Y-16644214D01*
X13876786Y-16629929D01*
X13891071Y-16615643D01*
X13891071Y-16644214D01*
X14091071Y-16344214D02*
X14119643Y-16344214D01*
X14148214Y-16358500D01*
X14162500Y-16372786D01*
X14176786Y-16401357D01*
X14191071Y-16458500D01*
X14191071Y-16529929D01*
X14176786Y-16587071D01*
X14162500Y-16615643D01*
X14148214Y-16629929D01*
X14119643Y-16644214D01*
X14091071Y-16644214D01*
X14062500Y-16629929D01*
X14048214Y-16615643D01*
X14033928Y-16587071D01*
X14019643Y-16529929D01*
X14019643Y-16458500D01*
X14033928Y-16401357D01*
X14048214Y-16372786D01*
X14062500Y-16358500D01*
X14091071Y-16344214D01*
X14291071Y-16344214D02*
X14476786Y-16344214D01*
X14376786Y-16458500D01*
X14419643Y-16458500D01*
X14448214Y-16472786D01*
X14462500Y-16487071D01*
X14476786Y-16515643D01*
X14476786Y-16587071D01*
X14462500Y-16615643D01*
X14448214Y-16629929D01*
X14419643Y-16644214D01*
X14333928Y-16644214D01*
X14305357Y-16629929D01*
X14291071Y-16615643D01*
X14762500Y-16644214D02*
X14591071Y-16644214D01*
X14676786Y-16644214D02*
X14676786Y-16344214D01*
X14648214Y-16387071D01*
X14619643Y-16415643D01*
X14591071Y-16429929D01*
X14876786Y-16344214D02*
X14876786Y-16401357D01*
X14991071Y-16344214D02*
X14991071Y-16401357D01*
X15433928Y-16758500D02*
X15419643Y-16744214D01*
X15391071Y-16701357D01*
X15376786Y-16672786D01*
X15362500Y-16629929D01*
X15348214Y-16558500D01*
X15348214Y-16501357D01*
X15362500Y-16429929D01*
X15376786Y-16387071D01*
X15391071Y-16358500D01*
X15419643Y-16315643D01*
X15433928Y-16301357D01*
X15519643Y-16344214D02*
X15705357Y-16344214D01*
X15605357Y-16458500D01*
X15648214Y-16458500D01*
X15676786Y-16472786D01*
X15691071Y-16487071D01*
X15705357Y-16515643D01*
X15705357Y-16587071D01*
X15691071Y-16615643D01*
X15676786Y-16629929D01*
X15648214Y-16644214D01*
X15562500Y-16644214D01*
X15533928Y-16629929D01*
X15519643Y-16615643D01*
X15819643Y-16372786D02*
X15833928Y-16358500D01*
X15862500Y-16344214D01*
X15933928Y-16344214D01*
X15962500Y-16358500D01*
X15976786Y-16372786D01*
X15991071Y-16401357D01*
X15991071Y-16429929D01*
X15976786Y-16472786D01*
X15805357Y-16644214D01*
X15991071Y-16644214D01*
X16348214Y-16644214D02*
X16348214Y-16344214D01*
X16476786Y-16644214D02*
X16476786Y-16487071D01*
X16462500Y-16458500D01*
X16433928Y-16444214D01*
X16391071Y-16444214D01*
X16362500Y-16458500D01*
X16348214Y-16472786D01*
X16662500Y-16644214D02*
X16633928Y-16629929D01*
X16619643Y-16615643D01*
X16605357Y-16587071D01*
X16605357Y-16501357D01*
X16619643Y-16472786D01*
X16633928Y-16458500D01*
X16662500Y-16444214D01*
X16705357Y-16444214D01*
X16733928Y-16458500D01*
X16748214Y-16472786D01*
X16762500Y-16501357D01*
X16762500Y-16587071D01*
X16748214Y-16615643D01*
X16733928Y-16629929D01*
X16705357Y-16644214D01*
X16662500Y-16644214D01*
X16933928Y-16644214D02*
X16905357Y-16629929D01*
X16891071Y-16601357D01*
X16891071Y-16344214D01*
X17162500Y-16629929D02*
X17133928Y-16644214D01*
X17076786Y-16644214D01*
X17048214Y-16629929D01*
X17033928Y-16601357D01*
X17033928Y-16487071D01*
X17048214Y-16458500D01*
X17076786Y-16444214D01*
X17133928Y-16444214D01*
X17162500Y-16458500D01*
X17176786Y-16487071D01*
X17176786Y-16515643D01*
X17033928Y-16544214D01*
X17291071Y-16629929D02*
X17319643Y-16644214D01*
X17376786Y-16644214D01*
X17405357Y-16629929D01*
X17419643Y-16601357D01*
X17419643Y-16587071D01*
X17405357Y-16558500D01*
X17376786Y-16544214D01*
X17333928Y-16544214D01*
X17305357Y-16529929D01*
X17291071Y-16501357D01*
X17291071Y-16487071D01*
X17305357Y-16458500D01*
X17333928Y-16444214D01*
X17376786Y-16444214D01*
X17405357Y-16458500D01*
X17519643Y-16758500D02*
X17533928Y-16744214D01*
X17562500Y-16701357D01*
X17576786Y-16672786D01*
X17591071Y-16629929D01*
X17605357Y-16558500D01*
X17605357Y-16501357D01*
X17591071Y-16429929D01*
X17576786Y-16387071D01*
X17562500Y-16358500D01*
X17533928Y-16315643D01*
X17519643Y-16301357D01*
X10700000Y-16857000D02*
X10700000Y-16952000D01*
X10652500Y-16904500D02*
X10747500Y-16904500D01*
X11091071Y-16740214D02*
X11119643Y-16740214D01*
X11148214Y-16754500D01*
X11162500Y-16768786D01*
X11176786Y-16797357D01*
X11191071Y-16854500D01*
X11191071Y-16925929D01*
X11176786Y-16983072D01*
X11162500Y-17011643D01*
X11148214Y-17025929D01*
X11119643Y-17040214D01*
X11091071Y-17040214D01*
X11062500Y-17025929D01*
X11048214Y-17011643D01*
X11033928Y-16983072D01*
X11019643Y-16925929D01*
X11019643Y-16854500D01*
X11033928Y-16797357D01*
X11048214Y-16768786D01*
X11062500Y-16754500D01*
X11091071Y-16740214D01*
X11319643Y-17011643D02*
X11333928Y-17025929D01*
X11319643Y-17040214D01*
X11305357Y-17025929D01*
X11319643Y-17011643D01*
X11319643Y-17040214D01*
X11476786Y-17040214D02*
X11533928Y-17040214D01*
X11562500Y-17025929D01*
X11576786Y-17011643D01*
X11605357Y-16968786D01*
X11619643Y-16911643D01*
X11619643Y-16797357D01*
X11605357Y-16768786D01*
X11591071Y-16754500D01*
X11562500Y-16740214D01*
X11505357Y-16740214D01*
X11476786Y-16754500D01*
X11462500Y-16768786D01*
X11448214Y-16797357D01*
X11448214Y-16868786D01*
X11462500Y-16897357D01*
X11476786Y-16911643D01*
X11505357Y-16925929D01*
X11562500Y-16925929D01*
X11591071Y-16911643D01*
X11605357Y-16897357D01*
X11619643Y-16868786D01*
X11891071Y-16740214D02*
X11748214Y-16740214D01*
X11733928Y-16883072D01*
X11748214Y-16868786D01*
X11776786Y-16854500D01*
X11848214Y-16854500D01*
X11876786Y-16868786D01*
X11891071Y-16883072D01*
X11905357Y-16911643D01*
X11905357Y-16983072D01*
X11891071Y-17011643D01*
X11876786Y-17025929D01*
X11848214Y-17040214D01*
X11776786Y-17040214D01*
X11748214Y-17025929D01*
X11733928Y-17011643D01*
X12033928Y-17040214D02*
X12033928Y-16840214D01*
X12033928Y-16868786D02*
X12048214Y-16854500D01*
X12076786Y-16840214D01*
X12119643Y-16840214D01*
X12148214Y-16854500D01*
X12162500Y-16883072D01*
X12162500Y-17040214D01*
X12162500Y-16883072D02*
X12176786Y-16854500D01*
X12205357Y-16840214D01*
X12248214Y-16840214D01*
X12276786Y-16854500D01*
X12291071Y-16883072D01*
X12291071Y-17040214D01*
X12433928Y-17040214D02*
X12433928Y-16840214D01*
X12433928Y-16868786D02*
X12448214Y-16854500D01*
X12476786Y-16840214D01*
X12519643Y-16840214D01*
X12548214Y-16854500D01*
X12562500Y-16883072D01*
X12562500Y-17040214D01*
X12562500Y-16883072D02*
X12576786Y-16854500D01*
X12605357Y-16840214D01*
X12648214Y-16840214D01*
X12676786Y-16854500D01*
X12691071Y-16883072D01*
X12691071Y-17040214D01*
X13276786Y-16725929D02*
X13019643Y-17111643D01*
X13662500Y-16740214D02*
X13691071Y-16740214D01*
X13719643Y-16754500D01*
X13733928Y-16768786D01*
X13748214Y-16797357D01*
X13762500Y-16854500D01*
X13762500Y-16925929D01*
X13748214Y-16983072D01*
X13733928Y-17011643D01*
X13719643Y-17025929D01*
X13691071Y-17040214D01*
X13662500Y-17040214D01*
X13633928Y-17025929D01*
X13619643Y-17011643D01*
X13605357Y-16983072D01*
X13591071Y-16925929D01*
X13591071Y-16854500D01*
X13605357Y-16797357D01*
X13619643Y-16768786D01*
X13633928Y-16754500D01*
X13662500Y-16740214D01*
X13891071Y-17011643D02*
X13905357Y-17025929D01*
X13891071Y-17040214D01*
X13876786Y-17025929D01*
X13891071Y-17011643D01*
X13891071Y-17040214D01*
X14091071Y-16740214D02*
X14119643Y-16740214D01*
X14148214Y-16754500D01*
X14162500Y-16768786D01*
X14176786Y-16797357D01*
X14191071Y-16854500D01*
X14191071Y-16925929D01*
X14176786Y-16983072D01*
X14162500Y-17011643D01*
X14148214Y-17025929D01*
X14119643Y-17040214D01*
X14091071Y-17040214D01*
X14062500Y-17025929D01*
X14048214Y-17011643D01*
X14033928Y-16983072D01*
X14019643Y-16925929D01*
X14019643Y-16854500D01*
X14033928Y-16797357D01*
X14048214Y-16768786D01*
X14062500Y-16754500D01*
X14091071Y-16740214D01*
X14291071Y-16740214D02*
X14476786Y-16740214D01*
X14376786Y-16854500D01*
X14419643Y-16854500D01*
X14448214Y-16868786D01*
X14462500Y-16883072D01*
X14476786Y-16911643D01*
X14476786Y-16983072D01*
X14462500Y-17011643D01*
X14448214Y-17025929D01*
X14419643Y-17040214D01*
X14333928Y-17040214D01*
X14305357Y-17025929D01*
X14291071Y-17011643D01*
X14576786Y-16740214D02*
X14776786Y-16740214D01*
X14648214Y-17040214D01*
X14876786Y-16740214D02*
X14876786Y-16797357D01*
X14991071Y-16740214D02*
X14991071Y-16797357D01*
X15433928Y-17154500D02*
X15419643Y-17140214D01*
X15391071Y-17097357D01*
X15376786Y-17068786D01*
X15362500Y-17025929D01*
X15348214Y-16954500D01*
X15348214Y-16897357D01*
X15362500Y-16825929D01*
X15376786Y-16783072D01*
X15391071Y-16754500D01*
X15419643Y-16711643D01*
X15433928Y-16697357D01*
X15519643Y-16740214D02*
X15705357Y-16740214D01*
X15605357Y-16854500D01*
X15648214Y-16854500D01*
X15676786Y-16868786D01*
X15691071Y-16883072D01*
X15705357Y-16911643D01*
X15705357Y-16983072D01*
X15691071Y-17011643D01*
X15676786Y-17025929D01*
X15648214Y-17040214D01*
X15562500Y-17040214D01*
X15533928Y-17025929D01*
X15519643Y-17011643D01*
X15962500Y-16840214D02*
X15962500Y-17040214D01*
X15891071Y-16725929D02*
X15819643Y-16940214D01*
X16005357Y-16940214D01*
X16348214Y-17040214D02*
X16348214Y-16740214D01*
X16476786Y-17040214D02*
X16476786Y-16883072D01*
X16462500Y-16854500D01*
X16433928Y-16840214D01*
X16391071Y-16840214D01*
X16362500Y-16854500D01*
X16348214Y-16868786D01*
X16662500Y-17040214D02*
X16633928Y-17025929D01*
X16619643Y-17011643D01*
X16605357Y-16983072D01*
X16605357Y-16897357D01*
X16619643Y-16868786D01*
X16633928Y-16854500D01*
X16662500Y-16840214D01*
X16705357Y-16840214D01*
X16733928Y-16854500D01*
X16748214Y-16868786D01*
X16762500Y-16897357D01*
X16762500Y-16983072D01*
X16748214Y-17011643D01*
X16733928Y-17025929D01*
X16705357Y-17040214D01*
X16662500Y-17040214D01*
X16933928Y-17040214D02*
X16905357Y-17025929D01*
X16891071Y-16997357D01*
X16891071Y-16740214D01*
X17162500Y-17025929D02*
X17133928Y-17040214D01*
X17076786Y-17040214D01*
X17048214Y-17025929D01*
X17033928Y-16997357D01*
X17033928Y-16883072D01*
X17048214Y-16854500D01*
X17076786Y-16840214D01*
X17133928Y-16840214D01*
X17162500Y-16854500D01*
X17176786Y-16883072D01*
X17176786Y-16911643D01*
X17033928Y-16940214D01*
X17291071Y-17025929D02*
X17319643Y-17040214D01*
X17376786Y-17040214D01*
X17405357Y-17025929D01*
X17419643Y-16997357D01*
X17419643Y-16983072D01*
X17405357Y-16954500D01*
X17376786Y-16940214D01*
X17333928Y-16940214D01*
X17305357Y-16925929D01*
X17291071Y-16897357D01*
X17291071Y-16883072D01*
X17305357Y-16854500D01*
X17333928Y-16840214D01*
X17376786Y-16840214D01*
X17405357Y-16854500D01*
X17519643Y-17154500D02*
X17533928Y-17140214D01*
X17562500Y-17097357D01*
X17576786Y-17068786D01*
X17591071Y-17025929D01*
X17605357Y-16954500D01*
X17605357Y-16897357D01*
X17591071Y-16825929D01*
X17576786Y-16783072D01*
X17562500Y-16754500D01*
X17533928Y-16711643D01*
X17519643Y-16697357D01*
X10732856Y-17335856D02*
X10732856Y-17265144D01*
X10662144Y-17265144D01*
X10662144Y-17335856D01*
X10732856Y-17335856D01*
X11191071Y-17436214D02*
X11019643Y-17436214D01*
X11105357Y-17436214D02*
X11105357Y-17136214D01*
X11076786Y-17179072D01*
X11048214Y-17207643D01*
X11019643Y-17221929D01*
X11319643Y-17407643D02*
X11333928Y-17421929D01*
X11319643Y-17436214D01*
X11305357Y-17421929D01*
X11319643Y-17407643D01*
X11319643Y-17436214D01*
X11519643Y-17136214D02*
X11548214Y-17136214D01*
X11576786Y-17150500D01*
X11591071Y-17164786D01*
X11605357Y-17193357D01*
X11619643Y-17250500D01*
X11619643Y-17321929D01*
X11605357Y-17379072D01*
X11591071Y-17407643D01*
X11576786Y-17421929D01*
X11548214Y-17436214D01*
X11519643Y-17436214D01*
X11491071Y-17421929D01*
X11476786Y-17407643D01*
X11462500Y-17379072D01*
X11448214Y-17321929D01*
X11448214Y-17250500D01*
X11462500Y-17193357D01*
X11476786Y-17164786D01*
X11491071Y-17150500D01*
X11519643Y-17136214D01*
X11805357Y-17136214D02*
X11833928Y-17136214D01*
X11862500Y-17150500D01*
X11876786Y-17164786D01*
X11891071Y-17193357D01*
X11905357Y-17250500D01*
X11905357Y-17321929D01*
X11891071Y-17379072D01*
X11876786Y-17407643D01*
X11862500Y-17421929D01*
X11833928Y-17436214D01*
X11805357Y-17436214D01*
X11776786Y-17421929D01*
X11762500Y-17407643D01*
X11748214Y-17379072D01*
X11733928Y-17321929D01*
X11733928Y-17250500D01*
X11748214Y-17193357D01*
X11762500Y-17164786D01*
X11776786Y-17150500D01*
X11805357Y-17136214D01*
X12033928Y-17436214D02*
X12033928Y-17236214D01*
X12033928Y-17264786D02*
X12048214Y-17250500D01*
X12076786Y-17236214D01*
X12119643Y-17236214D01*
X12148214Y-17250500D01*
X12162500Y-17279072D01*
X12162500Y-17436214D01*
X12162500Y-17279072D02*
X12176786Y-17250500D01*
X12205357Y-17236214D01*
X12248214Y-17236214D01*
X12276786Y-17250500D01*
X12291071Y-17279072D01*
X12291071Y-17436214D01*
X12433928Y-17436214D02*
X12433928Y-17236214D01*
X12433928Y-17264786D02*
X12448214Y-17250500D01*
X12476786Y-17236214D01*
X12519643Y-17236214D01*
X12548214Y-17250500D01*
X12562500Y-17279072D01*
X12562500Y-17436214D01*
X12562500Y-17279072D02*
X12576786Y-17250500D01*
X12605357Y-17236214D01*
X12648214Y-17236214D01*
X12676786Y-17250500D01*
X12691071Y-17279072D01*
X12691071Y-17436214D01*
X13276786Y-17121929D02*
X13019643Y-17507643D01*
X13662500Y-17136214D02*
X13691071Y-17136214D01*
X13719643Y-17150500D01*
X13733928Y-17164786D01*
X13748214Y-17193357D01*
X13762500Y-17250500D01*
X13762500Y-17321929D01*
X13748214Y-17379072D01*
X13733928Y-17407643D01*
X13719643Y-17421929D01*
X13691071Y-17436214D01*
X13662500Y-17436214D01*
X13633928Y-17421929D01*
X13619643Y-17407643D01*
X13605357Y-17379072D01*
X13591071Y-17321929D01*
X13591071Y-17250500D01*
X13605357Y-17193357D01*
X13619643Y-17164786D01*
X13633928Y-17150500D01*
X13662500Y-17136214D01*
X13891071Y-17407643D02*
X13905357Y-17421929D01*
X13891071Y-17436214D01*
X13876786Y-17421929D01*
X13891071Y-17407643D01*
X13891071Y-17436214D01*
X14091071Y-17136214D02*
X14119643Y-17136214D01*
X14148214Y-17150500D01*
X14162500Y-17164786D01*
X14176786Y-17193357D01*
X14191071Y-17250500D01*
X14191071Y-17321929D01*
X14176786Y-17379072D01*
X14162500Y-17407643D01*
X14148214Y-17421929D01*
X14119643Y-17436214D01*
X14091071Y-17436214D01*
X14062500Y-17421929D01*
X14048214Y-17407643D01*
X14033928Y-17379072D01*
X14019643Y-17321929D01*
X14019643Y-17250500D01*
X14033928Y-17193357D01*
X14048214Y-17164786D01*
X14062500Y-17150500D01*
X14091071Y-17136214D01*
X14291071Y-17136214D02*
X14476786Y-17136214D01*
X14376786Y-17250500D01*
X14419643Y-17250500D01*
X14448214Y-17264786D01*
X14462500Y-17279072D01*
X14476786Y-17307643D01*
X14476786Y-17379072D01*
X14462500Y-17407643D01*
X14448214Y-17421929D01*
X14419643Y-17436214D01*
X14333928Y-17436214D01*
X14305357Y-17421929D01*
X14291071Y-17407643D01*
X14619643Y-17436214D02*
X14676786Y-17436214D01*
X14705357Y-17421929D01*
X14719643Y-17407643D01*
X14748214Y-17364786D01*
X14762500Y-17307643D01*
X14762500Y-17193357D01*
X14748214Y-17164786D01*
X14733928Y-17150500D01*
X14705357Y-17136214D01*
X14648214Y-17136214D01*
X14619643Y-17150500D01*
X14605357Y-17164786D01*
X14591071Y-17193357D01*
X14591071Y-17264786D01*
X14605357Y-17293357D01*
X14619643Y-17307643D01*
X14648214Y-17321929D01*
X14705357Y-17321929D01*
X14733928Y-17307643D01*
X14748214Y-17293357D01*
X14762500Y-17264786D01*
X14876786Y-17136214D02*
X14876786Y-17193357D01*
X14991071Y-17136214D02*
X14991071Y-17193357D01*
X15433928Y-17550500D02*
X15419643Y-17536214D01*
X15391071Y-17493357D01*
X15376786Y-17464786D01*
X15362500Y-17421929D01*
X15348214Y-17350500D01*
X15348214Y-17293357D01*
X15362500Y-17221929D01*
X15376786Y-17179072D01*
X15391071Y-17150500D01*
X15419643Y-17107643D01*
X15433928Y-17093357D01*
X15519643Y-17136214D02*
X15705357Y-17136214D01*
X15605357Y-17250500D01*
X15648214Y-17250500D01*
X15676786Y-17264786D01*
X15691071Y-17279072D01*
X15705357Y-17307643D01*
X15705357Y-17379072D01*
X15691071Y-17407643D01*
X15676786Y-17421929D01*
X15648214Y-17436214D01*
X15562500Y-17436214D01*
X15533928Y-17421929D01*
X15519643Y-17407643D01*
X16062500Y-17436214D02*
X16062500Y-17136214D01*
X16191071Y-17436214D02*
X16191071Y-17279072D01*
X16176786Y-17250500D01*
X16148214Y-17236214D01*
X16105357Y-17236214D01*
X16076786Y-17250500D01*
X16062500Y-17264786D01*
X16376786Y-17436214D02*
X16348214Y-17421929D01*
X16333928Y-17407643D01*
X16319643Y-17379072D01*
X16319643Y-17293357D01*
X16333928Y-17264786D01*
X16348214Y-17250500D01*
X16376786Y-17236214D01*
X16419643Y-17236214D01*
X16448214Y-17250500D01*
X16462500Y-17264786D01*
X16476786Y-17293357D01*
X16476786Y-17379072D01*
X16462500Y-17407643D01*
X16448214Y-17421929D01*
X16419643Y-17436214D01*
X16376786Y-17436214D01*
X16648214Y-17436214D02*
X16619643Y-17421929D01*
X16605357Y-17393357D01*
X16605357Y-17136214D01*
X16876786Y-17421929D02*
X16848214Y-17436214D01*
X16791071Y-17436214D01*
X16762500Y-17421929D01*
X16748214Y-17393357D01*
X16748214Y-17279072D01*
X16762500Y-17250500D01*
X16791071Y-17236214D01*
X16848214Y-17236214D01*
X16876786Y-17250500D01*
X16891071Y-17279072D01*
X16891071Y-17307643D01*
X16748214Y-17336214D01*
X17005357Y-17421929D02*
X17033928Y-17436214D01*
X17091071Y-17436214D01*
X17119643Y-17421929D01*
X17133928Y-17393357D01*
X17133928Y-17379072D01*
X17119643Y-17350500D01*
X17091071Y-17336214D01*
X17048214Y-17336214D01*
X17019643Y-17321929D01*
X17005357Y-17293357D01*
X17005357Y-17279072D01*
X17019643Y-17250500D01*
X17048214Y-17236214D01*
X17091071Y-17236214D01*
X17119643Y-17250500D01*
X17233928Y-17550500D02*
X17248214Y-17536214D01*
X17276786Y-17493357D01*
X17291071Y-17464786D01*
X17305357Y-17421929D01*
X17319643Y-17350500D01*
X17319643Y-17293357D01*
X17305357Y-17221929D01*
X17291071Y-17179072D01*
X17276786Y-17150500D01*
X17248214Y-17107643D01*
X17233928Y-17093357D01*
X10682500Y-17761500D02*
X10747500Y-17696500D01*
X10682500Y-17631500D01*
X10617500Y-17696500D01*
X10682500Y-17761500D01*
X11191071Y-17832214D02*
X11019643Y-17832214D01*
X11105357Y-17832214D02*
X11105357Y-17532214D01*
X11076786Y-17575072D01*
X11048214Y-17603643D01*
X11019643Y-17617929D01*
X11319643Y-17803643D02*
X11333928Y-17817929D01*
X11319643Y-17832214D01*
X11305357Y-17817929D01*
X11319643Y-17803643D01*
X11319643Y-17832214D01*
X11433928Y-17532214D02*
X11619643Y-17532214D01*
X11519643Y-17646500D01*
X11562500Y-17646500D01*
X11591071Y-17660786D01*
X11605357Y-17675072D01*
X11619643Y-17703643D01*
X11619643Y-17775072D01*
X11605357Y-17803643D01*
X11591071Y-17817929D01*
X11562500Y-17832214D01*
X11476786Y-17832214D01*
X11448214Y-17817929D01*
X11433928Y-17803643D01*
X11805357Y-17532214D02*
X11833928Y-17532214D01*
X11862500Y-17546500D01*
X11876786Y-17560786D01*
X11891071Y-17589357D01*
X11905357Y-17646500D01*
X11905357Y-17717929D01*
X11891071Y-17775072D01*
X11876786Y-17803643D01*
X11862500Y-17817929D01*
X11833928Y-17832214D01*
X11805357Y-17832214D01*
X11776786Y-17817929D01*
X11762500Y-17803643D01*
X11748214Y-17775072D01*
X11733928Y-17717929D01*
X11733928Y-17646500D01*
X11748214Y-17589357D01*
X11762500Y-17560786D01*
X11776786Y-17546500D01*
X11805357Y-17532214D01*
X12033928Y-17832214D02*
X12033928Y-17632214D01*
X12033928Y-17660786D02*
X12048214Y-17646500D01*
X12076786Y-17632214D01*
X12119643Y-17632214D01*
X12148214Y-17646500D01*
X12162500Y-17675072D01*
X12162500Y-17832214D01*
X12162500Y-17675072D02*
X12176786Y-17646500D01*
X12205357Y-17632214D01*
X12248214Y-17632214D01*
X12276786Y-17646500D01*
X12291071Y-17675072D01*
X12291071Y-17832214D01*
X12433928Y-17832214D02*
X12433928Y-17632214D01*
X12433928Y-17660786D02*
X12448214Y-17646500D01*
X12476786Y-17632214D01*
X12519643Y-17632214D01*
X12548214Y-17646500D01*
X12562500Y-17675072D01*
X12562500Y-17832214D01*
X12562500Y-17675072D02*
X12576786Y-17646500D01*
X12605357Y-17632214D01*
X12648214Y-17632214D01*
X12676786Y-17646500D01*
X12691071Y-17675072D01*
X12691071Y-17832214D01*
X13276786Y-17517929D02*
X13019643Y-17903643D01*
X13662500Y-17532214D02*
X13691071Y-17532214D01*
X13719643Y-17546500D01*
X13733928Y-17560786D01*
X13748214Y-17589357D01*
X13762500Y-17646500D01*
X13762500Y-17717929D01*
X13748214Y-17775072D01*
X13733928Y-17803643D01*
X13719643Y-17817929D01*
X13691071Y-17832214D01*
X13662500Y-17832214D01*
X13633928Y-17817929D01*
X13619643Y-17803643D01*
X13605357Y-17775072D01*
X13591071Y-17717929D01*
X13591071Y-17646500D01*
X13605357Y-17589357D01*
X13619643Y-17560786D01*
X13633928Y-17546500D01*
X13662500Y-17532214D01*
X13891071Y-17803643D02*
X13905357Y-17817929D01*
X13891071Y-17832214D01*
X13876786Y-17817929D01*
X13891071Y-17803643D01*
X13891071Y-17832214D01*
X14091071Y-17532214D02*
X14119643Y-17532214D01*
X14148214Y-17546500D01*
X14162500Y-17560786D01*
X14176786Y-17589357D01*
X14191071Y-17646500D01*
X14191071Y-17717929D01*
X14176786Y-17775072D01*
X14162500Y-17803643D01*
X14148214Y-17817929D01*
X14119643Y-17832214D01*
X14091071Y-17832214D01*
X14062500Y-17817929D01*
X14048214Y-17803643D01*
X14033928Y-17775072D01*
X14019643Y-17717929D01*
X14019643Y-17646500D01*
X14033928Y-17589357D01*
X14048214Y-17560786D01*
X14062500Y-17546500D01*
X14091071Y-17532214D01*
X14462500Y-17532214D02*
X14319643Y-17532214D01*
X14305357Y-17675072D01*
X14319643Y-17660786D01*
X14348214Y-17646500D01*
X14419643Y-17646500D01*
X14448214Y-17660786D01*
X14462500Y-17675072D01*
X14476786Y-17703643D01*
X14476786Y-17775072D01*
X14462500Y-17803643D01*
X14448214Y-17817929D01*
X14419643Y-17832214D01*
X14348214Y-17832214D01*
X14319643Y-17817929D01*
X14305357Y-17803643D01*
X14762500Y-17832214D02*
X14591071Y-17832214D01*
X14676786Y-17832214D02*
X14676786Y-17532214D01*
X14648214Y-17575072D01*
X14619643Y-17603643D01*
X14591071Y-17617929D01*
X14876786Y-17532214D02*
X14876786Y-17589357D01*
X14991071Y-17532214D02*
X14991071Y-17589357D01*
X15433928Y-17946500D02*
X15419643Y-17932214D01*
X15391071Y-17889357D01*
X15376786Y-17860786D01*
X15362500Y-17817929D01*
X15348214Y-17746500D01*
X15348214Y-17689357D01*
X15362500Y-17617929D01*
X15376786Y-17575072D01*
X15391071Y-17546500D01*
X15419643Y-17503643D01*
X15433928Y-17489357D01*
X15676786Y-17632214D02*
X15676786Y-17832214D01*
X15605357Y-17517929D02*
X15533928Y-17732214D01*
X15719643Y-17732214D01*
X16062500Y-17832214D02*
X16062500Y-17532214D01*
X16191071Y-17832214D02*
X16191071Y-17675072D01*
X16176786Y-17646500D01*
X16148214Y-17632214D01*
X16105357Y-17632214D01*
X16076786Y-17646500D01*
X16062500Y-17660786D01*
X16376786Y-17832214D02*
X16348214Y-17817929D01*
X16333928Y-17803643D01*
X16319643Y-17775072D01*
X16319643Y-17689357D01*
X16333928Y-17660786D01*
X16348214Y-17646500D01*
X16376786Y-17632214D01*
X16419643Y-17632214D01*
X16448214Y-17646500D01*
X16462500Y-17660786D01*
X16476786Y-17689357D01*
X16476786Y-17775072D01*
X16462500Y-17803643D01*
X16448214Y-17817929D01*
X16419643Y-17832214D01*
X16376786Y-17832214D01*
X16648214Y-17832214D02*
X16619643Y-17817929D01*
X16605357Y-17789357D01*
X16605357Y-17532214D01*
X16876786Y-17817929D02*
X16848214Y-17832214D01*
X16791071Y-17832214D01*
X16762500Y-17817929D01*
X16748214Y-17789357D01*
X16748214Y-17675072D01*
X16762500Y-17646500D01*
X16791071Y-17632214D01*
X16848214Y-17632214D01*
X16876786Y-17646500D01*
X16891071Y-17675072D01*
X16891071Y-17703643D01*
X16748214Y-17732214D01*
X17005357Y-17817929D02*
X17033928Y-17832214D01*
X17091071Y-17832214D01*
X17119643Y-17817929D01*
X17133928Y-17789357D01*
X17133928Y-17775072D01*
X17119643Y-17746500D01*
X17091071Y-17732214D01*
X17048214Y-17732214D01*
X17019643Y-17717929D01*
X17005357Y-17689357D01*
X17005357Y-17675072D01*
X17019643Y-17646500D01*
X17048214Y-17632214D01*
X17091071Y-17632214D01*
X17119643Y-17646500D01*
X17233928Y-17946500D02*
X17248214Y-17932214D01*
X17276786Y-17889357D01*
X17291071Y-17860786D01*
X17305357Y-17817929D01*
X17319643Y-17746500D01*
X17319643Y-17689357D01*
X17305357Y-17617929D01*
X17291071Y-17575072D01*
X17276786Y-17546500D01*
X17248214Y-17503643D01*
X17233928Y-17489357D01*
M02*
