%FSLAX45Y45*%
G04 Gerber Fmt 4.5, Leading zero omitted, Abs format (unit mm)*
G04 Created by KiCad (PCBNEW (5.1.9)-1) date 2021-11-04 11:44:47*
%MOMM*%
%LPD*%
G01*
G04 APERTURE LIST*
%TA.AperFunction,Profile*%
%ADD10C,0.050000*%
%TD*%
%ADD11C,0.200000*%
%ADD12C,0.300000*%
G04 APERTURE END LIST*
D10*
X5400000Y-11600000D02*
X5400000Y-5200000D01*
X12000000Y-11600000D02*
X5400000Y-11600000D01*
X12000000Y-5200000D02*
X12000000Y-11600000D01*
X5400000Y-5200000D02*
X12000000Y-5200000D01*
X5975000Y-11200000D02*
G75*
G03*
X5975000Y-11200000I-175000J0D01*
G01*
X11775000Y-11200000D02*
G75*
G03*
X11775000Y-11200000I-175000J0D01*
G01*
X5975000Y-5600000D02*
G75*
G03*
X5975000Y-5600000I-175000J0D01*
G01*
X11775000Y-5600000D02*
G75*
G03*
X11775000Y-5600000I-175000J0D01*
G01*
D11*
D12*
X5683928Y-12068214D02*
X5683928Y-11768214D01*
X5755357Y-11768214D01*
X5798214Y-11782500D01*
X5826786Y-11811071D01*
X5841071Y-11839643D01*
X5855357Y-11896786D01*
X5855357Y-11939643D01*
X5841071Y-11996786D01*
X5826786Y-12025357D01*
X5798214Y-12053929D01*
X5755357Y-12068214D01*
X5683928Y-12068214D01*
X5983928Y-12068214D02*
X5983928Y-11868214D01*
X5983928Y-11925357D02*
X5998214Y-11896786D01*
X6012500Y-11882500D01*
X6041071Y-11868214D01*
X6069643Y-11868214D01*
X6169643Y-12068214D02*
X6169643Y-11868214D01*
X6169643Y-11768214D02*
X6155357Y-11782500D01*
X6169643Y-11796786D01*
X6183928Y-11782500D01*
X6169643Y-11768214D01*
X6169643Y-11796786D01*
X6355357Y-12068214D02*
X6326786Y-12053929D01*
X6312500Y-12025357D01*
X6312500Y-11768214D01*
X6512500Y-12068214D02*
X6483928Y-12053929D01*
X6469643Y-12025357D01*
X6469643Y-11768214D01*
X6855357Y-12068214D02*
X6855357Y-11768214D01*
X6955357Y-11982500D01*
X7055357Y-11768214D01*
X7055357Y-12068214D01*
X7326786Y-12068214D02*
X7326786Y-11911071D01*
X7312500Y-11882500D01*
X7283928Y-11868214D01*
X7226786Y-11868214D01*
X7198214Y-11882500D01*
X7326786Y-12053929D02*
X7298214Y-12068214D01*
X7226786Y-12068214D01*
X7198214Y-12053929D01*
X7183928Y-12025357D01*
X7183928Y-11996786D01*
X7198214Y-11968214D01*
X7226786Y-11953929D01*
X7298214Y-11953929D01*
X7326786Y-11939643D01*
X7469643Y-11868214D02*
X7469643Y-12168214D01*
X7469643Y-11882500D02*
X7498214Y-11868214D01*
X7555357Y-11868214D01*
X7583928Y-11882500D01*
X7598214Y-11896786D01*
X7612500Y-11925357D01*
X7612500Y-12011071D01*
X7598214Y-12039643D01*
X7583928Y-12053929D01*
X7555357Y-12068214D01*
X7498214Y-12068214D01*
X7469643Y-12053929D01*
X7741071Y-12039643D02*
X7755357Y-12053929D01*
X7741071Y-12068214D01*
X7726786Y-12053929D01*
X7741071Y-12039643D01*
X7741071Y-12068214D01*
X7741071Y-11882500D02*
X7755357Y-11896786D01*
X7741071Y-11911071D01*
X7726786Y-11896786D01*
X7741071Y-11882500D01*
X7741071Y-11911071D01*
M02*
