%FSLAX45Y45*%
G04 Gerber Fmt 4.5, Leading zero omitted, Abs format (unit mm)*
G04 Created by KiCad (PCBNEW (5.1.10)-1) date 2022-07-24 00:59:49*
%MOMM*%
%LPD*%
G01*
G04 APERTURE LIST*
%TA.AperFunction,Profile*%
%ADD10C,0.050000*%
%TD*%
%ADD11C,0.200000*%
%ADD12C,0.300000*%
G04 APERTURE END LIST*
D10*
X10750000Y-15150000D02*
X17750000Y-15150000D01*
X10750000Y-8150000D02*
X10750000Y-15150000D01*
X17750000Y-8150000D02*
X10750000Y-8150000D01*
X17750000Y-8150000D02*
X17750000Y-15150000D01*
X17425000Y-14650000D02*
G75*
G03*
X17425000Y-14650000I-175000J0D01*
G01*
X11425000Y-14650000D02*
G75*
G03*
X11425000Y-14650000I-175000J0D01*
G01*
X11425000Y-8650000D02*
G75*
G03*
X11425000Y-8650000I-175000J0D01*
G01*
X17425000Y-8650000D02*
G75*
G03*
X17425000Y-8650000I-175000J0D01*
G01*
D11*
D12*
X11033928Y-15618214D02*
X11033928Y-15318214D01*
X11105357Y-15318214D01*
X11148214Y-15332500D01*
X11176786Y-15361071D01*
X11191071Y-15389643D01*
X11205357Y-15446786D01*
X11205357Y-15489643D01*
X11191071Y-15546786D01*
X11176786Y-15575357D01*
X11148214Y-15603929D01*
X11105357Y-15618214D01*
X11033928Y-15618214D01*
X11333928Y-15618214D02*
X11333928Y-15418214D01*
X11333928Y-15475357D02*
X11348214Y-15446786D01*
X11362500Y-15432500D01*
X11391071Y-15418214D01*
X11419643Y-15418214D01*
X11519643Y-15618214D02*
X11519643Y-15418214D01*
X11519643Y-15318214D02*
X11505357Y-15332500D01*
X11519643Y-15346786D01*
X11533928Y-15332500D01*
X11519643Y-15318214D01*
X11519643Y-15346786D01*
X11705357Y-15618214D02*
X11676786Y-15603929D01*
X11662500Y-15575357D01*
X11662500Y-15318214D01*
X11862500Y-15618214D02*
X11833928Y-15603929D01*
X11819643Y-15575357D01*
X11819643Y-15318214D01*
X12205357Y-15618214D02*
X12205357Y-15318214D01*
X12305357Y-15532500D01*
X12405357Y-15318214D01*
X12405357Y-15618214D01*
X12676786Y-15618214D02*
X12676786Y-15461071D01*
X12662500Y-15432500D01*
X12633928Y-15418214D01*
X12576786Y-15418214D01*
X12548214Y-15432500D01*
X12676786Y-15603929D02*
X12648214Y-15618214D01*
X12576786Y-15618214D01*
X12548214Y-15603929D01*
X12533928Y-15575357D01*
X12533928Y-15546786D01*
X12548214Y-15518214D01*
X12576786Y-15503929D01*
X12648214Y-15503929D01*
X12676786Y-15489643D01*
X12819643Y-15418214D02*
X12819643Y-15718214D01*
X12819643Y-15432500D02*
X12848214Y-15418214D01*
X12905357Y-15418214D01*
X12933928Y-15432500D01*
X12948214Y-15446786D01*
X12962500Y-15475357D01*
X12962500Y-15561071D01*
X12948214Y-15589643D01*
X12933928Y-15603929D01*
X12905357Y-15618214D01*
X12848214Y-15618214D01*
X12819643Y-15603929D01*
X13091071Y-15589643D02*
X13105357Y-15603929D01*
X13091071Y-15618214D01*
X13076786Y-15603929D01*
X13091071Y-15589643D01*
X13091071Y-15618214D01*
X13091071Y-15432500D02*
X13105357Y-15446786D01*
X13091071Y-15461071D01*
X13076786Y-15446786D01*
X13091071Y-15432500D01*
X13091071Y-15461071D01*
M02*
