M48
; DRILL file {KiCad (5.1.9)-1} date 11/04/21 11:44:46
; FORMAT={-:-/ absolute / metric / decimal}
; #@! TF.CreationDate,2021-11-04T11:44:46-05:00
; #@! TF.GenerationSoftware,Kicad,Pcbnew,(5.1.9)-1
; #@! TF.FileFunction,Plated,1,2,PTH
FMAT,2
METRIC
T1C0.300
T2C0.305
T3C0.800
T4C0.950
T5C1.000
T6C1.300
%
G90
G05
T1
X95.75Y-73.25
X95.75Y-74.75
X96.5Y-72.5
X96.5Y-74.0
X96.5Y-75.5
X97.3Y-73.25
X97.3Y-74.75
X98.0Y-72.5
X98.0Y-74.0
X98.0Y-75.5
X98.75Y-73.25
X98.75Y-74.75
T2
X78.867Y-59.69
X108.712Y-53.594
X108.712Y-91.44
T3
X73.5Y-72.0
X73.5Y-74.54
X73.5Y-77.08
X73.5Y-79.62
X73.5Y-82.16
X73.5Y-84.7
X73.5Y-87.24
X73.5Y-89.78
X73.5Y-95.22
X73.5Y-97.76
X73.5Y-100.3
X73.5Y-102.84
X73.5Y-105.38
X73.5Y-107.92
X73.5Y-110.46
X73.5Y-113.0
X86.2Y-72.0
X86.2Y-74.54
X86.2Y-77.08
X86.2Y-79.62
X86.2Y-82.16
X86.2Y-84.7
X86.2Y-87.24
X86.2Y-89.78
X86.2Y-95.22
X86.2Y-97.76
X86.2Y-100.3
X86.2Y-102.84
X86.2Y-105.38
X86.2Y-107.92
X86.2Y-110.46
X86.2Y-113.0
T4
X59.5Y-77.5
X59.5Y-80.0
X59.5Y-82.5
X59.5Y-85.0
X59.5Y-95.5
X59.5Y-98.0
X59.5Y-100.5
X59.5Y-103.0
X67.0Y-77.5
X67.0Y-80.0
X67.0Y-82.5
X67.0Y-85.0
X67.0Y-95.5
X67.0Y-98.0
X67.0Y-100.5
X67.0Y-103.0
X94.0Y-97.5
X94.0Y-105.0
X96.5Y-97.5
X96.5Y-105.0
X99.0Y-97.5
X99.0Y-105.0
X101.5Y-97.5
X101.5Y-105.0
X109.0Y-93.5
X109.0Y-96.0
X109.0Y-98.5
X109.0Y-105.0
X109.0Y-107.5
X109.0Y-110.0
T5
X79.75Y-73.25
X79.75Y-75.79
X79.75Y-78.33
X79.75Y-96.5
X79.75Y-99.04
X79.75Y-101.58
X82.29Y-73.25
X82.29Y-75.79
X82.29Y-78.33
X82.29Y-96.5
X82.29Y-99.04
X82.29Y-101.58
X110.5Y-72.0
X110.5Y-74.54
X110.5Y-77.08
T6
X66.5Y-62.0
X66.5Y-67.0
T0
M30
