G04 #@! TF.GenerationSoftware,KiCad,Pcbnew,6.0.7-f9a2dced07~116~ubuntu20.04.1*
G04 #@! TF.CreationDate,2022-08-24T01:16:15-05:00*
G04 #@! TF.ProjectId,MuscleRoller,4d757363-6c65-4526-9f6c-6c65722e6b69,rev?*
G04 #@! TF.SameCoordinates,Original*
G04 #@! TF.FileFunction,Soldermask,Top*
G04 #@! TF.FilePolarity,Negative*
%FSLAX46Y46*%
G04 Gerber Fmt 4.6, Leading zero omitted, Abs format (unit mm)*
G04 Created by KiCad (PCBNEW 6.0.7-f9a2dced07~116~ubuntu20.04.1) date 2022-08-24 01:16:15*
%MOMM*%
%LPD*%
G01*
G04 APERTURE LIST*
G04 Aperture macros list*
%AMRoundRect*
0 Rectangle with rounded corners*
0 $1 Rounding radius*
0 $2 $3 $4 $5 $6 $7 $8 $9 X,Y pos of 4 corners*
0 Add a 4 corners polygon primitive as box body*
4,1,4,$2,$3,$4,$5,$6,$7,$8,$9,$2,$3,0*
0 Add four circle primitives for the rounded corners*
1,1,$1+$1,$2,$3*
1,1,$1+$1,$4,$5*
1,1,$1+$1,$6,$7*
1,1,$1+$1,$8,$9*
0 Add four rect primitives between the rounded corners*
20,1,$1+$1,$2,$3,$4,$5,0*
20,1,$1+$1,$4,$5,$6,$7,0*
20,1,$1+$1,$6,$7,$8,$9,0*
20,1,$1+$1,$8,$9,$2,$3,0*%
G04 Aperture macros list end*
%ADD10RoundRect,0.250000X-0.450000X0.350000X-0.450000X-0.350000X0.450000X-0.350000X0.450000X0.350000X0*%
%ADD11RoundRect,0.243750X-0.456250X0.243750X-0.456250X-0.243750X0.456250X-0.243750X0.456250X0.243750X0*%
%ADD12R,1.600000X1.400000*%
%ADD13RoundRect,0.250000X-1.500000X-0.550000X1.500000X-0.550000X1.500000X0.550000X-1.500000X0.550000X0*%
%ADD14R,1.600000X1.600000*%
%ADD15O,1.600000X1.600000*%
%ADD16RoundRect,0.250000X-0.337500X-0.475000X0.337500X-0.475000X0.337500X0.475000X-0.337500X0.475000X0*%
%ADD17RoundRect,0.250000X0.475000X-0.337500X0.475000X0.337500X-0.475000X0.337500X-0.475000X-0.337500X0*%
%ADD18RoundRect,0.250000X-0.600000X-0.725000X0.600000X-0.725000X0.600000X0.725000X-0.600000X0.725000X0*%
%ADD19O,1.700000X1.950000*%
%ADD20R,1.700000X1.700000*%
%ADD21O,1.700000X1.700000*%
%ADD22RoundRect,0.250000X0.725000X-0.600000X0.725000X0.600000X-0.725000X0.600000X-0.725000X-0.600000X0*%
%ADD23O,1.950000X1.700000*%
%ADD24R,2.600000X2.600000*%
%ADD25C,2.600000*%
%ADD26RoundRect,0.249999X-0.450001X0.350001X-0.450001X-0.350001X0.450001X-0.350001X0.450001X0.350001X0*%
%ADD27RoundRect,0.249999X0.450001X-0.350001X0.450001X0.350001X-0.450001X0.350001X-0.450001X-0.350001X0*%
%ADD28RoundRect,0.249999X-0.350001X-0.450001X0.350001X-0.450001X0.350001X0.450001X-0.350001X0.450001X0*%
%ADD29R,2.000000X1.500000*%
%ADD30R,2.000000X3.800000*%
%ADD31R,1.500000X0.900000*%
%ADD32R,0.900000X1.500000*%
%ADD33R,1.050000X1.050000*%
%ADD34RoundRect,0.250000X0.337500X0.475000X-0.337500X0.475000X-0.337500X-0.475000X0.337500X-0.475000X0*%
G04 APERTURE END LIST*
D10*
X162000000Y-91000000D03*
X162000000Y-89000000D03*
D11*
X160000000Y-90937500D03*
X160000000Y-89062500D03*
D12*
X167400000Y-98500000D03*
X174600000Y-98500000D03*
X174600000Y-101500000D03*
X167400000Y-101500000D03*
X167400000Y-92500000D03*
X174600000Y-92500000D03*
X174600000Y-95500000D03*
X167400000Y-95500000D03*
D13*
X132300000Y-87000000D03*
X137700000Y-87000000D03*
D14*
X123000000Y-103720000D03*
D15*
X123000000Y-106260000D03*
X123000000Y-108800000D03*
X123000000Y-111340000D03*
X123000000Y-113880000D03*
X123000000Y-116420000D03*
X123000000Y-118960000D03*
X123000000Y-121500000D03*
X135700000Y-121500000D03*
X135700000Y-118960000D03*
X135700000Y-116420000D03*
X135700000Y-113880000D03*
X135700000Y-111340000D03*
X135700000Y-108800000D03*
X135700000Y-106260000D03*
X135700000Y-103720000D03*
D14*
X123000000Y-125000000D03*
D15*
X123000000Y-127540000D03*
X123000000Y-130080000D03*
X123000000Y-132620000D03*
X123000000Y-135160000D03*
X123000000Y-137700000D03*
X123000000Y-140240000D03*
X123000000Y-142780000D03*
X135700000Y-142780000D03*
X135700000Y-140240000D03*
X135700000Y-137700000D03*
X135700000Y-135160000D03*
X135700000Y-132620000D03*
X135700000Y-130080000D03*
X135700000Y-127540000D03*
X135700000Y-125000000D03*
D16*
X123500000Y-97500000D03*
X125575000Y-97500000D03*
D13*
X126492000Y-119000000D03*
X131892000Y-119000000D03*
X126800000Y-140500000D03*
X132200000Y-140500000D03*
D17*
X139000000Y-95500000D03*
X139000000Y-93425000D03*
X137000000Y-95500000D03*
X137000000Y-93425000D03*
D18*
X159000000Y-122000000D03*
D19*
X161500000Y-122000000D03*
X164000000Y-122000000D03*
X166500000Y-122000000D03*
X169000000Y-122000000D03*
X171500000Y-122000000D03*
D18*
X159000000Y-129000000D03*
D19*
X161500000Y-129000000D03*
X164000000Y-129000000D03*
X166500000Y-129000000D03*
X169000000Y-129000000D03*
X171500000Y-129000000D03*
D18*
X144000000Y-122000000D03*
D19*
X146500000Y-122000000D03*
X149000000Y-122000000D03*
X151500000Y-122000000D03*
D18*
X144000000Y-129000000D03*
D19*
X146500000Y-129000000D03*
X149000000Y-129000000D03*
X151500000Y-129000000D03*
D20*
X162500000Y-99500000D03*
D21*
X162500000Y-96960000D03*
X162500000Y-94420000D03*
D22*
X111500000Y-121500000D03*
D23*
X111500000Y-119000000D03*
X111500000Y-116500000D03*
X111500000Y-114000000D03*
D22*
X111500000Y-136000000D03*
D23*
X111500000Y-133500000D03*
X111500000Y-131000000D03*
X111500000Y-128500000D03*
D24*
X114000000Y-108124000D03*
D25*
X114000000Y-103124000D03*
D18*
X164500000Y-107000000D03*
D19*
X167000000Y-107000000D03*
X169500000Y-107000000D03*
D18*
X164500000Y-114500000D03*
D19*
X167000000Y-114500000D03*
X169500000Y-114500000D03*
D26*
X132500000Y-95500000D03*
X132500000Y-97500000D03*
D27*
X134500000Y-97500000D03*
X134500000Y-95500000D03*
D28*
X152000000Y-114500000D03*
X154000000Y-114500000D03*
D26*
X165000000Y-93500000D03*
X165000000Y-95500000D03*
D29*
X123350000Y-89700000D03*
X123350000Y-92000000D03*
D30*
X129650000Y-92000000D03*
D29*
X123350000Y-94300000D03*
D31*
X140930000Y-94660000D03*
X140930000Y-95930000D03*
X140930000Y-97200000D03*
X140930000Y-98470000D03*
X140930000Y-99740000D03*
X140930000Y-101010000D03*
X140930000Y-102280000D03*
X140930000Y-103550000D03*
X140930000Y-104820000D03*
X140930000Y-106090000D03*
X140930000Y-107360000D03*
X140930000Y-108630000D03*
X140930000Y-109900000D03*
X140930000Y-111170000D03*
D32*
X143960000Y-112420000D03*
X145230000Y-112420000D03*
X146500000Y-112420000D03*
X147770000Y-112420000D03*
X149040000Y-112420000D03*
X150310000Y-112420000D03*
X151580000Y-112420000D03*
X152850000Y-112420000D03*
X154120000Y-112420000D03*
X155390000Y-112420000D03*
D31*
X158430000Y-111170000D03*
X158430000Y-109900000D03*
X158430000Y-108630000D03*
X158430000Y-107360000D03*
X158430000Y-106090000D03*
X158430000Y-104820000D03*
X158430000Y-103550000D03*
X158430000Y-102280000D03*
X158430000Y-101010000D03*
X158430000Y-99740000D03*
X158430000Y-98470000D03*
X158430000Y-97200000D03*
X158430000Y-95930000D03*
X158430000Y-94660000D03*
D33*
X147475000Y-100475000D03*
X150525000Y-100475000D03*
X150525000Y-102000000D03*
X149000000Y-103525000D03*
X149000000Y-102000000D03*
X149000000Y-100475000D03*
X150525000Y-103525000D03*
X147475000Y-102000000D03*
X147475000Y-103525000D03*
D34*
X139000000Y-97500000D03*
X136925000Y-97500000D03*
D24*
X114000000Y-97964000D03*
D25*
X114000000Y-92964000D03*
D28*
X155500000Y-114500000D03*
X157500000Y-114500000D03*
M02*
